<?xml version="1.0" encoding="UTF-8" standalone="no"?>
<!DOCTYPE svg PUBLIC "-//W3C//DTD SVG 1.1//EN" "http://www.w3.org/Graphics/SVG/1.1/DTD/svg11.dtd">
<svg width="100%" height="100%" viewBox="0 0 16 16" version="1.1" xmlns="http://www.w3.org/2000/svg" xmlns:xlink="http://www.w3.org/1999/xlink" xml:space="preserve" xmlns:serif="http://www.serif.com/" style="fill-rule:evenodd;clip-rule:evenodd;stroke-linejoin:round;stroke-miterlimit:2;">
    <g>
        <g transform="matrix(3.375,0,0,3.65806,-4.04762,-6.60645)">
            <ellipse cx="3.57" cy="3.993" rx="2.37" ry="2.187" style="fill:rgb(102,102,102);"/>
        </g>
        <g transform="matrix(3.2168,0,1.09232e-16,3.54375,-3.48289,-6.15)">
            <ellipse cx="3.57" cy="3.993" rx="2.37" ry="2.187" style="fill:rgb(119,119,119);"/>
        </g>
        <g id="bottom" transform="matrix(3.05859,0,1.0386e-16,3.31512,-2.91815,-5.2371)">
            <path d="M1.199,3.993L5.94,3.993C5.94,5.201 4.879,6.18 3.57,6.18C2.261,6.18 1.199,5.201 1.199,3.993Z" style="fill:rgb(51,51,51);"/>
        </g>
        <g id="bottom1" serif:id="bottom" transform="matrix(-3.05859,-3.7457e-16,3.02126e-16,-3.31512,18.9182,21.2371)">
            <path d="M1.199,3.993L5.94,3.993C5.94,5.201 4.879,6.18 3.57,6.18C2.261,6.18 1.199,5.201 1.199,3.993Z" style="fill:rgb(68,68,68);"/>
        </g>
        <g transform="matrix(2.32031,0,7.879e-17,2.51492,-0.282738,-2.04194)">
            <ellipse cx="3.57" cy="3.993" rx="2.37" ry="2.187" style="fill:rgb(34,34,34);"/>
        </g>
    </g>
</svg>
