<?xml version="1.0" encoding="UTF-8" standalone="no"?><!DOCTYPE svg PUBLIC "-//W3C//DTD SVG 1.1//EN" "http://www.w3.org/Graphics/SVG/1.1/DTD/svg11.dtd"><svg width="100%" height="100%" viewBox="0 0 45 380" version="1.1" xmlns="http://www.w3.org/2000/svg" xmlns:xlink="http://www.w3.org/1999/xlink" xml:space="preserve" xmlns:serif="http://www.serif.com/" style="fill-rule:evenodd;clip-rule:evenodd;stroke-linecap:round;stroke-linejoin:round;stroke-miterlimit:1.5;"><g id="background" transform="matrix(0.3,0,0,1,0,0)"><rect x="0" y="0" width="150" height="380" style="fill:rgb(42,42,42);"/></g><g id="not-things-lines" serif:id="not-things lines" transform="matrix(0.00411803,0,0,0.00411803,-22.2673,355.894)"><g transform="matrix(0.978109,0,0,0.959074,7233.25,-101.159)"><path d="M4760,3985L9305.27,3985" style="fill:none;stroke:rgb(148,88,21);stroke-width:313.37px;"/></g><g transform="matrix(0.970692,0,0,0.959074,7272.62,-101.159)"><path d="M4410,2560L-1921.67,2560" style="fill:none;stroke:rgb(148,88,21);stroke-width:314.58px;"/></g><g transform="matrix(0.96045,0,0,0.96045,7473.62,-1632.04)"><path d="M5226.34,4325L5226.34,7541.25" style="fill:none;stroke:rgb(148,88,21);stroke-width:316.04px;"/></g><g transform="matrix(0.959074,0,0,0.960269,7146.63,-1632.54)"><path d="M3964.79,5400L3964.79,2232.68" style="fill:none;stroke:rgb(148,88,21);stroke-width:316.3px;"/></g><g transform="matrix(0.959074,0,0,0.959074,7323.91,-101.095)"><path d="M4235,3297L4935,3297" style="fill:none;stroke:rgb(148,88,21);stroke-width:316.5px;"/></g><g transform="matrix(0.950864,0,0,0.950864,7164.38,-150.825)"><path d="M3330.5,1915.9C3704.78,1541.63 4221.7,1310 4792.3,1310C5933.49,1310 6860,2236.51 6860,3377.7C6860,4518.9 5933.49,5445.4 4792.3,5445.4C3651.1,5445.4 2724.6,4518.9 2724.6,3377.7" style="fill:none;stroke:rgb(148,88,21);stroke-width:319.23px;"/></g></g><g id="output" transform="matrix(1,0,0,1,-101,-10)"><g id="controls-background" serif:id="controls background" transform="matrix(1,0,0,1,97,0)"><g transform="matrix(0.78158,0,0,0.321625,5.85871,244.654)"><path d="M33.447,29.836L33.447,353.193C33.447,357.912 31.87,361.744 29.928,361.744L22.891,361.744C20.949,361.744 19.373,357.912 19.373,353.193L19.373,29.836C19.373,25.117 20.949,21.285 22.891,21.285L29.928,21.285C31.87,21.285 33.447,25.117 33.447,29.836Z" style="fill:rgb(102,102,102);stroke:rgb(102,102,102);stroke-width:1.67px;"/></g><g id="in-8-cutout" transform="matrix(1.1087,0,0,1.1087,-2.88043,-22.7283)"><path d="M34.632,311.368C32.475,309.212 29.55,308 26.5,308C23.45,308 20.525,309.212 18.368,311.368C20.525,309.212 23.45,308 26.5,308C29.55,308 32.475,309.212 34.632,311.368Z" style="fill:none;stroke:rgb(42,42,42);stroke-width:1.8px;stroke-linecap:butt;stroke-miterlimit:2;"/></g><g id="in-7-cutout" transform="matrix(1.1087,0,0,1.1087,-2.88043,-62.7283)"><path d="M34.632,311.368C32.475,309.212 29.55,308 26.5,308C23.45,308 20.525,309.212 18.368,311.368C20.525,309.212 23.45,308 26.5,308C29.55,308 32.475,309.212 34.632,311.368Z" style="fill:none;stroke:rgb(42,42,42);stroke-width:1.8px;stroke-linecap:butt;stroke-miterlimit:2;"/></g><g id="in-8" transform="matrix(1.56522,0,0,1.56522,-14.9783,-168.587)"><path d="M15,319.5C15,325.851 20.149,331 26.5,331C32.847,331 38,325.847 38,319.5C38,313.153 32.847,308 26.5,308C23.45,308 20.525,309.212 18.368,311.368C20.525,309.212 23.45,308 26.5,308C32.847,308 38,313.153 38,319.5C38,325.847 32.847,331 26.5,331C20.149,331 15,325.851 15,319.5Z" style="fill:none;stroke:rgb(102,102,102);stroke-width:1.28px;stroke-linecap:butt;stroke-miterlimit:2;"/></g><g id="in-7" transform="matrix(1.56522,0,0,1.56522,-14.9783,-145.978)"><path d="M15,279.5C15,285.851 20.149,291 26.5,291C32.847,291 38,285.847 38,279.5C38,273.153 32.847,268 26.5,268C23.45,268 20.525,269.212 18.368,271.368C20.525,269.212 23.45,268 26.5,268C32.847,268 38,273.153 38,279.5C38,285.847 32.847,291 26.5,291C20.149,291 15,285.851 15,279.5Z" style="fill:none;stroke:rgb(102,102,102);stroke-width:1.28px;stroke-linecap:butt;stroke-miterlimit:2;"/></g><g id="in-6" transform="matrix(1.56522,0,0,1.56522,-14.9783,-123.37)"><path d="M15,239.5C15,245.851 20.149,251 26.5,251C32.847,251 38,245.847 38,239.5C38,233.153 32.847,228 26.5,228C23.45,228 20.525,229.212 18.368,231.368C20.525,229.212 23.45,228 26.5,228C32.847,228 38,233.153 38,239.5C38,245.847 32.847,251 26.5,251C20.149,251 15,245.851 15,239.5Z" style="fill:none;stroke:rgb(102,102,102);stroke-width:1.28px;stroke-linecap:butt;stroke-miterlimit:2;"/></g><g id="in-81" serif:id="in-8" transform="matrix(1.26087,0,0,1.26087,-6.91304,-71.3478)"><path d="M15,319.5C15,325.851 20.149,331 26.5,331C32.847,331 38,325.847 38,319.5C38,313.153 32.847,308 26.5,308C23.45,308 20.525,309.212 18.368,311.368C20.525,309.212 23.45,308 26.5,308C32.847,308 38,313.153 38,319.5C38,325.847 32.847,331 26.5,331C20.149,331 15,325.851 15,319.5Z" style="fill:none;stroke:rgb(102,102,102);stroke-width:1.59px;stroke-linecap:butt;stroke-miterlimit:2;"/></g><g id="in-71" serif:id="in-7" transform="matrix(1.26087,0,0,1.26087,-6.91304,-60.9131)"><path d="M15,279.5C15,285.851 20.149,291 26.5,291C32.847,291 38,285.847 38,279.5C38,273.153 32.847,268 26.5,268C23.45,268 20.525,269.212 18.368,271.368C20.525,269.212 23.45,268 26.5,268C32.847,268 38,273.153 38,279.5C38,285.847 32.847,291 26.5,291C20.149,291 15,285.851 15,279.5Z" style="fill:none;stroke:rgb(102,102,102);stroke-width:1.59px;stroke-linecap:butt;stroke-miterlimit:2;"/></g><g id="in-61" serif:id="in-6" transform="matrix(1.26087,0,0,1.26087,-6.91304,-50.4783)"><path d="M15,239.5C15,245.851 20.149,251 26.5,251C32.847,251 38,245.847 38,239.5C38,233.153 32.847,228 26.5,228C23.45,228 20.525,229.212 18.368,231.368C20.525,229.212 23.45,228 26.5,228C32.847,228 38,233.153 38,239.5C38,245.847 32.847,251 26.5,251C20.149,251 15,245.851 15,239.5Z" style="fill:none;stroke:rgb(102,102,102);stroke-width:1.59px;stroke-linecap:butt;stroke-miterlimit:2;"/></g></g><g transform="matrix(0.354167,0,0,1,179.531,-2)"><g transform="matrix(5.01548,0,0,0.0323094,-290.663,344.812)"><path d="M33.447,106.4L33.447,276.629C33.447,323.605 32.753,361.744 31.899,361.744L20.921,361.744C20.066,361.744 19.373,323.605 19.373,276.629L19.373,106.4C19.373,59.424 20.066,21.285 20.921,21.285L31.899,21.285C32.753,21.285 33.447,59.424 33.447,106.4Z" style="fill:rgb(102,102,102);stroke:rgb(102,102,102);stroke-width:0.8px;"/></g><g transform="matrix(5.01548,0,0,0.0323094,-290.663,304.812)"><path d="M33.447,106.4L33.447,276.629C33.447,323.605 32.753,361.744 31.899,361.744L20.921,361.744C20.066,361.744 19.373,323.605 19.373,276.629L19.373,106.4C19.373,59.424 20.066,21.285 20.921,21.285L31.899,21.285C32.753,21.285 33.447,59.424 33.447,106.4Z" style="fill:rgb(102,102,102);stroke:rgb(102,102,102);stroke-width:0.8px;"/></g><g transform="matrix(5.01548,0,0,0.0323094,-290.663,264.812)"><path d="M33.447,106.4L33.447,276.629C33.447,323.605 32.753,361.744 31.899,361.744L20.921,361.744C20.066,361.744 19.373,323.605 19.373,276.629L19.373,106.4C19.373,59.424 20.066,21.285 20.921,21.285L31.899,21.285C32.753,21.285 33.447,59.424 33.447,106.4Z" style="fill:rgb(102,102,102);stroke:rgb(102,102,102);stroke-width:0.8px;"/></g></g><g id="text" transform="matrix(1,0,0,1,42.4702,13.5)"><g transform="matrix(1,0,0,1,81.0358,339.348)"><g transform="matrix(11,0,0,11,-9.504,0)"><path d="M0.1,-0L0.1,-0.688L0.42,-0.688C0.465,-0.688 0.501,-0.681 0.528,-0.667C0.555,-0.653 0.574,-0.633 0.585,-0.608C0.596,-0.582 0.602,-0.551 0.602,-0.515C0.602,-0.486 0.598,-0.46 0.59,-0.438C0.582,-0.415 0.57,-0.397 0.553,-0.383C0.536,-0.369 0.513,-0.359 0.485,-0.353L0.485,-0.349C0.519,-0.343 0.545,-0.332 0.563,-0.317C0.581,-0.301 0.593,-0.281 0.6,-0.258C0.607,-0.235 0.61,-0.209 0.61,-0.181C0.61,-0.157 0.607,-0.134 0.602,-0.112C0.596,-0.09 0.586,-0.071 0.573,-0.054C0.559,-0.037 0.539,-0.024 0.514,-0.015C0.489,-0.005 0.456,-0 0.416,-0L0.1,-0ZM0.186,-0.074L0.396,-0.074C0.429,-0.074 0.454,-0.078 0.473,-0.086C0.492,-0.093 0.505,-0.106 0.513,-0.124C0.52,-0.141 0.524,-0.164 0.524,-0.192C0.524,-0.221 0.52,-0.244 0.512,-0.262C0.503,-0.279 0.49,-0.292 0.471,-0.3C0.452,-0.307 0.427,-0.311 0.396,-0.311L0.186,-0.311L0.186,-0.074ZM0.186,-0.386L0.392,-0.386C0.42,-0.386 0.443,-0.39 0.462,-0.398C0.48,-0.406 0.494,-0.419 0.503,-0.436C0.511,-0.452 0.516,-0.474 0.516,-0.499C0.516,-0.527 0.513,-0.549 0.506,-0.566C0.499,-0.583 0.486,-0.595 0.468,-0.603C0.45,-0.61 0.425,-0.614 0.392,-0.614L0.186,-0.614L0.186,-0.386Z" style="fill:rgb(250,250,250);fill-rule:nonzero;"/></g><g transform="matrix(11,0,0,11,-2.002,0)"><rect x="0.059" y="-0.322" width="0.243" height="0.074" style="fill:rgb(250,250,250);fill-rule:nonzero;"/></g><g transform="matrix(11,0,0,11,1.98,0)"><path d="M0.028,-0L0.288,-0.688L0.396,-0.688L0.655,-0L0.566,-0L0.495,-0.188L0.186,-0.188L0.115,-0L0.028,-0ZM0.212,-0.263L0.469,-0.263L0.343,-0.6L0.338,-0.6L0.212,-0.263Z" style="fill:rgb(250,250,250);fill-rule:nonzero;"/></g></g><g transform="matrix(1,0,0,1,81.0358,299.348)"><g transform="matrix(11,0,0,11,-11.561,0)"><path d="M0.028,-0L0.288,-0.688L0.396,-0.688L0.655,-0L0.566,-0L0.495,-0.188L0.186,-0.188L0.115,-0L0.028,-0ZM0.212,-0.263L0.469,-0.263L0.343,-0.6L0.338,-0.6L0.212,-0.263Z" style="fill:rgb(250,250,250);fill-rule:nonzero;"/></g><g transform="matrix(11,0,0,11,-4.037,0)"><path d="M0.363,0.008C0.312,0.008 0.268,0.005 0.233,-0.001C0.198,-0.007 0.169,-0.016 0.148,-0.027C0.126,-0.038 0.109,-0.051 0.098,-0.067C0.086,-0.082 0.078,-0.1 0.074,-0.12C0.07,-0.14 0.068,-0.161 0.068,-0.184C0.068,-0.221 0.073,-0.251 0.083,-0.273C0.092,-0.294 0.106,-0.311 0.125,-0.323C0.144,-0.334 0.166,-0.343 0.193,-0.349L0.193,-0.353C0.153,-0.362 0.123,-0.379 0.104,-0.404C0.084,-0.428 0.074,-0.465 0.074,-0.515C0.074,-0.541 0.078,-0.565 0.086,-0.587C0.093,-0.609 0.107,-0.628 0.128,-0.645C0.148,-0.661 0.177,-0.674 0.215,-0.683C0.253,-0.692 0.302,-0.696 0.362,-0.696C0.383,-0.696 0.407,-0.695 0.433,-0.694C0.459,-0.692 0.485,-0.69 0.51,-0.687C0.535,-0.684 0.558,-0.681 0.578,-0.677L0.578,-0.611C0.558,-0.614 0.536,-0.617 0.513,-0.619C0.49,-0.621 0.467,-0.623 0.445,-0.624C0.423,-0.625 0.403,-0.626 0.386,-0.626C0.335,-0.626 0.295,-0.624 0.264,-0.62C0.233,-0.615 0.21,-0.608 0.195,-0.599C0.18,-0.589 0.17,-0.576 0.165,-0.561C0.16,-0.545 0.157,-0.526 0.157,-0.503C0.157,-0.488 0.158,-0.474 0.161,-0.46C0.163,-0.445 0.169,-0.432 0.178,-0.421C0.187,-0.41 0.201,-0.401 0.22,-0.394C0.239,-0.387 0.265,-0.383 0.298,-0.383L0.393,-0.383L0.393,-0.313L0.298,-0.313C0.265,-0.313 0.238,-0.31 0.219,-0.305C0.199,-0.3 0.184,-0.292 0.174,-0.281C0.164,-0.27 0.158,-0.257 0.155,-0.242C0.152,-0.226 0.151,-0.208 0.151,-0.187C0.151,-0.15 0.158,-0.123 0.173,-0.106C0.188,-0.088 0.211,-0.076 0.242,-0.07C0.273,-0.064 0.314,-0.061 0.363,-0.061C0.382,-0.061 0.402,-0.062 0.421,-0.063C0.44,-0.064 0.46,-0.065 0.479,-0.067C0.498,-0.068 0.516,-0.07 0.533,-0.073L0.502,-0.031L0.502,-0.383L0.698,-0.383L0.698,-0.313L0.582,-0.313L0.582,-0.011C0.564,-0.008 0.543,-0.005 0.518,-0.002C0.493,0.001 0.467,0.003 0.44,0.005C0.413,0.007 0.388,0.008 0.363,0.008Z" style="fill:rgb(250,250,250);fill-rule:nonzero;"/></g><g transform="matrix(11,0,0,11,4.059,0)"><path d="M0.1,-0L0.1,-0.688L0.42,-0.688C0.465,-0.688 0.501,-0.681 0.528,-0.667C0.555,-0.653 0.574,-0.633 0.585,-0.608C0.596,-0.582 0.602,-0.551 0.602,-0.515C0.602,-0.486 0.598,-0.46 0.59,-0.438C0.582,-0.415 0.57,-0.397 0.553,-0.383C0.536,-0.369 0.513,-0.359 0.485,-0.353L0.485,-0.349C0.519,-0.343 0.545,-0.332 0.563,-0.317C0.581,-0.301 0.593,-0.281 0.6,-0.258C0.607,-0.235 0.61,-0.209 0.61,-0.181C0.61,-0.157 0.607,-0.134 0.602,-0.112C0.596,-0.09 0.586,-0.071 0.573,-0.054C0.559,-0.037 0.539,-0.024 0.514,-0.015C0.489,-0.005 0.456,-0 0.416,-0L0.1,-0ZM0.186,-0.074L0.396,-0.074C0.429,-0.074 0.454,-0.078 0.473,-0.086C0.492,-0.093 0.505,-0.106 0.513,-0.124C0.52,-0.141 0.524,-0.164 0.524,-0.192C0.524,-0.221 0.52,-0.244 0.512,-0.262C0.503,-0.279 0.49,-0.292 0.471,-0.3C0.452,-0.307 0.427,-0.311 0.396,-0.311L0.186,-0.311L0.186,-0.074ZM0.186,-0.386L0.392,-0.386C0.42,-0.386 0.443,-0.39 0.462,-0.398C0.48,-0.406 0.494,-0.419 0.503,-0.436C0.511,-0.452 0.516,-0.474 0.516,-0.499C0.516,-0.527 0.513,-0.549 0.506,-0.566C0.499,-0.583 0.486,-0.595 0.468,-0.603C0.45,-0.61 0.425,-0.614 0.392,-0.614L0.186,-0.614L0.186,-0.386Z" style="fill:rgb(250,250,250);fill-rule:nonzero;"/></g></g><g transform="matrix(1,0,0,1,81.0358,259.348)"><g transform="matrix(11,0,0,11,-9.504,0)"><path d="M0.028,-0L0.288,-0.688L0.396,-0.688L0.655,-0L0.566,-0L0.495,-0.188L0.186,-0.188L0.115,-0L0.028,-0ZM0.212,-0.263L0.469,-0.263L0.343,-0.6L0.338,-0.6L0.212,-0.263Z" style="fill:rgb(250,250,250);fill-rule:nonzero;"/></g><g transform="matrix(11,0,0,11,-1.98,0)"><rect x="0.059" y="-0.322" width="0.243" height="0.074" style="fill:rgb(250,250,250);fill-rule:nonzero;"/></g><g transform="matrix(11,0,0,11,2.002,0)"><path d="M0.1,-0L0.1,-0.688L0.42,-0.688C0.465,-0.688 0.501,-0.681 0.528,-0.667C0.555,-0.653 0.574,-0.633 0.585,-0.608C0.596,-0.582 0.602,-0.551 0.602,-0.515C0.602,-0.486 0.598,-0.46 0.59,-0.438C0.582,-0.415 0.57,-0.397 0.553,-0.383C0.536,-0.369 0.513,-0.359 0.485,-0.353L0.485,-0.349C0.519,-0.343 0.545,-0.332 0.563,-0.317C0.581,-0.301 0.593,-0.281 0.6,-0.258C0.607,-0.235 0.61,-0.209 0.61,-0.181C0.61,-0.157 0.607,-0.134 0.602,-0.112C0.596,-0.09 0.586,-0.071 0.573,-0.054C0.559,-0.037 0.539,-0.024 0.514,-0.015C0.489,-0.005 0.456,-0 0.416,-0L0.1,-0ZM0.186,-0.074L0.396,-0.074C0.429,-0.074 0.454,-0.078 0.473,-0.086C0.492,-0.093 0.505,-0.106 0.513,-0.124C0.52,-0.141 0.524,-0.164 0.524,-0.192C0.524,-0.221 0.52,-0.244 0.512,-0.262C0.503,-0.279 0.49,-0.292 0.471,-0.3C0.452,-0.307 0.427,-0.311 0.396,-0.311L0.186,-0.311L0.186,-0.074ZM0.186,-0.386L0.392,-0.386C0.42,-0.386 0.443,-0.39 0.462,-0.398C0.48,-0.406 0.494,-0.419 0.503,-0.436C0.511,-0.452 0.516,-0.474 0.516,-0.499C0.516,-0.527 0.513,-0.549 0.506,-0.566C0.499,-0.583 0.486,-0.595 0.468,-0.603C0.45,-0.61 0.425,-0.614 0.392,-0.614L0.186,-0.614L0.186,-0.386Z" style="fill:rgb(250,250,250);fill-rule:nonzero;"/></g></g></g></g><g id="labels"><g transform="matrix(1,0,0,1,9.70844,191.148)"><g transform="matrix(16,0,0,16,-3.9975,0)"><path d="M0.237,-0.666L0.256,-0.666C0.312,-0.666 0.349,-0.663 0.367,-0.659C0.392,-0.652 0.415,-0.64 0.435,-0.621C0.449,-0.607 0.461,-0.588 0.469,-0.563C0.478,-0.538 0.482,-0.509 0.482,-0.476L0.482,-0.426L0.434,-0.426L0.434,-0.447C0.434,-0.469 0.429,-0.488 0.42,-0.503C0.41,-0.519 0.397,-0.53 0.378,-0.539C0.355,-0.549 0.328,-0.554 0.299,-0.554L0.286,-0.554L0.286,-0.146C0.286,-0.107 0.28,-0.076 0.27,-0.054C0.26,-0.032 0.242,-0.015 0.216,-0.002C0.191,0.011 0.163,0.018 0.133,0.018C0.098,0.018 0.07,0.008 0.049,-0.012C0.028,-0.032 0.018,-0.058 0.018,-0.091C0.018,-0.125 0.03,-0.154 0.055,-0.177C0.08,-0.2 0.112,-0.212 0.152,-0.212C0.178,-0.212 0.206,-0.204 0.237,-0.189L0.237,-0.666Z" style="fill:rgb(250,250,250);fill-rule:nonzero;"/></g></g><g transform="matrix(1,0,0,1,36.2841,191.148)"><g transform="matrix(15,0,0,15,-3.975,15)"><path d="M0.214,-0L0.027,-0.51L0.112,-0.51L0.262,-0.085L0.27,-0.085L0.419,-0.51L0.503,-0.51L0.316,-0L0.214,-0Z" style="fill:rgb(250,250,250);fill-rule:nonzero;"/></g></g><g transform="matrix(1,0,0,1,22.0875,167.647)"><g transform="matrix(15,0,0,15,-8.2248,0)"><path d="M0.227,-0.184L0.227,-0.342L0.07,-0.342L0.07,-0.427L0.227,-0.427L0.227,-0.584L0.312,-0.584L0.312,-0.427L0.47,-0.427L0.47,-0.342L0.312,-0.342L0.312,-0.184L0.227,-0.184ZM0.07,-0L0.07,-0.085L0.47,-0.085L0.47,-0L0.07,-0Z" style="fill:rgb(250,250,250);fill-rule:nonzero;"/></g><g transform="matrix(15,0,0,15,-0.124805,0)"><path d="M0.085,-0.716L0.476,-0.716L0.476,-0.645L0.203,-0.645C0.235,-0.611 0.286,-0.571 0.355,-0.523C0.417,-0.48 0.46,-0.44 0.485,-0.403C0.509,-0.367 0.521,-0.317 0.521,-0.254C0.521,-0.17 0.499,-0.104 0.453,-0.058C0.408,-0.011 0.349,0.012 0.276,0.012C0.196,0.012 0.136,-0.014 0.096,-0.066C0.055,-0.118 0.035,-0.18 0.035,-0.252C0.035,-0.335 0.056,-0.399 0.099,-0.443C0.142,-0.486 0.193,-0.509 0.252,-0.512C0.222,-0.533 0.166,-0.58 0.085,-0.652L0.085,-0.716ZM0.125,-0.251C0.125,-0.196 0.14,-0.15 0.169,-0.114C0.198,-0.078 0.235,-0.061 0.28,-0.061C0.32,-0.061 0.355,-0.076 0.385,-0.106C0.416,-0.137 0.431,-0.185 0.431,-0.251C0.431,-0.313 0.417,-0.36 0.388,-0.394C0.359,-0.427 0.322,-0.444 0.278,-0.444C0.23,-0.444 0.192,-0.425 0.165,-0.387C0.138,-0.349 0.125,-0.304 0.125,-0.251Z" style="fill:rgb(250,250,250);fill-rule:nonzero;"/></g></g></g><g id="input" transform="matrix(1,0,0,1,-4,-10)"><g id="controls-background1" serif:id="controls background"><g transform="matrix(0.78158,0,0,0.21148,5.85871,44.4986)"><path d="M33.447,34.289L33.447,348.74C33.447,355.917 31.87,361.744 29.928,361.744L22.891,361.744C20.949,361.744 19.373,355.917 19.373,348.74L19.373,34.289C19.373,27.112 20.949,21.285 22.891,21.285L29.928,21.285C31.87,21.285 33.447,27.112 33.447,34.289Z" style="fill:rgb(222,222,222);stroke:rgb(222,222,222);stroke-width:1.75px;"/></g><g id="in-2-cutout" transform="matrix(1.1087,0,0,1.1087,-2.88043,-262.728)"><path d="M34.632,311.368C32.475,309.212 29.55,308 26.5,308C23.45,308 20.525,309.212 18.368,311.368C20.525,309.212 23.45,308 26.5,308C29.55,308 32.475,309.212 34.632,311.368Z" style="fill:none;stroke:rgb(42,42,42);stroke-width:1.8px;stroke-linecap:butt;stroke-miterlimit:2;"/></g><g id="in-2" transform="matrix(1.56522,0,0,1.56522,-14.9783,-32.9348)"><path d="M15,79.5C15,85.851 20.149,91 26.5,91C32.847,91 38,85.847 38,79.5C38,73.153 32.847,68 26.5,68C23.45,68 20.525,69.212 18.368,71.368C20.525,69.212 23.45,68 26.5,68C32.847,68 38,73.153 38,79.5C38,85.847 32.847,91 26.5,91C20.149,91 15,85.851 15,79.5Z" style="fill:none;stroke:rgb(222,222,222);stroke-width:1.28px;stroke-linecap:butt;stroke-miterlimit:2;"/></g><g id="in-1" transform="matrix(1.56522,0,0,1.56522,-14.9783,-10.3261)"><path d="M15,39.5C15,45.851 20.149,51 26.5,51C32.847,51 38,45.847 38,39.5C38,33.153 32.847,28 26.5,28C23.45,28 20.525,29.212 18.368,31.368C20.525,29.212 23.45,28 26.5,28C32.847,28 38,33.153 38,39.5C38,45.847 32.847,51 26.5,51C20.149,51 15,45.851 15,39.5Z" style="fill:none;stroke:rgb(222,222,222);stroke-width:1.28px;stroke-linecap:butt;stroke-miterlimit:2;"/></g><g id="in-21" serif:id="in-2" transform="matrix(1.26087,0,0,1.26087,-6.91304,-8.73914)"><path d="M15,79.5C15,85.851 20.149,91 26.5,91C32.847,91 38,85.847 38,79.5C38,73.153 32.847,68 26.5,68C23.45,68 20.525,69.212 18.368,71.368C20.525,69.212 23.45,68 26.5,68C32.847,68 38,73.153 38,79.5C38,85.847 32.847,91 26.5,91C20.149,91 15,85.851 15,79.5Z" style="fill:none;stroke:rgb(222,222,222);stroke-width:1.59px;stroke-linecap:butt;stroke-miterlimit:2;"/></g><g id="in-11" serif:id="in-1" transform="matrix(1.26087,0,0,1.26087,-6.91304,1.69564)"><path d="M15,39.5C15,45.851 20.149,51 26.5,51C32.847,51 38,45.847 38,39.5C38,33.153 32.847,28 26.5,28C23.45,28 20.525,29.212 18.368,31.368C20.525,29.212 23.45,28 26.5,28C32.847,28 38,33.153 38,39.5C38,45.847 32.847,51 26.5,51C20.149,51 15,45.851 15,39.5Z" style="fill:none;stroke:rgb(222,222,222);stroke-width:1.59px;stroke-linecap:butt;stroke-miterlimit:2;"/></g></g><g id="text1" serif:id="text" transform="matrix(1,0,0,1,42.4702,14.5)"><g transform="matrix(1,0,0,1,-15.9642,99.848)"><g transform="matrix(11,0,0,11,-3.751,0)"><path d="M0.1,-0L0.1,-0.688L0.42,-0.688C0.465,-0.688 0.501,-0.681 0.528,-0.667C0.555,-0.653 0.574,-0.633 0.585,-0.608C0.596,-0.582 0.602,-0.551 0.602,-0.515C0.602,-0.486 0.598,-0.46 0.59,-0.438C0.582,-0.415 0.57,-0.397 0.553,-0.383C0.536,-0.369 0.513,-0.359 0.485,-0.353L0.485,-0.349C0.519,-0.343 0.545,-0.332 0.563,-0.317C0.581,-0.301 0.593,-0.281 0.6,-0.258C0.607,-0.235 0.61,-0.209 0.61,-0.181C0.61,-0.157 0.607,-0.134 0.602,-0.112C0.596,-0.09 0.586,-0.071 0.573,-0.054C0.559,-0.037 0.539,-0.024 0.514,-0.015C0.489,-0.005 0.456,-0 0.416,-0L0.1,-0ZM0.186,-0.074L0.396,-0.074C0.429,-0.074 0.454,-0.078 0.473,-0.086C0.492,-0.093 0.505,-0.106 0.513,-0.124C0.52,-0.141 0.524,-0.164 0.524,-0.192C0.524,-0.221 0.52,-0.244 0.512,-0.262C0.503,-0.279 0.49,-0.292 0.471,-0.3C0.452,-0.307 0.427,-0.311 0.396,-0.311L0.186,-0.311L0.186,-0.074ZM0.186,-0.386L0.392,-0.386C0.42,-0.386 0.443,-0.39 0.462,-0.398C0.48,-0.406 0.494,-0.419 0.503,-0.436C0.511,-0.452 0.516,-0.474 0.516,-0.499C0.516,-0.527 0.513,-0.549 0.506,-0.566C0.499,-0.583 0.486,-0.595 0.468,-0.603C0.45,-0.61 0.425,-0.614 0.392,-0.614L0.186,-0.614L0.186,-0.386Z" style="fill:rgb(13,13,13);fill-rule:nonzero;"/></g></g><g transform="matrix(1,0,0,1,-15.9642,59.848)"><g transform="matrix(11,0,0,11,-3.762,0)"><path d="M0.028,-0L0.288,-0.688L0.396,-0.688L0.655,-0L0.566,-0L0.495,-0.188L0.186,-0.188L0.115,-0L0.028,-0ZM0.212,-0.263L0.469,-0.263L0.343,-0.6L0.338,-0.6L0.212,-0.263Z" style="fill:rgb(13,13,13);fill-rule:nonzero;"/></g></g></g></g><g id="Separators"><g transform="matrix(0.567102,0,0,1,-19.1941,-139.957)"><path d="M47.071,261.457L99.972,261.457" style="fill:none;stroke:rgb(136,136,136);stroke-width:1.23px;"/></g><g transform="matrix(0.567102,0,0,1,-19.1941,-46.4571)"><path d="M47.071,261.457L99.972,261.457" style="fill:none;stroke:rgb(136,136,136);stroke-width:1.23px;"/></g><g transform="matrix(0.567102,0,0,1,-19.1941,-87.4571)"><path d="M47.071,261.457L99.972,261.457" style="fill:none;stroke:rgb(136,136,136);stroke-width:1.23px;"/></g></g><g transform="matrix(0.00402788,0,0,0.0039495,7.51945,-1.22874)"><path d="M-1866.85,3985L9305.27,3985" style="fill:none;stroke:rgb(148,88,21);stroke-width:313.37px;"/></g><g transform="matrix(1,0,0,1,-37.6726,4.90775)"><g transform="matrix(11.75,0,0,11.75,40.2731,10.2272)"><path d="M0.034,-0L0.181,-0.688L0.493,-0.688C0.542,-0.688 0.581,-0.683 0.608,-0.672C0.635,-0.661 0.655,-0.644 0.666,-0.623C0.677,-0.602 0.682,-0.576 0.682,-0.546C0.682,-0.533 0.681,-0.518 0.679,-0.503C0.676,-0.488 0.673,-0.472 0.67,-0.455C0.663,-0.424 0.655,-0.395 0.646,-0.368C0.636,-0.341 0.623,-0.317 0.606,-0.298C0.588,-0.278 0.565,-0.263 0.536,-0.252C0.506,-0.241 0.468,-0.236 0.422,-0.236L0.228,-0.236L0.177,-0L0.034,-0ZM0.251,-0.347L0.385,-0.347C0.412,-0.347 0.434,-0.349 0.451,-0.353C0.468,-0.357 0.481,-0.363 0.491,-0.372C0.5,-0.381 0.508,-0.393 0.513,-0.408C0.518,-0.423 0.523,-0.441 0.527,-0.462C0.53,-0.475 0.532,-0.486 0.534,-0.496C0.535,-0.506 0.536,-0.515 0.536,-0.523C0.536,-0.536 0.533,-0.547 0.527,-0.555C0.521,-0.563 0.511,-0.569 0.496,-0.573C0.481,-0.576 0.461,-0.578 0.435,-0.578L0.3,-0.578L0.251,-0.347Z" style="fill:rgb(250,250,250);fill-rule:nonzero;"/></g><g transform="matrix(11.75,0,0,11.75,48.0516,10.2272)"><path d="M0.054,-0.231L0.077,-0.339L0.347,-0.339L0.324,-0.231L0.054,-0.231Z" style="fill:rgb(250,250,250);fill-rule:nonzero;"/></g><g transform="matrix(11.75,0,0,11.75,52.4931,10.2272)"><path d="M0.3,0.008C0.271,0.008 0.241,0.007 0.209,0.006C0.176,0.005 0.145,0.003 0.114,0.001C0.083,-0.002 0.056,-0.004 0.031,-0.007L0.054,-0.117C0.078,-0.115 0.103,-0.113 0.129,-0.111C0.155,-0.109 0.18,-0.107 0.205,-0.106C0.229,-0.105 0.25,-0.104 0.267,-0.104C0.289,-0.104 0.308,-0.105 0.324,-0.106C0.339,-0.107 0.353,-0.108 0.364,-0.111C0.375,-0.113 0.385,-0.116 0.394,-0.12C0.401,-0.124 0.407,-0.13 0.412,-0.137C0.417,-0.143 0.421,-0.151 0.425,-0.16C0.429,-0.169 0.432,-0.178 0.435,-0.188C0.437,-0.197 0.439,-0.207 0.44,-0.216C0.44,-0.225 0.441,-0.232 0.441,-0.238C0.441,-0.248 0.439,-0.256 0.434,-0.261C0.429,-0.266 0.421,-0.27 0.409,-0.273C0.397,-0.276 0.38,-0.278 0.358,-0.281L0.206,-0.303C0.166,-0.308 0.139,-0.321 0.124,-0.341C0.109,-0.36 0.102,-0.387 0.102,-0.421C0.102,-0.433 0.103,-0.447 0.105,-0.462C0.107,-0.476 0.11,-0.492 0.113,-0.508C0.122,-0.549 0.135,-0.583 0.152,-0.608C0.169,-0.632 0.189,-0.651 0.214,-0.664C0.238,-0.677 0.266,-0.685 0.299,-0.69C0.331,-0.694 0.367,-0.696 0.406,-0.696C0.435,-0.696 0.464,-0.695 0.494,-0.694C0.524,-0.693 0.552,-0.691 0.579,-0.688C0.606,-0.685 0.628,-0.682 0.645,-0.678L0.623,-0.571C0.604,-0.574 0.583,-0.576 0.56,-0.578C0.536,-0.58 0.512,-0.582 0.487,-0.583C0.462,-0.584 0.439,-0.584 0.417,-0.584C0.396,-0.584 0.379,-0.583 0.364,-0.582C0.349,-0.581 0.336,-0.579 0.325,-0.576C0.314,-0.573 0.305,-0.57 0.297,-0.566C0.289,-0.561 0.282,-0.555 0.276,-0.547C0.27,-0.539 0.265,-0.53 0.262,-0.52C0.259,-0.51 0.256,-0.5 0.255,-0.49C0.253,-0.48 0.252,-0.47 0.252,-0.46C0.252,-0.447 0.257,-0.438 0.267,-0.434C0.276,-0.429 0.293,-0.425 0.318,-0.422L0.465,-0.402C0.488,-0.399 0.51,-0.394 0.529,-0.387C0.548,-0.38 0.564,-0.369 0.575,-0.353C0.586,-0.337 0.592,-0.313 0.592,-0.28C0.592,-0.272 0.592,-0.264 0.591,-0.255C0.59,-0.245 0.589,-0.236 0.588,-0.225C0.586,-0.214 0.584,-0.203 0.581,-0.192C0.571,-0.145 0.558,-0.109 0.541,-0.082C0.524,-0.055 0.503,-0.035 0.48,-0.022C0.457,-0.009 0.43,-0.001 0.4,0.003C0.37,0.006 0.337,0.008 0.3,0.008Z" style="fill:rgb(250,250,250);fill-rule:nonzero;"/></g><g transform="matrix(11.75,0,0,11.75,60.0366,10.2272)"><path d="M0.034,-0L0.181,-0.688L0.406,-0.688C0.479,-0.688 0.536,-0.684 0.577,-0.675C0.618,-0.666 0.646,-0.651 0.663,-0.629C0.68,-0.606 0.688,-0.574 0.688,-0.533C0.688,-0.509 0.686,-0.481 0.681,-0.45C0.676,-0.418 0.669,-0.381 0.66,-0.34C0.648,-0.283 0.637,-0.235 0.626,-0.195C0.615,-0.155 0.603,-0.122 0.588,-0.097C0.573,-0.071 0.553,-0.051 0.53,-0.037C0.506,-0.023 0.475,-0.013 0.438,-0.008C0.401,-0.003 0.354,-0 0.297,-0L0.034,-0ZM0.202,-0.112L0.288,-0.112C0.323,-0.112 0.351,-0.113 0.374,-0.115C0.396,-0.116 0.414,-0.121 0.429,-0.129C0.443,-0.136 0.455,-0.148 0.464,-0.165C0.473,-0.181 0.482,-0.204 0.49,-0.233C0.498,-0.262 0.507,-0.299 0.517,-0.344C0.524,-0.381 0.53,-0.412 0.535,-0.439C0.54,-0.465 0.542,-0.487 0.542,-0.504C0.542,-0.521 0.539,-0.535 0.534,-0.545C0.529,-0.555 0.52,-0.562 0.508,-0.567C0.495,-0.571 0.479,-0.574 0.46,-0.575C0.44,-0.576 0.415,-0.576 0.386,-0.576L0.3,-0.576L0.202,-0.112Z" style="fill:rgb(250,250,250);fill-rule:nonzero;"/></g></g></svg>