<?xml version="1.0" encoding="UTF-8" standalone="no"?>
<!DOCTYPE svg PUBLIC "-//W3C//DTD SVG 1.1//EN" "http://www.w3.org/Graphics/SVG/1.1/DTD/svg11.dtd">
<svg width="100%" height="100%" viewBox="0 0 45 380" version="1.1" xmlns="http://www.w3.org/2000/svg" xmlns:xlink="http://www.w3.org/1999/xlink" xml:space="preserve" xmlns:serif="http://www.serif.com/" style="fill-rule:evenodd;clip-rule:evenodd;stroke-linecap:round;stroke-linejoin:round;stroke-miterlimit:1.5;">
    <g id="background" transform="matrix(0.3,0,0,1,0,0)">
        <rect x="0" y="0" width="150" height="380" style="fill:#d6d6d6;"/>
    </g>
    <g id="not-things-lines" serif:id="not-things lines" transform="matrix(0.00411803,0,0,0.00411803,-22.2673,355.894)">
        <g>
            <g transform="matrix(1.57305,0,0,0.959074,4401.35,-101.159)">
                <path d="M4760,3985L7586.22,3985" style="fill:none;stroke:#ff8600;stroke-width:233px;"/>
            </g>
            <g transform="matrix(0.970692,0,0,0.959074,7272.62,-101.159)">
                <path d="M4410,2560L-1921.67,2560" style="fill:none;stroke:#ff8600;stroke-width:314.58px;"/>
            </g>
            <g transform="matrix(0.96045,0,0,0.96045,7473.62,-1632.04)">
                <path d="M5226.34,4325L5226.34,7541.25" style="fill:none;stroke:#ff8600;stroke-width:316.04px;"/>
            </g>
            <g transform="matrix(0.959074,0,0,0.960269,7146.63,-1632.54)">
                <path d="M3964.79,5400L3964.79,2232.68" style="fill:none;stroke:#ff8600;stroke-width:316.3px;"/>
            </g>
            <g transform="matrix(0.959074,0,0,0.959074,7323.91,-101.095)">
                <path d="M4235,3297L4935,3297" style="fill:none;stroke:#ff8600;stroke-width:316.5px;"/>
            </g>
            <g transform="matrix(0.950864,0,0,0.950864,7164.38,-150.825)">
                <path d="M3330.5,1915.9C3704.78,1541.63 4221.7,1310 4792.3,1310C5933.49,1310 6860,2236.51 6860,3377.7C6860,4518.9 5933.49,5445.4 4792.3,5445.4C3651.1,5445.4 2724.6,4518.9 2724.6,3377.7" style="fill:none;stroke:#ff8600;stroke-width:319.23px;"/>
            </g>
        </g>
    </g>
    <g id="Random-Triggers" serif:id="Random Triggers" transform="matrix(1,0,0,1,1,2.01802)">
        <g id="MOVE" transform="matrix(1,0,0,1,-45.0019,38.9818)">
            <g id="in-6" transform="matrix(1.26087,0,0,1.26087,33.0894,-10.4779)">
                <path d="M15,239.5C15,245.851 20.149,251 26.5,251C32.847,251 38,245.847 38,239.5C38,233.153 32.847,228 26.5,228C23.45,228 20.525,229.212 18.368,231.368C20.525,229.212 23.45,228 26.5,228C32.847,228 38,233.153 38,239.5C38,245.847 32.847,251 26.5,251C20.149,251 15,245.851 15,239.5Z" style="fill:none;stroke:#755c57;stroke-width:1.59px;stroke-linecap:butt;stroke-miterlimit:2;"/>
            </g>
            <g id="in-61" serif:id="in-6" transform="matrix(1.56522,0,0,1.56522,25.0242,-83.3692)">
                <path d="M15,239.5C15,245.851 20.149,251 26.5,251C32.847,251 38,245.847 38,239.5C38,233.153 32.847,228 26.5,228C23.45,228 20.525,229.212 18.368,231.368C20.525,229.212 23.45,228 26.5,228C32.847,228 38,233.153 38,239.5C38,245.847 32.847,251 26.5,251C20.149,251 15,245.851 15,239.5Z" style="fill:none;stroke:#755c57;stroke-width:1.28px;stroke-linecap:butt;stroke-miterlimit:2;"/>
            </g>
            <g id="out-move-led" transform="matrix(0.304348,0,0,0.304348,70.936,266.978)">
                <circle cx="26.5" cy="39.5" r="11.5" style="fill:#755c57;stroke:#755c57;stroke-width:3.29px;stroke-linecap:butt;stroke-miterlimit:2;"/>
            </g>
        </g>
        <g transform="matrix(1,0,0,1,-1.76295,160.181)">
            <g id="input" transform="matrix(1,0,0,1,-10.7371,25.3004)">
                <g id="in-1" transform="matrix(1.56522,0,0,1.56522,-7.47826,41.6739)">
                    <path d="M15,39.5C15,45.851 20.149,51 26.5,51C32.847,51 38,45.847 38,39.5C38,33.153 32.847,28 26.5,28C23.45,28 20.525,29.212 18.368,31.368C20.525,29.212 23.45,28 26.5,28C32.847,28 38,33.153 38,39.5C38,45.847 32.847,51 26.5,51C20.149,51 15,45.851 15,39.5Z" style="fill:none;stroke:#fcf3e8;stroke-width:1.28px;stroke-linecap:butt;stroke-miterlimit:2;"/>
                </g>
                <g id="in-11" serif:id="in-1" transform="matrix(1.26087,0,0,1.26087,0.586957,53.6956)">
                    <path d="M15,39.5C15,45.851 20.149,51 26.5,51C32.847,51 38,45.847 38,39.5C38,33.153 32.847,28 26.5,28C23.45,28 20.525,29.212 18.368,31.368C20.525,29.212 23.45,28 26.5,28C32.847,28 38,33.153 38,39.5C38,45.847 32.847,51 26.5,51C20.149,51 15,45.851 15,39.5Z" style="fill:none;stroke:#fcf3e8;stroke-width:1.59px;stroke-linecap:butt;stroke-miterlimit:2;"/>
                </g>
            </g>
            <g id="text" transform="matrix(1,0,0,1,-57.7618,-109.199)">
                <g transform="matrix(2.48684,0,0,0.0323094,15.353,249.312)">
                    <path d="M33.447,106.4L33.447,276.629C33.447,323.605 32.951,361.744 32.341,361.744L20.478,361.744C19.868,361.744 19.373,323.605 19.373,276.629L19.373,106.4C19.373,59.424 19.868,21.285 20.478,21.285L32.341,21.285C32.951,21.285 33.447,59.424 33.447,106.4Z" style="fill:#fcf3e8;stroke:#fcf3e8;stroke-width:0.57px;"/>
                </g>
                <g transform="matrix(1,0,0,1,80.8898,258.94)">
                    <g transform="matrix(10,0,0,10,-13.995,0)">
                        <path d="M0.324,0.008C0.299,0.008 0.271,0.007 0.241,0.006C0.21,0.005 0.181,0.003 0.152,0.001C0.123,-0.002 0.097,-0.004 0.073,-0.007L0.073,-0.12C0.098,-0.118 0.123,-0.116 0.149,-0.114C0.174,-0.112 0.199,-0.111 0.222,-0.11C0.245,-0.109 0.265,-0.108 0.282,-0.108C0.316,-0.108 0.342,-0.11 0.361,-0.113C0.38,-0.116 0.394,-0.12 0.403,-0.126C0.41,-0.131 0.415,-0.137 0.418,-0.144C0.421,-0.15 0.422,-0.158 0.423,-0.167C0.424,-0.175 0.424,-0.186 0.424,-0.197C0.424,-0.212 0.423,-0.225 0.422,-0.235C0.42,-0.245 0.417,-0.253 0.413,-0.259C0.409,-0.264 0.403,-0.268 0.394,-0.271C0.385,-0.274 0.373,-0.276 0.359,-0.277L0.205,-0.296C0.174,-0.3 0.149,-0.307 0.13,-0.317C0.11,-0.327 0.094,-0.34 0.083,-0.357C0.072,-0.374 0.064,-0.393 0.06,-0.416C0.055,-0.439 0.053,-0.464 0.053,-0.493C0.053,-0.538 0.059,-0.574 0.072,-0.601C0.085,-0.628 0.102,-0.648 0.126,-0.662C0.149,-0.676 0.176,-0.685 0.207,-0.69C0.238,-0.694 0.272,-0.696 0.309,-0.696C0.336,-0.696 0.363,-0.695 0.391,-0.694C0.419,-0.692 0.445,-0.69 0.47,-0.687C0.495,-0.684 0.515,-0.681 0.532,-0.677L0.532,-0.567C0.515,-0.57 0.496,-0.572 0.474,-0.574C0.452,-0.576 0.429,-0.578 0.405,-0.579C0.381,-0.58 0.358,-0.58 0.337,-0.58C0.306,-0.58 0.281,-0.579 0.263,-0.577C0.244,-0.574 0.23,-0.57 0.22,-0.565C0.209,-0.558 0.202,-0.55 0.2,-0.539C0.197,-0.528 0.196,-0.515 0.196,-0.499C0.196,-0.479 0.197,-0.464 0.2,-0.454C0.203,-0.443 0.209,-0.436 0.219,-0.432C0.229,-0.428 0.245,-0.425 0.266,-0.422L0.42,-0.404C0.439,-0.402 0.456,-0.399 0.472,-0.394C0.488,-0.389 0.502,-0.382 0.515,-0.372C0.528,-0.362 0.538,-0.348 0.546,-0.33C0.551,-0.321 0.554,-0.31 0.557,-0.298C0.56,-0.285 0.562,-0.271 0.564,-0.256C0.565,-0.241 0.566,-0.224 0.566,-0.205C0.566,-0.166 0.562,-0.134 0.555,-0.108C0.547,-0.082 0.536,-0.061 0.522,-0.046C0.508,-0.031 0.491,-0.019 0.471,-0.011C0.45,-0.003 0.428,0.002 0.403,0.005C0.378,0.007 0.352,0.008 0.324,0.008Z" style="fill-rule:nonzero;"/>
                    </g>
                    <g transform="matrix(10,0,0,10,-7.795,0)">
                        <path d="M0.082,-0L0.082,-0.688L0.224,-0.688L0.224,-0.407L0.498,-0.407L0.498,-0.688L0.64,-0.688L0.64,-0L0.498,-0L0.498,-0.285L0.224,-0.285L0.224,-0L0.082,-0Z" style="fill-rule:nonzero;"/>
                    </g>
                    <g transform="matrix(10,0,0,10,-0.575,0)">
                        <rect x="0.082" y="-0.688" width="0.142" height="0.688" style="fill-rule:nonzero;"/>
                    </g>
                    <g transform="matrix(10,0,0,10,2.485,0)">
                        <path d="M0.082,-0L0.082,-0.688L0.532,-0.688L0.532,-0.572L0.224,-0.572L0.224,-0.386L0.495,-0.386L0.495,-0.27L0.224,-0.27L0.224,-0L0.082,-0Z" style="fill-rule:nonzero;"/>
                    </g>
                    <g transform="matrix(10,0,0,10,8.175,0)">
                        <path d="M0.22,-0L0.22,-0.568L0.021,-0.568L0.021,-0.688L0.561,-0.688L0.561,-0.568L0.362,-0.568L0.362,-0L0.22,-0Z" style="fill-rule:nonzero;"/>
                    </g>
                </g>
            </g>
        </g>
        <g id="JUMP" transform="matrix(1,0,0,1,-5.00062,-45.5181)">
            <g id="in-7" transform="matrix(1.26087,0,0,1.26087,-6.91304,-60.9131)">
                <path d="M15,279.5C15,285.851 20.149,291 26.5,291C32.847,291 38,285.847 38,279.5C38,273.153 32.847,268 26.5,268C23.45,268 20.525,269.212 18.368,271.368C20.525,269.212 23.45,268 26.5,268C32.847,268 38,273.153 38,279.5C38,285.847 32.847,291 26.5,291C20.149,291 15,285.851 15,279.5Z" style="fill:none;stroke:#755c57;stroke-width:1.59px;stroke-linecap:butt;stroke-miterlimit:2;"/>
            </g>
            <g id="in-71" serif:id="in-7" transform="matrix(1.56522,0,0,1.56522,-14.9783,-145.978)">
                <path d="M15,279.5C15,285.851 20.149,291 26.5,291C32.847,291 38,285.847 38,279.5C38,273.153 32.847,268 26.5,268C23.45,268 20.525,269.212 18.368,271.368C20.525,269.212 23.45,268 26.5,268C32.847,268 38,273.153 38,279.5C38,285.847 32.847,291 26.5,291C20.149,291 15,285.851 15,279.5Z" style="fill:none;stroke:#755c57;stroke-width:1.28px;stroke-linecap:butt;stroke-miterlimit:2;"/>
            </g>
            <g id="out-jump-led" transform="matrix(0.304348,0,0,0.304348,30.936,266.978)">
                <circle cx="26.5" cy="39.5" r="11.5" style="fill:#755c57;stroke:#755c57;stroke-width:3.29px;stroke-linecap:butt;stroke-miterlimit:2;"/>
            </g>
        </g>
        <g id="JUMP1" serif:id="JUMP" transform="matrix(1,0,0,1,-1.76295,75.6816)">
            <g id="input1" serif:id="input" transform="matrix(1,0,0,1,-10.7371,25.3004)">
                <g id="in-12" serif:id="in-1" transform="matrix(1.56522,0,0,1.56522,-7.47826,41.6739)">
                    <path d="M15,39.5C15,45.851 20.149,51 26.5,51C32.847,51 38,45.847 38,39.5C38,33.153 32.847,28 26.5,28C23.45,28 20.525,29.212 18.368,31.368C20.525,29.212 23.45,28 26.5,28C32.847,28 38,33.153 38,39.5C38,45.847 32.847,51 26.5,51C20.149,51 15,45.851 15,39.5Z" style="fill:none;stroke:#fcf3e8;stroke-width:1.28px;stroke-linecap:butt;stroke-miterlimit:2;"/>
                </g>
                <g id="in-13" serif:id="in-1" transform="matrix(1.26087,0,0,1.26087,0.586957,53.6956)">
                    <path d="M15,39.5C15,45.851 20.149,51 26.5,51C32.847,51 38,45.847 38,39.5C38,33.153 32.847,28 26.5,28C23.45,28 20.525,29.212 18.368,31.368C20.525,29.212 23.45,28 26.5,28C32.847,28 38,33.153 38,39.5C38,45.847 32.847,51 26.5,51C20.149,51 15,45.851 15,39.5Z" style="fill:none;stroke:#fcf3e8;stroke-width:1.59px;stroke-linecap:butt;stroke-miterlimit:2;"/>
                </g>
            </g>
            <g id="text1" serif:id="text" transform="matrix(1,0,0,1,-57.7618,-109.199)">
                <g transform="matrix(2.48684,0,0,0.0323094,15.353,249.312)">
                    <path d="M33.447,106.4L33.447,276.629C33.447,323.605 32.951,361.744 32.341,361.744L20.478,361.744C19.868,361.744 19.373,323.605 19.373,276.629L19.373,106.4C19.373,59.424 19.868,21.285 20.478,21.285L32.341,21.285C32.951,21.285 33.447,59.424 33.447,106.4Z" style="fill:#fcf3e8;stroke:#fcf3e8;stroke-width:0.57px;"/>
                </g>
                <g transform="matrix(1,0,0,1,81.0898,258.94)">
                    <g transform="matrix(10,0,0,10,-13.165,0)">
                        <path d="M0.027,-0L0.027,-0.109C0.062,-0.11 0.09,-0.112 0.109,-0.115C0.128,-0.118 0.142,-0.124 0.151,-0.133C0.159,-0.142 0.164,-0.157 0.166,-0.178C0.168,-0.198 0.169,-0.225 0.169,-0.26L0.169,-0.688L0.311,-0.688L0.311,-0.298C0.311,-0.241 0.31,-0.194 0.307,-0.157C0.304,-0.12 0.298,-0.09 0.289,-0.069C0.28,-0.048 0.265,-0.032 0.245,-0.023C0.224,-0.013 0.197,-0.007 0.162,-0.004C0.127,-0.001 0.082,-0 0.027,-0Z" style="fill-rule:nonzero;"/>
                    </g>
                    <g transform="matrix(10,0,0,10,-9.275,0)">
                        <path d="M0.349,0.008C0.3,0.008 0.26,0.005 0.227,-0.001C0.194,-0.007 0.168,-0.017 0.148,-0.03C0.128,-0.043 0.113,-0.062 0.103,-0.086C0.092,-0.11 0.085,-0.14 0.082,-0.177C0.078,-0.213 0.076,-0.256 0.076,-0.307L0.076,-0.688L0.218,-0.688L0.218,-0.271C0.218,-0.236 0.219,-0.207 0.222,-0.186C0.224,-0.164 0.229,-0.147 0.237,-0.136C0.244,-0.125 0.257,-0.117 0.275,-0.114C0.293,-0.11 0.318,-0.108 0.349,-0.108C0.38,-0.108 0.405,-0.11 0.423,-0.114C0.44,-0.117 0.453,-0.125 0.461,-0.136C0.469,-0.147 0.474,-0.164 0.476,-0.186C0.478,-0.207 0.479,-0.236 0.479,-0.271L0.479,-0.688L0.621,-0.688L0.621,-0.307C0.621,-0.256 0.619,-0.213 0.616,-0.177C0.612,-0.14 0.605,-0.11 0.595,-0.086C0.585,-0.062 0.57,-0.043 0.55,-0.03C0.53,-0.017 0.504,-0.007 0.471,-0.001C0.438,0.005 0.398,0.008 0.349,0.008Z" style="fill-rule:nonzero;"/>
                    </g>
                    <g transform="matrix(10,0,0,10,-2.295,0)">
                        <path d="M0.082,-0L0.082,-0.688L0.277,-0.688L0.447,-0.234L0.453,-0.234L0.622,-0.688L0.816,-0.688L0.816,-0L0.679,-0L0.679,-0.479L0.674,-0.479L0.496,-0L0.398,-0L0.22,-0.479L0.215,-0.479L0.215,-0L0.082,-0Z" style="fill-rule:nonzero;"/>
                    </g>
                    <g transform="matrix(10,0,0,10,6.695,0)">
                        <path d="M0.082,-0L0.082,-0.688L0.401,-0.688C0.444,-0.688 0.479,-0.683 0.506,-0.672C0.533,-0.661 0.553,-0.646 0.568,-0.627C0.583,-0.607 0.593,-0.583 0.599,-0.555C0.604,-0.527 0.607,-0.495 0.607,-0.46C0.607,-0.427 0.604,-0.397 0.6,-0.37C0.595,-0.342 0.585,-0.318 0.57,-0.297C0.555,-0.276 0.534,-0.26 0.507,-0.249C0.479,-0.238 0.442,-0.232 0.397,-0.232L0.224,-0.232L0.224,-0L0.082,-0ZM0.224,-0.348L0.341,-0.348C0.37,-0.348 0.392,-0.349 0.409,-0.353C0.426,-0.356 0.438,-0.361 0.446,-0.369C0.454,-0.377 0.459,-0.388 0.462,-0.403C0.464,-0.418 0.465,-0.437 0.465,-0.46C0.465,-0.483 0.464,-0.502 0.462,-0.517C0.459,-0.532 0.454,-0.543 0.447,-0.552C0.439,-0.56 0.427,-0.566 0.411,-0.569C0.395,-0.572 0.373,-0.573 0.345,-0.573L0.224,-0.573L0.224,-0.348Z" style="fill-rule:nonzero;"/>
                    </g>
                </g>
            </g>
        </g>
        <g transform="matrix(1,0,0,1,21.665,170.902)">
            <g transform="matrix(10,0,0,10,-13.84,0)">
                <path d="M0.082,-0L0.082,-0.688L0.411,-0.688C0.456,-0.688 0.492,-0.683 0.519,-0.673C0.546,-0.663 0.566,-0.649 0.58,-0.63C0.594,-0.611 0.604,-0.588 0.609,-0.561C0.614,-0.534 0.616,-0.503 0.616,-0.47C0.616,-0.447 0.614,-0.422 0.61,-0.395C0.606,-0.368 0.597,-0.344 0.584,-0.321C0.57,-0.298 0.548,-0.282 0.519,-0.271L0.629,-0L0.479,-0L0.375,-0.276L0.41,-0.257C0.405,-0.255 0.4,-0.254 0.394,-0.253C0.387,-0.252 0.38,-0.252 0.372,-0.252L0.224,-0.252L0.224,-0L0.082,-0ZM0.224,-0.367L0.354,-0.367C0.382,-0.367 0.404,-0.369 0.42,-0.372C0.436,-0.375 0.448,-0.381 0.456,-0.389C0.464,-0.396 0.469,-0.407 0.471,-0.42C0.473,-0.432 0.474,-0.449 0.474,-0.47C0.474,-0.491 0.473,-0.508 0.471,-0.521C0.469,-0.534 0.464,-0.545 0.457,-0.552C0.45,-0.559 0.438,-0.565 0.422,-0.568C0.405,-0.571 0.383,-0.573 0.355,-0.573L0.224,-0.573L0.224,-0.367Z" style="fill-rule:nonzero;"/>
            </g>
            <g transform="matrix(10,0,0,10,-7.08,0)">
                <path d="M0.015,-0L0.248,-0.688L0.438,-0.688L0.671,-0L0.526,-0L0.475,-0.152L0.206,-0.152L0.157,-0L0.015,-0ZM0.242,-0.267L0.438,-0.267L0.343,-0.559L0.337,-0.559L0.242,-0.267Z" style="fill-rule:nonzero;"/>
            </g>
            <g transform="matrix(10,0,0,10,-0.22,0)">
                <path d="M0.082,-0L0.082,-0.688L0.229,-0.688L0.5,-0.264L0.505,-0.264L0.505,-0.688L0.641,-0.688L0.641,-0L0.506,-0L0.223,-0.447L0.218,-0.447L0.218,-0L0.082,-0Z" style="fill-rule:nonzero;"/>
            </g>
            <g transform="matrix(10,0,0,10,7.01,0)">
                <path d="M0.082,-0L0.082,-0.688L0.316,-0.688C0.375,-0.688 0.424,-0.685 0.462,-0.679C0.499,-0.673 0.529,-0.663 0.551,-0.648C0.572,-0.632 0.588,-0.612 0.598,-0.586C0.607,-0.559 0.613,-0.526 0.616,-0.487C0.619,-0.448 0.62,-0.4 0.62,-0.344C0.62,-0.288 0.619,-0.24 0.616,-0.201C0.613,-0.162 0.607,-0.129 0.598,-0.103C0.588,-0.076 0.572,-0.056 0.551,-0.041C0.529,-0.026 0.499,-0.015 0.462,-0.009C0.424,-0.003 0.375,-0 0.316,-0L0.082,-0ZM0.224,-0.116L0.308,-0.116C0.341,-0.116 0.368,-0.117 0.389,-0.119C0.409,-0.12 0.426,-0.124 0.439,-0.131C0.451,-0.138 0.46,-0.149 0.465,-0.166C0.47,-0.182 0.474,-0.204 0.476,-0.233C0.477,-0.262 0.478,-0.299 0.478,-0.344C0.478,-0.389 0.477,-0.426 0.476,-0.455C0.474,-0.484 0.47,-0.506 0.465,-0.522C0.459,-0.538 0.45,-0.55 0.438,-0.557C0.425,-0.564 0.409,-0.568 0.388,-0.57C0.367,-0.571 0.341,-0.572 0.308,-0.572L0.224,-0.572L0.224,-0.116Z" style="fill-rule:nonzero;"/>
            </g>
            <g transform="matrix(10,0,0,10,-14.265,10)">
                <path d="M0.22,-0L0.22,-0.568L0.021,-0.568L0.021,-0.688L0.561,-0.688L0.561,-0.568L0.362,-0.568L0.362,-0L0.22,-0Z" style="fill-rule:nonzero;"/>
            </g>
            <g transform="matrix(10,0,0,10,-8.445,10)">
                <path d="M0.082,-0L0.082,-0.688L0.411,-0.688C0.456,-0.688 0.492,-0.683 0.519,-0.673C0.546,-0.663 0.566,-0.649 0.58,-0.63C0.594,-0.611 0.604,-0.588 0.609,-0.561C0.614,-0.534 0.616,-0.503 0.616,-0.47C0.616,-0.447 0.614,-0.422 0.61,-0.395C0.606,-0.368 0.597,-0.344 0.584,-0.321C0.57,-0.298 0.548,-0.282 0.519,-0.271L0.629,-0L0.479,-0L0.375,-0.276L0.41,-0.257C0.405,-0.255 0.4,-0.254 0.394,-0.253C0.387,-0.252 0.38,-0.252 0.372,-0.252L0.224,-0.252L0.224,-0L0.082,-0ZM0.224,-0.367L0.354,-0.367C0.382,-0.367 0.404,-0.369 0.42,-0.372C0.436,-0.375 0.448,-0.381 0.456,-0.389C0.464,-0.396 0.469,-0.407 0.471,-0.42C0.473,-0.432 0.474,-0.449 0.474,-0.47C0.474,-0.491 0.473,-0.508 0.471,-0.521C0.469,-0.534 0.464,-0.545 0.457,-0.552C0.45,-0.559 0.438,-0.565 0.422,-0.568C0.405,-0.571 0.383,-0.573 0.355,-0.573L0.224,-0.573L0.224,-0.367Z" style="fill-rule:nonzero;"/>
            </g>
            <g transform="matrix(10,0,0,10,-1.685,10)">
                <rect x="0.082" y="-0.688" width="0.142" height="0.688" style="fill-rule:nonzero;"/>
            </g>
            <g transform="matrix(10,0,0,10,1.375,10)">
                <path d="M0.364,0.008C0.314,0.008 0.272,0.005 0.237,-0.002C0.202,-0.009 0.172,-0.02 0.15,-0.036C0.127,-0.051 0.109,-0.072 0.096,-0.099C0.083,-0.126 0.075,-0.159 0.07,-0.2C0.065,-0.24 0.062,-0.288 0.062,-0.344C0.062,-0.4 0.065,-0.448 0.07,-0.489C0.075,-0.529 0.084,-0.562 0.097,-0.589C0.11,-0.616 0.128,-0.637 0.151,-0.653C0.173,-0.668 0.202,-0.679 0.237,-0.686C0.272,-0.693 0.314,-0.696 0.364,-0.696C0.386,-0.696 0.411,-0.695 0.438,-0.693C0.464,-0.691 0.491,-0.689 0.518,-0.686C0.545,-0.683 0.569,-0.679 0.592,-0.674L0.592,-0.565C0.569,-0.568 0.546,-0.571 0.524,-0.573C0.502,-0.575 0.482,-0.577 0.464,-0.578C0.446,-0.579 0.431,-0.58 0.419,-0.58C0.381,-0.58 0.349,-0.579 0.324,-0.578C0.299,-0.576 0.278,-0.571 0.262,-0.564C0.246,-0.557 0.234,-0.545 0.226,-0.528C0.217,-0.511 0.211,-0.488 0.208,-0.459C0.205,-0.429 0.203,-0.391 0.203,-0.344C0.203,-0.303 0.204,-0.268 0.207,-0.24C0.209,-0.212 0.213,-0.189 0.22,-0.171C0.226,-0.153 0.235,-0.139 0.248,-0.13C0.26,-0.12 0.276,-0.113 0.296,-0.11C0.315,-0.107 0.34,-0.105 0.369,-0.105C0.38,-0.105 0.391,-0.105 0.403,-0.106C0.414,-0.106 0.425,-0.106 0.436,-0.107C0.446,-0.108 0.454,-0.108 0.461,-0.109L0.461,-0.279L0.346,-0.279L0.346,-0.391L0.595,-0.391L0.595,-0.014C0.572,-0.009 0.547,-0.006 0.519,-0.003C0.491,0.001 0.464,0.003 0.437,0.005C0.41,0.007 0.386,0.008 0.364,0.008Z" style="fill-rule:nonzero;"/>
            </g>
            <g transform="matrix(10,0,0,10,8.065,10)">
                <path d="M0.324,0.008C0.299,0.008 0.271,0.007 0.241,0.006C0.21,0.005 0.181,0.003 0.152,0.001C0.123,-0.002 0.097,-0.004 0.073,-0.007L0.073,-0.12C0.098,-0.118 0.123,-0.116 0.149,-0.114C0.174,-0.112 0.199,-0.111 0.222,-0.11C0.245,-0.109 0.265,-0.108 0.282,-0.108C0.316,-0.108 0.342,-0.11 0.361,-0.113C0.38,-0.116 0.394,-0.12 0.403,-0.126C0.41,-0.131 0.415,-0.137 0.418,-0.144C0.421,-0.15 0.422,-0.158 0.423,-0.167C0.424,-0.175 0.424,-0.186 0.424,-0.197C0.424,-0.212 0.423,-0.225 0.422,-0.235C0.42,-0.245 0.417,-0.253 0.413,-0.259C0.409,-0.264 0.403,-0.268 0.394,-0.271C0.385,-0.274 0.373,-0.276 0.359,-0.277L0.205,-0.296C0.174,-0.3 0.149,-0.307 0.13,-0.317C0.11,-0.327 0.094,-0.34 0.083,-0.357C0.072,-0.374 0.064,-0.393 0.06,-0.416C0.055,-0.439 0.053,-0.464 0.053,-0.493C0.053,-0.538 0.059,-0.574 0.072,-0.601C0.085,-0.628 0.102,-0.648 0.126,-0.662C0.149,-0.676 0.176,-0.685 0.207,-0.69C0.238,-0.694 0.272,-0.696 0.309,-0.696C0.336,-0.696 0.363,-0.695 0.391,-0.694C0.419,-0.692 0.445,-0.69 0.47,-0.687C0.495,-0.684 0.515,-0.681 0.532,-0.677L0.532,-0.567C0.515,-0.57 0.496,-0.572 0.474,-0.574C0.452,-0.576 0.429,-0.578 0.405,-0.579C0.381,-0.58 0.358,-0.58 0.337,-0.58C0.306,-0.58 0.281,-0.579 0.263,-0.577C0.244,-0.574 0.23,-0.57 0.22,-0.565C0.209,-0.558 0.202,-0.55 0.2,-0.539C0.197,-0.528 0.196,-0.515 0.196,-0.499C0.196,-0.479 0.197,-0.464 0.2,-0.454C0.203,-0.443 0.209,-0.436 0.219,-0.432C0.229,-0.428 0.245,-0.425 0.266,-0.422L0.42,-0.404C0.439,-0.402 0.456,-0.399 0.472,-0.394C0.488,-0.389 0.502,-0.382 0.515,-0.372C0.528,-0.362 0.538,-0.348 0.546,-0.33C0.551,-0.321 0.554,-0.31 0.557,-0.298C0.56,-0.285 0.562,-0.271 0.564,-0.256C0.565,-0.241 0.566,-0.224 0.566,-0.205C0.566,-0.166 0.562,-0.134 0.555,-0.108C0.547,-0.082 0.536,-0.061 0.522,-0.046C0.508,-0.031 0.491,-0.019 0.471,-0.011C0.45,-0.003 0.428,0.002 0.403,0.005C0.378,0.007 0.352,0.008 0.324,0.008Z" style="fill-rule:nonzero;"/>
            </g>
        </g>
    </g>
    <g transform="matrix(2.19279,0,0,5.84268,-103.217,-1376.38)">
        <path d="M48.895,261.469L65.769,261.457" style="fill:none;stroke:#888;stroke-width:0.23px;"/>
    </g>
    <g id="Force-Guide" serif:id="Force Guide" transform="matrix(1,0,0,1,1,-131.743)">
        <g id="stay" transform="matrix(1,0,0,1,-131.5,140.243)">
            <g id="GATE">
                <g id="stay1" serif:id="stay">
                    <g id="input2" serif:id="input" transform="matrix(1,0,0,1,119,1.5)">
                        <g id="in-14" serif:id="in-1" transform="matrix(1.56522,0,0,1.56522,-7.47826,41.6739)">
                            <path d="M15,39.5C15,45.851 20.149,51 26.5,51C32.847,51 38,45.847 38,39.5C38,33.153 32.847,28 26.5,28C23.45,28 20.525,29.212 18.368,31.368C20.525,29.212 23.45,28 26.5,28C32.847,28 38,33.153 38,39.5C38,45.847 32.847,51 26.5,51C20.149,51 15,45.851 15,39.5Z" style="fill:none;stroke:#fcf3e8;stroke-width:1.28px;stroke-linecap:butt;stroke-miterlimit:2;"/>
                        </g>
                        <g id="in-15" serif:id="in-1" transform="matrix(1.26087,0,0,1.26087,0.586957,53.6956)">
                            <path d="M15,39.5C15,45.851 20.149,51 26.5,51C32.847,51 38,45.847 38,39.5C38,33.153 32.847,28 26.5,28C23.45,28 20.525,29.212 18.368,31.368C20.525,29.212 23.45,28 26.5,28C32.847,28 38,33.153 38,39.5C38,45.847 32.847,51 26.5,51C20.149,51 15,45.851 15,39.5Z" style="fill:none;stroke:#fcf3e8;stroke-width:1.59px;stroke-linecap:butt;stroke-miterlimit:2;"/>
                        </g>
                    </g>
                    <g id="text2" serif:id="text" transform="matrix(1,0,0,1,71.9752,-132.999)">
                        <g transform="matrix(2.48684,0,0,0.0323094,15.353,249.312)">
                            <path d="M33.447,106.4L33.447,276.629C33.447,323.605 32.951,361.744 32.341,361.744L20.478,361.744C19.868,361.744 19.373,323.605 19.373,276.629L19.373,106.4C19.373,59.424 19.868,21.285 20.478,21.285L32.341,21.285C32.951,21.285 33.447,59.424 33.447,106.4Z" style="fill:#fcf3e8;stroke:#fcf3e8;stroke-width:0.57px;"/>
                        </g>
                        <g transform="matrix(1,0,0,1,80.8048,258.94)">
                            <g transform="matrix(10,0,0,10,-6.17,0)">
                                <path d="M0.349,0.008C0.298,0.008 0.256,0.005 0.222,-0.002C0.188,-0.009 0.16,-0.02 0.139,-0.036C0.118,-0.052 0.101,-0.073 0.091,-0.1C0.08,-0.127 0.072,-0.16 0.068,-0.2C0.064,-0.24 0.062,-0.288 0.062,-0.344C0.062,-0.4 0.064,-0.448 0.068,-0.488C0.072,-0.528 0.08,-0.561 0.091,-0.588C0.101,-0.615 0.118,-0.636 0.139,-0.652C0.16,-0.668 0.188,-0.679 0.222,-0.686C0.256,-0.693 0.298,-0.696 0.349,-0.696C0.368,-0.696 0.389,-0.695 0.41,-0.694C0.431,-0.693 0.451,-0.691 0.47,-0.688C0.489,-0.685 0.506,-0.682 0.519,-0.679L0.519,-0.57C0.501,-0.572 0.484,-0.574 0.467,-0.576C0.45,-0.577 0.435,-0.578 0.421,-0.579C0.406,-0.58 0.394,-0.58 0.384,-0.58C0.35,-0.58 0.322,-0.579 0.3,-0.576C0.278,-0.573 0.261,-0.568 0.248,-0.56C0.235,-0.551 0.225,-0.539 0.219,-0.522C0.213,-0.505 0.209,-0.482 0.207,-0.453C0.205,-0.424 0.204,-0.388 0.204,-0.344C0.204,-0.301 0.205,-0.265 0.207,-0.236C0.209,-0.207 0.213,-0.184 0.219,-0.167C0.225,-0.15 0.235,-0.137 0.248,-0.129C0.261,-0.12 0.278,-0.115 0.3,-0.112C0.322,-0.109 0.35,-0.108 0.384,-0.108C0.406,-0.108 0.43,-0.109 0.456,-0.111C0.482,-0.113 0.504,-0.115 0.523,-0.118L0.523,-0.007C0.508,-0.004 0.491,-0.002 0.471,0.001C0.451,0.003 0.431,0.005 0.41,0.006C0.389,0.007 0.368,0.008 0.349,0.008Z" style="fill-rule:nonzero;"/>
                            </g>
                            <g transform="matrix(10,0,0,10,-0.46,0)">
                                <path d="M0.237,-0L0.017,-0.688L0.163,-0.688L0.331,-0.151L0.336,-0.151L0.502,-0.688L0.645,-0.688L0.425,-0L0.237,-0Z" style="fill-rule:nonzero;"/>
                            </g>
                        </g>
                    </g>
                </g>
            </g>
        </g>
        <g id="CV" transform="matrix(1,0,0,1,-1.76295,71.4426)">
            <g id="input3" serif:id="input" transform="matrix(1,0,0,1,-10.7371,25.3004)">
                <g id="in-16" serif:id="in-1" transform="matrix(1.56522,0,0,1.56522,-7.47826,41.6739)">
                    <path d="M15,39.5C15,45.851 20.149,51 26.5,51C32.847,51 38,45.847 38,39.5C38,33.153 32.847,28 26.5,28C23.45,28 20.525,29.212 18.368,31.368C20.525,29.212 23.45,28 26.5,28C32.847,28 38,33.153 38,39.5C38,45.847 32.847,51 26.5,51C20.149,51 15,45.851 15,39.5Z" style="fill:none;stroke:#fcf3e8;stroke-width:1.28px;stroke-linecap:butt;stroke-miterlimit:2;"/>
                </g>
                <g id="in-17" serif:id="in-1" transform="matrix(1.26087,0,0,1.26087,0.586957,53.6956)">
                    <path d="M15,39.5C15,45.851 20.149,51 26.5,51C32.847,51 38,45.847 38,39.5C38,33.153 32.847,28 26.5,28C23.45,28 20.525,29.212 18.368,31.368C20.525,29.212 23.45,28 26.5,28C32.847,28 38,33.153 38,39.5C38,45.847 32.847,51 26.5,51C20.149,51 15,45.851 15,39.5Z" style="fill:none;stroke:#fcf3e8;stroke-width:1.59px;stroke-linecap:butt;stroke-miterlimit:2;"/>
                </g>
            </g>
            <g id="text3" serif:id="text" transform="matrix(1,0,0,1,-57.7618,-109.199)">
                <g transform="matrix(2.48684,0,0,0.0323094,15.353,249.312)">
                    <path d="M33.447,106.4L33.447,276.629C33.447,323.605 32.951,361.744 32.341,361.744L20.478,361.744C19.868,361.744 19.373,323.605 19.373,276.629L19.373,106.4C19.373,59.424 19.868,21.285 20.478,21.285L32.341,21.285C32.951,21.285 33.447,59.424 33.447,106.4Z" style="fill:#fcf3e8;stroke:#fcf3e8;stroke-width:0.57px;"/>
                </g>
                <g transform="matrix(1,0,0,1,80.9898,258.94)">
                    <g transform="matrix(10,0,0,10,-12.495,0)">
                        <path d="M0.364,0.008C0.314,0.008 0.272,0.005 0.237,-0.002C0.202,-0.009 0.172,-0.02 0.15,-0.036C0.127,-0.051 0.109,-0.072 0.096,-0.099C0.083,-0.126 0.075,-0.159 0.07,-0.2C0.065,-0.24 0.062,-0.288 0.062,-0.344C0.062,-0.4 0.065,-0.448 0.07,-0.489C0.075,-0.529 0.084,-0.562 0.097,-0.589C0.11,-0.616 0.128,-0.637 0.151,-0.653C0.173,-0.668 0.202,-0.679 0.237,-0.686C0.272,-0.693 0.314,-0.696 0.364,-0.696C0.386,-0.696 0.411,-0.695 0.438,-0.693C0.464,-0.691 0.491,-0.689 0.518,-0.686C0.545,-0.683 0.569,-0.679 0.592,-0.674L0.592,-0.565C0.569,-0.568 0.546,-0.571 0.524,-0.573C0.502,-0.575 0.482,-0.577 0.464,-0.578C0.446,-0.579 0.431,-0.58 0.419,-0.58C0.381,-0.58 0.349,-0.579 0.324,-0.578C0.299,-0.576 0.278,-0.571 0.262,-0.564C0.246,-0.557 0.234,-0.545 0.226,-0.528C0.217,-0.511 0.211,-0.488 0.208,-0.459C0.205,-0.429 0.203,-0.391 0.203,-0.344C0.203,-0.303 0.204,-0.268 0.207,-0.24C0.209,-0.212 0.213,-0.189 0.22,-0.171C0.226,-0.153 0.235,-0.139 0.248,-0.13C0.26,-0.12 0.276,-0.113 0.296,-0.11C0.315,-0.107 0.34,-0.105 0.369,-0.105C0.38,-0.105 0.391,-0.105 0.403,-0.106C0.414,-0.106 0.425,-0.106 0.436,-0.107C0.446,-0.108 0.454,-0.108 0.461,-0.109L0.461,-0.279L0.346,-0.279L0.346,-0.391L0.595,-0.391L0.595,-0.014C0.572,-0.009 0.547,-0.006 0.519,-0.003C0.491,0.001 0.464,0.003 0.437,0.005C0.41,0.007 0.386,0.008 0.364,0.008Z" style="fill-rule:nonzero;"/>
                    </g>
                    <g transform="matrix(10,0,0,10,-5.805,0)">
                        <path d="M0.015,-0L0.248,-0.688L0.438,-0.688L0.671,-0L0.526,-0L0.475,-0.152L0.206,-0.152L0.157,-0L0.015,-0ZM0.242,-0.267L0.438,-0.267L0.343,-0.559L0.337,-0.559L0.242,-0.267Z" style="fill-rule:nonzero;"/>
                    </g>
                    <g transform="matrix(10,0,0,10,0.605,0)">
                        <path d="M0.22,-0L0.22,-0.568L0.021,-0.568L0.021,-0.688L0.561,-0.688L0.561,-0.568L0.362,-0.568L0.362,-0L0.22,-0Z" style="fill-rule:nonzero;"/>
                    </g>
                    <g transform="matrix(10,0,0,10,6.425,0)">
                        <path d="M0.082,-0L0.082,-0.688L0.552,-0.688L0.552,-0.572L0.224,-0.572L0.224,-0.405L0.505,-0.405L0.505,-0.289L0.224,-0.289L0.224,-0.116L0.552,-0.116L0.552,-0L0.082,-0Z" style="fill-rule:nonzero;"/>
                    </g>
                </g>
            </g>
        </g>
        <g transform="matrix(1,0,0,1,21.365,167.663)">
            <g transform="matrix(10,0,0,10,-15.65,0)">
                <path d="M0.082,-0L0.082,-0.688L0.532,-0.688L0.532,-0.572L0.224,-0.572L0.224,-0.386L0.495,-0.386L0.495,-0.27L0.224,-0.27L0.224,-0L0.082,-0Z" style="fill-rule:nonzero;"/>
            </g>
            <g transform="matrix(10,0,0,10,-9.96,0)">
                <path d="M0.353,0.008C0.297,0.008 0.251,0.005 0.215,-0.002C0.178,-0.009 0.15,-0.02 0.129,-0.036C0.108,-0.051 0.093,-0.073 0.084,-0.1C0.075,-0.127 0.069,-0.16 0.066,-0.2C0.063,-0.24 0.062,-0.288 0.062,-0.344C0.062,-0.4 0.063,-0.448 0.066,-0.488C0.069,-0.528 0.075,-0.562 0.084,-0.589C0.093,-0.616 0.108,-0.637 0.129,-0.653C0.15,-0.668 0.178,-0.679 0.215,-0.686C0.251,-0.693 0.297,-0.696 0.353,-0.696C0.409,-0.696 0.455,-0.693 0.492,-0.686C0.528,-0.679 0.556,-0.668 0.577,-0.653C0.598,-0.637 0.613,-0.616 0.623,-0.589C0.632,-0.562 0.638,-0.528 0.641,-0.488C0.644,-0.448 0.645,-0.4 0.645,-0.344C0.645,-0.288 0.644,-0.24 0.641,-0.2C0.638,-0.16 0.632,-0.127 0.623,-0.1C0.613,-0.073 0.598,-0.051 0.577,-0.036C0.556,-0.02 0.528,-0.009 0.492,-0.002C0.455,0.005 0.409,0.008 0.353,0.008ZM0.353,-0.108C0.382,-0.108 0.406,-0.109 0.425,-0.111C0.443,-0.113 0.457,-0.118 0.468,-0.125C0.479,-0.132 0.487,-0.144 0.492,-0.161C0.497,-0.178 0.5,-0.201 0.501,-0.23C0.502,-0.259 0.503,-0.297 0.503,-0.344C0.503,-0.391 0.502,-0.429 0.501,-0.458C0.5,-0.487 0.497,-0.51 0.492,-0.527C0.487,-0.544 0.479,-0.556 0.468,-0.563C0.457,-0.57 0.443,-0.575 0.425,-0.577C0.406,-0.579 0.382,-0.58 0.353,-0.58C0.324,-0.58 0.301,-0.579 0.283,-0.577C0.264,-0.575 0.25,-0.57 0.239,-0.563C0.228,-0.556 0.221,-0.544 0.216,-0.527C0.211,-0.51 0.207,-0.487 0.206,-0.458C0.205,-0.429 0.204,-0.391 0.204,-0.344C0.204,-0.297 0.205,-0.259 0.206,-0.23C0.207,-0.201 0.211,-0.178 0.216,-0.161C0.221,-0.144 0.228,-0.132 0.239,-0.125C0.25,-0.118 0.264,-0.113 0.283,-0.111C0.301,-0.109 0.324,-0.108 0.353,-0.108Z" style="fill-rule:nonzero;"/>
            </g>
            <g transform="matrix(10,0,0,10,-2.89,0)">
                <path d="M0.082,-0L0.082,-0.688L0.411,-0.688C0.456,-0.688 0.492,-0.683 0.519,-0.673C0.546,-0.663 0.566,-0.649 0.58,-0.63C0.594,-0.611 0.604,-0.588 0.609,-0.561C0.614,-0.534 0.616,-0.503 0.616,-0.47C0.616,-0.447 0.614,-0.422 0.61,-0.395C0.606,-0.368 0.597,-0.344 0.584,-0.321C0.57,-0.298 0.548,-0.282 0.519,-0.271L0.629,-0L0.479,-0L0.375,-0.276L0.41,-0.257C0.405,-0.255 0.4,-0.254 0.394,-0.253C0.387,-0.252 0.38,-0.252 0.372,-0.252L0.224,-0.252L0.224,-0L0.082,-0ZM0.224,-0.367L0.354,-0.367C0.382,-0.367 0.404,-0.369 0.42,-0.372C0.436,-0.375 0.448,-0.381 0.456,-0.389C0.464,-0.396 0.469,-0.407 0.471,-0.42C0.473,-0.432 0.474,-0.449 0.474,-0.47C0.474,-0.491 0.473,-0.508 0.471,-0.521C0.469,-0.534 0.464,-0.545 0.457,-0.552C0.45,-0.559 0.438,-0.565 0.422,-0.568C0.405,-0.571 0.383,-0.573 0.355,-0.573L0.224,-0.573L0.224,-0.367Z" style="fill-rule:nonzero;"/>
            </g>
            <g transform="matrix(10,0,0,10,3.87,0)">
                <path d="M0.349,0.008C0.298,0.008 0.256,0.005 0.222,-0.002C0.188,-0.009 0.16,-0.02 0.139,-0.036C0.118,-0.052 0.101,-0.073 0.091,-0.1C0.08,-0.127 0.072,-0.16 0.068,-0.2C0.064,-0.24 0.062,-0.288 0.062,-0.344C0.062,-0.4 0.064,-0.448 0.068,-0.488C0.072,-0.528 0.08,-0.561 0.091,-0.588C0.101,-0.615 0.118,-0.636 0.139,-0.652C0.16,-0.668 0.188,-0.679 0.222,-0.686C0.256,-0.693 0.298,-0.696 0.349,-0.696C0.368,-0.696 0.389,-0.695 0.41,-0.694C0.431,-0.693 0.451,-0.691 0.47,-0.688C0.489,-0.685 0.506,-0.682 0.519,-0.679L0.519,-0.57C0.501,-0.572 0.484,-0.574 0.467,-0.576C0.45,-0.577 0.435,-0.578 0.421,-0.579C0.406,-0.58 0.394,-0.58 0.384,-0.58C0.35,-0.58 0.322,-0.579 0.3,-0.576C0.278,-0.573 0.261,-0.568 0.248,-0.56C0.235,-0.551 0.225,-0.539 0.219,-0.522C0.213,-0.505 0.209,-0.482 0.207,-0.453C0.205,-0.424 0.204,-0.388 0.204,-0.344C0.204,-0.301 0.205,-0.265 0.207,-0.236C0.209,-0.207 0.213,-0.184 0.219,-0.167C0.225,-0.15 0.235,-0.137 0.248,-0.129C0.261,-0.12 0.278,-0.115 0.3,-0.112C0.322,-0.109 0.35,-0.108 0.384,-0.108C0.406,-0.108 0.43,-0.109 0.456,-0.111C0.482,-0.113 0.504,-0.115 0.523,-0.118L0.523,-0.007C0.508,-0.004 0.491,-0.002 0.471,0.001C0.451,0.003 0.431,0.005 0.41,0.006C0.389,0.007 0.368,0.008 0.349,0.008Z" style="fill-rule:nonzero;"/>
            </g>
            <g transform="matrix(10,0,0,10,9.58,0)">
                <path d="M0.082,-0L0.082,-0.688L0.552,-0.688L0.552,-0.572L0.224,-0.572L0.224,-0.405L0.505,-0.405L0.505,-0.289L0.224,-0.289L0.224,-0.116L0.552,-0.116L0.552,-0L0.082,-0Z" style="fill-rule:nonzero;"/>
            </g>
            <g transform="matrix(10,0,0,10,-14.815,10)">
                <path d="M0.364,0.008C0.314,0.008 0.272,0.005 0.237,-0.002C0.202,-0.009 0.172,-0.02 0.15,-0.036C0.127,-0.051 0.109,-0.072 0.096,-0.099C0.083,-0.126 0.075,-0.159 0.07,-0.2C0.065,-0.24 0.062,-0.288 0.062,-0.344C0.062,-0.4 0.065,-0.448 0.07,-0.489C0.075,-0.529 0.084,-0.562 0.097,-0.589C0.11,-0.616 0.128,-0.637 0.151,-0.653C0.173,-0.668 0.202,-0.679 0.237,-0.686C0.272,-0.693 0.314,-0.696 0.364,-0.696C0.386,-0.696 0.411,-0.695 0.438,-0.693C0.464,-0.691 0.491,-0.689 0.518,-0.686C0.545,-0.683 0.569,-0.679 0.592,-0.674L0.592,-0.565C0.569,-0.568 0.546,-0.571 0.524,-0.573C0.502,-0.575 0.482,-0.577 0.464,-0.578C0.446,-0.579 0.431,-0.58 0.419,-0.58C0.381,-0.58 0.349,-0.579 0.324,-0.578C0.299,-0.576 0.278,-0.571 0.262,-0.564C0.246,-0.557 0.234,-0.545 0.226,-0.528C0.217,-0.511 0.211,-0.488 0.208,-0.459C0.205,-0.429 0.203,-0.391 0.203,-0.344C0.203,-0.303 0.204,-0.268 0.207,-0.24C0.209,-0.212 0.213,-0.189 0.22,-0.171C0.226,-0.153 0.235,-0.139 0.248,-0.13C0.26,-0.12 0.276,-0.113 0.296,-0.11C0.315,-0.107 0.34,-0.105 0.369,-0.105C0.38,-0.105 0.391,-0.105 0.403,-0.106C0.414,-0.106 0.425,-0.106 0.436,-0.107C0.446,-0.108 0.454,-0.108 0.461,-0.109L0.461,-0.279L0.346,-0.279L0.346,-0.391L0.595,-0.391L0.595,-0.014C0.572,-0.009 0.547,-0.006 0.519,-0.003C0.491,0.001 0.464,0.003 0.437,0.005C0.41,0.007 0.386,0.008 0.364,0.008Z" style="fill-rule:nonzero;"/>
            </g>
            <g transform="matrix(10,0,0,10,-8.125,10)">
                <path d="M0.349,0.008C0.3,0.008 0.26,0.005 0.227,-0.001C0.194,-0.007 0.168,-0.017 0.148,-0.03C0.128,-0.043 0.113,-0.062 0.103,-0.086C0.092,-0.11 0.085,-0.14 0.082,-0.177C0.078,-0.213 0.076,-0.256 0.076,-0.307L0.076,-0.688L0.218,-0.688L0.218,-0.271C0.218,-0.236 0.219,-0.207 0.222,-0.186C0.224,-0.164 0.229,-0.147 0.237,-0.136C0.244,-0.125 0.257,-0.117 0.275,-0.114C0.293,-0.11 0.318,-0.108 0.349,-0.108C0.38,-0.108 0.405,-0.11 0.423,-0.114C0.44,-0.117 0.453,-0.125 0.461,-0.136C0.469,-0.147 0.474,-0.164 0.476,-0.186C0.478,-0.207 0.479,-0.236 0.479,-0.271L0.479,-0.688L0.621,-0.688L0.621,-0.307C0.621,-0.256 0.619,-0.213 0.616,-0.177C0.612,-0.14 0.605,-0.11 0.595,-0.086C0.585,-0.062 0.57,-0.043 0.55,-0.03C0.53,-0.017 0.504,-0.007 0.471,-0.001C0.438,0.005 0.398,0.008 0.349,0.008Z" style="fill-rule:nonzero;"/>
            </g>
            <g transform="matrix(10,0,0,10,-1.145,10)">
                <rect x="0.082" y="-0.688" width="0.142" height="0.688" style="fill-rule:nonzero;"/>
            </g>
            <g transform="matrix(10,0,0,10,1.915,10)">
                <path d="M0.082,-0L0.082,-0.688L0.316,-0.688C0.375,-0.688 0.424,-0.685 0.462,-0.679C0.499,-0.673 0.529,-0.663 0.551,-0.648C0.572,-0.632 0.588,-0.612 0.598,-0.586C0.607,-0.559 0.613,-0.526 0.616,-0.487C0.619,-0.448 0.62,-0.4 0.62,-0.344C0.62,-0.288 0.619,-0.24 0.616,-0.201C0.613,-0.162 0.607,-0.129 0.598,-0.103C0.588,-0.076 0.572,-0.056 0.551,-0.041C0.529,-0.026 0.499,-0.015 0.462,-0.009C0.424,-0.003 0.375,-0 0.316,-0L0.082,-0ZM0.224,-0.116L0.308,-0.116C0.341,-0.116 0.368,-0.117 0.389,-0.119C0.409,-0.12 0.426,-0.124 0.439,-0.131C0.451,-0.138 0.46,-0.149 0.465,-0.166C0.47,-0.182 0.474,-0.204 0.476,-0.233C0.477,-0.262 0.478,-0.299 0.478,-0.344C0.478,-0.389 0.477,-0.426 0.476,-0.455C0.474,-0.484 0.47,-0.506 0.465,-0.522C0.459,-0.538 0.45,-0.55 0.438,-0.557C0.425,-0.564 0.409,-0.568 0.388,-0.57C0.367,-0.571 0.341,-0.572 0.308,-0.572L0.224,-0.572L0.224,-0.116Z" style="fill-rule:nonzero;"/>
            </g>
            <g transform="matrix(10,0,0,10,8.745,10)">
                <path d="M0.082,-0L0.082,-0.688L0.552,-0.688L0.552,-0.572L0.224,-0.572L0.224,-0.405L0.505,-0.405L0.505,-0.289L0.224,-0.289L0.224,-0.116L0.552,-0.116L0.552,-0L0.082,-0Z" style="fill-rule:nonzero;"/>
            </g>
        </g>
    </g>
    <g transform="matrix(0.00604182,0,0,0.0039495,11.2792,-1.22874)">
        <path d="M-1866.85,3985L5581.23,3985" style="fill:none;stroke:#ff8600;stroke-width:244.9px;"/>
    </g>
    <g transform="matrix(1,0,0,1,-33.6998,4.90676)">
        <g transform="matrix(10.5,0,0,10.5,35.0126,10.2272)">
            <path d="M0.034,-0L0.181,-0.688L0.505,-0.688C0.555,-0.688 0.594,-0.683 0.621,-0.672C0.648,-0.661 0.667,-0.645 0.678,-0.625C0.689,-0.604 0.694,-0.58 0.694,-0.551C0.694,-0.542 0.694,-0.533 0.693,-0.524C0.692,-0.514 0.69,-0.504 0.689,-0.493C0.687,-0.482 0.684,-0.471 0.681,-0.46C0.676,-0.435 0.669,-0.412 0.662,-0.392C0.654,-0.371 0.645,-0.354 0.635,-0.339C0.624,-0.324 0.611,-0.311 0.596,-0.3C0.581,-0.289 0.562,-0.281 0.54,-0.274L0.594,-0L0.447,-0L0.406,-0.257L0.232,-0.257L0.177,-0L0.034,-0ZM0.254,-0.364L0.399,-0.364C0.426,-0.364 0.448,-0.366 0.465,-0.37C0.481,-0.374 0.494,-0.38 0.504,-0.388C0.513,-0.396 0.521,-0.407 0.526,-0.421C0.531,-0.434 0.535,-0.451 0.539,-0.47C0.542,-0.481 0.544,-0.492 0.545,-0.501C0.546,-0.51 0.547,-0.519 0.547,-0.526C0.547,-0.538 0.544,-0.548 0.539,-0.556C0.533,-0.563 0.523,-0.569 0.509,-0.573C0.494,-0.576 0.474,-0.578 0.449,-0.578L0.3,-0.578L0.254,-0.364Z" style="fill:none;fill-rule:nonzero;stroke:#d6d6d6;stroke-width:0.29px;stroke-linecap:butt;stroke-miterlimit:2;"/>
        </g>
        <g transform="matrix(10.5,0,0,10.5,42.2786,10.2272)">
            <path d="M0.034,-0L0.181,-0.688L0.371,-0.688L0.459,-0.237L0.465,-0.237L0.745,-0.688L0.939,-0.688L0.792,-0L0.654,-0L0.757,-0.478L0.75,-0.478L0.458,-0L0.363,-0L0.275,-0.478L0.269,-0.478L0.168,-0L0.034,-0Z" style="fill:none;fill-rule:nonzero;stroke:#d6d6d6;stroke-width:0.29px;stroke-linecap:butt;stroke-miterlimit:2;"/>
        </g>
        <g transform="matrix(10.5,0,0,10.5,52.0121,10.2272)">
            <path d="M0.054,-0.231L0.077,-0.339L0.347,-0.339L0.324,-0.231L0.054,-0.231Z" style="fill:none;fill-rule:nonzero;stroke:#d6d6d6;stroke-width:0.29px;stroke-linecap:butt;stroke-miterlimit:2;"/>
        </g>
        <g transform="matrix(10.5,0,0,10.5,55.9811,10.2272)">
            <path d="M-0.03,-0L0.293,-0.351L0.12,-0.688L0.28,-0.688L0.392,-0.459L0.4,-0.459L0.616,-0.688L0.778,-0.688L0.46,-0.343L0.634,-0L0.474,-0L0.358,-0.233L0.349,-0.233L0.13,-0L-0.03,-0Z" style="fill:none;fill-rule:nonzero;stroke:#d6d6d6;stroke-width:0.29px;stroke-linecap:butt;stroke-miterlimit:2;"/>
        </g>
        <g transform="matrix(10.5,0,0,10.5,35.0126,10.2272)">
            <path d="M0.034,-0L0.181,-0.688L0.505,-0.688C0.555,-0.688 0.594,-0.683 0.621,-0.672C0.648,-0.661 0.667,-0.645 0.678,-0.625C0.689,-0.604 0.694,-0.58 0.694,-0.551C0.694,-0.542 0.694,-0.533 0.693,-0.524C0.692,-0.514 0.69,-0.504 0.689,-0.493C0.687,-0.482 0.684,-0.471 0.681,-0.46C0.676,-0.435 0.669,-0.412 0.662,-0.392C0.654,-0.371 0.645,-0.354 0.635,-0.339C0.624,-0.324 0.611,-0.311 0.596,-0.3C0.581,-0.289 0.562,-0.281 0.54,-0.274L0.594,-0L0.447,-0L0.406,-0.257L0.232,-0.257L0.177,-0L0.034,-0ZM0.254,-0.364L0.399,-0.364C0.426,-0.364 0.448,-0.366 0.465,-0.37C0.481,-0.374 0.494,-0.38 0.504,-0.388C0.513,-0.396 0.521,-0.407 0.526,-0.421C0.531,-0.434 0.535,-0.451 0.539,-0.47C0.542,-0.481 0.544,-0.492 0.545,-0.501C0.546,-0.51 0.547,-0.519 0.547,-0.526C0.547,-0.538 0.544,-0.548 0.539,-0.556C0.533,-0.563 0.523,-0.569 0.509,-0.573C0.494,-0.576 0.474,-0.578 0.449,-0.578L0.3,-0.578L0.254,-0.364Z" style="fill-rule:nonzero;"/>
        </g>
        <g transform="matrix(10.5,0,0,10.5,42.2786,10.2272)">
            <path d="M0.034,-0L0.181,-0.688L0.371,-0.688L0.459,-0.237L0.465,-0.237L0.745,-0.688L0.939,-0.688L0.792,-0L0.654,-0L0.757,-0.478L0.75,-0.478L0.458,-0L0.363,-0L0.275,-0.478L0.269,-0.478L0.168,-0L0.034,-0Z" style="fill-rule:nonzero;"/>
        </g>
        <g transform="matrix(10.5,0,0,10.5,52.0121,10.2272)">
            <path d="M0.054,-0.231L0.077,-0.339L0.347,-0.339L0.324,-0.231L0.054,-0.231Z" style="fill-rule:nonzero;"/>
        </g>
        <g transform="matrix(10.5,0,0,10.5,55.9811,10.2272)">
            <path d="M-0.03,-0L0.293,-0.351L0.12,-0.688L0.28,-0.688L0.392,-0.459L0.4,-0.459L0.616,-0.688L0.778,-0.688L0.46,-0.343L0.634,-0L0.474,-0L0.358,-0.233L0.349,-0.233L0.13,-0L-0.03,-0Z" style="fill-rule:nonzero;"/>
        </g>
    </g>
</svg>
