<?xml version="1.0" encoding="UTF-8" standalone="no"?><!DOCTYPE svg PUBLIC "-//W3C//DTD SVG 1.1//EN" "http://www.w3.org/Graphics/SVG/1.1/DTD/svg11.dtd"><svg width="100%" height="100%" viewBox="0 0 195 380" version="1.1" xmlns="http://www.w3.org/2000/svg" xmlns:xlink="http://www.w3.org/1999/xlink" xml:space="preserve" xmlns:serif="http://www.serif.com/" style="fill-rule:evenodd;clip-rule:evenodd;stroke-linecap:round;stroke-linejoin:round;stroke-miterlimit:1.5;"><g id="background" transform="matrix(1.3,0,0,1,0,0)"><rect x="0" y="0" width="150" height="380" style="fill:rgb(214,214,214);"/></g><g id="not-things-lines" serif:id="not-things lines" transform="matrix(0.00411803,0,0,0.00411803,-22.2673,355.894)"><g><g transform="matrix(1.57305,0,0,0.959074,4401.35,-101.159)"><path d="M4760,3985L30742.1,3985" style="fill:none;stroke:rgb(255,134,0);stroke-width:233px;"/></g><g transform="matrix(0.970692,0,0,0.959074,7272.62,-101.159)"><path d="M4410,2560L-1921.67,2560" style="fill:none;stroke:rgb(255,134,0);stroke-width:314.58px;"/></g><g transform="matrix(0.96045,0,0,0.96045,7473.62,-1632.04)"><path d="M5226.34,4325L5226.34,7541.25" style="fill:none;stroke:rgb(255,134,0);stroke-width:316.04px;"/></g><g transform="matrix(0.959074,0,0,0.960269,7146.63,-1632.54)"><path d="M3964.79,5400L3964.79,2232.68" style="fill:none;stroke:rgb(255,134,0);stroke-width:316.3px;"/></g><g transform="matrix(0.959074,0,0,0.959074,7323.91,-101.095)"><path d="M4235,3297L4935,3297" style="fill:none;stroke:rgb(255,134,0);stroke-width:316.5px;"/></g><g transform="matrix(0.950864,0,0,0.950864,7164.38,-150.825)"><path d="M3330.5,1915.9C3704.78,1541.63 4221.7,1310 4792.3,1310C5933.49,1310 6860,2236.51 6860,3377.7C6860,4518.9 5933.49,5445.4 4792.3,5445.4C3651.1,5445.4 2724.6,4518.9 2724.6,3377.7" style="fill:none;stroke:rgb(255,134,0);stroke-width:319.23px;"/></g></g></g><g transform="matrix(1,0,0,1,26.3649,361.618)"><g transform="matrix(15,0,0,15,13.2751,10.2272)"><path d="M0.024,-0L0.132,-0.51L0.256,-0.51L0.245,-0.443L0.254,-0.443C0.265,-0.46 0.278,-0.474 0.294,-0.485C0.309,-0.496 0.327,-0.504 0.348,-0.51C0.369,-0.515 0.392,-0.518 0.417,-0.518C0.456,-0.518 0.486,-0.514 0.508,-0.505C0.529,-0.496 0.544,-0.483 0.553,-0.466C0.561,-0.448 0.565,-0.425 0.565,-0.398C0.565,-0.386 0.564,-0.371 0.562,-0.354C0.559,-0.336 0.556,-0.317 0.552,-0.298L0.488,-0L0.356,-0L0.415,-0.275C0.418,-0.292 0.421,-0.308 0.424,-0.323C0.427,-0.338 0.428,-0.349 0.428,-0.358C0.428,-0.373 0.425,-0.384 0.42,-0.391C0.414,-0.398 0.405,-0.402 0.394,-0.405C0.383,-0.407 0.367,-0.408 0.348,-0.408C0.323,-0.408 0.303,-0.405 0.288,-0.4C0.272,-0.394 0.26,-0.385 0.251,-0.373C0.242,-0.361 0.234,-0.346 0.229,-0.327C0.223,-0.308 0.217,-0.286 0.212,-0.261L0.155,-0L0.024,-0Z" style="fill:none;fill-rule:nonzero;stroke:rgb(214,214,214);stroke-width:0.2px;stroke-linecap:butt;stroke-miterlimit:2;"/></g><g transform="matrix(15,0,0,15,22.4401,10.2272)"><path d="M0.249,0.008C0.191,0.008 0.146,0.004 0.114,-0.003C0.081,-0.01 0.058,-0.023 0.045,-0.042C0.032,-0.06 0.025,-0.084 0.025,-0.115C0.025,-0.133 0.027,-0.153 0.031,-0.176C0.035,-0.199 0.04,-0.225 0.046,-0.255C0.055,-0.298 0.063,-0.334 0.071,-0.364C0.078,-0.394 0.088,-0.419 0.1,-0.439C0.111,-0.459 0.126,-0.475 0.145,-0.487C0.164,-0.498 0.188,-0.506 0.217,-0.511C0.246,-0.516 0.282,-0.518 0.325,-0.518C0.383,-0.518 0.428,-0.514 0.461,-0.507C0.493,-0.5 0.516,-0.487 0.529,-0.469C0.542,-0.45 0.548,-0.425 0.548,-0.394C0.548,-0.376 0.547,-0.356 0.544,-0.333C0.541,-0.31 0.536,-0.284 0.529,-0.255C0.52,-0.212 0.511,-0.176 0.503,-0.146C0.494,-0.116 0.485,-0.091 0.474,-0.071C0.463,-0.051 0.448,-0.035 0.43,-0.024C0.411,-0.012 0.388,-0.004 0.359,0.001C0.329,0.006 0.293,0.008 0.249,0.008ZM0.254,-0.094C0.276,-0.094 0.294,-0.095 0.308,-0.098C0.322,-0.1 0.334,-0.104 0.343,-0.11C0.352,-0.116 0.359,-0.125 0.365,-0.137C0.371,-0.148 0.377,-0.164 0.382,-0.184C0.387,-0.203 0.392,-0.227 0.398,-0.255C0.403,-0.28 0.407,-0.302 0.41,-0.32C0.413,-0.338 0.414,-0.353 0.414,-0.365C0.414,-0.379 0.411,-0.39 0.406,-0.397C0.4,-0.404 0.39,-0.409 0.377,-0.412C0.364,-0.415 0.345,-0.416 0.321,-0.416C0.294,-0.416 0.272,-0.414 0.256,-0.411C0.24,-0.408 0.228,-0.4 0.22,-0.389C0.211,-0.378 0.204,-0.362 0.199,-0.341C0.193,-0.32 0.186,-0.291 0.178,-0.255C0.173,-0.229 0.168,-0.207 0.165,-0.189C0.162,-0.171 0.16,-0.156 0.16,-0.144C0.16,-0.13 0.163,-0.119 0.169,-0.112C0.174,-0.105 0.184,-0.1 0.198,-0.098C0.211,-0.095 0.23,-0.094 0.254,-0.094Z" style="fill:none;fill-rule:nonzero;stroke:rgb(214,214,214);stroke-width:0.2px;stroke-linecap:butt;stroke-miterlimit:2;"/></g><g transform="matrix(15,0,0,15,31.0501,10.2272)"><path d="M0.322,-0C0.28,-0 0.244,-0.001 0.215,-0.003C0.186,-0.004 0.162,-0.008 0.143,-0.015C0.124,-0.021 0.11,-0.031 0.101,-0.044C0.092,-0.057 0.088,-0.075 0.088,-0.098C0.088,-0.106 0.088,-0.114 0.09,-0.123C0.09,-0.132 0.092,-0.141 0.094,-0.151C0.095,-0.16 0.097,-0.171 0.099,-0.183L0.148,-0.408L0.048,-0.408L0.07,-0.51L0.169,-0.51L0.2,-0.658L0.334,-0.658L0.303,-0.51L0.422,-0.51L0.4,-0.408L0.282,-0.408L0.236,-0.192C0.235,-0.189 0.234,-0.183 0.233,-0.175C0.231,-0.166 0.229,-0.158 0.228,-0.15C0.227,-0.141 0.226,-0.135 0.226,-0.132C0.226,-0.122 0.23,-0.114 0.237,-0.108C0.244,-0.102 0.255,-0.098 0.272,-0.097C0.289,-0.095 0.312,-0.094 0.341,-0.094L0.322,-0Z" style="fill:none;fill-rule:nonzero;stroke:rgb(214,214,214);stroke-width:0.2px;stroke-linecap:butt;stroke-miterlimit:2;"/></g><g transform="matrix(15,0,0,15,37.1401,10.2272)"><path d="M0.054,-0.231L0.077,-0.339L0.347,-0.339L0.324,-0.231L0.054,-0.231Z" style="fill:none;fill-rule:nonzero;stroke:rgb(214,214,214);stroke-width:0.2px;stroke-linecap:butt;stroke-miterlimit:2;"/></g><g transform="matrix(15,0,0,15,42.8101,10.2272)"><path d="M0.322,-0C0.28,-0 0.244,-0.001 0.215,-0.003C0.186,-0.004 0.162,-0.008 0.143,-0.015C0.124,-0.021 0.11,-0.031 0.101,-0.044C0.092,-0.057 0.088,-0.075 0.088,-0.098C0.088,-0.106 0.088,-0.114 0.09,-0.123C0.09,-0.132 0.092,-0.141 0.094,-0.151C0.095,-0.16 0.097,-0.171 0.099,-0.183L0.148,-0.408L0.048,-0.408L0.07,-0.51L0.169,-0.51L0.2,-0.658L0.334,-0.658L0.303,-0.51L0.422,-0.51L0.4,-0.408L0.282,-0.408L0.236,-0.192C0.235,-0.189 0.234,-0.183 0.233,-0.175C0.231,-0.166 0.229,-0.158 0.228,-0.15C0.227,-0.141 0.226,-0.135 0.226,-0.132C0.226,-0.122 0.23,-0.114 0.237,-0.108C0.244,-0.102 0.255,-0.098 0.272,-0.097C0.289,-0.095 0.312,-0.094 0.341,-0.094L0.322,-0Z" style="fill:none;fill-rule:nonzero;stroke:rgb(214,214,214);stroke-width:0.2px;stroke-linecap:butt;stroke-miterlimit:2;"/></g><g transform="matrix(15,0,0,15,48.9001,10.2272)"><path d="M0.024,-0L0.18,-0.743L0.313,-0.743L0.25,-0.45L0.257,-0.45C0.268,-0.465 0.282,-0.477 0.297,-0.488C0.312,-0.498 0.329,-0.506 0.349,-0.511C0.369,-0.516 0.392,-0.518 0.417,-0.518C0.456,-0.518 0.486,-0.514 0.508,-0.505C0.529,-0.496 0.544,-0.483 0.553,-0.466C0.561,-0.448 0.565,-0.425 0.565,-0.398C0.565,-0.386 0.564,-0.371 0.562,-0.354C0.559,-0.336 0.556,-0.317 0.552,-0.298L0.488,-0L0.356,-0L0.415,-0.275C0.418,-0.292 0.421,-0.308 0.424,-0.323C0.427,-0.338 0.428,-0.349 0.428,-0.358C0.428,-0.38 0.422,-0.394 0.41,-0.4C0.397,-0.405 0.377,-0.408 0.348,-0.408C0.323,-0.408 0.303,-0.405 0.288,-0.4C0.272,-0.394 0.26,-0.385 0.251,-0.373C0.242,-0.361 0.234,-0.346 0.229,-0.327C0.223,-0.308 0.217,-0.286 0.212,-0.261L0.155,-0L0.024,-0Z" style="fill:none;fill-rule:nonzero;stroke:rgb(214,214,214);stroke-width:0.2px;stroke-linecap:butt;stroke-miterlimit:2;"/></g><g transform="matrix(15,0,0,15,58.0651,10.2272)"><path d="M0.155,-0.628L0.179,-0.743L0.316,-0.743L0.292,-0.628L0.155,-0.628ZM0.024,-0L0.132,-0.51L0.265,-0.51L0.157,-0L0.024,-0Z" style="fill:none;fill-rule:nonzero;stroke:rgb(214,214,214);stroke-width:0.2px;stroke-linecap:butt;stroke-miterlimit:2;"/></g><g transform="matrix(15,0,0,15,62.2651,10.2272)"><path d="M0.024,-0L0.132,-0.51L0.256,-0.51L0.245,-0.443L0.254,-0.443C0.265,-0.46 0.278,-0.474 0.294,-0.485C0.309,-0.496 0.327,-0.504 0.348,-0.51C0.369,-0.515 0.392,-0.518 0.417,-0.518C0.456,-0.518 0.486,-0.514 0.508,-0.505C0.529,-0.496 0.544,-0.483 0.553,-0.466C0.561,-0.448 0.565,-0.425 0.565,-0.398C0.565,-0.386 0.564,-0.371 0.562,-0.354C0.559,-0.336 0.556,-0.317 0.552,-0.298L0.488,-0L0.356,-0L0.415,-0.275C0.418,-0.292 0.421,-0.308 0.424,-0.323C0.427,-0.338 0.428,-0.349 0.428,-0.358C0.428,-0.373 0.425,-0.384 0.42,-0.391C0.414,-0.398 0.405,-0.402 0.394,-0.405C0.383,-0.407 0.367,-0.408 0.348,-0.408C0.323,-0.408 0.303,-0.405 0.288,-0.4C0.272,-0.394 0.26,-0.385 0.251,-0.373C0.242,-0.361 0.234,-0.346 0.229,-0.327C0.223,-0.308 0.217,-0.286 0.212,-0.261L0.155,-0L0.024,-0Z" style="fill:none;fill-rule:nonzero;stroke:rgb(214,214,214);stroke-width:0.2px;stroke-linecap:butt;stroke-miterlimit:2;"/></g><g transform="matrix(15,0,0,15,71.4301,10.2272)"><path d="M0.183,0.206C0.162,0.206 0.14,0.206 0.118,0.205C0.096,0.204 0.076,0.202 0.057,0.201C0.038,0.199 0.022,0.197 0.01,0.194L0.031,0.096C0.044,0.097 0.059,0.097 0.076,0.098C0.092,0.099 0.109,0.099 0.126,0.099L0.174,0.099C0.209,0.099 0.236,0.097 0.257,0.094C0.277,0.091 0.293,0.085 0.304,0.076C0.315,0.067 0.324,0.053 0.331,0.036C0.337,0.018 0.343,-0.005 0.349,-0.034C0.35,-0.039 0.352,-0.044 0.353,-0.049C0.354,-0.054 0.355,-0.059 0.356,-0.064L0.349,-0.064C0.336,-0.047 0.322,-0.033 0.305,-0.024C0.288,-0.014 0.27,-0.007 0.251,-0.004C0.232,-0.001 0.211,0.001 0.188,0.001C0.157,0.001 0.131,-0.003 0.111,-0.01C0.09,-0.017 0.075,-0.03 0.065,-0.049C0.055,-0.068 0.05,-0.093 0.05,-0.124C0.05,-0.141 0.051,-0.161 0.055,-0.183C0.058,-0.205 0.062,-0.229 0.068,-0.256C0.079,-0.307 0.091,-0.349 0.104,-0.383C0.117,-0.416 0.133,-0.443 0.151,-0.463C0.169,-0.482 0.19,-0.496 0.214,-0.505C0.238,-0.514 0.266,-0.518 0.299,-0.518C0.318,-0.518 0.337,-0.516 0.356,-0.513C0.374,-0.509 0.39,-0.502 0.404,-0.492C0.418,-0.481 0.428,-0.466 0.434,-0.446L0.441,-0.446L0.459,-0.51L0.583,-0.51L0.487,-0.06C0.479,-0.023 0.471,0.011 0.462,0.04C0.453,0.069 0.442,0.094 0.429,0.115C0.416,0.135 0.399,0.153 0.378,0.166C0.357,0.179 0.331,0.189 0.3,0.196C0.268,0.203 0.229,0.206 0.183,0.206ZM0.268,-0.111C0.283,-0.111 0.296,-0.112 0.307,-0.115C0.318,-0.117 0.327,-0.121 0.336,-0.126C0.344,-0.131 0.351,-0.137 0.357,-0.144C0.362,-0.149 0.366,-0.158 0.371,-0.17C0.376,-0.182 0.38,-0.196 0.385,-0.211C0.389,-0.226 0.393,-0.241 0.397,-0.258C0.4,-0.275 0.403,-0.291 0.405,-0.306C0.407,-0.321 0.408,-0.334 0.408,-0.345C0.408,-0.367 0.402,-0.382 0.389,-0.391C0.376,-0.4 0.357,-0.404 0.33,-0.404C0.308,-0.404 0.29,-0.403 0.276,-0.4C0.262,-0.397 0.251,-0.39 0.243,-0.381C0.234,-0.371 0.227,-0.356 0.221,-0.337C0.214,-0.317 0.208,-0.29 0.201,-0.257C0.196,-0.235 0.193,-0.216 0.19,-0.201C0.187,-0.185 0.186,-0.172 0.186,-0.161C0.186,-0.147 0.189,-0.136 0.194,-0.129C0.199,-0.122 0.208,-0.117 0.221,-0.115C0.233,-0.112 0.249,-0.111 0.268,-0.111Z" style="fill:none;fill-rule:nonzero;stroke:rgb(214,214,214);stroke-width:0.2px;stroke-linecap:butt;stroke-miterlimit:2;"/></g><g transform="matrix(15,0,0,15,80.4901,10.2272)"><path d="M0.226,0.008C0.204,0.008 0.18,0.007 0.154,0.006C0.128,0.005 0.103,0.003 0.079,0.001C0.055,-0.001 0.034,-0.003 0.015,-0.005L0.035,-0.101C0.05,-0.1 0.064,-0.098 0.079,-0.097C0.094,-0.096 0.108,-0.095 0.122,-0.094C0.136,-0.093 0.15,-0.093 0.163,-0.093C0.176,-0.092 0.19,-0.092 0.203,-0.092C0.232,-0.092 0.254,-0.093 0.27,-0.097C0.286,-0.099 0.298,-0.105 0.306,-0.112C0.313,-0.119 0.319,-0.129 0.323,-0.142C0.326,-0.147 0.328,-0.153 0.33,-0.158C0.331,-0.163 0.332,-0.168 0.332,-0.173C0.332,-0.183 0.328,-0.19 0.32,-0.193C0.312,-0.196 0.298,-0.198 0.279,-0.2L0.149,-0.217C0.118,-0.222 0.097,-0.231 0.085,-0.246C0.072,-0.26 0.066,-0.279 0.066,-0.304C0.066,-0.311 0.067,-0.32 0.069,-0.333C0.07,-0.345 0.072,-0.358 0.075,-0.371C0.082,-0.404 0.093,-0.431 0.106,-0.451C0.119,-0.471 0.136,-0.486 0.155,-0.495C0.174,-0.504 0.197,-0.51 0.223,-0.514C0.249,-0.517 0.279,-0.518 0.312,-0.518C0.333,-0.518 0.356,-0.517 0.379,-0.516C0.402,-0.515 0.424,-0.513 0.445,-0.511C0.466,-0.509 0.483,-0.507 0.497,-0.504L0.478,-0.408C0.46,-0.411 0.442,-0.413 0.424,-0.414C0.406,-0.415 0.389,-0.416 0.372,-0.417C0.355,-0.418 0.339,-0.418 0.324,-0.418C0.303,-0.418 0.285,-0.418 0.269,-0.417C0.253,-0.416 0.24,-0.413 0.229,-0.408C0.218,-0.403 0.21,-0.394 0.205,-0.382C0.202,-0.377 0.199,-0.372 0.197,-0.365C0.195,-0.358 0.194,-0.351 0.194,-0.342C0.194,-0.332 0.198,-0.326 0.205,-0.323C0.212,-0.32 0.225,-0.317 0.244,-0.315L0.371,-0.297C0.39,-0.295 0.406,-0.291 0.419,-0.286C0.432,-0.28 0.443,-0.271 0.45,-0.26C0.456,-0.249 0.46,-0.232 0.46,-0.211C0.46,-0.204 0.459,-0.195 0.458,-0.184C0.457,-0.173 0.454,-0.16 0.451,-0.147C0.444,-0.112 0.434,-0.084 0.422,-0.063C0.409,-0.042 0.394,-0.027 0.376,-0.017C0.357,-0.007 0.336,-0 0.311,0.003C0.286,0.006 0.258,0.008 0.226,0.008Z" style="fill:none;fill-rule:nonzero;stroke:rgb(214,214,214);stroke-width:0.2px;stroke-linecap:butt;stroke-miterlimit:2;"/></g><g transform="matrix(15,0,0,15,13.2751,10.2272)"><path d="M0.024,-0L0.132,-0.51L0.256,-0.51L0.245,-0.443L0.254,-0.443C0.265,-0.46 0.278,-0.474 0.294,-0.485C0.309,-0.496 0.327,-0.504 0.348,-0.51C0.369,-0.515 0.392,-0.518 0.417,-0.518C0.456,-0.518 0.486,-0.514 0.508,-0.505C0.529,-0.496 0.544,-0.483 0.553,-0.466C0.561,-0.448 0.565,-0.425 0.565,-0.398C0.565,-0.386 0.564,-0.371 0.562,-0.354C0.559,-0.336 0.556,-0.317 0.552,-0.298L0.488,-0L0.356,-0L0.415,-0.275C0.418,-0.292 0.421,-0.308 0.424,-0.323C0.427,-0.338 0.428,-0.349 0.428,-0.358C0.428,-0.373 0.425,-0.384 0.42,-0.391C0.414,-0.398 0.405,-0.402 0.394,-0.405C0.383,-0.407 0.367,-0.408 0.348,-0.408C0.323,-0.408 0.303,-0.405 0.288,-0.4C0.272,-0.394 0.26,-0.385 0.251,-0.373C0.242,-0.361 0.234,-0.346 0.229,-0.327C0.223,-0.308 0.217,-0.286 0.212,-0.261L0.155,-0L0.024,-0Z" style="fill-rule:nonzero;"/></g><g transform="matrix(15,0,0,15,22.4401,10.2272)"><path d="M0.249,0.008C0.191,0.008 0.146,0.004 0.114,-0.003C0.081,-0.01 0.058,-0.023 0.045,-0.042C0.032,-0.06 0.025,-0.084 0.025,-0.115C0.025,-0.133 0.027,-0.153 0.031,-0.176C0.035,-0.199 0.04,-0.225 0.046,-0.255C0.055,-0.298 0.063,-0.334 0.071,-0.364C0.078,-0.394 0.088,-0.419 0.1,-0.439C0.111,-0.459 0.126,-0.475 0.145,-0.487C0.164,-0.498 0.188,-0.506 0.217,-0.511C0.246,-0.516 0.282,-0.518 0.325,-0.518C0.383,-0.518 0.428,-0.514 0.461,-0.507C0.493,-0.5 0.516,-0.487 0.529,-0.469C0.542,-0.45 0.548,-0.425 0.548,-0.394C0.548,-0.376 0.547,-0.356 0.544,-0.333C0.541,-0.31 0.536,-0.284 0.529,-0.255C0.52,-0.212 0.511,-0.176 0.503,-0.146C0.494,-0.116 0.485,-0.091 0.474,-0.071C0.463,-0.051 0.448,-0.035 0.43,-0.024C0.411,-0.012 0.388,-0.004 0.359,0.001C0.329,0.006 0.293,0.008 0.249,0.008ZM0.254,-0.094C0.276,-0.094 0.294,-0.095 0.308,-0.098C0.322,-0.1 0.334,-0.104 0.343,-0.11C0.352,-0.116 0.359,-0.125 0.365,-0.137C0.371,-0.148 0.377,-0.164 0.382,-0.184C0.387,-0.203 0.392,-0.227 0.398,-0.255C0.403,-0.28 0.407,-0.302 0.41,-0.32C0.413,-0.338 0.414,-0.353 0.414,-0.365C0.414,-0.379 0.411,-0.39 0.406,-0.397C0.4,-0.404 0.39,-0.409 0.377,-0.412C0.364,-0.415 0.345,-0.416 0.321,-0.416C0.294,-0.416 0.272,-0.414 0.256,-0.411C0.24,-0.408 0.228,-0.4 0.22,-0.389C0.211,-0.378 0.204,-0.362 0.199,-0.341C0.193,-0.32 0.186,-0.291 0.178,-0.255C0.173,-0.229 0.168,-0.207 0.165,-0.189C0.162,-0.171 0.16,-0.156 0.16,-0.144C0.16,-0.13 0.163,-0.119 0.169,-0.112C0.174,-0.105 0.184,-0.1 0.198,-0.098C0.211,-0.095 0.23,-0.094 0.254,-0.094Z" style="fill-rule:nonzero;"/></g><g transform="matrix(15,0,0,15,31.0501,10.2272)"><path d="M0.322,-0C0.28,-0 0.244,-0.001 0.215,-0.003C0.186,-0.004 0.162,-0.008 0.143,-0.015C0.124,-0.021 0.11,-0.031 0.101,-0.044C0.092,-0.057 0.088,-0.075 0.088,-0.098C0.088,-0.106 0.088,-0.114 0.09,-0.123C0.09,-0.132 0.092,-0.141 0.094,-0.151C0.095,-0.16 0.097,-0.171 0.099,-0.183L0.148,-0.408L0.048,-0.408L0.07,-0.51L0.169,-0.51L0.2,-0.658L0.334,-0.658L0.303,-0.51L0.422,-0.51L0.4,-0.408L0.282,-0.408L0.236,-0.192C0.235,-0.189 0.234,-0.183 0.233,-0.175C0.231,-0.166 0.229,-0.158 0.228,-0.15C0.227,-0.141 0.226,-0.135 0.226,-0.132C0.226,-0.122 0.23,-0.114 0.237,-0.108C0.244,-0.102 0.255,-0.098 0.272,-0.097C0.289,-0.095 0.312,-0.094 0.341,-0.094L0.322,-0Z" style="fill-rule:nonzero;"/></g><g transform="matrix(15,0,0,15,37.1401,10.2272)"><path d="M0.054,-0.231L0.077,-0.339L0.347,-0.339L0.324,-0.231L0.054,-0.231Z" style="fill-rule:nonzero;"/></g><g transform="matrix(15,0,0,15,42.8101,10.2272)"><path d="M0.322,-0C0.28,-0 0.244,-0.001 0.215,-0.003C0.186,-0.004 0.162,-0.008 0.143,-0.015C0.124,-0.021 0.11,-0.031 0.101,-0.044C0.092,-0.057 0.088,-0.075 0.088,-0.098C0.088,-0.106 0.088,-0.114 0.09,-0.123C0.09,-0.132 0.092,-0.141 0.094,-0.151C0.095,-0.16 0.097,-0.171 0.099,-0.183L0.148,-0.408L0.048,-0.408L0.07,-0.51L0.169,-0.51L0.2,-0.658L0.334,-0.658L0.303,-0.51L0.422,-0.51L0.4,-0.408L0.282,-0.408L0.236,-0.192C0.235,-0.189 0.234,-0.183 0.233,-0.175C0.231,-0.166 0.229,-0.158 0.228,-0.15C0.227,-0.141 0.226,-0.135 0.226,-0.132C0.226,-0.122 0.23,-0.114 0.237,-0.108C0.244,-0.102 0.255,-0.098 0.272,-0.097C0.289,-0.095 0.312,-0.094 0.341,-0.094L0.322,-0Z" style="fill-rule:nonzero;"/></g><g transform="matrix(15,0,0,15,48.9001,10.2272)"><path d="M0.024,-0L0.18,-0.743L0.313,-0.743L0.25,-0.45L0.257,-0.45C0.268,-0.465 0.282,-0.477 0.297,-0.488C0.312,-0.498 0.329,-0.506 0.349,-0.511C0.369,-0.516 0.392,-0.518 0.417,-0.518C0.456,-0.518 0.486,-0.514 0.508,-0.505C0.529,-0.496 0.544,-0.483 0.553,-0.466C0.561,-0.448 0.565,-0.425 0.565,-0.398C0.565,-0.386 0.564,-0.371 0.562,-0.354C0.559,-0.336 0.556,-0.317 0.552,-0.298L0.488,-0L0.356,-0L0.415,-0.275C0.418,-0.292 0.421,-0.308 0.424,-0.323C0.427,-0.338 0.428,-0.349 0.428,-0.358C0.428,-0.38 0.422,-0.394 0.41,-0.4C0.397,-0.405 0.377,-0.408 0.348,-0.408C0.323,-0.408 0.303,-0.405 0.288,-0.4C0.272,-0.394 0.26,-0.385 0.251,-0.373C0.242,-0.361 0.234,-0.346 0.229,-0.327C0.223,-0.308 0.217,-0.286 0.212,-0.261L0.155,-0L0.024,-0Z" style="fill-rule:nonzero;"/></g><g transform="matrix(15,0,0,15,58.0651,10.2272)"><path d="M0.155,-0.628L0.179,-0.743L0.316,-0.743L0.292,-0.628L0.155,-0.628ZM0.024,-0L0.132,-0.51L0.265,-0.51L0.157,-0L0.024,-0Z" style="fill-rule:nonzero;"/></g><g transform="matrix(15,0,0,15,62.2651,10.2272)"><path d="M0.024,-0L0.132,-0.51L0.256,-0.51L0.245,-0.443L0.254,-0.443C0.265,-0.46 0.278,-0.474 0.294,-0.485C0.309,-0.496 0.327,-0.504 0.348,-0.51C0.369,-0.515 0.392,-0.518 0.417,-0.518C0.456,-0.518 0.486,-0.514 0.508,-0.505C0.529,-0.496 0.544,-0.483 0.553,-0.466C0.561,-0.448 0.565,-0.425 0.565,-0.398C0.565,-0.386 0.564,-0.371 0.562,-0.354C0.559,-0.336 0.556,-0.317 0.552,-0.298L0.488,-0L0.356,-0L0.415,-0.275C0.418,-0.292 0.421,-0.308 0.424,-0.323C0.427,-0.338 0.428,-0.349 0.428,-0.358C0.428,-0.373 0.425,-0.384 0.42,-0.391C0.414,-0.398 0.405,-0.402 0.394,-0.405C0.383,-0.407 0.367,-0.408 0.348,-0.408C0.323,-0.408 0.303,-0.405 0.288,-0.4C0.272,-0.394 0.26,-0.385 0.251,-0.373C0.242,-0.361 0.234,-0.346 0.229,-0.327C0.223,-0.308 0.217,-0.286 0.212,-0.261L0.155,-0L0.024,-0Z" style="fill-rule:nonzero;"/></g><g transform="matrix(15,0,0,15,71.4301,10.2272)"><path d="M0.183,0.206C0.162,0.206 0.14,0.206 0.118,0.205C0.096,0.204 0.076,0.202 0.057,0.201C0.038,0.199 0.022,0.197 0.01,0.194L0.031,0.096C0.044,0.097 0.059,0.097 0.076,0.098C0.092,0.099 0.109,0.099 0.126,0.099L0.174,0.099C0.209,0.099 0.236,0.097 0.257,0.094C0.277,0.091 0.293,0.085 0.304,0.076C0.315,0.067 0.324,0.053 0.331,0.036C0.337,0.018 0.343,-0.005 0.349,-0.034C0.35,-0.039 0.352,-0.044 0.353,-0.049C0.354,-0.054 0.355,-0.059 0.356,-0.064L0.349,-0.064C0.336,-0.047 0.322,-0.033 0.305,-0.024C0.288,-0.014 0.27,-0.007 0.251,-0.004C0.232,-0.001 0.211,0.001 0.188,0.001C0.157,0.001 0.131,-0.003 0.111,-0.01C0.09,-0.017 0.075,-0.03 0.065,-0.049C0.055,-0.068 0.05,-0.093 0.05,-0.124C0.05,-0.141 0.051,-0.161 0.055,-0.183C0.058,-0.205 0.062,-0.229 0.068,-0.256C0.079,-0.307 0.091,-0.349 0.104,-0.383C0.117,-0.416 0.133,-0.443 0.151,-0.463C0.169,-0.482 0.19,-0.496 0.214,-0.505C0.238,-0.514 0.266,-0.518 0.299,-0.518C0.318,-0.518 0.337,-0.516 0.356,-0.513C0.374,-0.509 0.39,-0.502 0.404,-0.492C0.418,-0.481 0.428,-0.466 0.434,-0.446L0.441,-0.446L0.459,-0.51L0.583,-0.51L0.487,-0.06C0.479,-0.023 0.471,0.011 0.462,0.04C0.453,0.069 0.442,0.094 0.429,0.115C0.416,0.135 0.399,0.153 0.378,0.166C0.357,0.179 0.331,0.189 0.3,0.196C0.268,0.203 0.229,0.206 0.183,0.206ZM0.268,-0.111C0.283,-0.111 0.296,-0.112 0.307,-0.115C0.318,-0.117 0.327,-0.121 0.336,-0.126C0.344,-0.131 0.351,-0.137 0.357,-0.144C0.362,-0.149 0.366,-0.158 0.371,-0.17C0.376,-0.182 0.38,-0.196 0.385,-0.211C0.389,-0.226 0.393,-0.241 0.397,-0.258C0.4,-0.275 0.403,-0.291 0.405,-0.306C0.407,-0.321 0.408,-0.334 0.408,-0.345C0.408,-0.367 0.402,-0.382 0.389,-0.391C0.376,-0.4 0.357,-0.404 0.33,-0.404C0.308,-0.404 0.29,-0.403 0.276,-0.4C0.262,-0.397 0.251,-0.39 0.243,-0.381C0.234,-0.371 0.227,-0.356 0.221,-0.337C0.214,-0.317 0.208,-0.29 0.201,-0.257C0.196,-0.235 0.193,-0.216 0.19,-0.201C0.187,-0.185 0.186,-0.172 0.186,-0.161C0.186,-0.147 0.189,-0.136 0.194,-0.129C0.199,-0.122 0.208,-0.117 0.221,-0.115C0.233,-0.112 0.249,-0.111 0.268,-0.111Z" style="fill-rule:nonzero;"/></g><g transform="matrix(15,0,0,15,80.4901,10.2272)"><path d="M0.226,0.008C0.204,0.008 0.18,0.007 0.154,0.006C0.128,0.005 0.103,0.003 0.079,0.001C0.055,-0.001 0.034,-0.003 0.015,-0.005L0.035,-0.101C0.05,-0.1 0.064,-0.098 0.079,-0.097C0.094,-0.096 0.108,-0.095 0.122,-0.094C0.136,-0.093 0.15,-0.093 0.163,-0.093C0.176,-0.092 0.19,-0.092 0.203,-0.092C0.232,-0.092 0.254,-0.093 0.27,-0.097C0.286,-0.099 0.298,-0.105 0.306,-0.112C0.313,-0.119 0.319,-0.129 0.323,-0.142C0.326,-0.147 0.328,-0.153 0.33,-0.158C0.331,-0.163 0.332,-0.168 0.332,-0.173C0.332,-0.183 0.328,-0.19 0.32,-0.193C0.312,-0.196 0.298,-0.198 0.279,-0.2L0.149,-0.217C0.118,-0.222 0.097,-0.231 0.085,-0.246C0.072,-0.26 0.066,-0.279 0.066,-0.304C0.066,-0.311 0.067,-0.32 0.069,-0.333C0.07,-0.345 0.072,-0.358 0.075,-0.371C0.082,-0.404 0.093,-0.431 0.106,-0.451C0.119,-0.471 0.136,-0.486 0.155,-0.495C0.174,-0.504 0.197,-0.51 0.223,-0.514C0.249,-0.517 0.279,-0.518 0.312,-0.518C0.333,-0.518 0.356,-0.517 0.379,-0.516C0.402,-0.515 0.424,-0.513 0.445,-0.511C0.466,-0.509 0.483,-0.507 0.497,-0.504L0.478,-0.408C0.46,-0.411 0.442,-0.413 0.424,-0.414C0.406,-0.415 0.389,-0.416 0.372,-0.417C0.355,-0.418 0.339,-0.418 0.324,-0.418C0.303,-0.418 0.285,-0.418 0.269,-0.417C0.253,-0.416 0.24,-0.413 0.229,-0.408C0.218,-0.403 0.21,-0.394 0.205,-0.382C0.202,-0.377 0.199,-0.372 0.197,-0.365C0.195,-0.358 0.194,-0.351 0.194,-0.342C0.194,-0.332 0.198,-0.326 0.205,-0.323C0.212,-0.32 0.225,-0.317 0.244,-0.315L0.371,-0.297C0.39,-0.295 0.406,-0.291 0.419,-0.286C0.432,-0.28 0.443,-0.271 0.45,-0.26C0.456,-0.249 0.46,-0.232 0.46,-0.211C0.46,-0.204 0.459,-0.195 0.458,-0.184C0.457,-0.173 0.454,-0.16 0.451,-0.147C0.444,-0.112 0.434,-0.084 0.422,-0.063C0.409,-0.042 0.394,-0.027 0.376,-0.017C0.357,-0.007 0.336,-0 0.311,0.003C0.286,0.006 0.258,0.008 0.226,0.008Z" style="fill-rule:nonzero;"/></g></g><g transform="matrix(0.00604182,0,0,0.0039495,11.2792,-1.22874)"><path d="M-1866.85,3985L30408.2,3985" style="fill:none;stroke:rgb(255,134,0);stroke-width:244.9px;"/></g><g transform="matrix(1,0,0,1,47.7474,4.90676)"><g transform="matrix(16,0,0,16,13.2246,10.2272)"><path d="M0.034,-0L0.181,-0.688L0.505,-0.688C0.555,-0.688 0.594,-0.683 0.621,-0.672C0.648,-0.661 0.667,-0.645 0.678,-0.625C0.689,-0.604 0.694,-0.58 0.694,-0.551C0.694,-0.542 0.694,-0.533 0.693,-0.524C0.692,-0.514 0.69,-0.504 0.689,-0.493C0.687,-0.482 0.684,-0.471 0.681,-0.46C0.676,-0.435 0.669,-0.412 0.662,-0.392C0.654,-0.371 0.645,-0.354 0.635,-0.339C0.624,-0.324 0.611,-0.311 0.596,-0.3C0.581,-0.289 0.562,-0.281 0.54,-0.274L0.594,-0L0.447,-0L0.406,-0.257L0.232,-0.257L0.177,-0L0.034,-0ZM0.254,-0.364L0.399,-0.364C0.426,-0.364 0.448,-0.366 0.465,-0.37C0.481,-0.374 0.494,-0.38 0.504,-0.388C0.513,-0.396 0.521,-0.407 0.526,-0.421C0.531,-0.434 0.535,-0.451 0.539,-0.47C0.542,-0.481 0.544,-0.492 0.545,-0.501C0.546,-0.51 0.547,-0.519 0.547,-0.526C0.547,-0.538 0.544,-0.548 0.539,-0.556C0.533,-0.563 0.523,-0.569 0.509,-0.573C0.494,-0.576 0.474,-0.578 0.449,-0.578L0.3,-0.578L0.254,-0.364Z" style="fill:none;fill-rule:nonzero;stroke:rgb(214,214,214);stroke-width:0.19px;stroke-linecap:butt;stroke-miterlimit:2;"/></g><g transform="matrix(16,0,0,16,24.2966,10.2272)"><path d="M-0.035,-0L0.356,-0.688L0.546,-0.688L0.644,-0L0.504,-0L0.48,-0.154L0.198,-0.154L0.11,-0L-0.035,-0ZM0.254,-0.264L0.47,-0.264L0.428,-0.559L0.422,-0.559L0.254,-0.264Z" style="fill:none;fill-rule:nonzero;stroke:rgb(214,214,214);stroke-width:0.19px;stroke-linecap:butt;stroke-miterlimit:2;"/></g><g transform="matrix(16,0,0,16,35.6726,10.2272)"><path d="M0.034,-0L0.181,-0.688L0.371,-0.688L0.459,-0.237L0.465,-0.237L0.745,-0.688L0.939,-0.688L0.792,-0L0.654,-0L0.757,-0.478L0.75,-0.478L0.458,-0L0.363,-0L0.275,-0.478L0.269,-0.478L0.168,-0L0.034,-0Z" style="fill:none;fill-rule:nonzero;stroke:rgb(214,214,214);stroke-width:0.19px;stroke-linecap:butt;stroke-miterlimit:2;"/></g><g transform="matrix(16,0,0,16,50.5046,10.2272)"><path d="M0.034,-0L0.181,-0.688L0.667,-0.688L0.643,-0.576L0.3,-0.576L0.263,-0.402L0.556,-0.402L0.532,-0.292L0.24,-0.292L0.201,-0.112L0.544,-0.112L0.52,-0L0.034,-0Z" style="fill:none;fill-rule:nonzero;stroke:rgb(214,214,214);stroke-width:0.19px;stroke-linecap:butt;stroke-miterlimit:2;"/></g><g transform="matrix(16,0,0,16,60.4246,10.2272)"><path d="M0.034,-0L0.181,-0.688L0.324,-0.688L0.203,-0.118L0.502,-0.118L0.476,-0L0.034,-0Z" style="fill:none;fill-rule:nonzero;stroke:rgb(214,214,214);stroke-width:0.19px;stroke-linecap:butt;stroke-miterlimit:2;"/></g><g transform="matrix(16,0,0,16,69.2246,10.2272)"><path d="M0.034,-0L0.181,-0.688L0.324,-0.688L0.177,-0L0.034,-0Z" style="fill:none;fill-rule:nonzero;stroke:rgb(214,214,214);stroke-width:0.19px;stroke-linecap:butt;stroke-miterlimit:2;"/></g><g transform="matrix(16,0,0,16,74.2006,10.2272)"><path d="M0.326,0.008C0.261,0.008 0.208,0.003 0.167,-0.009C0.126,-0.02 0.097,-0.038 0.079,-0.065C0.06,-0.092 0.051,-0.129 0.051,-0.177C0.051,-0.2 0.053,-0.225 0.058,-0.254C0.062,-0.282 0.068,-0.313 0.076,-0.348C0.088,-0.404 0.1,-0.452 0.114,-0.493C0.127,-0.533 0.142,-0.566 0.161,-0.593C0.179,-0.62 0.201,-0.641 0.226,-0.656C0.251,-0.671 0.281,-0.681 0.318,-0.687C0.354,-0.693 0.397,-0.696 0.446,-0.696C0.471,-0.696 0.499,-0.695 0.528,-0.693C0.557,-0.691 0.586,-0.689 0.615,-0.686C0.644,-0.683 0.669,-0.679 0.692,-0.675L0.67,-0.569C0.649,-0.572 0.628,-0.574 0.605,-0.577C0.582,-0.579 0.561,-0.581 0.541,-0.582C0.521,-0.583 0.504,-0.584 0.491,-0.584C0.452,-0.584 0.419,-0.583 0.392,-0.582C0.365,-0.58 0.342,-0.575 0.324,-0.568C0.306,-0.56 0.291,-0.548 0.279,-0.531C0.266,-0.514 0.255,-0.49 0.246,-0.46C0.237,-0.43 0.227,-0.391 0.217,-0.344C0.21,-0.311 0.204,-0.282 0.2,-0.258C0.196,-0.233 0.194,-0.211 0.194,-0.193C0.194,-0.168 0.199,-0.148 0.208,-0.135C0.217,-0.122 0.233,-0.113 0.254,-0.108C0.275,-0.103 0.303,-0.101 0.338,-0.101C0.348,-0.101 0.36,-0.101 0.373,-0.102C0.386,-0.103 0.399,-0.104 0.412,-0.105C0.425,-0.106 0.435,-0.107 0.444,-0.107L0.481,-0.282L0.354,-0.282L0.377,-0.387L0.635,-0.387L0.555,-0.012C0.532,-0.008 0.507,-0.005 0.48,-0.002C0.452,0.002 0.425,0.004 0.399,0.006C0.372,0.007 0.348,0.008 0.326,0.008Z" style="fill:none;fill-rule:nonzero;stroke:rgb(214,214,214);stroke-width:0.19px;stroke-linecap:butt;stroke-miterlimit:2;"/></g><g transform="matrix(16,0,0,16,13.2246,10.2272)"><path d="M0.034,-0L0.181,-0.688L0.505,-0.688C0.555,-0.688 0.594,-0.683 0.621,-0.672C0.648,-0.661 0.667,-0.645 0.678,-0.625C0.689,-0.604 0.694,-0.58 0.694,-0.551C0.694,-0.542 0.694,-0.533 0.693,-0.524C0.692,-0.514 0.69,-0.504 0.689,-0.493C0.687,-0.482 0.684,-0.471 0.681,-0.46C0.676,-0.435 0.669,-0.412 0.662,-0.392C0.654,-0.371 0.645,-0.354 0.635,-0.339C0.624,-0.324 0.611,-0.311 0.596,-0.3C0.581,-0.289 0.562,-0.281 0.54,-0.274L0.594,-0L0.447,-0L0.406,-0.257L0.232,-0.257L0.177,-0L0.034,-0ZM0.254,-0.364L0.399,-0.364C0.426,-0.364 0.448,-0.366 0.465,-0.37C0.481,-0.374 0.494,-0.38 0.504,-0.388C0.513,-0.396 0.521,-0.407 0.526,-0.421C0.531,-0.434 0.535,-0.451 0.539,-0.47C0.542,-0.481 0.544,-0.492 0.545,-0.501C0.546,-0.51 0.547,-0.519 0.547,-0.526C0.547,-0.538 0.544,-0.548 0.539,-0.556C0.533,-0.563 0.523,-0.569 0.509,-0.573C0.494,-0.576 0.474,-0.578 0.449,-0.578L0.3,-0.578L0.254,-0.364Z" style="fill-rule:nonzero;"/></g><g transform="matrix(16,0,0,16,24.2966,10.2272)"><path d="M-0.035,-0L0.356,-0.688L0.546,-0.688L0.644,-0L0.504,-0L0.48,-0.154L0.198,-0.154L0.11,-0L-0.035,-0ZM0.254,-0.264L0.47,-0.264L0.428,-0.559L0.422,-0.559L0.254,-0.264Z" style="fill-rule:nonzero;"/></g><g transform="matrix(16,0,0,16,35.6726,10.2272)"><path d="M0.034,-0L0.181,-0.688L0.371,-0.688L0.459,-0.237L0.465,-0.237L0.745,-0.688L0.939,-0.688L0.792,-0L0.654,-0L0.757,-0.478L0.75,-0.478L0.458,-0L0.363,-0L0.275,-0.478L0.269,-0.478L0.168,-0L0.034,-0Z" style="fill-rule:nonzero;"/></g><g transform="matrix(16,0,0,16,50.5046,10.2272)"><path d="M0.034,-0L0.181,-0.688L0.667,-0.688L0.643,-0.576L0.3,-0.576L0.263,-0.402L0.556,-0.402L0.532,-0.292L0.24,-0.292L0.201,-0.112L0.544,-0.112L0.52,-0L0.034,-0Z" style="fill-rule:nonzero;"/></g><g transform="matrix(16,0,0,16,60.4246,10.2272)"><path d="M0.034,-0L0.181,-0.688L0.324,-0.688L0.203,-0.118L0.502,-0.118L0.476,-0L0.034,-0Z" style="fill-rule:nonzero;"/></g><g transform="matrix(16,0,0,16,69.2246,10.2272)"><path d="M0.034,-0L0.181,-0.688L0.324,-0.688L0.177,-0L0.034,-0Z" style="fill-rule:nonzero;"/></g><g transform="matrix(16,0,0,16,74.2006,10.2272)"><path d="M0.326,0.008C0.261,0.008 0.208,0.003 0.167,-0.009C0.126,-0.02 0.097,-0.038 0.079,-0.065C0.06,-0.092 0.051,-0.129 0.051,-0.177C0.051,-0.2 0.053,-0.225 0.058,-0.254C0.062,-0.282 0.068,-0.313 0.076,-0.348C0.088,-0.404 0.1,-0.452 0.114,-0.493C0.127,-0.533 0.142,-0.566 0.161,-0.593C0.179,-0.62 0.201,-0.641 0.226,-0.656C0.251,-0.671 0.281,-0.681 0.318,-0.687C0.354,-0.693 0.397,-0.696 0.446,-0.696C0.471,-0.696 0.499,-0.695 0.528,-0.693C0.557,-0.691 0.586,-0.689 0.615,-0.686C0.644,-0.683 0.669,-0.679 0.692,-0.675L0.67,-0.569C0.649,-0.572 0.628,-0.574 0.605,-0.577C0.582,-0.579 0.561,-0.581 0.541,-0.582C0.521,-0.583 0.504,-0.584 0.491,-0.584C0.452,-0.584 0.419,-0.583 0.392,-0.582C0.365,-0.58 0.342,-0.575 0.324,-0.568C0.306,-0.56 0.291,-0.548 0.279,-0.531C0.266,-0.514 0.255,-0.49 0.246,-0.46C0.237,-0.43 0.227,-0.391 0.217,-0.344C0.21,-0.311 0.204,-0.282 0.2,-0.258C0.196,-0.233 0.194,-0.211 0.194,-0.193C0.194,-0.168 0.199,-0.148 0.208,-0.135C0.217,-0.122 0.233,-0.113 0.254,-0.108C0.275,-0.103 0.303,-0.101 0.338,-0.101C0.348,-0.101 0.36,-0.101 0.373,-0.102C0.386,-0.103 0.399,-0.104 0.412,-0.105C0.425,-0.106 0.435,-0.107 0.444,-0.107L0.481,-0.282L0.354,-0.282L0.377,-0.387L0.635,-0.387L0.555,-0.012C0.532,-0.008 0.507,-0.005 0.48,-0.002C0.452,0.002 0.425,0.004 0.399,0.006C0.372,0.007 0.348,0.008 0.326,0.008Z" style="fill-rule:nonzero;"/></g></g></svg>