<?xml version="1.0" encoding="UTF-8" standalone="no"?><!DOCTYPE svg PUBLIC "-//W3C//DTD SVG 1.1//EN" "http://www.w3.org/Graphics/SVG/1.1/DTD/svg11.dtd"><svg width="100%" height="100%" viewBox="0 0 45 380" version="1.1" xmlns="http://www.w3.org/2000/svg" xmlns:xlink="http://www.w3.org/1999/xlink" xml:space="preserve" xmlns:serif="http://www.serif.com/" style="fill-rule:evenodd;clip-rule:evenodd;stroke-linecap:round;stroke-linejoin:round;stroke-miterlimit:1.5;"><g id="background" transform="matrix(0.3,0,0,1,0,0)"><rect x="0" y="0" width="150" height="380" style="fill:rgb(42,42,42);"/></g><g id="output" transform="matrix(1,0,0,1,-101,-10)"><g id="controls-background" serif:id="controls background" transform="matrix(1,0,0,1,97,0)"><g transform="matrix(0.78158,0,0,0.916412,5.85871,29.4938)"><path d="M33.447,24.286L33.447,358.743C33.447,360.399 31.87,361.744 29.928,361.744L22.891,361.744C20.949,361.744 19.373,360.399 19.373,358.743L19.373,24.286C19.373,22.63 20.949,21.285 22.891,21.285L29.928,21.285C31.87,21.285 33.447,22.63 33.447,24.286Z" style="fill:rgb(99,61,54);stroke:rgb(99,61,54);stroke-width:1.17px;"/></g><g id="in-8-cutout" transform="matrix(1.1087,0,0,1.1087,-2.88043,-22.7283)"><path d="M34.632,311.368C32.475,309.212 29.55,308 26.5,308C23.45,308 20.525,309.212 18.368,311.368C20.525,309.212 23.45,308 26.5,308C29.55,308 32.475,309.212 34.632,311.368Z" style="fill:none;stroke:rgb(42,42,42);stroke-width:1.8px;stroke-linecap:butt;stroke-miterlimit:2;"/></g><g id="in-7-cutout" transform="matrix(1.1087,0,0,1.1087,-2.88043,-62.7283)"><path d="M34.632,311.368C32.475,309.212 29.55,308 26.5,308C23.45,308 20.525,309.212 18.368,311.368C20.525,309.212 23.45,308 26.5,308C29.55,308 32.475,309.212 34.632,311.368Z" style="fill:none;stroke:rgb(42,42,42);stroke-width:1.8px;stroke-linecap:butt;stroke-miterlimit:2;"/></g><g id="in-6-cutout" transform="matrix(1.1087,0,0,1.1087,-2.88043,-102.728)"><path d="M34.632,311.368C32.475,309.212 29.55,308 26.5,308C23.45,308 20.525,309.212 18.368,311.368C20.525,309.212 23.45,308 26.5,308C29.55,308 32.475,309.212 34.632,311.368Z" style="fill:none;stroke:rgb(42,42,42);stroke-width:1.8px;stroke-linecap:butt;stroke-miterlimit:2;"/></g><g id="in-5-cutout" transform="matrix(1.1087,0,0,1.1087,-2.88043,-142.728)"><path d="M34.632,311.368C32.475,309.212 29.55,308 26.5,308C23.45,308 20.525,309.212 18.368,311.368C20.525,309.212 23.45,308 26.5,308C29.55,308 32.475,309.212 34.632,311.368Z" style="fill:none;stroke:rgb(42,42,42);stroke-width:1.8px;stroke-linecap:butt;stroke-miterlimit:2;"/></g><g id="in-4-cutout" transform="matrix(1.1087,0,0,1.1087,-2.88043,-182.728)"><path d="M34.632,311.368C32.475,309.212 29.55,308 26.5,308C23.45,308 20.525,309.212 18.368,311.368C20.525,309.212 23.45,308 26.5,308C29.55,308 32.475,309.212 34.632,311.368Z" style="fill:none;stroke:rgb(42,42,42);stroke-width:1.8px;stroke-linecap:butt;stroke-miterlimit:2;"/></g><g id="in-3-cutout" transform="matrix(1.1087,0,0,1.1087,-2.88043,-222.728)"><path d="M34.632,311.368C32.475,309.212 29.55,308 26.5,308C23.45,308 20.525,309.212 18.368,311.368C20.525,309.212 23.45,308 26.5,308C29.55,308 32.475,309.212 34.632,311.368Z" style="fill:none;stroke:rgb(42,42,42);stroke-width:1.8px;stroke-linecap:butt;stroke-miterlimit:2;"/></g><g id="in-2-cutout" transform="matrix(1.1087,0,0,1.1087,-2.88043,-262.728)"><path d="M34.632,311.368C32.475,309.212 29.55,308 26.5,308C23.45,308 20.525,309.212 18.368,311.368C20.525,309.212 23.45,308 26.5,308C29.55,308 32.475,309.212 34.632,311.368Z" style="fill:none;stroke:rgb(42,42,42);stroke-width:1.8px;stroke-linecap:butt;stroke-miterlimit:2;"/></g><g id="in-8" transform="matrix(1.56522,0,0,1.56522,-14.9783,-168.587)"><path d="M15,319.5C15,325.851 20.149,331 26.5,331C32.847,331 38,325.847 38,319.5C38,313.153 32.847,308 26.5,308C23.45,308 20.525,309.212 18.368,311.368C20.525,309.212 23.45,308 26.5,308C32.847,308 38,313.153 38,319.5C38,325.847 32.847,331 26.5,331C20.149,331 15,325.851 15,319.5Z" style="fill:none;stroke:rgb(99,61,54);stroke-width:1.28px;stroke-linecap:butt;stroke-miterlimit:2;"/></g><g id="in-7" transform="matrix(1.56522,0,0,1.56522,-14.9783,-145.978)"><path d="M15,279.5C15,285.851 20.149,291 26.5,291C32.847,291 38,285.847 38,279.5C38,273.153 32.847,268 26.5,268C23.45,268 20.525,269.212 18.368,271.368C20.525,269.212 23.45,268 26.5,268C32.847,268 38,273.153 38,279.5C38,285.847 32.847,291 26.5,291C20.149,291 15,285.851 15,279.5Z" style="fill:none;stroke:rgb(99,61,54);stroke-width:1.28px;stroke-linecap:butt;stroke-miterlimit:2;"/></g><g id="in-6" transform="matrix(1.56522,0,0,1.56522,-14.9783,-123.37)"><path d="M15,239.5C15,245.851 20.149,251 26.5,251C32.847,251 38,245.847 38,239.5C38,233.153 32.847,228 26.5,228C23.45,228 20.525,229.212 18.368,231.368C20.525,229.212 23.45,228 26.5,228C32.847,228 38,233.153 38,239.5C38,245.847 32.847,251 26.5,251C20.149,251 15,245.851 15,239.5Z" style="fill:none;stroke:rgb(99,61,54);stroke-width:1.28px;stroke-linecap:butt;stroke-miterlimit:2;"/></g><g id="in-5" transform="matrix(1.56522,0,0,1.56522,-14.9783,-100.761)"><path d="M15,199.5C15,205.851 20.149,211 26.5,211C32.847,211 38,205.847 38,199.5C38,193.153 32.847,188 26.5,188C23.45,188 20.525,189.212 18.368,191.368C20.525,189.212 23.45,188 26.5,188C32.847,188 38,193.153 38,199.5C38,205.847 32.847,211 26.5,211C20.149,211 15,205.851 15,199.5Z" style="fill:none;stroke:rgb(99,61,54);stroke-width:1.28px;stroke-linecap:butt;stroke-miterlimit:2;"/></g><g id="in-4" transform="matrix(1.56522,0,0,1.56522,-14.9783,-78.1522)"><path d="M15,159.5C15,165.851 20.149,171 26.5,171C32.847,171 38,165.847 38,159.5C38,153.153 32.847,148 26.5,148C23.45,148 20.525,149.212 18.368,151.368C20.525,149.212 23.45,148 26.5,148C32.847,148 38,153.153 38,159.5C38,165.847 32.847,171 26.5,171C20.149,171 15,165.851 15,159.5Z" style="fill:none;stroke:rgb(99,61,54);stroke-width:1.28px;stroke-linecap:butt;stroke-miterlimit:2;"/></g><g id="in-3" transform="matrix(1.56522,0,0,1.56522,-14.9783,-55.5435)"><path d="M15,119.5C15,125.851 20.149,131 26.5,131C32.847,131 38,125.847 38,119.5C38,113.153 32.847,108 26.5,108C23.45,108 20.525,109.212 18.368,111.368C20.525,109.212 23.45,108 26.5,108C32.847,108 38,113.153 38,119.5C38,125.847 32.847,131 26.5,131C20.149,131 15,125.851 15,119.5Z" style="fill:none;stroke:rgb(99,61,54);stroke-width:1.28px;stroke-linecap:butt;stroke-miterlimit:2;"/></g><g id="in-2" transform="matrix(1.56522,0,0,1.56522,-14.9783,-32.9348)"><path d="M15,79.5C15,85.851 20.149,91 26.5,91C32.847,91 38,85.847 38,79.5C38,73.153 32.847,68 26.5,68C23.45,68 20.525,69.212 18.368,71.368C20.525,69.212 23.45,68 26.5,68C32.847,68 38,73.153 38,79.5C38,85.847 32.847,91 26.5,91C20.149,91 15,85.851 15,79.5Z" style="fill:none;stroke:rgb(99,61,54);stroke-width:1.28px;stroke-linecap:butt;stroke-miterlimit:2;"/></g><g id="in-1" transform="matrix(1.56522,0,0,1.56522,-14.9783,-10.3261)"><path d="M15,39.5C15,45.851 20.149,51 26.5,51C32.847,51 38,45.847 38,39.5C38,33.153 32.847,28 26.5,28C23.45,28 20.525,29.212 18.368,31.368C20.525,29.212 23.45,28 26.5,28C32.847,28 38,33.153 38,39.5C38,45.847 32.847,51 26.5,51C20.149,51 15,45.851 15,39.5Z" style="fill:none;stroke:rgb(99,61,54);stroke-width:1.28px;stroke-linecap:butt;stroke-miterlimit:2;"/></g><g id="in-81" serif:id="in-8" transform="matrix(1.26087,0,0,1.26087,-6.91304,-71.3478)"><path d="M15,319.5C15,325.851 20.149,331 26.5,331C32.847,331 38,325.847 38,319.5C38,313.153 32.847,308 26.5,308C23.45,308 20.525,309.212 18.368,311.368C20.525,309.212 23.45,308 26.5,308C32.847,308 38,313.153 38,319.5C38,325.847 32.847,331 26.5,331C20.149,331 15,325.851 15,319.5Z" style="fill:none;stroke:rgb(99,61,54);stroke-width:1.59px;stroke-linecap:butt;stroke-miterlimit:2;"/></g><g id="in-71" serif:id="in-7" transform="matrix(1.26087,0,0,1.26087,-6.91304,-60.9131)"><path d="M15,279.5C15,285.851 20.149,291 26.5,291C32.847,291 38,285.847 38,279.5C38,273.153 32.847,268 26.5,268C23.45,268 20.525,269.212 18.368,271.368C20.525,269.212 23.45,268 26.5,268C32.847,268 38,273.153 38,279.5C38,285.847 32.847,291 26.5,291C20.149,291 15,285.851 15,279.5Z" style="fill:none;stroke:rgb(99,61,54);stroke-width:1.59px;stroke-linecap:butt;stroke-miterlimit:2;"/></g><g id="in-61" serif:id="in-6" transform="matrix(1.26087,0,0,1.26087,-6.91304,-50.4783)"><path d="M15,239.5C15,245.851 20.149,251 26.5,251C32.847,251 38,245.847 38,239.5C38,233.153 32.847,228 26.5,228C23.45,228 20.525,229.212 18.368,231.368C20.525,229.212 23.45,228 26.5,228C32.847,228 38,233.153 38,239.5C38,245.847 32.847,251 26.5,251C20.149,251 15,245.851 15,239.5Z" style="fill:none;stroke:rgb(99,61,54);stroke-width:1.59px;stroke-linecap:butt;stroke-miterlimit:2;"/></g><g id="in-51" serif:id="in-5" transform="matrix(1.26087,0,0,1.26087,-6.91304,-40.0435)"><path d="M15,199.5C15,205.851 20.149,211 26.5,211C32.847,211 38,205.847 38,199.5C38,193.153 32.847,188 26.5,188C23.45,188 20.525,189.212 18.368,191.368C20.525,189.212 23.45,188 26.5,188C32.847,188 38,193.153 38,199.5C38,205.847 32.847,211 26.5,211C20.149,211 15,205.851 15,199.5Z" style="fill:none;stroke:rgb(99,61,54);stroke-width:1.59px;stroke-linecap:butt;stroke-miterlimit:2;"/></g><g id="in-41" serif:id="in-4" transform="matrix(1.26087,0,0,1.26087,-6.91304,-29.6087)"><path d="M15,159.5C15,165.851 20.149,171 26.5,171C32.847,171 38,165.847 38,159.5C38,153.153 32.847,148 26.5,148C23.45,148 20.525,149.212 18.368,151.368C20.525,149.212 23.45,148 26.5,148C32.847,148 38,153.153 38,159.5C38,165.847 32.847,171 26.5,171C20.149,171 15,165.851 15,159.5Z" style="fill:none;stroke:rgb(99,61,54);stroke-width:1.59px;stroke-linecap:butt;stroke-miterlimit:2;"/></g><g id="in-31" serif:id="in-3" transform="matrix(1.26087,0,0,1.26087,-6.91304,-19.1739)"><path d="M15,119.5C15,125.851 20.149,131 26.5,131C32.847,131 38,125.847 38,119.5C38,113.153 32.847,108 26.5,108C23.45,108 20.525,109.212 18.368,111.368C20.525,109.212 23.45,108 26.5,108C32.847,108 38,113.153 38,119.5C38,125.847 32.847,131 26.5,131C20.149,131 15,125.851 15,119.5Z" style="fill:none;stroke:rgb(99,61,54);stroke-width:1.59px;stroke-linecap:butt;stroke-miterlimit:2;"/></g><g id="in-21" serif:id="in-2" transform="matrix(1.26087,0,0,1.26087,-6.91304,-8.73914)"><path d="M15,79.5C15,85.851 20.149,91 26.5,91C32.847,91 38,85.847 38,79.5C38,73.153 32.847,68 26.5,68C23.45,68 20.525,69.212 18.368,71.368C20.525,69.212 23.45,68 26.5,68C32.847,68 38,73.153 38,79.5C38,85.847 32.847,91 26.5,91C20.149,91 15,85.851 15,79.5Z" style="fill:none;stroke:rgb(99,61,54);stroke-width:1.59px;stroke-linecap:butt;stroke-miterlimit:2;"/></g><g id="in-11" serif:id="in-1" transform="matrix(1.26087,0,0,1.26087,-6.91304,1.69564)"><path d="M15,39.5C15,45.851 20.149,51 26.5,51C32.847,51 38,45.847 38,39.5C38,33.153 32.847,28 26.5,28C23.45,28 20.525,29.212 18.368,31.368C20.525,29.212 23.45,28 26.5,28C32.847,28 38,33.153 38,39.5C38,45.847 32.847,51 26.5,51C20.149,51 15,45.851 15,39.5Z" style="fill:none;stroke:rgb(99,61,54);stroke-width:1.59px;stroke-linecap:butt;stroke-miterlimit:2;"/></g><g id="in-7-led" transform="matrix(0.304348,0,0,0.304348,30.9348,291.978)"><circle cx="26.5" cy="39.5" r="11.5" style="fill:rgb(99,61,54);stroke:rgb(99,61,54);stroke-width:3.29px;stroke-linecap:butt;stroke-miterlimit:2;"/></g><g id="in-8-led" transform="matrix(0.304348,0,0,0.304348,30.9348,331.978)"><circle cx="26.5" cy="39.5" r="11.5" style="fill:rgb(99,61,54);stroke:rgb(99,61,54);stroke-width:3.29px;stroke-linecap:butt;stroke-miterlimit:2;"/></g><g id="in-6-led" transform="matrix(0.304348,0,0,0.304348,30.9348,251.978)"><circle cx="26.5" cy="39.5" r="11.5" style="fill:rgb(99,61,54);stroke:rgb(99,61,54);stroke-width:3.29px;stroke-linecap:butt;stroke-miterlimit:2;"/></g><g id="in-5-led" transform="matrix(0.304348,0,0,0.304348,30.9348,211.978)"><circle cx="26.5" cy="39.5" r="11.5" style="fill:rgb(99,61,54);stroke:rgb(99,61,54);stroke-width:3.29px;stroke-linecap:butt;stroke-miterlimit:2;"/></g><g id="in-4-led" transform="matrix(0.304348,0,0,0.304348,30.9348,171.978)"><circle cx="26.5" cy="39.5" r="11.5" style="fill:rgb(99,61,54);stroke:rgb(99,61,54);stroke-width:3.29px;stroke-linecap:butt;stroke-miterlimit:2;"/></g><g id="in-3-led" transform="matrix(0.304348,0,0,0.304348,30.9348,131.978)"><circle cx="26.5" cy="39.5" r="11.5" style="fill:rgb(99,61,54);stroke:rgb(99,61,54);stroke-width:3.29px;stroke-linecap:butt;stroke-miterlimit:2;"/></g><g id="in-2-led" transform="matrix(0.304348,0,0,0.304348,30.9348,91.9783)"><circle cx="26.5" cy="39.5" r="11.5" style="fill:rgb(99,61,54);stroke:rgb(99,61,54);stroke-width:3.29px;stroke-linecap:butt;stroke-miterlimit:2;"/></g><g id="in-1-led" transform="matrix(0.304348,0,0,0.304348,30.9348,51.9783)"><circle cx="26.5" cy="39.5" r="11.5" style="fill:rgb(99,61,54);stroke:rgb(99,61,54);stroke-width:3.29px;stroke-linecap:butt;stroke-miterlimit:2;"/></g></g><g id="text" transform="matrix(1,0,0,1,42.4702,15)"><g transform="matrix(1,0,0,1,81.0358,339.348)"><g transform="matrix(11,0,0,11,-3.751,0)"><path d="M0.341,0.008C0.283,0.008 0.236,0.004 0.199,-0.005C0.162,-0.014 0.134,-0.026 0.114,-0.043C0.094,-0.06 0.08,-0.08 0.073,-0.104C0.066,-0.127 0.062,-0.154 0.062,-0.184C0.062,-0.223 0.067,-0.253 0.077,-0.275C0.086,-0.296 0.1,-0.313 0.119,-0.324C0.138,-0.335 0.16,-0.343 0.187,-0.349L0.187,-0.353C0.146,-0.362 0.116,-0.378 0.097,-0.403C0.078,-0.428 0.068,-0.465 0.068,-0.515C0.068,-0.544 0.072,-0.57 0.081,-0.593C0.09,-0.616 0.104,-0.635 0.125,-0.65C0.145,-0.665 0.173,-0.677 0.208,-0.685C0.243,-0.692 0.288,-0.696 0.341,-0.696C0.394,-0.696 0.438,-0.692 0.473,-0.685C0.508,-0.677 0.536,-0.665 0.557,-0.65C0.577,-0.635 0.592,-0.616 0.601,-0.593C0.61,-0.57 0.614,-0.544 0.614,-0.515C0.614,-0.465 0.604,-0.428 0.585,-0.403C0.566,-0.378 0.536,-0.362 0.495,-0.353L0.495,-0.349C0.522,-0.343 0.545,-0.335 0.564,-0.324C0.582,-0.313 0.596,-0.296 0.606,-0.275C0.615,-0.253 0.62,-0.223 0.62,-0.184C0.62,-0.154 0.616,-0.127 0.608,-0.104C0.6,-0.08 0.586,-0.06 0.567,-0.043C0.547,-0.026 0.519,-0.014 0.482,-0.005C0.445,0.004 0.398,0.008 0.341,0.008ZM0.341,-0.107C0.376,-0.107 0.404,-0.109 0.424,-0.112C0.443,-0.115 0.457,-0.124 0.465,-0.137C0.472,-0.15 0.476,-0.17 0.476,-0.197C0.476,-0.218 0.474,-0.235 0.47,-0.248C0.466,-0.261 0.459,-0.27 0.45,-0.277C0.44,-0.283 0.426,-0.287 0.409,-0.29C0.391,-0.292 0.368,-0.293 0.341,-0.293C0.313,-0.293 0.29,-0.292 0.273,-0.29C0.256,-0.287 0.242,-0.283 0.232,-0.277C0.222,-0.27 0.215,-0.261 0.212,-0.248C0.208,-0.235 0.206,-0.218 0.206,-0.197C0.206,-0.17 0.21,-0.15 0.218,-0.137C0.225,-0.124 0.239,-0.115 0.259,-0.112C0.278,-0.109 0.306,-0.107 0.341,-0.107ZM0.341,-0.403C0.377,-0.403 0.404,-0.405 0.423,-0.41C0.441,-0.414 0.453,-0.422 0.46,-0.435C0.467,-0.448 0.47,-0.467 0.47,-0.492C0.47,-0.518 0.467,-0.537 0.461,-0.55C0.454,-0.563 0.442,-0.571 0.424,-0.576C0.405,-0.58 0.378,-0.582 0.341,-0.582C0.304,-0.582 0.277,-0.58 0.258,-0.576C0.239,-0.571 0.227,-0.563 0.221,-0.55C0.215,-0.537 0.212,-0.518 0.212,-0.492C0.212,-0.467 0.215,-0.448 0.222,-0.435C0.228,-0.422 0.24,-0.414 0.259,-0.41C0.278,-0.405 0.305,-0.403 0.341,-0.403Z" style="fill:rgb(250,250,250);fill-rule:nonzero;"/></g></g><g transform="matrix(1,0,0,1,81.0358,299.348)"><g transform="matrix(11,0,0,11,-3.1295,0)"><path d="M0.114,-0L0.377,-0.571L0.036,-0.571L0.036,-0.688L0.529,-0.688L0.529,-0.582L0.271,-0L0.114,-0Z" style="fill:rgb(250,250,250);fill-rule:nonzero;"/></g></g><g transform="matrix(1,0,0,1,81.0358,259.348)"><g transform="matrix(11,0,0,11,-3.652,0)"><path d="M0.344,0.008C0.298,0.008 0.259,0.006 0.227,0.002C0.194,-0.003 0.167,-0.011 0.146,-0.024C0.125,-0.037 0.107,-0.056 0.094,-0.081C0.087,-0.098 0.081,-0.118 0.076,-0.142C0.071,-0.166 0.067,-0.194 0.065,-0.227C0.063,-0.26 0.062,-0.297 0.062,-0.34C0.062,-0.377 0.063,-0.41 0.065,-0.44C0.066,-0.469 0.069,-0.496 0.074,-0.519C0.079,-0.542 0.085,-0.563 0.092,-0.581C0.104,-0.611 0.121,-0.634 0.142,-0.651C0.163,-0.667 0.191,-0.679 0.226,-0.686C0.26,-0.693 0.302,-0.696 0.351,-0.696C0.37,-0.696 0.392,-0.695 0.417,-0.693C0.442,-0.691 0.467,-0.689 0.494,-0.686C0.52,-0.683 0.545,-0.679 0.568,-0.675L0.568,-0.566C0.545,-0.569 0.521,-0.571 0.498,-0.573C0.474,-0.575 0.452,-0.577 0.431,-0.578C0.41,-0.579 0.393,-0.58 0.379,-0.58C0.34,-0.58 0.309,-0.578 0.286,-0.573C0.263,-0.568 0.245,-0.558 0.234,-0.544C0.222,-0.53 0.214,-0.51 0.211,-0.483C0.207,-0.456 0.205,-0.421 0.205,-0.377L0.211,-0.377C0.217,-0.384 0.226,-0.391 0.238,-0.399C0.25,-0.406 0.267,-0.413 0.29,-0.418C0.312,-0.423 0.342,-0.426 0.379,-0.426C0.418,-0.426 0.451,-0.423 0.48,-0.418C0.509,-0.413 0.532,-0.403 0.551,-0.389C0.57,-0.374 0.584,-0.354 0.593,-0.328C0.602,-0.302 0.606,-0.268 0.606,-0.226C0.606,-0.182 0.603,-0.145 0.596,-0.115C0.588,-0.085 0.576,-0.061 0.557,-0.043C0.538,-0.025 0.511,-0.012 0.477,-0.004C0.443,0.004 0.399,0.008 0.344,0.008ZM0.336,-0.107C0.363,-0.107 0.385,-0.108 0.402,-0.11C0.419,-0.112 0.433,-0.116 0.443,-0.123C0.452,-0.13 0.459,-0.14 0.463,-0.153C0.466,-0.166 0.468,-0.184 0.468,-0.207C0.468,-0.23 0.466,-0.249 0.463,-0.264C0.459,-0.278 0.452,-0.288 0.443,-0.295C0.434,-0.302 0.42,-0.306 0.403,-0.308C0.386,-0.31 0.363,-0.311 0.336,-0.311C0.307,-0.311 0.284,-0.309 0.267,-0.306C0.249,-0.303 0.237,-0.298 0.229,-0.291C0.22,-0.284 0.215,-0.275 0.212,-0.264C0.209,-0.253 0.208,-0.24 0.208,-0.224C0.208,-0.196 0.21,-0.174 0.215,-0.159C0.219,-0.143 0.226,-0.131 0.236,-0.124C0.245,-0.117 0.258,-0.112 0.275,-0.11C0.291,-0.108 0.311,-0.107 0.336,-0.107Z" style="fill:rgb(250,250,250);fill-rule:nonzero;"/></g></g><g transform="matrix(1,0,0,1,81.0358,219.348)"><g transform="matrix(11,0,0,11,-3.4265,0)"><path d="M0.291,0.008C0.269,0.008 0.245,0.007 0.219,0.006C0.192,0.004 0.166,0.002 0.141,-0.002C0.116,-0.005 0.093,-0.008 0.073,-0.012L0.073,-0.12C0.098,-0.118 0.123,-0.116 0.148,-0.114C0.172,-0.112 0.196,-0.111 0.219,-0.11C0.241,-0.109 0.26,-0.108 0.276,-0.108C0.306,-0.108 0.33,-0.11 0.349,-0.113C0.368,-0.116 0.382,-0.121 0.393,-0.128C0.403,-0.135 0.41,-0.146 0.415,-0.159C0.419,-0.172 0.421,-0.189 0.421,-0.21C0.421,-0.232 0.419,-0.25 0.414,-0.264C0.409,-0.277 0.401,-0.287 0.39,-0.294C0.379,-0.3 0.363,-0.304 0.344,-0.307C0.325,-0.309 0.3,-0.31 0.27,-0.31C0.253,-0.31 0.234,-0.31 0.212,-0.309C0.19,-0.308 0.168,-0.306 0.145,-0.305C0.122,-0.303 0.101,-0.301 0.081,-0.298L0.081,-0.688L0.513,-0.688L0.513,-0.571L0.208,-0.571L0.208,-0.417C0.22,-0.418 0.234,-0.42 0.251,-0.421C0.267,-0.422 0.283,-0.423 0.3,-0.424C0.316,-0.425 0.33,-0.425 0.343,-0.425C0.388,-0.425 0.425,-0.421 0.454,-0.412C0.483,-0.403 0.505,-0.39 0.521,-0.373C0.537,-0.355 0.548,-0.334 0.555,-0.309C0.561,-0.284 0.564,-0.255 0.564,-0.222C0.564,-0.181 0.56,-0.146 0.553,-0.117C0.545,-0.088 0.531,-0.064 0.512,-0.046C0.492,-0.027 0.464,-0.014 0.428,-0.005C0.392,0.004 0.346,0.008 0.291,0.008Z" style="fill:rgb(250,250,250);fill-rule:nonzero;"/></g></g><g transform="matrix(1,0,0,1,81.0358,179.348)"><g transform="matrix(11,0,0,11,-3.5585,0)"><path d="M0.378,-0L0.378,-0.145L0.038,-0.145L0.038,-0.248L0.291,-0.688L0.445,-0.688L0.191,-0.261L0.38,-0.261L0.418,-0.45L0.519,-0.45L0.519,-0.261L0.611,-0.261L0.611,-0.145L0.519,-0.145L0.519,-0L0.378,-0Z" style="fill:rgb(250,250,250);fill-rule:nonzero;"/></g></g><g transform="matrix(1,0,0,1,81.0358,139.348)"><g transform="matrix(11,0,0,11,-3.3385,0)"><path d="M0.269,0.008C0.247,0.008 0.223,0.007 0.197,0.006C0.17,0.004 0.145,0.001 0.12,-0.002C0.095,-0.005 0.073,-0.009 0.054,-0.012L0.054,-0.12C0.077,-0.118 0.101,-0.116 0.127,-0.114C0.152,-0.112 0.175,-0.111 0.199,-0.11C0.222,-0.109 0.241,-0.108 0.257,-0.108C0.29,-0.108 0.318,-0.11 0.339,-0.113C0.36,-0.116 0.376,-0.123 0.386,-0.136C0.395,-0.149 0.4,-0.169 0.4,-0.197C0.4,-0.222 0.397,-0.241 0.39,-0.255C0.383,-0.268 0.372,-0.278 0.357,-0.283C0.341,-0.288 0.32,-0.29 0.293,-0.29L0.173,-0.29L0.173,-0.406L0.293,-0.406C0.315,-0.406 0.334,-0.408 0.349,-0.413C0.364,-0.417 0.375,-0.425 0.382,-0.437C0.389,-0.449 0.393,-0.467 0.393,-0.492C0.393,-0.52 0.389,-0.54 0.381,-0.553C0.372,-0.565 0.357,-0.573 0.336,-0.576C0.315,-0.579 0.285,-0.58 0.247,-0.58C0.228,-0.58 0.206,-0.579 0.184,-0.578C0.161,-0.577 0.138,-0.575 0.116,-0.574C0.094,-0.572 0.075,-0.57 0.058,-0.567L0.058,-0.676C0.077,-0.68 0.098,-0.684 0.123,-0.687C0.148,-0.69 0.173,-0.692 0.199,-0.694C0.225,-0.695 0.249,-0.696 0.27,-0.696C0.321,-0.696 0.364,-0.692 0.399,-0.684C0.433,-0.676 0.46,-0.664 0.481,-0.649C0.501,-0.634 0.515,-0.615 0.524,-0.593C0.533,-0.57 0.537,-0.544 0.537,-0.515C0.537,-0.465 0.527,-0.428 0.507,-0.403C0.487,-0.378 0.458,-0.362 0.419,-0.353L0.419,-0.349C0.445,-0.344 0.467,-0.335 0.486,-0.324C0.505,-0.313 0.519,-0.296 0.529,-0.274C0.539,-0.251 0.544,-0.221 0.544,-0.184C0.544,-0.156 0.54,-0.13 0.533,-0.107C0.525,-0.083 0.511,-0.063 0.492,-0.046C0.473,-0.028 0.445,-0.015 0.409,-0.006C0.373,0.003 0.326,0.008 0.269,0.008Z" style="fill:rgb(250,250,250);fill-rule:nonzero;"/></g></g><g transform="matrix(1,0,0,1,81.0358,99.348)"><g transform="matrix(11,0,0,11,-3.3605,0)"><path d="M0.059,-0L0.059,-0.09C0.059,-0.129 0.06,-0.162 0.062,-0.189C0.064,-0.216 0.069,-0.238 0.077,-0.257C0.084,-0.276 0.096,-0.292 0.112,-0.305C0.127,-0.318 0.149,-0.331 0.177,-0.342L0.335,-0.406C0.356,-0.415 0.372,-0.424 0.383,-0.431C0.394,-0.438 0.401,-0.446 0.404,-0.457C0.407,-0.468 0.409,-0.482 0.409,-0.5C0.409,-0.524 0.405,-0.542 0.397,-0.554C0.388,-0.565 0.374,-0.573 0.354,-0.576C0.333,-0.579 0.304,-0.58 0.267,-0.58C0.252,-0.58 0.234,-0.579 0.212,-0.578C0.19,-0.577 0.167,-0.575 0.143,-0.573C0.119,-0.571 0.096,-0.569 0.073,-0.566L0.073,-0.675C0.094,-0.679 0.118,-0.683 0.145,-0.686C0.172,-0.689 0.201,-0.691 0.23,-0.693C0.259,-0.695 0.285,-0.696 0.31,-0.696C0.343,-0.696 0.375,-0.694 0.404,-0.69C0.433,-0.686 0.458,-0.678 0.48,-0.665C0.502,-0.652 0.519,-0.634 0.532,-0.609C0.545,-0.584 0.551,-0.551 0.551,-0.509C0.551,-0.468 0.547,-0.434 0.538,-0.409C0.529,-0.384 0.515,-0.363 0.497,-0.348C0.479,-0.333 0.457,-0.32 0.43,-0.309L0.25,-0.237C0.234,-0.231 0.222,-0.225 0.215,-0.218C0.207,-0.211 0.202,-0.202 0.2,-0.191C0.197,-0.18 0.196,-0.165 0.196,-0.146L0.196,-0.117L0.551,-0.117L0.551,-0L0.059,-0Z" style="fill:rgb(250,250,250);fill-rule:nonzero;"/></g></g><g transform="matrix(1,0,0,1,81.0358,59.348)"><g transform="matrix(11,0,0,11,-2.1395,0)"><path d="M0.158,-0L0.158,-0.536L0.024,-0.478L0.024,-0.597L0.203,-0.688L0.3,-0.688L0.3,-0L0.158,-0Z" style="fill:rgb(250,250,250);fill-rule:nonzero;"/></g></g></g></g><g id="LED" transform="matrix(0.596842,0,0,1.70526,-38.0289,-7.71429)"><ellipse cx="72.094" cy="16.252" rx="3.351" ry="1.173" style="fill:rgb(42,42,42);"/></g><g id="not-things-lines" serif:id="not-things lines" transform="matrix(0.00411803,0,0,0.00411803,-22.2673,355.894)"><g transform="matrix(0.978109,0,0,0.959074,7233.25,-101.159)"><path d="M4760,3985L9305.27,3985" style="fill:none;stroke:rgb(255,134,0);stroke-width:313.37px;"/></g><g transform="matrix(0.970692,0,0,0.959074,7272.62,-101.159)"><path d="M4410,2560L-1921.67,2560" style="fill:none;stroke:rgb(255,134,0);stroke-width:314.58px;"/></g><g transform="matrix(0.96045,0,0,0.96045,7473.62,-1632.04)"><path d="M5226.34,4325L5226.34,7541.25" style="fill:none;stroke:rgb(255,134,0);stroke-width:316.04px;"/></g><g transform="matrix(0.959074,0,0,0.960269,7146.63,-1632.54)"><path d="M3964.79,5400L3964.79,2232.68" style="fill:none;stroke:rgb(255,134,0);stroke-width:316.3px;"/></g><g transform="matrix(0.959074,0,0,0.959074,7323.91,-101.095)"><path d="M4235,3297L4935,3297" style="fill:none;stroke:rgb(255,134,0);stroke-width:316.5px;"/></g><g transform="matrix(0.950864,0,0,0.950864,7164.38,-150.825)"><path d="M3330.5,1915.9C3704.78,1541.63 4221.7,1310 4792.3,1310C5933.49,1310 6860,2236.51 6860,3377.7C6860,4518.9 5933.49,5445.4 4792.3,5445.4C3651.1,5445.4 2724.6,4518.9 2724.6,3377.7" style="fill:none;stroke:rgb(255,134,0);stroke-width:319.23px;"/></g></g><g transform="matrix(0.00402788,0,0,0.0039495,7.51945,-1.22874)"><path d="M-1866.85,3985L9305.27,3985" style="fill:none;stroke:rgb(255,134,0);stroke-width:313.37px;"/></g><g transform="matrix(1,0,0,1,-44.8166,4.90775)"><g transform="matrix(11.75,0,0,11.75,47.4523,10.2272)"><path d="M0.3,0.008C0.271,0.008 0.241,0.007 0.209,0.006C0.176,0.005 0.145,0.003 0.114,0.001C0.083,-0.002 0.056,-0.004 0.031,-0.007L0.054,-0.117C0.078,-0.115 0.103,-0.113 0.129,-0.111C0.155,-0.109 0.18,-0.107 0.205,-0.106C0.229,-0.105 0.25,-0.104 0.267,-0.104C0.289,-0.104 0.308,-0.105 0.324,-0.106C0.339,-0.107 0.353,-0.108 0.364,-0.111C0.375,-0.113 0.385,-0.116 0.394,-0.12C0.401,-0.124 0.407,-0.13 0.412,-0.137C0.417,-0.143 0.421,-0.151 0.425,-0.16C0.429,-0.169 0.432,-0.178 0.435,-0.188C0.437,-0.197 0.439,-0.207 0.44,-0.216C0.44,-0.225 0.441,-0.232 0.441,-0.238C0.441,-0.248 0.439,-0.256 0.434,-0.261C0.429,-0.266 0.421,-0.27 0.409,-0.273C0.397,-0.276 0.38,-0.278 0.358,-0.281L0.206,-0.303C0.166,-0.308 0.139,-0.321 0.124,-0.341C0.109,-0.36 0.102,-0.387 0.102,-0.421C0.102,-0.433 0.103,-0.447 0.105,-0.462C0.107,-0.476 0.11,-0.492 0.113,-0.508C0.122,-0.549 0.135,-0.583 0.152,-0.608C0.169,-0.632 0.189,-0.651 0.214,-0.664C0.238,-0.677 0.266,-0.685 0.299,-0.69C0.331,-0.694 0.367,-0.696 0.406,-0.696C0.435,-0.696 0.464,-0.695 0.494,-0.694C0.524,-0.693 0.552,-0.691 0.579,-0.688C0.606,-0.685 0.628,-0.682 0.645,-0.678L0.623,-0.571C0.604,-0.574 0.583,-0.576 0.56,-0.578C0.536,-0.58 0.512,-0.582 0.487,-0.583C0.462,-0.584 0.439,-0.584 0.417,-0.584C0.396,-0.584 0.379,-0.583 0.364,-0.582C0.349,-0.581 0.336,-0.579 0.325,-0.576C0.314,-0.573 0.305,-0.57 0.297,-0.566C0.289,-0.561 0.282,-0.555 0.276,-0.547C0.27,-0.539 0.265,-0.53 0.262,-0.52C0.259,-0.51 0.256,-0.5 0.255,-0.49C0.253,-0.48 0.252,-0.47 0.252,-0.46C0.252,-0.447 0.257,-0.438 0.267,-0.434C0.276,-0.429 0.293,-0.425 0.318,-0.422L0.465,-0.402C0.488,-0.399 0.51,-0.394 0.529,-0.387C0.548,-0.38 0.564,-0.369 0.575,-0.353C0.586,-0.337 0.592,-0.313 0.592,-0.28C0.592,-0.272 0.592,-0.264 0.591,-0.255C0.59,-0.245 0.589,-0.236 0.588,-0.225C0.586,-0.214 0.584,-0.203 0.581,-0.192C0.571,-0.145 0.558,-0.109 0.541,-0.082C0.524,-0.055 0.503,-0.035 0.48,-0.022C0.457,-0.009 0.43,-0.001 0.4,0.003C0.37,0.006 0.337,0.008 0.3,0.008Z" style="fill:none;fill-rule:nonzero;stroke:rgb(42,42,42);stroke-width:0.26px;stroke-linecap:butt;stroke-miterlimit:2;"/></g><g transform="matrix(11.75,0,0,11.75,54.9958,10.2272)"><path d="M0.034,-0L0.181,-0.688L0.324,-0.688L0.203,-0.118L0.502,-0.118L0.476,-0L0.034,-0Z" style="fill:none;fill-rule:nonzero;stroke:rgb(42,42,42);stroke-width:0.26px;stroke-linecap:butt;stroke-miterlimit:2;"/></g><g transform="matrix(11.75,0,0,11.75,61.4583,10.2272)"><path d="M0.054,-0.231L0.077,-0.339L0.347,-0.339L0.324,-0.231L0.054,-0.231Z" style="fill:none;fill-rule:nonzero;stroke:rgb(42,42,42);stroke-width:0.26px;stroke-linecap:butt;stroke-miterlimit:2;"/></g><g transform="matrix(11.75,0,0,11.75,65.8998,10.2272)"><path d="M0.324,0.008C0.254,0.008 0.199,0.004 0.16,-0.006C0.121,-0.014 0.093,-0.031 0.077,-0.054C0.06,-0.077 0.052,-0.108 0.052,-0.149C0.052,-0.174 0.055,-0.202 0.061,-0.235C0.066,-0.268 0.073,-0.305 0.082,-0.348C0.094,-0.405 0.105,-0.454 0.116,-0.495C0.126,-0.536 0.138,-0.569 0.153,-0.596C0.168,-0.622 0.187,-0.642 0.211,-0.657C0.234,-0.672 0.265,-0.682 0.302,-0.688C0.339,-0.693 0.386,-0.696 0.441,-0.696C0.511,-0.696 0.566,-0.692 0.605,-0.683C0.644,-0.674 0.671,-0.658 0.688,-0.635C0.704,-0.612 0.712,-0.579 0.712,-0.538C0.712,-0.513 0.709,-0.484 0.705,-0.452C0.7,-0.42 0.692,-0.383 0.683,-0.34C0.67,-0.282 0.658,-0.233 0.647,-0.192C0.636,-0.151 0.623,-0.118 0.608,-0.092C0.593,-0.066 0.574,-0.046 0.551,-0.031C0.528,-0.016 0.498,-0.006 0.462,-0.001C0.425,0.005 0.379,0.008 0.324,0.008ZM0.331,-0.104C0.361,-0.104 0.386,-0.105 0.405,-0.107C0.424,-0.109 0.44,-0.114 0.454,-0.121C0.467,-0.128 0.477,-0.141 0.486,-0.158C0.495,-0.175 0.503,-0.199 0.511,-0.229C0.519,-0.259 0.528,-0.297 0.538,-0.344C0.547,-0.384 0.554,-0.418 0.559,-0.446C0.563,-0.474 0.565,-0.497 0.565,-0.515C0.565,-0.537 0.561,-0.553 0.552,-0.563C0.543,-0.572 0.529,-0.578 0.51,-0.581C0.491,-0.583 0.465,-0.584 0.433,-0.584C0.403,-0.584 0.378,-0.583 0.359,-0.581C0.339,-0.579 0.323,-0.574 0.31,-0.567C0.297,-0.56 0.286,-0.547 0.277,-0.53C0.268,-0.513 0.26,-0.489 0.252,-0.459C0.244,-0.429 0.235,-0.391 0.226,-0.344C0.22,-0.317 0.215,-0.292 0.211,-0.271C0.206,-0.249 0.203,-0.23 0.201,-0.215C0.198,-0.199 0.197,-0.185 0.197,-0.172C0.197,-0.151 0.202,-0.135 0.211,-0.126C0.22,-0.116 0.234,-0.11 0.253,-0.108C0.272,-0.105 0.298,-0.104 0.331,-0.104Z" style="fill:none;fill-rule:nonzero;stroke:rgb(42,42,42);stroke-width:0.26px;stroke-linecap:butt;stroke-miterlimit:2;"/></g><g transform="matrix(11.75,0,0,11.75,47.4523,10.2272)"><path d="M0.3,0.008C0.271,0.008 0.241,0.007 0.209,0.006C0.176,0.005 0.145,0.003 0.114,0.001C0.083,-0.002 0.056,-0.004 0.031,-0.007L0.054,-0.117C0.078,-0.115 0.103,-0.113 0.129,-0.111C0.155,-0.109 0.18,-0.107 0.205,-0.106C0.229,-0.105 0.25,-0.104 0.267,-0.104C0.289,-0.104 0.308,-0.105 0.324,-0.106C0.339,-0.107 0.353,-0.108 0.364,-0.111C0.375,-0.113 0.385,-0.116 0.394,-0.12C0.401,-0.124 0.407,-0.13 0.412,-0.137C0.417,-0.143 0.421,-0.151 0.425,-0.16C0.429,-0.169 0.432,-0.178 0.435,-0.188C0.437,-0.197 0.439,-0.207 0.44,-0.216C0.44,-0.225 0.441,-0.232 0.441,-0.238C0.441,-0.248 0.439,-0.256 0.434,-0.261C0.429,-0.266 0.421,-0.27 0.409,-0.273C0.397,-0.276 0.38,-0.278 0.358,-0.281L0.206,-0.303C0.166,-0.308 0.139,-0.321 0.124,-0.341C0.109,-0.36 0.102,-0.387 0.102,-0.421C0.102,-0.433 0.103,-0.447 0.105,-0.462C0.107,-0.476 0.11,-0.492 0.113,-0.508C0.122,-0.549 0.135,-0.583 0.152,-0.608C0.169,-0.632 0.189,-0.651 0.214,-0.664C0.238,-0.677 0.266,-0.685 0.299,-0.69C0.331,-0.694 0.367,-0.696 0.406,-0.696C0.435,-0.696 0.464,-0.695 0.494,-0.694C0.524,-0.693 0.552,-0.691 0.579,-0.688C0.606,-0.685 0.628,-0.682 0.645,-0.678L0.623,-0.571C0.604,-0.574 0.583,-0.576 0.56,-0.578C0.536,-0.58 0.512,-0.582 0.487,-0.583C0.462,-0.584 0.439,-0.584 0.417,-0.584C0.396,-0.584 0.379,-0.583 0.364,-0.582C0.349,-0.581 0.336,-0.579 0.325,-0.576C0.314,-0.573 0.305,-0.57 0.297,-0.566C0.289,-0.561 0.282,-0.555 0.276,-0.547C0.27,-0.539 0.265,-0.53 0.262,-0.52C0.259,-0.51 0.256,-0.5 0.255,-0.49C0.253,-0.48 0.252,-0.47 0.252,-0.46C0.252,-0.447 0.257,-0.438 0.267,-0.434C0.276,-0.429 0.293,-0.425 0.318,-0.422L0.465,-0.402C0.488,-0.399 0.51,-0.394 0.529,-0.387C0.548,-0.38 0.564,-0.369 0.575,-0.353C0.586,-0.337 0.592,-0.313 0.592,-0.28C0.592,-0.272 0.592,-0.264 0.591,-0.255C0.59,-0.245 0.589,-0.236 0.588,-0.225C0.586,-0.214 0.584,-0.203 0.581,-0.192C0.571,-0.145 0.558,-0.109 0.541,-0.082C0.524,-0.055 0.503,-0.035 0.48,-0.022C0.457,-0.009 0.43,-0.001 0.4,0.003C0.37,0.006 0.337,0.008 0.3,0.008Z" style="fill:rgb(250,250,250);fill-rule:nonzero;"/></g><g transform="matrix(11.75,0,0,11.75,54.9958,10.2272)"><path d="M0.034,-0L0.181,-0.688L0.324,-0.688L0.203,-0.118L0.502,-0.118L0.476,-0L0.034,-0Z" style="fill:rgb(250,250,250);fill-rule:nonzero;"/></g><g transform="matrix(11.75,0,0,11.75,61.4583,10.2272)"><path d="M0.054,-0.231L0.077,-0.339L0.347,-0.339L0.324,-0.231L0.054,-0.231Z" style="fill:rgb(250,250,250);fill-rule:nonzero;"/></g><g transform="matrix(11.75,0,0,11.75,65.8998,10.2272)"><path d="M0.324,0.008C0.254,0.008 0.199,0.004 0.16,-0.006C0.121,-0.014 0.093,-0.031 0.077,-0.054C0.06,-0.077 0.052,-0.108 0.052,-0.149C0.052,-0.174 0.055,-0.202 0.061,-0.235C0.066,-0.268 0.073,-0.305 0.082,-0.348C0.094,-0.405 0.105,-0.454 0.116,-0.495C0.126,-0.536 0.138,-0.569 0.153,-0.596C0.168,-0.622 0.187,-0.642 0.211,-0.657C0.234,-0.672 0.265,-0.682 0.302,-0.688C0.339,-0.693 0.386,-0.696 0.441,-0.696C0.511,-0.696 0.566,-0.692 0.605,-0.683C0.644,-0.674 0.671,-0.658 0.688,-0.635C0.704,-0.612 0.712,-0.579 0.712,-0.538C0.712,-0.513 0.709,-0.484 0.705,-0.452C0.7,-0.42 0.692,-0.383 0.683,-0.34C0.67,-0.282 0.658,-0.233 0.647,-0.192C0.636,-0.151 0.623,-0.118 0.608,-0.092C0.593,-0.066 0.574,-0.046 0.551,-0.031C0.528,-0.016 0.498,-0.006 0.462,-0.001C0.425,0.005 0.379,0.008 0.324,0.008ZM0.331,-0.104C0.361,-0.104 0.386,-0.105 0.405,-0.107C0.424,-0.109 0.44,-0.114 0.454,-0.121C0.467,-0.128 0.477,-0.141 0.486,-0.158C0.495,-0.175 0.503,-0.199 0.511,-0.229C0.519,-0.259 0.528,-0.297 0.538,-0.344C0.547,-0.384 0.554,-0.418 0.559,-0.446C0.563,-0.474 0.565,-0.497 0.565,-0.515C0.565,-0.537 0.561,-0.553 0.552,-0.563C0.543,-0.572 0.529,-0.578 0.51,-0.581C0.491,-0.583 0.465,-0.584 0.433,-0.584C0.403,-0.584 0.378,-0.583 0.359,-0.581C0.339,-0.579 0.323,-0.574 0.31,-0.567C0.297,-0.56 0.286,-0.547 0.277,-0.53C0.268,-0.513 0.26,-0.489 0.252,-0.459C0.244,-0.429 0.235,-0.391 0.226,-0.344C0.22,-0.317 0.215,-0.292 0.211,-0.271C0.206,-0.249 0.203,-0.23 0.201,-0.215C0.198,-0.199 0.197,-0.185 0.197,-0.172C0.197,-0.151 0.202,-0.135 0.211,-0.126C0.22,-0.116 0.234,-0.11 0.253,-0.108C0.272,-0.105 0.298,-0.104 0.331,-0.104Z" style="fill:rgb(250,250,250);fill-rule:nonzero;"/></g></g></svg>