<?xml version="1.0" encoding="UTF-8" standalone="no"?><!DOCTYPE svg PUBLIC "-//W3C//DTD SVG 1.1//EN" "http://www.w3.org/Graphics/SVG/1.1/DTD/svg11.dtd"><svg width="100%" height="100%" viewBox="0 0 45 380" version="1.1" xmlns="http://www.w3.org/2000/svg" xmlns:xlink="http://www.w3.org/1999/xlink" xml:space="preserve" xmlns:serif="http://www.serif.com/" style="fill-rule:evenodd;clip-rule:evenodd;stroke-linecap:round;stroke-linejoin:round;stroke-miterlimit:1.5;"><g id="background" transform="matrix(0.3,0,0,1,0,0)"><rect x="0" y="0" width="150" height="380" style="fill:rgb(42,42,42);"/></g><g id="not-things-lines" serif:id="not-things lines" transform="matrix(0.00411803,0,0,0.00411803,-22.2673,355.894)"><g transform="matrix(0.978109,0,0,0.959074,7233.25,-101.159)"><path d="M4760,3985L9305.27,3985" style="fill:none;stroke:rgb(148,88,21);stroke-width:313.37px;"/></g><g transform="matrix(0.970692,0,0,0.959074,7272.62,-101.159)"><path d="M4410,2560L-1921.67,2560" style="fill:none;stroke:rgb(148,88,21);stroke-width:314.58px;"/></g><g transform="matrix(0.96045,0,0,0.96045,7473.62,-1632.04)"><path d="M5226.34,4325L5226.34,7541.25" style="fill:none;stroke:rgb(148,88,21);stroke-width:316.04px;"/></g><g transform="matrix(0.959074,0,0,0.960269,7146.63,-1632.54)"><path d="M3964.79,5400L3964.79,2232.68" style="fill:none;stroke:rgb(148,88,21);stroke-width:316.3px;"/></g><g transform="matrix(0.959074,0,0,0.959074,7323.91,-101.095)"><path d="M4235,3297L4935,3297" style="fill:none;stroke:rgb(148,88,21);stroke-width:316.5px;"/></g><g transform="matrix(0.950864,0,0,0.950864,7164.38,-150.825)"><path d="M3330.5,1915.9C3704.78,1541.63 4221.7,1310 4792.3,1310C5933.49,1310 6860,2236.51 6860,3377.7C6860,4518.9 5933.49,5445.4 4792.3,5445.4C3651.1,5445.4 2724.6,4518.9 2724.6,3377.7" style="fill:none;stroke:rgb(148,88,21);stroke-width:319.23px;"/></g></g><g transform="matrix(0.661619,0,0,1,-26.1432,12.5429)"><path d="M47.071,261.457L99.972,261.457" style="fill:none;stroke:rgb(136,136,136);stroke-width:1.18px;"/></g><g transform="matrix(0.661619,0,0,1,-26.1432,-71.4571)"><path d="M47.071,261.457L99.972,261.457" style="fill:none;stroke:rgb(136,136,136);stroke-width:1.18px;"/></g><g transform="matrix(0.661619,0,0,1,-26.1432,-155.457)"><path d="M47.071,261.457L99.972,261.457" style="fill:none;stroke:rgb(136,136,136);stroke-width:1.18px;"/></g><g id="controls-background" serif:id="controls background" transform="matrix(1,0,0,1,-4,50.0003)"><g id="input"><g id="controls-background1" serif:id="controls background"><g id="in-6" transform="matrix(1.26087,0,0,1.26087,-6.91304,-17.4785)"><path d="M15,239.5C15,245.851 20.149,251 26.5,251C32.847,251 38,245.847 38,239.5C38,233.153 32.847,228 26.5,228C23.45,228 20.525,229.212 18.368,231.368C20.525,229.212 23.45,228 26.5,228C32.847,228 38,233.153 38,239.5C38,245.847 32.847,251 26.5,251C20.149,251 15,245.851 15,239.5Z" style="fill:none;stroke:rgb(222,222,222);stroke-width:1.59px;stroke-linecap:butt;stroke-miterlimit:2;"/></g><g id="in-61" serif:id="in-6" transform="matrix(1.56522,0,0,1.56522,-14.9783,-90.3698)"><path d="M15,239.5C15,245.851 20.149,251 26.5,251C32.847,251 38,245.847 38,239.5C38,233.153 32.847,228 26.5,228C23.45,228 20.525,229.212 18.368,231.368C20.525,229.212 23.45,228 26.5,228C32.847,228 38,233.153 38,239.5C38,245.847 32.847,251 26.5,251C20.149,251 15,245.851 15,239.5Z" style="fill:none;stroke:rgb(222,222,222);stroke-width:1.28px;stroke-linecap:butt;stroke-miterlimit:2;"/></g><g id="in-62" serif:id="in-6" transform="matrix(1.26087,0,0,1.26087,-6.91304,-101.479)"><path d="M15,239.5C15,245.851 20.149,251 26.5,251C32.847,251 38,245.847 38,239.5C38,233.153 32.847,228 26.5,228C23.45,228 20.525,229.212 18.368,231.368C20.525,229.212 23.45,228 26.5,228C32.847,228 38,233.153 38,239.5C38,245.847 32.847,251 26.5,251C20.149,251 15,245.851 15,239.5Z" style="fill:none;stroke:rgb(222,222,222);stroke-width:1.59px;stroke-linecap:butt;stroke-miterlimit:2;"/></g><g id="in-63" serif:id="in-6" transform="matrix(1.56522,0,0,1.56522,-14.9783,-174.37)"><path d="M15,239.5C15,245.851 20.149,251 26.5,251C32.847,251 38,245.847 38,239.5C38,233.153 32.847,228 26.5,228C23.45,228 20.525,229.212 18.368,231.368C20.525,229.212 23.45,228 26.5,228C32.847,228 38,233.153 38,239.5C38,245.847 32.847,251 26.5,251C20.149,251 15,245.851 15,239.5Z" style="fill:none;stroke:rgb(222,222,222);stroke-width:1.28px;stroke-linecap:butt;stroke-miterlimit:2;"/></g><g id="in-64" serif:id="in-6" transform="matrix(1.26087,0,0,1.26087,-6.91304,-185.479)"><path d="M15,239.5C15,245.851 20.149,251 26.5,251C32.847,251 38,245.847 38,239.5C38,233.153 32.847,228 26.5,228C23.45,228 20.525,229.212 18.368,231.368C20.525,229.212 23.45,228 26.5,228C32.847,228 38,233.153 38,239.5C38,245.847 32.847,251 26.5,251C20.149,251 15,245.851 15,239.5Z" style="fill:none;stroke:rgb(222,222,222);stroke-width:1.59px;stroke-linecap:butt;stroke-miterlimit:2;"/></g><g id="in-65" serif:id="in-6" transform="matrix(1.56522,0,0,1.56522,-14.9783,-258.37)"><path d="M15,239.5C15,245.851 20.149,251 26.5,251C32.847,251 38,245.847 38,239.5C38,233.153 32.847,228 26.5,228C23.45,228 20.525,229.212 18.368,231.368C20.525,229.212 23.45,228 26.5,228C32.847,228 38,233.153 38,239.5C38,245.847 32.847,251 26.5,251C20.149,251 15,245.851 15,239.5Z" style="fill:none;stroke:rgb(222,222,222);stroke-width:1.28px;stroke-linecap:butt;stroke-miterlimit:2;"/></g><g id="in-66" serif:id="in-6" transform="matrix(1.26087,0,0,1.26087,-6.91304,-269.479)"><path d="M15,239.5C15,245.851 20.149,251 26.5,251C32.847,251 38,245.847 38,239.5C38,233.153 32.847,228 26.5,228C23.45,228 20.525,229.212 18.368,231.368C20.525,229.212 23.45,228 26.5,228C32.847,228 38,233.153 38,239.5C38,245.847 32.847,251 26.5,251C20.149,251 15,245.851 15,239.5Z" style="fill:none;stroke:rgb(222,222,222);stroke-width:1.59px;stroke-linecap:butt;stroke-miterlimit:2;"/></g><g id="in-67" serif:id="in-6" transform="matrix(1.56522,0,0,1.56522,-14.9783,-342.37)"><path d="M15,239.5C15,245.851 20.149,251 26.5,251C32.847,251 38,245.847 38,239.5C38,233.153 32.847,228 26.5,228C23.45,228 20.525,229.212 18.368,231.368C20.525,229.212 23.45,228 26.5,228C32.847,228 38,233.153 38,239.5C38,245.847 32.847,251 26.5,251C20.149,251 15,245.851 15,239.5Z" style="fill:none;stroke:rgb(222,222,222);stroke-width:1.28px;stroke-linecap:butt;stroke-miterlimit:2;"/></g><g transform="matrix(2.78968,0,0,9.5072,-182.74,-734.699)"><path d="M75,104C75.023,104.056 75,106.934 75,106.934" style="fill:none;stroke:rgb(222,222,222);stroke-width:0.43px;"/></g><g transform="matrix(2.78968,0,0,9.5072,-182.74,-818.699)"><path d="M75,104C75.023,104.056 75,106.934 75,106.934" style="fill:none;stroke:rgb(222,222,222);stroke-width:0.43px;"/></g><g transform="matrix(2.78968,0,0,9.5072,-182.74,-902.699)"><path d="M75,104C75.023,104.056 75,106.934 75,106.934" style="fill:none;stroke:rgb(222,222,222);stroke-width:0.43px;"/></g><g transform="matrix(2.78968,0,0,9.5072,-182.74,-986.699)"><path d="M75,104C75.023,104.056 75,106.934 75,106.934" style="fill:none;stroke:rgb(222,222,222);stroke-width:0.43px;"/></g></g></g></g><g id="icons" transform="matrix(1,0,0,1,0,-64.371)"><g id="reset" transform="matrix(-0.562992,0,0,0.562992,34.5365,254.514)"><g transform="matrix(-1.77622,0,0,1.77622,61.3445,-337.736)"><path d="M19.343,280.008L17.911,284.304L22.207,282.872L19.343,280.008Z" style="fill:rgb(250,250,250);"/><path d="M20.202,282.013C20.811,281.403 21.638,281.061 22.5,281.061C24.294,281.061 25.75,282.517 25.75,284.311C25.75,286.105 24.294,287.561 22.5,287.561C21.134,287.561 19.913,286.706 19.446,285.423C19.913,286.706 21.134,287.561 22.5,287.561C24.294,287.561 25.75,286.105 25.75,284.311C25.75,282.517 24.294,281.061 22.5,281.061C21.638,281.061 20.811,281.403 20.202,282.013Z" style="fill:none;stroke:rgb(250,250,250);stroke-width:1.8px;stroke-linejoin:miter;stroke-miterlimit:1.75;"/></g></g><g id="shuffle-8" serif:id="shuffle 8" transform="matrix(1,0,0,1,1.15262,216.344)"><g transform="matrix(1,0,0,1,33.5731,52.5729)"><g transform="matrix(9,0,0,9,-4.092,0)"><path d="M0.341,0.008C0.283,0.008 0.236,0.004 0.199,-0.005C0.162,-0.014 0.134,-0.026 0.114,-0.043C0.094,-0.06 0.08,-0.08 0.073,-0.104C0.066,-0.127 0.062,-0.154 0.062,-0.184C0.062,-0.223 0.067,-0.253 0.077,-0.275C0.086,-0.296 0.1,-0.313 0.119,-0.324C0.138,-0.335 0.16,-0.343 0.187,-0.349L0.187,-0.353C0.146,-0.362 0.116,-0.378 0.097,-0.403C0.078,-0.428 0.068,-0.465 0.068,-0.515C0.068,-0.544 0.072,-0.57 0.081,-0.593C0.09,-0.616 0.104,-0.635 0.125,-0.65C0.145,-0.665 0.173,-0.677 0.208,-0.685C0.243,-0.692 0.288,-0.696 0.341,-0.696C0.394,-0.696 0.438,-0.692 0.473,-0.685C0.508,-0.677 0.536,-0.665 0.557,-0.65C0.577,-0.635 0.592,-0.616 0.601,-0.593C0.61,-0.57 0.614,-0.544 0.614,-0.515C0.614,-0.465 0.604,-0.428 0.585,-0.403C0.566,-0.378 0.536,-0.362 0.495,-0.353L0.495,-0.349C0.522,-0.343 0.545,-0.335 0.564,-0.324C0.582,-0.313 0.596,-0.296 0.606,-0.275C0.615,-0.253 0.62,-0.223 0.62,-0.184C0.62,-0.154 0.616,-0.127 0.608,-0.104C0.6,-0.08 0.586,-0.06 0.567,-0.043C0.547,-0.026 0.519,-0.014 0.482,-0.005C0.445,0.004 0.398,0.008 0.341,0.008ZM0.341,-0.107C0.376,-0.107 0.404,-0.109 0.424,-0.112C0.443,-0.115 0.457,-0.124 0.465,-0.137C0.472,-0.15 0.476,-0.17 0.476,-0.197C0.476,-0.218 0.474,-0.235 0.47,-0.248C0.466,-0.261 0.459,-0.27 0.45,-0.277C0.44,-0.283 0.426,-0.287 0.409,-0.29C0.391,-0.292 0.368,-0.293 0.341,-0.293C0.313,-0.293 0.29,-0.292 0.273,-0.29C0.256,-0.287 0.242,-0.283 0.232,-0.277C0.222,-0.27 0.215,-0.261 0.212,-0.248C0.208,-0.235 0.206,-0.218 0.206,-0.197C0.206,-0.17 0.21,-0.15 0.218,-0.137C0.225,-0.124 0.239,-0.115 0.259,-0.112C0.278,-0.109 0.306,-0.107 0.341,-0.107ZM0.341,-0.403C0.377,-0.403 0.404,-0.405 0.423,-0.41C0.441,-0.414 0.453,-0.422 0.46,-0.435C0.467,-0.448 0.47,-0.467 0.47,-0.492C0.47,-0.518 0.467,-0.537 0.461,-0.55C0.454,-0.563 0.442,-0.571 0.424,-0.576C0.405,-0.58 0.378,-0.582 0.341,-0.582C0.304,-0.582 0.277,-0.58 0.258,-0.576C0.239,-0.571 0.227,-0.563 0.221,-0.55C0.215,-0.537 0.212,-0.518 0.212,-0.492C0.212,-0.467 0.215,-0.448 0.222,-0.435C0.228,-0.422 0.24,-0.414 0.259,-0.41C0.278,-0.405 0.305,-0.403 0.341,-0.403Z" style="fill:rgb(250,250,250);fill-rule:nonzero;"/></g></g><g transform="matrix(0.815217,2.72806e-17,3.38919e-17,0.736034,6.90947,9.7871)"><g transform="matrix(1.22667,-4.54656e-17,-5.6484e-17,1.35863,-9.8895,-219.773)"><path d="M16.912,196.212L13.5,197.918L16.913,199.624L16.912,196.212Z" style="fill:rgb(250,250,250);"/><path d="M26.087,201.212L29.5,202.918L26.087,204.624L26.087,201.212Z" style="fill:rgb(250,250,250);"/><path d="M16.23,197.918L18.5,197.918C21.502,197.918 21.498,202.918 24.5,202.918L26.77,202.918" style="fill:none;stroke:rgb(250,250,250);stroke-width:1.75px;"/></g></g><g transform="matrix(0.815217,2.72806e-17,-3.38919e-17,-0.736034,6.90947,87.1028)"><g transform="matrix(1.22667,4.54656e-17,-5.6484e-17,-1.35863,-9.8895,324.816)"><path d="M18.863,200.237L13.5,202.918L18.862,205.599L18.863,200.237Z" style="fill:rgb(42,42,42);"/><path d="M24.137,195.237L29.5,197.918L24.137,200.599L24.137,195.237Z" style="fill:rgb(42,42,42);"/><path d="M17.79,202.918L18.5,202.918C21.502,202.918 21.498,197.918 24.5,197.918L25.21,197.918" style="fill:none;stroke:rgb(42,42,42);stroke-width:2.75px;"/></g></g><g transform="matrix(0.815217,2.72806e-17,-3.38919e-17,-0.736034,6.90947,87.1028)"><g transform="matrix(1.22667,4.54656e-17,-5.6484e-17,-1.35863,-9.8895,324.816)"><path d="M16.913,201.212L13.5,202.918L16.912,204.624L16.913,201.212Z" style="fill:rgb(250,250,250);"/><path d="M26.087,196.212L29.5,197.918L26.087,199.624L26.087,196.212Z" style="fill:rgb(250,250,250);"/><path d="M16.23,202.918L18.5,202.918C21.502,202.918 21.498,197.918 24.5,197.918L26.77,197.918" style="fill:none;stroke:rgb(250,250,250);stroke-width:1.75px;"/></g></g></g><g id="shuffle-1" serif:id="shuffle 1" transform="matrix(1,0,0,1,1.08509,132.424)"><g transform="matrix(1,0,0,1,32.891,52.5729)"><g transform="matrix(9,0,0,9,-4.092,0)"><path d="M0.059,-0L0.059,-0.09C0.059,-0.129 0.06,-0.162 0.062,-0.189C0.064,-0.216 0.069,-0.238 0.077,-0.257C0.084,-0.276 0.096,-0.292 0.112,-0.305C0.127,-0.318 0.149,-0.331 0.177,-0.342L0.335,-0.406C0.356,-0.415 0.372,-0.424 0.383,-0.431C0.394,-0.438 0.401,-0.446 0.404,-0.457C0.407,-0.468 0.409,-0.482 0.409,-0.5C0.409,-0.524 0.405,-0.542 0.397,-0.554C0.388,-0.565 0.374,-0.573 0.354,-0.576C0.333,-0.579 0.304,-0.58 0.267,-0.58C0.252,-0.58 0.234,-0.579 0.212,-0.578C0.19,-0.577 0.167,-0.575 0.143,-0.573C0.119,-0.571 0.096,-0.569 0.073,-0.566L0.073,-0.675C0.094,-0.679 0.118,-0.683 0.145,-0.686C0.172,-0.689 0.201,-0.691 0.23,-0.693C0.259,-0.695 0.285,-0.696 0.31,-0.696C0.343,-0.696 0.375,-0.694 0.404,-0.69C0.433,-0.686 0.458,-0.678 0.48,-0.665C0.502,-0.652 0.519,-0.634 0.532,-0.609C0.545,-0.584 0.551,-0.551 0.551,-0.509C0.551,-0.468 0.547,-0.434 0.538,-0.409C0.529,-0.384 0.515,-0.363 0.497,-0.348C0.479,-0.333 0.457,-0.32 0.43,-0.309L0.25,-0.237C0.234,-0.231 0.222,-0.225 0.215,-0.218C0.207,-0.211 0.202,-0.202 0.2,-0.191C0.197,-0.18 0.196,-0.165 0.196,-0.146L0.196,-0.117L0.551,-0.117L0.551,-0L0.059,-0Z" style="fill:rgb(250,250,250);fill-rule:nonzero;"/></g></g><g transform="matrix(0.815217,2.72806e-17,3.38919e-17,0.736034,6.477,9.7871)"><g transform="matrix(1.22667,-4.54656e-17,-5.6484e-17,1.35863,-9.27616,-105.756)"><path d="M16.412,112.292L13,113.998L16.413,115.704L16.412,112.292Z" style="fill:rgb(250,250,250);"/><path d="M25.588,117.292L29,118.998L25.587,120.704L25.588,117.292Z" style="fill:rgb(250,250,250);"/><path d="M15.73,113.998L18,113.998C21.002,113.998 20.998,118.998 24,118.998L26.27,118.998" style="fill:none;stroke:rgb(250,250,250);stroke-width:1.75px;"/></g></g><g transform="matrix(0.815217,2.72806e-17,-3.38919e-17,-0.736034,6.477,87.1028)"><g transform="matrix(1.22667,4.54656e-17,-5.6484e-17,-1.35863,-9.27616,210.8)"><path d="M18.363,116.317L13,118.998L18.362,121.679L18.363,116.317Z" style="fill:rgb(42,42,42);"/><path d="M23.637,111.317L29,113.998L23.638,116.679L23.637,111.317Z" style="fill:rgb(42,42,42);"/><path d="M17.29,118.998L18,118.998C21.002,118.998 20.998,113.998 24,113.998L24.71,113.998" style="fill:none;stroke:rgb(42,42,42);stroke-width:2.75px;"/></g></g><g transform="matrix(0.815217,2.72806e-17,-3.38919e-17,-0.736034,6.477,87.1028)"><g transform="matrix(1.22667,4.54656e-17,-5.6484e-17,-1.35863,-9.27616,210.8)"><path d="M16.413,117.292L13,118.998L16.412,120.704L16.413,117.292Z" style="fill:rgb(250,250,250);"/><path d="M25.587,112.292L29,113.998L25.588,115.704L25.587,112.292Z" style="fill:rgb(250,250,250);"/><path d="M15.73,118.998L18,118.998C21.002,118.998 20.998,113.998 24,113.998L26.27,113.998" style="fill:none;stroke:rgb(250,250,250);stroke-width:1.75px;"/></g></g></g><g id="move-1" serif:id="move 1" transform="matrix(1,0,0,1,-3.13583,48.4241)"><g transform="matrix(1,0,0,1,33.7984,52.5729)"><g transform="matrix(9,0,0,9,-4.092,0)"><path d="M0.158,-0L0.158,-0.536L0.024,-0.478L0.024,-0.597L0.203,-0.688L0.3,-0.688L0.3,-0L0.158,-0Z" style="fill:rgb(250,250,250);fill-rule:nonzero;"/></g></g><g transform="matrix(0.576923,7.59107e-18,-7.53629e-18,-0.322326,-6.11079,139.575)"><path d="M46.794,281.157L59.794,281.157L53.294,269.907L46.794,281.157Z" style="fill:rgb(250,250,250);"/></g><g transform="matrix(0.576923,-1.70799e-17,-1.13044e-17,0.322326,-6.11079,-42.6811)"><path d="M46.794,281.157L59.794,281.157L53.294,269.907L46.794,281.157Z" style="fill:rgb(250,250,250);"/></g></g></g><g transform="matrix(0.00402788,0,0,0.0039495,7.51945,-1.22874)"><path d="M-1866.85,3985L9305.27,3985" style="fill:none;stroke:rgb(148,88,21);stroke-width:313.37px;"/></g><g transform="matrix(1,0,0,1,-45.0861,4.90775)"><g transform="matrix(11.75,0,0,11.75,47.9341,10.2272)"><path d="M0.3,0.008C0.271,0.008 0.241,0.007 0.209,0.006C0.176,0.005 0.145,0.003 0.114,0.001C0.083,-0.002 0.056,-0.004 0.031,-0.007L0.054,-0.117C0.078,-0.115 0.103,-0.113 0.129,-0.111C0.155,-0.109 0.18,-0.107 0.205,-0.106C0.229,-0.105 0.25,-0.104 0.267,-0.104C0.289,-0.104 0.308,-0.105 0.324,-0.106C0.339,-0.107 0.353,-0.108 0.364,-0.111C0.375,-0.113 0.385,-0.116 0.394,-0.12C0.401,-0.124 0.407,-0.13 0.412,-0.137C0.417,-0.143 0.421,-0.151 0.425,-0.16C0.429,-0.169 0.432,-0.178 0.435,-0.188C0.437,-0.197 0.439,-0.207 0.44,-0.216C0.44,-0.225 0.441,-0.232 0.441,-0.238C0.441,-0.248 0.439,-0.256 0.434,-0.261C0.429,-0.266 0.421,-0.27 0.409,-0.273C0.397,-0.276 0.38,-0.278 0.358,-0.281L0.206,-0.303C0.166,-0.308 0.139,-0.321 0.124,-0.341C0.109,-0.36 0.102,-0.387 0.102,-0.421C0.102,-0.433 0.103,-0.447 0.105,-0.462C0.107,-0.476 0.11,-0.492 0.113,-0.508C0.122,-0.549 0.135,-0.583 0.152,-0.608C0.169,-0.632 0.189,-0.651 0.214,-0.664C0.238,-0.677 0.266,-0.685 0.299,-0.69C0.331,-0.694 0.367,-0.696 0.406,-0.696C0.435,-0.696 0.464,-0.695 0.494,-0.694C0.524,-0.693 0.552,-0.691 0.579,-0.688C0.606,-0.685 0.628,-0.682 0.645,-0.678L0.623,-0.571C0.604,-0.574 0.583,-0.576 0.56,-0.578C0.536,-0.58 0.512,-0.582 0.487,-0.583C0.462,-0.584 0.439,-0.584 0.417,-0.584C0.396,-0.584 0.379,-0.583 0.364,-0.582C0.349,-0.581 0.336,-0.579 0.325,-0.576C0.314,-0.573 0.305,-0.57 0.297,-0.566C0.289,-0.561 0.282,-0.555 0.276,-0.547C0.27,-0.539 0.265,-0.53 0.262,-0.52C0.259,-0.51 0.256,-0.5 0.255,-0.49C0.253,-0.48 0.252,-0.47 0.252,-0.46C0.252,-0.447 0.257,-0.438 0.267,-0.434C0.276,-0.429 0.293,-0.425 0.318,-0.422L0.465,-0.402C0.488,-0.399 0.51,-0.394 0.529,-0.387C0.548,-0.38 0.564,-0.369 0.575,-0.353C0.586,-0.337 0.592,-0.313 0.592,-0.28C0.592,-0.272 0.592,-0.264 0.591,-0.255C0.59,-0.245 0.589,-0.236 0.588,-0.225C0.586,-0.214 0.584,-0.203 0.581,-0.192C0.571,-0.145 0.558,-0.109 0.541,-0.082C0.524,-0.055 0.503,-0.035 0.48,-0.022C0.457,-0.009 0.43,-0.001 0.4,0.003C0.37,0.006 0.337,0.008 0.3,0.008Z" style="fill:rgb(250,250,250);fill-rule:nonzero;"/></g><g transform="matrix(11.75,0,0,11.75,55.4776,10.2272)"><path d="M0.034,-0L0.181,-0.688L0.324,-0.688L0.203,-0.118L0.502,-0.118L0.476,-0L0.034,-0Z" style="fill:rgb(250,250,250);fill-rule:nonzero;"/></g><g transform="matrix(11.75,0,0,11.75,61.9401,10.2272)"><path d="M0.054,-0.231L0.077,-0.339L0.347,-0.339L0.324,-0.231L0.054,-0.231Z" style="fill:rgb(250,250,250);fill-rule:nonzero;"/></g><g transform="matrix(11.75,0,0,11.75,66.3816,10.2272)"><path d="M0.034,-0L0.181,-0.688L0.505,-0.688C0.555,-0.688 0.594,-0.683 0.621,-0.672C0.648,-0.661 0.667,-0.645 0.678,-0.625C0.689,-0.604 0.694,-0.58 0.694,-0.551C0.694,-0.542 0.694,-0.533 0.693,-0.524C0.692,-0.514 0.69,-0.504 0.689,-0.493C0.687,-0.482 0.684,-0.471 0.681,-0.46C0.676,-0.435 0.669,-0.412 0.662,-0.392C0.654,-0.371 0.645,-0.354 0.635,-0.339C0.624,-0.324 0.611,-0.311 0.596,-0.3C0.581,-0.289 0.562,-0.281 0.54,-0.274L0.594,-0L0.447,-0L0.406,-0.257L0.232,-0.257L0.177,-0L0.034,-0ZM0.254,-0.364L0.399,-0.364C0.426,-0.364 0.448,-0.366 0.465,-0.37C0.481,-0.374 0.494,-0.38 0.504,-0.388C0.513,-0.396 0.521,-0.407 0.526,-0.421C0.531,-0.434 0.535,-0.451 0.539,-0.47C0.542,-0.481 0.544,-0.492 0.545,-0.501C0.546,-0.51 0.547,-0.519 0.547,-0.526C0.547,-0.538 0.544,-0.548 0.539,-0.556C0.533,-0.563 0.523,-0.569 0.509,-0.573C0.494,-0.576 0.474,-0.578 0.449,-0.578L0.3,-0.578L0.254,-0.364Z" style="fill:rgb(250,250,250);fill-rule:nonzero;"/></g></g><g id="LED" transform="matrix(0.596842,0,0,1.70526,-3.02895,-7.71429)"><ellipse cx="72.094" cy="16.252" rx="3.351" ry="1.173" style="fill:rgb(42,42,42);"/></g><g id="LED1" serif:id="LED" transform="matrix(0.596842,0,0,1.70526,-38.0289,-7.71429)"><ellipse cx="72.094" cy="16.252" rx="3.351" ry="1.173" style="fill:rgb(42,42,42);"/></g></svg>