<?xml version="1.0" encoding="UTF-8" standalone="no"?><!DOCTYPE svg PUBLIC "-//W3C//DTD SVG 1.1//EN" "http://www.w3.org/Graphics/SVG/1.1/DTD/svg11.dtd"><svg width="100%" height="100%" viewBox="0 0 150 380" version="1.1" xmlns="http://www.w3.org/2000/svg" xmlns:xlink="http://www.w3.org/1999/xlink" xml:space="preserve" xmlns:serif="http://www.serif.com/" style="fill-rule:evenodd;clip-rule:evenodd;stroke-linecap:round;stroke-linejoin:round;stroke-miterlimit:1.5;"><rect id="background" x="0" y="0" width="150" height="380" style="fill:rgb(214,214,214);"/><g transform="matrix(1.18146,0,0,1,-11.8628,3.0429)"><path d="M47.071,261.457L99.972,261.457" style="fill:none;stroke:rgb(136,136,136);stroke-width:0.91px;"/></g><g transform="matrix(1.18146,0,0,1,-11.8628,-116.957)"><path d="M47.071,261.457L99.972,261.457" style="fill:none;stroke:rgb(136,136,136);stroke-width:0.91px;"/></g><g id="not-things-lines" serif:id="not-things lines" transform="matrix(0.00411803,0,0,0.00411803,-22.2673,355.894)"><g><g transform="matrix(0.978109,0,0,0.959074,7233.25,-101.159)"><path d="M4760,3985L35373.6,3985" style="fill:none;stroke:rgb(238,178,111);stroke-width:313.37px;"/></g><g transform="matrix(0.970692,0,0,0.959074,7272.62,-101.159)"><path d="M4410,2560L-1921.67,2560" style="fill:none;stroke:rgb(238,178,111);stroke-width:314.58px;"/></g><g transform="matrix(0.96045,0,0,0.96045,7473.62,-1632.04)"><path d="M5226.34,4325L5226.34,7541.25" style="fill:none;stroke:rgb(238,178,111);stroke-width:316.04px;"/></g><g transform="matrix(0.959074,0,0,0.960269,7146.63,-1632.54)"><path d="M3964.79,5400L3964.79,2232.68" style="fill:none;stroke:rgb(238,178,111);stroke-width:316.3px;"/></g><g transform="matrix(0.959074,0,0,0.959074,7323.91,-101.095)"><path d="M4235,3297L4935,3297" style="fill:none;stroke:rgb(238,178,111);stroke-width:316.5px;"/></g><g transform="matrix(0.950864,0,0,0.950864,7164.38,-150.825)"><path d="M3330.5,1915.9C3704.78,1541.63 4221.7,1310 4792.3,1310C5933.49,1310 6860,2236.51 6860,3377.7C6860,4518.9 5933.49,5445.4 4792.3,5445.4C3651.1,5445.4 2724.6,4518.9 2724.6,3377.7" style="fill:none;stroke:rgb(238,178,111);stroke-width:319.23px;"/></g></g></g><g transform="matrix(1,0,0,1,26.3649,361.618)"><g transform="matrix(15,0,0,15,13.2751,10.2272)"><path d="M0.024,-0L0.132,-0.51L0.256,-0.51L0.245,-0.443L0.254,-0.443C0.265,-0.46 0.278,-0.474 0.294,-0.485C0.309,-0.496 0.327,-0.504 0.348,-0.51C0.369,-0.515 0.392,-0.518 0.417,-0.518C0.456,-0.518 0.486,-0.514 0.508,-0.505C0.529,-0.496 0.544,-0.483 0.553,-0.466C0.561,-0.448 0.565,-0.425 0.565,-0.398C0.565,-0.386 0.564,-0.371 0.562,-0.354C0.559,-0.336 0.556,-0.317 0.552,-0.298L0.488,-0L0.356,-0L0.415,-0.275C0.418,-0.292 0.421,-0.308 0.424,-0.323C0.427,-0.338 0.428,-0.349 0.428,-0.358C0.428,-0.373 0.425,-0.384 0.42,-0.391C0.414,-0.398 0.405,-0.402 0.394,-0.405C0.383,-0.407 0.367,-0.408 0.348,-0.408C0.323,-0.408 0.303,-0.405 0.288,-0.4C0.272,-0.394 0.26,-0.385 0.251,-0.373C0.242,-0.361 0.234,-0.346 0.229,-0.327C0.223,-0.308 0.217,-0.286 0.212,-0.261L0.155,-0L0.024,-0Z" style="fill-rule:nonzero;"/></g><g transform="matrix(15,0,0,15,22.4401,10.2272)"><path d="M0.249,0.008C0.191,0.008 0.146,0.004 0.114,-0.003C0.081,-0.01 0.058,-0.023 0.045,-0.042C0.032,-0.06 0.025,-0.084 0.025,-0.115C0.025,-0.133 0.027,-0.153 0.031,-0.176C0.035,-0.199 0.04,-0.225 0.046,-0.255C0.055,-0.298 0.063,-0.334 0.071,-0.364C0.078,-0.394 0.088,-0.419 0.1,-0.439C0.111,-0.459 0.126,-0.475 0.145,-0.487C0.164,-0.498 0.188,-0.506 0.217,-0.511C0.246,-0.516 0.282,-0.518 0.325,-0.518C0.383,-0.518 0.428,-0.514 0.461,-0.507C0.493,-0.5 0.516,-0.487 0.529,-0.469C0.542,-0.45 0.548,-0.425 0.548,-0.394C0.548,-0.376 0.547,-0.356 0.544,-0.333C0.541,-0.31 0.536,-0.284 0.529,-0.255C0.52,-0.212 0.511,-0.176 0.503,-0.146C0.494,-0.116 0.485,-0.091 0.474,-0.071C0.463,-0.051 0.448,-0.035 0.43,-0.024C0.411,-0.012 0.388,-0.004 0.359,0.001C0.329,0.006 0.293,0.008 0.249,0.008ZM0.254,-0.094C0.276,-0.094 0.294,-0.095 0.308,-0.098C0.322,-0.1 0.334,-0.104 0.343,-0.11C0.352,-0.116 0.359,-0.125 0.365,-0.137C0.371,-0.148 0.377,-0.164 0.382,-0.184C0.387,-0.203 0.392,-0.227 0.398,-0.255C0.403,-0.28 0.407,-0.302 0.41,-0.32C0.413,-0.338 0.414,-0.353 0.414,-0.365C0.414,-0.379 0.411,-0.39 0.406,-0.397C0.4,-0.404 0.39,-0.409 0.377,-0.412C0.364,-0.415 0.345,-0.416 0.321,-0.416C0.294,-0.416 0.272,-0.414 0.256,-0.411C0.24,-0.408 0.228,-0.4 0.22,-0.389C0.211,-0.378 0.204,-0.362 0.199,-0.341C0.193,-0.32 0.186,-0.291 0.178,-0.255C0.173,-0.229 0.168,-0.207 0.165,-0.189C0.162,-0.171 0.16,-0.156 0.16,-0.144C0.16,-0.13 0.163,-0.119 0.169,-0.112C0.174,-0.105 0.184,-0.1 0.198,-0.098C0.211,-0.095 0.23,-0.094 0.254,-0.094Z" style="fill-rule:nonzero;"/></g><g transform="matrix(15,0,0,15,31.0501,10.2272)"><path d="M0.322,-0C0.28,-0 0.244,-0.001 0.215,-0.003C0.186,-0.004 0.162,-0.008 0.143,-0.015C0.124,-0.021 0.11,-0.031 0.101,-0.044C0.092,-0.057 0.088,-0.075 0.088,-0.098C0.088,-0.106 0.088,-0.114 0.09,-0.123C0.09,-0.132 0.092,-0.141 0.094,-0.151C0.095,-0.16 0.097,-0.171 0.099,-0.183L0.148,-0.408L0.048,-0.408L0.07,-0.51L0.169,-0.51L0.2,-0.658L0.334,-0.658L0.303,-0.51L0.422,-0.51L0.4,-0.408L0.282,-0.408L0.236,-0.192C0.235,-0.189 0.234,-0.183 0.233,-0.175C0.231,-0.166 0.229,-0.158 0.228,-0.15C0.227,-0.141 0.226,-0.135 0.226,-0.132C0.226,-0.122 0.23,-0.114 0.237,-0.108C0.244,-0.102 0.255,-0.098 0.272,-0.097C0.289,-0.095 0.312,-0.094 0.341,-0.094L0.322,-0Z" style="fill-rule:nonzero;"/></g><g transform="matrix(15,0,0,15,37.1401,10.2272)"><path d="M0.054,-0.231L0.077,-0.339L0.347,-0.339L0.324,-0.231L0.054,-0.231Z" style="fill-rule:nonzero;"/></g><g transform="matrix(15,0,0,15,42.8101,10.2272)"><path d="M0.322,-0C0.28,-0 0.244,-0.001 0.215,-0.003C0.186,-0.004 0.162,-0.008 0.143,-0.015C0.124,-0.021 0.11,-0.031 0.101,-0.044C0.092,-0.057 0.088,-0.075 0.088,-0.098C0.088,-0.106 0.088,-0.114 0.09,-0.123C0.09,-0.132 0.092,-0.141 0.094,-0.151C0.095,-0.16 0.097,-0.171 0.099,-0.183L0.148,-0.408L0.048,-0.408L0.07,-0.51L0.169,-0.51L0.2,-0.658L0.334,-0.658L0.303,-0.51L0.422,-0.51L0.4,-0.408L0.282,-0.408L0.236,-0.192C0.235,-0.189 0.234,-0.183 0.233,-0.175C0.231,-0.166 0.229,-0.158 0.228,-0.15C0.227,-0.141 0.226,-0.135 0.226,-0.132C0.226,-0.122 0.23,-0.114 0.237,-0.108C0.244,-0.102 0.255,-0.098 0.272,-0.097C0.289,-0.095 0.312,-0.094 0.341,-0.094L0.322,-0Z" style="fill-rule:nonzero;"/></g><g transform="matrix(15,0,0,15,48.9001,10.2272)"><path d="M0.024,-0L0.18,-0.743L0.313,-0.743L0.25,-0.45L0.257,-0.45C0.268,-0.465 0.282,-0.477 0.297,-0.488C0.312,-0.498 0.329,-0.506 0.349,-0.511C0.369,-0.516 0.392,-0.518 0.417,-0.518C0.456,-0.518 0.486,-0.514 0.508,-0.505C0.529,-0.496 0.544,-0.483 0.553,-0.466C0.561,-0.448 0.565,-0.425 0.565,-0.398C0.565,-0.386 0.564,-0.371 0.562,-0.354C0.559,-0.336 0.556,-0.317 0.552,-0.298L0.488,-0L0.356,-0L0.415,-0.275C0.418,-0.292 0.421,-0.308 0.424,-0.323C0.427,-0.338 0.428,-0.349 0.428,-0.358C0.428,-0.38 0.422,-0.394 0.41,-0.4C0.397,-0.405 0.377,-0.408 0.348,-0.408C0.323,-0.408 0.303,-0.405 0.288,-0.4C0.272,-0.394 0.26,-0.385 0.251,-0.373C0.242,-0.361 0.234,-0.346 0.229,-0.327C0.223,-0.308 0.217,-0.286 0.212,-0.261L0.155,-0L0.024,-0Z" style="fill-rule:nonzero;"/></g><g transform="matrix(15,0,0,15,58.0651,10.2272)"><path d="M0.155,-0.628L0.179,-0.743L0.316,-0.743L0.292,-0.628L0.155,-0.628ZM0.024,-0L0.132,-0.51L0.265,-0.51L0.157,-0L0.024,-0Z" style="fill-rule:nonzero;"/></g><g transform="matrix(15,0,0,15,62.2651,10.2272)"><path d="M0.024,-0L0.132,-0.51L0.256,-0.51L0.245,-0.443L0.254,-0.443C0.265,-0.46 0.278,-0.474 0.294,-0.485C0.309,-0.496 0.327,-0.504 0.348,-0.51C0.369,-0.515 0.392,-0.518 0.417,-0.518C0.456,-0.518 0.486,-0.514 0.508,-0.505C0.529,-0.496 0.544,-0.483 0.553,-0.466C0.561,-0.448 0.565,-0.425 0.565,-0.398C0.565,-0.386 0.564,-0.371 0.562,-0.354C0.559,-0.336 0.556,-0.317 0.552,-0.298L0.488,-0L0.356,-0L0.415,-0.275C0.418,-0.292 0.421,-0.308 0.424,-0.323C0.427,-0.338 0.428,-0.349 0.428,-0.358C0.428,-0.373 0.425,-0.384 0.42,-0.391C0.414,-0.398 0.405,-0.402 0.394,-0.405C0.383,-0.407 0.367,-0.408 0.348,-0.408C0.323,-0.408 0.303,-0.405 0.288,-0.4C0.272,-0.394 0.26,-0.385 0.251,-0.373C0.242,-0.361 0.234,-0.346 0.229,-0.327C0.223,-0.308 0.217,-0.286 0.212,-0.261L0.155,-0L0.024,-0Z" style="fill-rule:nonzero;"/></g><g transform="matrix(15,0,0,15,71.4301,10.2272)"><path d="M0.183,0.206C0.162,0.206 0.14,0.206 0.118,0.205C0.096,0.204 0.076,0.202 0.057,0.201C0.038,0.199 0.022,0.197 0.01,0.194L0.031,0.096C0.044,0.097 0.059,0.097 0.076,0.098C0.092,0.099 0.109,0.099 0.126,0.099L0.174,0.099C0.209,0.099 0.236,0.097 0.257,0.094C0.277,0.091 0.293,0.085 0.304,0.076C0.315,0.067 0.324,0.053 0.331,0.036C0.337,0.018 0.343,-0.005 0.349,-0.034C0.35,-0.039 0.352,-0.044 0.353,-0.049C0.354,-0.054 0.355,-0.059 0.356,-0.064L0.349,-0.064C0.336,-0.047 0.322,-0.033 0.305,-0.024C0.288,-0.014 0.27,-0.007 0.251,-0.004C0.232,-0.001 0.211,0.001 0.188,0.001C0.157,0.001 0.131,-0.003 0.111,-0.01C0.09,-0.017 0.075,-0.03 0.065,-0.049C0.055,-0.068 0.05,-0.093 0.05,-0.124C0.05,-0.141 0.051,-0.161 0.055,-0.183C0.058,-0.205 0.062,-0.229 0.068,-0.256C0.079,-0.307 0.091,-0.349 0.104,-0.383C0.117,-0.416 0.133,-0.443 0.151,-0.463C0.169,-0.482 0.19,-0.496 0.214,-0.505C0.238,-0.514 0.266,-0.518 0.299,-0.518C0.318,-0.518 0.337,-0.516 0.356,-0.513C0.374,-0.509 0.39,-0.502 0.404,-0.492C0.418,-0.481 0.428,-0.466 0.434,-0.446L0.441,-0.446L0.459,-0.51L0.583,-0.51L0.487,-0.06C0.479,-0.023 0.471,0.011 0.462,0.04C0.453,0.069 0.442,0.094 0.429,0.115C0.416,0.135 0.399,0.153 0.378,0.166C0.357,0.179 0.331,0.189 0.3,0.196C0.268,0.203 0.229,0.206 0.183,0.206ZM0.268,-0.111C0.283,-0.111 0.296,-0.112 0.307,-0.115C0.318,-0.117 0.327,-0.121 0.336,-0.126C0.344,-0.131 0.351,-0.137 0.357,-0.144C0.362,-0.149 0.366,-0.158 0.371,-0.17C0.376,-0.182 0.38,-0.196 0.385,-0.211C0.389,-0.226 0.393,-0.241 0.397,-0.258C0.4,-0.275 0.403,-0.291 0.405,-0.306C0.407,-0.321 0.408,-0.334 0.408,-0.345C0.408,-0.367 0.402,-0.382 0.389,-0.391C0.376,-0.4 0.357,-0.404 0.33,-0.404C0.308,-0.404 0.29,-0.403 0.276,-0.4C0.262,-0.397 0.251,-0.39 0.243,-0.381C0.234,-0.371 0.227,-0.356 0.221,-0.337C0.214,-0.317 0.208,-0.29 0.201,-0.257C0.196,-0.235 0.193,-0.216 0.19,-0.201C0.187,-0.185 0.186,-0.172 0.186,-0.161C0.186,-0.147 0.189,-0.136 0.194,-0.129C0.199,-0.122 0.208,-0.117 0.221,-0.115C0.233,-0.112 0.249,-0.111 0.268,-0.111Z" style="fill-rule:nonzero;"/></g><g transform="matrix(15,0,0,15,80.4901,10.2272)"><path d="M0.226,0.008C0.204,0.008 0.18,0.007 0.154,0.006C0.128,0.005 0.103,0.003 0.079,0.001C0.055,-0.001 0.034,-0.003 0.015,-0.005L0.035,-0.101C0.05,-0.1 0.064,-0.098 0.079,-0.097C0.094,-0.096 0.108,-0.095 0.122,-0.094C0.136,-0.093 0.15,-0.093 0.163,-0.093C0.176,-0.092 0.19,-0.092 0.203,-0.092C0.232,-0.092 0.254,-0.093 0.27,-0.097C0.286,-0.099 0.298,-0.105 0.306,-0.112C0.313,-0.119 0.319,-0.129 0.323,-0.142C0.326,-0.147 0.328,-0.153 0.33,-0.158C0.331,-0.163 0.332,-0.168 0.332,-0.173C0.332,-0.183 0.328,-0.19 0.32,-0.193C0.312,-0.196 0.298,-0.198 0.279,-0.2L0.149,-0.217C0.118,-0.222 0.097,-0.231 0.085,-0.246C0.072,-0.26 0.066,-0.279 0.066,-0.304C0.066,-0.311 0.067,-0.32 0.069,-0.333C0.07,-0.345 0.072,-0.358 0.075,-0.371C0.082,-0.404 0.093,-0.431 0.106,-0.451C0.119,-0.471 0.136,-0.486 0.155,-0.495C0.174,-0.504 0.197,-0.51 0.223,-0.514C0.249,-0.517 0.279,-0.518 0.312,-0.518C0.333,-0.518 0.356,-0.517 0.379,-0.516C0.402,-0.515 0.424,-0.513 0.445,-0.511C0.466,-0.509 0.483,-0.507 0.497,-0.504L0.478,-0.408C0.46,-0.411 0.442,-0.413 0.424,-0.414C0.406,-0.415 0.389,-0.416 0.372,-0.417C0.355,-0.418 0.339,-0.418 0.324,-0.418C0.303,-0.418 0.285,-0.418 0.269,-0.417C0.253,-0.416 0.24,-0.413 0.229,-0.408C0.218,-0.403 0.21,-0.394 0.205,-0.382C0.202,-0.377 0.199,-0.372 0.197,-0.365C0.195,-0.358 0.194,-0.351 0.194,-0.342C0.194,-0.332 0.198,-0.326 0.205,-0.323C0.212,-0.32 0.225,-0.317 0.244,-0.315L0.371,-0.297C0.39,-0.295 0.406,-0.291 0.419,-0.286C0.432,-0.28 0.443,-0.271 0.45,-0.26C0.456,-0.249 0.46,-0.232 0.46,-0.211C0.46,-0.204 0.459,-0.195 0.458,-0.184C0.457,-0.173 0.454,-0.16 0.451,-0.147C0.444,-0.112 0.434,-0.084 0.422,-0.063C0.409,-0.042 0.394,-0.027 0.376,-0.017C0.357,-0.007 0.336,-0 0.311,0.003C0.286,0.006 0.258,0.008 0.226,0.008Z" style="fill-rule:nonzero;"/></g></g><g id="output" transform="matrix(1,0,0,1,2.5,-10)"><g id="controls-background" serif:id="controls background" transform="matrix(1,0,0,1,97,0)"><g transform="matrix(0.78158,0,0,0.916412,5.85871,29.4938)"><path d="M33.447,24.286L33.447,358.743C33.447,360.399 31.87,361.744 29.928,361.744L22.891,361.744C20.949,361.744 19.373,360.399 19.373,358.743L19.373,24.286C19.373,22.63 20.949,21.285 22.891,21.285L29.928,21.285C31.87,21.285 33.447,22.63 33.447,24.286Z" style="fill:rgb(109,109,109);stroke:rgb(109,109,109);stroke-width:1.17px;"/></g><g id="in-8" transform="matrix(1.56522,0,0,1.56522,-14.9783,-168.587)"><path d="M15,319.5C15,325.851 20.149,331 26.5,331C32.847,331 38,325.847 38,319.5C38,313.153 32.847,308 26.5,308C23.45,308 20.525,309.212 18.368,311.368C20.525,309.212 23.45,308 26.5,308C32.847,308 38,313.153 38,319.5C38,325.847 32.847,331 26.5,331C20.149,331 15,325.851 15,319.5Z" style="fill:none;stroke:rgb(109,109,109);stroke-width:1.28px;stroke-linecap:butt;stroke-miterlimit:2;"/></g><g id="in-7" transform="matrix(1.56522,0,0,1.56522,-14.9783,-145.978)"><path d="M15,279.5C15,285.851 20.149,291 26.5,291C32.847,291 38,285.847 38,279.5C38,273.153 32.847,268 26.5,268C23.45,268 20.525,269.212 18.368,271.368C20.525,269.212 23.45,268 26.5,268C32.847,268 38,273.153 38,279.5C38,285.847 32.847,291 26.5,291C20.149,291 15,285.851 15,279.5Z" style="fill:none;stroke:rgb(109,109,109);stroke-width:1.28px;stroke-linecap:butt;stroke-miterlimit:2;"/></g><g id="in-6" transform="matrix(1.56522,0,0,1.56522,-14.9783,-123.37)"><path d="M15,239.5C15,245.851 20.149,251 26.5,251C32.847,251 38,245.847 38,239.5C38,233.153 32.847,228 26.5,228C23.45,228 20.525,229.212 18.368,231.368C20.525,229.212 23.45,228 26.5,228C32.847,228 38,233.153 38,239.5C38,245.847 32.847,251 26.5,251C20.149,251 15,245.851 15,239.5Z" style="fill:none;stroke:rgb(109,109,109);stroke-width:1.28px;stroke-linecap:butt;stroke-miterlimit:2;"/></g><g id="in-5" transform="matrix(1.56522,0,0,1.56522,-14.9783,-100.761)"><path d="M15,199.5C15,205.851 20.149,211 26.5,211C32.847,211 38,205.847 38,199.5C38,193.153 32.847,188 26.5,188C23.45,188 20.525,189.212 18.368,191.368C20.525,189.212 23.45,188 26.5,188C32.847,188 38,193.153 38,199.5C38,205.847 32.847,211 26.5,211C20.149,211 15,205.851 15,199.5Z" style="fill:none;stroke:rgb(109,109,109);stroke-width:1.28px;stroke-linecap:butt;stroke-miterlimit:2;"/></g><g id="in-4" transform="matrix(1.56522,0,0,1.56522,-14.9783,-78.1522)"><path d="M15,159.5C15,165.851 20.149,171 26.5,171C32.847,171 38,165.847 38,159.5C38,153.153 32.847,148 26.5,148C23.45,148 20.525,149.212 18.368,151.368C20.525,149.212 23.45,148 26.5,148C32.847,148 38,153.153 38,159.5C38,165.847 32.847,171 26.5,171C20.149,171 15,165.851 15,159.5Z" style="fill:none;stroke:rgb(109,109,109);stroke-width:1.28px;stroke-linecap:butt;stroke-miterlimit:2;"/></g><g id="in-3" transform="matrix(1.56522,0,0,1.56522,-14.9783,-55.5435)"><path d="M15,119.5C15,125.851 20.149,131 26.5,131C32.847,131 38,125.847 38,119.5C38,113.153 32.847,108 26.5,108C23.45,108 20.525,109.212 18.368,111.368C20.525,109.212 23.45,108 26.5,108C32.847,108 38,113.153 38,119.5C38,125.847 32.847,131 26.5,131C20.149,131 15,125.851 15,119.5Z" style="fill:none;stroke:rgb(109,109,109);stroke-width:1.28px;stroke-linecap:butt;stroke-miterlimit:2;"/></g><g id="in-2" transform="matrix(1.56522,0,0,1.56522,-14.9783,-32.9348)"><path d="M15,79.5C15,85.851 20.149,91 26.5,91C32.847,91 38,85.847 38,79.5C38,73.153 32.847,68 26.5,68C23.45,68 20.525,69.212 18.368,71.368C20.525,69.212 23.45,68 26.5,68C32.847,68 38,73.153 38,79.5C38,85.847 32.847,91 26.5,91C20.149,91 15,85.851 15,79.5Z" style="fill:none;stroke:rgb(109,109,109);stroke-width:1.28px;stroke-linecap:butt;stroke-miterlimit:2;"/></g><g id="in-1" transform="matrix(1.56522,0,0,1.56522,-14.9783,-10.3261)"><path d="M15,39.5C15,45.851 20.149,51 26.5,51C32.847,51 38,45.847 38,39.5C38,33.153 32.847,28 26.5,28C23.45,28 20.525,29.212 18.368,31.368C20.525,29.212 23.45,28 26.5,28C32.847,28 38,33.153 38,39.5C38,45.847 32.847,51 26.5,51C20.149,51 15,45.851 15,39.5Z" style="fill:none;stroke:rgb(109,109,109);stroke-width:1.28px;stroke-linecap:butt;stroke-miterlimit:2;"/></g><g id="in-81" serif:id="in-8" transform="matrix(1.26087,0,0,1.26087,-6.91304,-71.3478)"><path d="M15,319.5C15,325.851 20.149,331 26.5,331C32.847,331 38,325.847 38,319.5C38,313.153 32.847,308 26.5,308C23.45,308 20.525,309.212 18.368,311.368C20.525,309.212 23.45,308 26.5,308C32.847,308 38,313.153 38,319.5C38,325.847 32.847,331 26.5,331C20.149,331 15,325.851 15,319.5Z" style="fill:none;stroke:rgb(109,109,109);stroke-width:1.59px;stroke-linecap:butt;stroke-miterlimit:2;"/></g><g id="in-71" serif:id="in-7" transform="matrix(1.26087,0,0,1.26087,-6.91304,-60.9131)"><path d="M15,279.5C15,285.851 20.149,291 26.5,291C32.847,291 38,285.847 38,279.5C38,273.153 32.847,268 26.5,268C23.45,268 20.525,269.212 18.368,271.368C20.525,269.212 23.45,268 26.5,268C32.847,268 38,273.153 38,279.5C38,285.847 32.847,291 26.5,291C20.149,291 15,285.851 15,279.5Z" style="fill:none;stroke:rgb(109,109,109);stroke-width:1.59px;stroke-linecap:butt;stroke-miterlimit:2;"/></g><g id="in-61" serif:id="in-6" transform="matrix(1.26087,0,0,1.26087,-6.91304,-50.4783)"><path d="M15,239.5C15,245.851 20.149,251 26.5,251C32.847,251 38,245.847 38,239.5C38,233.153 32.847,228 26.5,228C23.45,228 20.525,229.212 18.368,231.368C20.525,229.212 23.45,228 26.5,228C32.847,228 38,233.153 38,239.5C38,245.847 32.847,251 26.5,251C20.149,251 15,245.851 15,239.5Z" style="fill:none;stroke:rgb(109,109,109);stroke-width:1.59px;stroke-linecap:butt;stroke-miterlimit:2;"/></g><g id="in-51" serif:id="in-5" transform="matrix(1.26087,0,0,1.26087,-6.91304,-40.0435)"><path d="M15,199.5C15,205.851 20.149,211 26.5,211C32.847,211 38,205.847 38,199.5C38,193.153 32.847,188 26.5,188C23.45,188 20.525,189.212 18.368,191.368C20.525,189.212 23.45,188 26.5,188C32.847,188 38,193.153 38,199.5C38,205.847 32.847,211 26.5,211C20.149,211 15,205.851 15,199.5Z" style="fill:none;stroke:rgb(109,109,109);stroke-width:1.59px;stroke-linecap:butt;stroke-miterlimit:2;"/></g><g id="in-41" serif:id="in-4" transform="matrix(1.26087,0,0,1.26087,-6.91304,-29.6087)"><path d="M15,159.5C15,165.851 20.149,171 26.5,171C32.847,171 38,165.847 38,159.5C38,153.153 32.847,148 26.5,148C23.45,148 20.525,149.212 18.368,151.368C20.525,149.212 23.45,148 26.5,148C32.847,148 38,153.153 38,159.5C38,165.847 32.847,171 26.5,171C20.149,171 15,165.851 15,159.5Z" style="fill:none;stroke:rgb(109,109,109);stroke-width:1.59px;stroke-linecap:butt;stroke-miterlimit:2;"/></g><g id="in-31" serif:id="in-3" transform="matrix(1.26087,0,0,1.26087,-6.91304,-19.1739)"><path d="M15,119.5C15,125.851 20.149,131 26.5,131C32.847,131 38,125.847 38,119.5C38,113.153 32.847,108 26.5,108C23.45,108 20.525,109.212 18.368,111.368C20.525,109.212 23.45,108 26.5,108C32.847,108 38,113.153 38,119.5C38,125.847 32.847,131 26.5,131C20.149,131 15,125.851 15,119.5Z" style="fill:none;stroke:rgb(109,109,109);stroke-width:1.59px;stroke-linecap:butt;stroke-miterlimit:2;"/></g><g id="in-21" serif:id="in-2" transform="matrix(1.26087,0,0,1.26087,-6.91304,-8.73914)"><path d="M15,79.5C15,85.851 20.149,91 26.5,91C32.847,91 38,85.847 38,79.5C38,73.153 32.847,68 26.5,68C23.45,68 20.525,69.212 18.368,71.368C20.525,69.212 23.45,68 26.5,68C32.847,68 38,73.153 38,79.5C38,85.847 32.847,91 26.5,91C20.149,91 15,85.851 15,79.5Z" style="fill:none;stroke:rgb(109,109,109);stroke-width:1.59px;stroke-linecap:butt;stroke-miterlimit:2;"/></g><g id="in-11" serif:id="in-1" transform="matrix(1.26087,0,0,1.26087,-6.91304,1.69564)"><path d="M15,39.5C15,45.851 20.149,51 26.5,51C32.847,51 38,45.847 38,39.5C38,33.153 32.847,28 26.5,28C23.45,28 20.525,29.212 18.368,31.368C20.525,29.212 23.45,28 26.5,28C32.847,28 38,33.153 38,39.5C38,45.847 32.847,51 26.5,51C20.149,51 15,45.851 15,39.5Z" style="fill:none;stroke:rgb(109,109,109);stroke-width:1.59px;stroke-linecap:butt;stroke-miterlimit:2;"/></g><g id="in-7-led" transform="matrix(0.304348,0,0,0.304348,30.9348,291.978)"><circle cx="26.5" cy="39.5" r="11.5" style="fill:rgb(109,109,109);stroke:rgb(109,109,109);stroke-width:3.29px;stroke-linecap:butt;stroke-miterlimit:2;"/></g><g id="in-8-led" transform="matrix(0.304348,0,0,0.304348,30.9348,331.978)"><circle cx="26.5" cy="39.5" r="11.5" style="fill:rgb(109,109,109);stroke:rgb(109,109,109);stroke-width:3.29px;stroke-linecap:butt;stroke-miterlimit:2;"/></g><g id="in-6-led" transform="matrix(0.304348,0,0,0.304348,30.9348,251.978)"><circle cx="26.5" cy="39.5" r="11.5" style="fill:rgb(109,109,109);stroke:rgb(109,109,109);stroke-width:3.29px;stroke-linecap:butt;stroke-miterlimit:2;"/></g><g id="in-5-led" transform="matrix(0.304348,0,0,0.304348,30.9348,211.978)"><circle cx="26.5" cy="39.5" r="11.5" style="fill:rgb(109,109,109);stroke:rgb(109,109,109);stroke-width:3.29px;stroke-linecap:butt;stroke-miterlimit:2;"/></g><g id="in-4-led" transform="matrix(0.304348,0,0,0.304348,30.9348,171.978)"><circle cx="26.5" cy="39.5" r="11.5" style="fill:rgb(109,109,109);stroke:rgb(109,109,109);stroke-width:3.29px;stroke-linecap:butt;stroke-miterlimit:2;"/></g><g id="in-3-led" transform="matrix(0.304348,0,0,0.304348,30.9348,131.978)"><circle cx="26.5" cy="39.5" r="11.5" style="fill:rgb(109,109,109);stroke:rgb(109,109,109);stroke-width:3.29px;stroke-linecap:butt;stroke-miterlimit:2;"/></g><g id="in-2-led" transform="matrix(0.304348,0,0,0.304348,30.9348,91.9783)"><circle cx="26.5" cy="39.5" r="11.5" style="fill:rgb(109,109,109);stroke:rgb(109,109,109);stroke-width:3.29px;stroke-linecap:butt;stroke-miterlimit:2;"/></g><g id="in-1-led" transform="matrix(0.304348,0,0,0.304348,30.9348,51.9783)"><circle cx="26.5" cy="39.5" r="11.5" style="fill:rgb(109,109,109);stroke:rgb(109,109,109);stroke-width:3.29px;stroke-linecap:butt;stroke-miterlimit:2;"/></g></g><g id="text" transform="matrix(1,0,0,1,42.4702,15)"><g transform="matrix(1,0,0,1,81.0358,339.348)"><g transform="matrix(11,0,0,11,-3.7565,0)"><path d="M0.341,0.008C0.285,0.008 0.239,0.004 0.204,-0.005C0.169,-0.013 0.142,-0.025 0.123,-0.042C0.104,-0.058 0.092,-0.078 0.085,-0.102C0.078,-0.125 0.074,-0.153 0.074,-0.184C0.074,-0.223 0.079,-0.254 0.089,-0.276C0.098,-0.297 0.112,-0.313 0.131,-0.324C0.15,-0.335 0.172,-0.343 0.199,-0.349L0.199,-0.353C0.158,-0.361 0.128,-0.378 0.109,-0.403C0.09,-0.428 0.08,-0.465 0.08,-0.515C0.08,-0.546 0.084,-0.572 0.092,-0.595C0.1,-0.618 0.114,-0.636 0.133,-0.652C0.152,-0.667 0.179,-0.678 0.213,-0.685C0.247,-0.692 0.29,-0.696 0.341,-0.696C0.392,-0.696 0.435,-0.692 0.469,-0.685C0.503,-0.678 0.53,-0.667 0.549,-0.652C0.568,-0.636 0.582,-0.618 0.59,-0.595C0.598,-0.572 0.602,-0.546 0.602,-0.515C0.602,-0.465 0.592,-0.428 0.573,-0.403C0.554,-0.378 0.524,-0.361 0.483,-0.353L0.483,-0.349C0.51,-0.343 0.533,-0.335 0.552,-0.324C0.57,-0.313 0.584,-0.297 0.594,-0.276C0.603,-0.254 0.608,-0.223 0.608,-0.184C0.608,-0.153 0.604,-0.125 0.598,-0.102C0.591,-0.078 0.578,-0.058 0.559,-0.042C0.54,-0.025 0.513,-0.013 0.478,-0.005C0.443,0.004 0.398,0.008 0.341,0.008ZM0.341,-0.066C0.387,-0.066 0.423,-0.069 0.449,-0.075C0.475,-0.08 0.494,-0.092 0.505,-0.109C0.516,-0.126 0.521,-0.152 0.521,-0.187C0.521,-0.214 0.518,-0.236 0.513,-0.253C0.508,-0.269 0.499,-0.281 0.486,-0.29C0.472,-0.299 0.454,-0.304 0.431,-0.307C0.408,-0.31 0.378,-0.311 0.341,-0.311C0.304,-0.311 0.274,-0.31 0.251,-0.307C0.228,-0.304 0.21,-0.299 0.197,-0.29C0.184,-0.281 0.174,-0.269 0.17,-0.253C0.165,-0.236 0.162,-0.214 0.162,-0.187C0.162,-0.152 0.167,-0.126 0.178,-0.109C0.189,-0.092 0.207,-0.08 0.233,-0.075C0.259,-0.069 0.295,-0.066 0.341,-0.066ZM0.341,-0.385C0.388,-0.385 0.424,-0.388 0.449,-0.395C0.474,-0.401 0.491,-0.413 0.501,-0.43C0.51,-0.447 0.515,-0.471 0.515,-0.503C0.515,-0.535 0.511,-0.56 0.502,-0.577C0.493,-0.594 0.475,-0.605 0.451,-0.612C0.426,-0.619 0.389,-0.622 0.341,-0.622C0.293,-0.622 0.257,-0.619 0.232,-0.612C0.207,-0.605 0.19,-0.594 0.181,-0.577C0.172,-0.56 0.168,-0.535 0.168,-0.503C0.168,-0.471 0.173,-0.447 0.182,-0.43C0.191,-0.413 0.209,-0.401 0.234,-0.395C0.259,-0.388 0.294,-0.385 0.341,-0.385Z" style="fill:rgb(250,250,250);fill-rule:nonzero;"/></g></g><g transform="matrix(1,0,0,1,81.0358,299.348)"><g transform="matrix(11,0,0,11,-3.0965,0)"><path d="M0.139,-0L0.419,-0.613L0.041,-0.613L0.041,-0.688L0.514,-0.688L0.514,-0.621L0.235,-0L0.139,-0Z" style="fill:rgb(250,250,250);fill-rule:nonzero;"/></g></g><g transform="matrix(1,0,0,1,81.0358,259.348)"><g transform="matrix(11,0,0,11,-3.6135,0)"><path d="M0.347,0.008C0.301,0.008 0.262,0.006 0.23,0.002C0.197,-0.003 0.17,-0.012 0.15,-0.027C0.129,-0.041 0.112,-0.063 0.101,-0.093C0.094,-0.108 0.089,-0.127 0.086,-0.15C0.083,-0.173 0.08,-0.2 0.079,-0.231C0.077,-0.262 0.076,-0.297 0.076,-0.337C0.076,-0.374 0.077,-0.407 0.079,-0.437C0.08,-0.467 0.083,-0.494 0.087,-0.517C0.09,-0.54 0.095,-0.561 0.101,-0.579C0.112,-0.61 0.129,-0.634 0.15,-0.651C0.171,-0.668 0.199,-0.679 0.232,-0.686C0.265,-0.693 0.306,-0.696 0.354,-0.696C0.371,-0.696 0.392,-0.695 0.415,-0.694C0.438,-0.692 0.462,-0.69 0.487,-0.687C0.511,-0.684 0.535,-0.681 0.558,-0.678L0.558,-0.609C0.537,-0.612 0.516,-0.614 0.493,-0.616C0.47,-0.617 0.448,-0.619 0.427,-0.62C0.405,-0.621 0.387,-0.622 0.372,-0.622C0.325,-0.622 0.288,-0.619 0.261,-0.612C0.233,-0.605 0.212,-0.593 0.198,-0.575C0.184,-0.557 0.175,-0.531 0.17,-0.497C0.165,-0.462 0.163,-0.417 0.163,-0.361L0.169,-0.361C0.176,-0.369 0.187,-0.377 0.2,-0.385C0.213,-0.392 0.233,-0.399 0.259,-0.404C0.284,-0.409 0.319,-0.411 0.362,-0.411C0.404,-0.411 0.44,-0.409 0.47,-0.404C0.5,-0.399 0.524,-0.39 0.543,-0.377C0.562,-0.364 0.575,-0.344 0.584,-0.319C0.592,-0.294 0.596,-0.26 0.596,-0.218C0.596,-0.174 0.593,-0.137 0.587,-0.108C0.58,-0.079 0.568,-0.056 0.55,-0.039C0.532,-0.022 0.507,-0.01 0.474,-0.003C0.441,0.004 0.399,0.008 0.347,0.008ZM0.339,-0.066C0.374,-0.066 0.402,-0.067 0.425,-0.07C0.448,-0.073 0.465,-0.079 0.478,-0.088C0.491,-0.097 0.499,-0.11 0.504,-0.127C0.509,-0.144 0.511,-0.168 0.511,-0.199C0.511,-0.231 0.509,-0.256 0.504,-0.275C0.499,-0.294 0.491,-0.308 0.479,-0.317C0.467,-0.326 0.45,-0.331 0.427,-0.334C0.404,-0.336 0.375,-0.337 0.339,-0.337C0.3,-0.337 0.268,-0.335 0.245,-0.331C0.222,-0.327 0.204,-0.321 0.194,-0.312C0.183,-0.303 0.175,-0.291 0.172,-0.277C0.168,-0.263 0.166,-0.246 0.166,-0.226C0.166,-0.189 0.169,-0.16 0.175,-0.139C0.18,-0.118 0.19,-0.102 0.203,-0.091C0.216,-0.08 0.233,-0.074 0.255,-0.071C0.277,-0.068 0.305,-0.066 0.339,-0.066Z" style="fill:rgb(250,250,250);fill-rule:nonzero;"/></g></g><g transform="matrix(1,0,0,1,81.0358,219.348)"><g transform="matrix(11,0,0,11,-3.4045,0)"><path d="M0.287,0.008C0.266,0.008 0.244,0.007 0.219,0.006C0.194,0.004 0.17,0.002 0.146,-0.001C0.122,-0.003 0.101,-0.006 0.082,-0.009L0.082,-0.078C0.105,-0.076 0.129,-0.074 0.154,-0.072C0.179,-0.07 0.202,-0.069 0.224,-0.068C0.246,-0.067 0.265,-0.066 0.281,-0.066C0.318,-0.066 0.349,-0.068 0.373,-0.073C0.396,-0.077 0.415,-0.084 0.428,-0.095C0.44,-0.105 0.45,-0.119 0.455,-0.137C0.46,-0.154 0.463,-0.176 0.463,-0.203C0.463,-0.232 0.46,-0.256 0.455,-0.274C0.449,-0.291 0.439,-0.304 0.425,-0.313C0.41,-0.322 0.39,-0.328 0.365,-0.331C0.34,-0.334 0.307,-0.335 0.267,-0.335C0.254,-0.335 0.237,-0.335 0.218,-0.334C0.198,-0.333 0.177,-0.331 0.155,-0.329C0.133,-0.327 0.111,-0.325 0.09,-0.322L0.09,-0.688L0.499,-0.688L0.499,-0.613L0.169,-0.613L0.169,-0.399C0.182,-0.401 0.198,-0.403 0.216,-0.405C0.233,-0.406 0.251,-0.407 0.27,-0.408C0.288,-0.409 0.305,-0.409 0.321,-0.409C0.37,-0.409 0.41,-0.405 0.44,-0.397C0.47,-0.389 0.493,-0.377 0.509,-0.36C0.524,-0.343 0.535,-0.322 0.541,-0.298C0.547,-0.273 0.55,-0.245 0.55,-0.213C0.55,-0.172 0.546,-0.138 0.539,-0.11C0.531,-0.081 0.518,-0.059 0.499,-0.042C0.48,-0.025 0.453,-0.012 0.419,-0.004C0.385,0.004 0.341,0.008 0.287,0.008Z" style="fill:rgb(250,250,250);fill-rule:nonzero;"/></g></g><g transform="matrix(1,0,0,1,81.0358,179.348)"><g transform="matrix(11,0,0,11,-3.531,0)"><path d="M0.409,-0L0.409,-0.161L0.046,-0.161L0.046,-0.227L0.315,-0.688L0.41,-0.688L0.142,-0.235L0.41,-0.235L0.428,-0.48L0.495,-0.48L0.495,-0.235L0.597,-0.235L0.597,-0.161L0.495,-0.161L0.495,-0L0.409,-0Z" style="fill:rgb(250,250,250);fill-rule:nonzero;"/></g></g><g transform="matrix(1,0,0,1,81.0358,139.348)"><g transform="matrix(11,0,0,11,-3.3055,0)"><path d="M0.264,0.008C0.243,0.008 0.221,0.007 0.196,0.006C0.171,0.004 0.146,0.002 0.123,-0.001C0.099,-0.004 0.078,-0.006 0.06,-0.009L0.06,-0.078C0.083,-0.076 0.106,-0.074 0.131,-0.072C0.156,-0.07 0.179,-0.069 0.201,-0.068C0.223,-0.067 0.242,-0.066 0.258,-0.066C0.297,-0.066 0.331,-0.069 0.358,-0.074C0.385,-0.079 0.406,-0.09 0.42,-0.107C0.433,-0.124 0.44,-0.15 0.44,-0.187C0.44,-0.218 0.436,-0.242 0.427,-0.261C0.418,-0.279 0.404,-0.292 0.385,-0.3C0.366,-0.307 0.34,-0.311 0.308,-0.311L0.179,-0.311L0.179,-0.386L0.308,-0.386C0.331,-0.386 0.351,-0.389 0.37,-0.395C0.389,-0.401 0.404,-0.412 0.415,-0.429C0.426,-0.446 0.432,-0.47 0.432,-0.503C0.432,-0.539 0.426,-0.565 0.414,-0.582C0.402,-0.599 0.383,-0.61 0.356,-0.615C0.329,-0.62 0.293,-0.622 0.248,-0.622C0.23,-0.622 0.21,-0.621 0.188,-0.62C0.166,-0.619 0.144,-0.617 0.123,-0.616C0.101,-0.614 0.081,-0.612 0.064,-0.609L0.064,-0.679C0.082,-0.682 0.103,-0.685 0.126,-0.688C0.149,-0.69 0.173,-0.692 0.198,-0.694C0.223,-0.695 0.245,-0.696 0.265,-0.696C0.314,-0.696 0.354,-0.692 0.387,-0.685C0.42,-0.678 0.446,-0.667 0.465,-0.652C0.484,-0.637 0.498,-0.619 0.507,-0.596C0.515,-0.573 0.519,-0.546 0.519,-0.515C0.519,-0.465 0.509,-0.428 0.489,-0.403C0.468,-0.378 0.439,-0.362 0.402,-0.353L0.402,-0.349C0.427,-0.344 0.449,-0.336 0.468,-0.325C0.487,-0.314 0.501,-0.297 0.512,-0.274C0.522,-0.251 0.527,-0.221 0.527,-0.184C0.527,-0.155 0.524,-0.128 0.517,-0.105C0.509,-0.081 0.497,-0.061 0.478,-0.044C0.459,-0.027 0.433,-0.014 0.399,-0.006C0.364,0.004 0.319,0.008 0.264,0.008Z" style="fill:rgb(250,250,250);fill-rule:nonzero;"/></g></g><g transform="matrix(1,0,0,1,81.0358,99.348)"><g transform="matrix(11,0,0,11,-3.355,0)"><path d="M0.07,-0L0.07,-0.08C0.07,-0.118 0.071,-0.15 0.073,-0.176C0.074,-0.201 0.079,-0.222 0.086,-0.239C0.093,-0.256 0.105,-0.27 0.121,-0.282C0.136,-0.294 0.158,-0.306 0.187,-0.318L0.368,-0.395C0.392,-0.406 0.41,-0.416 0.422,-0.425C0.434,-0.434 0.442,-0.446 0.447,-0.459C0.451,-0.472 0.453,-0.49 0.453,-0.512C0.453,-0.544 0.448,-0.568 0.439,-0.584C0.429,-0.599 0.412,-0.61 0.388,-0.615C0.363,-0.62 0.329,-0.622 0.284,-0.622C0.268,-0.622 0.249,-0.621 0.226,-0.62C0.203,-0.619 0.179,-0.617 0.154,-0.616C0.129,-0.614 0.106,-0.612 0.084,-0.609L0.084,-0.679C0.103,-0.682 0.126,-0.685 0.152,-0.688C0.177,-0.69 0.204,-0.692 0.232,-0.694C0.259,-0.695 0.285,-0.696 0.31,-0.696C0.342,-0.696 0.372,-0.694 0.399,-0.691C0.426,-0.688 0.451,-0.68 0.472,-0.669C0.493,-0.658 0.51,-0.64 0.522,-0.617C0.533,-0.593 0.539,-0.561 0.539,-0.521C0.539,-0.481 0.535,-0.449 0.527,-0.426C0.518,-0.402 0.505,-0.383 0.487,-0.369C0.468,-0.354 0.444,-0.341 0.414,-0.328L0.208,-0.241C0.191,-0.234 0.178,-0.225 0.171,-0.216C0.163,-0.207 0.158,-0.195 0.156,-0.18C0.154,-0.165 0.153,-0.145 0.153,-0.122L0.153,-0.075L0.539,-0.075L0.539,-0L0.07,-0Z" style="fill:rgb(250,250,250);fill-rule:nonzero;"/></g></g><g transform="matrix(1,0,0,1,81.0358,59.348)"><g transform="matrix(11,0,0,11,-2.068,0)"><path d="M0.18,-0L0.18,-0.59L0.038,-0.521L0.038,-0.598L0.205,-0.688L0.266,-0.688L0.266,-0L0.18,-0Z" style="fill:rgb(250,250,250);fill-rule:nonzero;"/></g></g></g></g><g id="middle-cv" transform="matrix(1,0,0,1,48.5,-10)"><g id="background1" serif:id="background"><g id="in-62" serif:id="in-6" transform="matrix(1.26087,0,0,1.26087,-6.91305,42.5217)"><path d="M15,239.5C15,245.851 20.149,251 26.5,251C32.847,251 38,245.847 38,239.5C38,233.153 32.847,228 26.5,228C23.45,228 20.525,229.212 18.368,231.368C20.525,229.212 23.45,228 26.5,228C32.847,228 38,233.153 38,239.5C38,245.847 32.847,251 26.5,251C20.149,251 15,245.851 15,239.5Z" style="fill:none;stroke:white;stroke-width:1.59px;stroke-linecap:butt;stroke-miterlimit:2;"/></g><g id="in-63" serif:id="in-6" transform="matrix(1.56522,0,0,1.56522,-14.9783,-30.3696)"><path d="M15,239.5C15,245.851 20.149,251 26.5,251C32.847,251 38,245.847 38,239.5C38,233.153 32.847,228 26.5,228C23.45,228 20.525,229.212 18.368,231.368C20.525,229.212 23.45,228 26.5,228C32.847,228 38,233.153 38,239.5C38,245.847 32.847,251 26.5,251C20.149,251 15,245.851 15,239.5Z" style="fill:none;stroke:white;stroke-width:1.28px;stroke-linecap:butt;stroke-miterlimit:2;"/></g><g transform="matrix(1,0,0,1,-48.5,10)"><path d="M57.25,303.752L57.5,314L75.01,314L75,332" style="fill:none;stroke:white;stroke-width:3px;"/></g><g id="in-64" serif:id="in-6" transform="matrix(1.26087,0,0,1.26087,-6.91305,-50.4783)"><path d="M15,239.5C15,245.851 20.149,251 26.5,251C32.847,251 38,245.847 38,239.5C38,233.153 32.847,228 26.5,228C23.45,228 20.525,229.212 18.368,231.368C20.525,229.212 23.45,228 26.5,228C32.847,228 38,233.153 38,239.5C38,245.847 32.847,251 26.5,251C20.149,251 15,245.851 15,239.5Z" style="fill:none;stroke:white;stroke-width:1.59px;stroke-linecap:butt;stroke-miterlimit:2;"/></g><g id="in-65" serif:id="in-6" transform="matrix(1.56522,0,0,1.56522,-14.9783,-123.37)"><path d="M15,239.5C15,245.851 20.149,251 26.5,251C32.847,251 38,245.847 38,239.5C38,233.153 32.847,228 26.5,228C23.45,228 20.525,229.212 18.368,231.368C20.525,229.212 23.45,228 26.5,228C32.847,228 38,233.153 38,239.5C38,245.847 32.847,251 26.5,251C20.149,251 15,245.851 15,239.5Z" style="fill:none;stroke:white;stroke-width:1.28px;stroke-linecap:butt;stroke-miterlimit:2;"/></g><g transform="matrix(1,0,0,3.40799,-48.5,-124.431)"><path d="M75,104C75.023,104.056 75,109.869 75,109.869" style="fill:none;stroke:white;stroke-width:1.19px;"/></g><g id="in-66" serif:id="in-6" transform="matrix(1.26087,0,0,1.26087,-6.91305,-170.478)"><path d="M15,239.5C15,245.851 20.149,251 26.5,251C32.847,251 38,245.847 38,239.5C38,233.153 32.847,228 26.5,228C23.45,228 20.525,229.212 18.368,231.368C20.525,229.212 23.45,228 26.5,228C32.847,228 38,233.153 38,239.5C38,245.847 32.847,251 26.5,251C20.149,251 15,245.851 15,239.5Z" style="fill:none;stroke:white;stroke-width:1.59px;stroke-linecap:butt;stroke-miterlimit:2;"/></g><g id="in-67" serif:id="in-6" transform="matrix(1.56522,0,0,1.56522,-14.9783,-243.37)"><path d="M15,239.5C15,245.851 20.149,251 26.5,251C32.847,251 38,245.847 38,239.5C38,233.153 32.847,228 26.5,228C23.45,228 20.525,229.212 18.368,231.368C20.525,229.212 23.45,228 26.5,228C32.847,228 38,233.153 38,239.5C38,245.847 32.847,251 26.5,251C20.149,251 15,245.851 15,239.5Z" style="fill:none;stroke:white;stroke-width:1.28px;stroke-linecap:butt;stroke-miterlimit:2;"/></g><g transform="matrix(1,0,0,3.40799,-48.5,-244.431)"><path d="M75,104C75.023,104.056 75,109.869 75,109.869" style="fill:none;stroke:white;stroke-width:1.19px;"/></g><g transform="matrix(0.576923,1.25605e-17,-7.53629e-18,-0.533333,-7.61662,462.45)"><path d="M46.794,281.157L59.794,281.157L53.294,269.907L46.794,281.157Z" style="fill:rgb(109,109,109);"/></g><g transform="matrix(0.803567,-3.93634e-17,-3.15871e-17,1.49025,-21.1932,-120.163)"><rect x="50.491" y="283.954" width="9.333" height="4.026" style="fill:rgb(109,109,109);"/></g><g transform="matrix(0.576923,-2.82611e-17,-1.13044e-17,0.533333,-7.61662,149.55)"><path d="M46.794,281.157L59.794,281.157L53.294,269.907L46.794,281.157Z" style="fill:rgb(109,109,109);"/></g></g></g><g id="middle-controls" transform="matrix(1,0,0,1,0,-10)"><g id="displays" transform="matrix(1,0,0,1,-5.25,0)"><g id="lower-display" transform="matrix(1,0,0,1,1.5,82.75)"><g id="upper-display" transform="matrix(0.976471,0,0,0.955556,1.85295,4.38889)"><rect x="57.5" y="87.5" width="42.5" height="22.5" style="fill:rgb(45,45,45);"/></g><g id="scale" transform="matrix(1.25,0,0,1.25,22.5,15)"><circle id="circle156" cx="51" cy="61" r="1" style="fill:rgb(64,64,64);"/><circle id="circle157" cx="53" cy="61" r="1" style="fill:rgb(64,64,64);"/><circle id="circle158" cx="55" cy="61" r="1" style="fill:rgb(64,64,64);"/><circle id="circle159" cx="57" cy="61" r="1" style="fill:rgb(64,64,64);"/><circle id="circle160" cx="59" cy="61" r="1" style="fill:rgb(64,64,64);"/><circle id="circle161" cx="51" cy="63" r="1" style="fill:rgb(64,64,64);"/><circle id="circle163" cx="55" cy="63" r="1" style="fill:rgb(64,64,64);"/><circle id="circle165" cx="59" cy="63" r="1" style="fill:rgb(64,64,64);"/><circle id="circle166" cx="51" cy="65" r="1" style="fill:rgb(64,64,64);"/><circle id="circle168" cx="55" cy="65" r="1" style="fill:rgb(64,64,64);"/><circle id="circle170" cx="59" cy="65" r="1" style="fill:rgb(64,64,64);"/><circle id="circle171" cx="51" cy="67" r="1" style="fill:rgb(64,64,64);"/><circle id="circle172" cx="53" cy="67" r="1" style="fill:rgb(64,64,64);"/><circle id="circle173" cx="55" cy="67" r="1" style="fill:rgb(64,64,64);"/><circle id="circle174" cx="57" cy="67" r="1" style="fill:rgb(64,64,64);"/><circle id="circle175" cx="59" cy="67" r="1" style="fill:rgb(64,64,64);"/><circle id="circle176" cx="51" cy="69" r="1" style="fill:rgb(64,64,64);"/><circle id="circle178" cx="55" cy="69" r="1" style="fill:rgb(64,64,64);"/><circle id="circle180" cx="59" cy="69" r="1" style="fill:rgb(64,64,64);"/><circle id="circle181" cx="51" cy="71" r="1" style="fill:rgb(64,64,64);"/><circle id="circle183" cx="55" cy="71" r="1" style="fill:rgb(64,64,64);"/><circle id="circle185" cx="59" cy="71" r="1" style="fill:rgb(64,64,64);"/><circle id="circle186" cx="51" cy="73" r="1" style="fill:rgb(64,64,64);"/><circle id="circle187" cx="53" cy="73" r="1" style="fill:rgb(64,64,64);"/><circle id="circle188" cx="55" cy="73" r="1" style="fill:rgb(64,64,64);"/><circle id="circle189" cx="57" cy="73" r="1" style="fill:rgb(64,64,64);"/><circle id="circle190" cx="59" cy="73" r="1" style="fill:rgb(64,64,64);"/></g><g id="sign" transform="matrix(1.25,0,0,1.25,11.05,14.5)"><g id="circle12" transform="matrix(0.8,0,0,0.8,9.96001,11.2053)"><circle cx="51" cy="63" r="1" style="fill:rgb(64,64,64);"/></g><g id="circle21" transform="matrix(0.8,0,0,0.8,9.96001,11.2053)"><circle cx="51" cy="65" r="1" style="fill:rgb(64,64,64);"/></g><g id="circle38" transform="matrix(0.8,0,0,0.8,9.96001,11.2053)"><circle cx="51" cy="67" r="1" style="fill:rgb(64,64,64);"/></g><g id="circle43" transform="matrix(0.8,0,0,0.8,9.96001,11.2053)"><circle cx="51" cy="69" r="1" style="fill:rgb(64,64,64);"/></g><g id="circle48" transform="matrix(0.8,0,0,0.8,9.96001,11.2053)"><circle cx="51" cy="71" r="1" style="fill:rgb(64,64,64);"/></g><g id="circle53" transform="matrix(0.8,0,0,0.8,9.96001,11.2053)"><circle cx="51" cy="73" r="1" style="fill:rgb(64,64,64);"/></g><g id="circle121" serif:id="circle12" transform="matrix(0.8,0,0,0.8,11.56,10.8053)"><circle cx="51" cy="63" r="1" style="fill:rgb(64,64,64);"/></g><g id="circle211" serif:id="circle21" transform="matrix(0.8,0,0,0.8,11.56,10.8053)"><circle cx="51" cy="65" r="1" style="fill:rgb(64,64,64);"/></g><g id="circle381" serif:id="circle38" transform="matrix(0.8,0,0,0.8,11.56,10.8053)"><circle cx="51" cy="67" r="1" style="fill:rgb(64,64,64);"/></g><g id="circle431" serif:id="circle43" transform="matrix(0.8,0,0,0.8,11.56,10.8053)"><circle cx="51" cy="69" r="1" style="fill:rgb(64,64,64);"/></g><g id="circle481" serif:id="circle48" transform="matrix(0.8,0,0,0.8,11.56,10.8053)"><circle cx="51" cy="71" r="1" style="fill:rgb(64,64,64);"/></g><g id="circle531" serif:id="circle53" transform="matrix(0.8,0,0,0.8,11.56,10.8053)"><circle cx="51" cy="73" r="1" style="fill:rgb(64,64,64);"/></g><g id="circle212" serif:id="circle21" transform="matrix(0.8,0,0,0.8,13.16,11.6053)"><circle cx="51" cy="65" r="1" style="fill:rgb(64,64,64);"/></g><g id="circle432" serif:id="circle43" transform="matrix(0.8,0,0,0.8,13.16,11.6053)"><circle cx="51" cy="69" r="1" style="fill:rgb(64,64,64);"/></g><g id="circle482" serif:id="circle48" transform="matrix(0.8,0,0,0.8,13.16,11.6053)"><circle cx="51" cy="71" r="1" style="fill:rgb(64,64,64);"/></g><g id="circle122" serif:id="circle12" transform="matrix(0.8,0,0,0.8,14.76,10.8053)"><circle cx="51" cy="63" r="1" style="fill:rgb(64,64,64);"/></g><g id="circle213" serif:id="circle21" transform="matrix(0.8,0,0,0.8,14.76,10.8053)"><circle cx="51" cy="65" r="1" style="fill:rgb(64,64,64);"/></g><g id="circle382" serif:id="circle38" transform="matrix(0.8,0,0,0.8,14.76,10.8053)"><circle cx="51" cy="67" r="1" style="fill:rgb(64,64,64);"/></g><g id="circle433" serif:id="circle43" transform="matrix(0.8,0,0,0.8,14.76,10.8053)"><circle cx="51" cy="69" r="1" style="fill:rgb(64,64,64);"/></g><g id="circle483" serif:id="circle48" transform="matrix(0.8,0,0,0.8,14.76,10.8053)"><circle cx="51" cy="71" r="1" style="fill:rgb(64,64,64);"/></g><g id="circle532" serif:id="circle53" transform="matrix(0.8,0,0,0.8,14.76,10.8053)"><circle cx="51" cy="73" r="1" style="fill:rgb(64,64,64);"/></g><g id="circle123" serif:id="circle12" transform="matrix(0.8,0,0,0.8,16.36,12.0053)"><circle cx="51" cy="63" r="1" style="fill:rgb(64,64,64);"/></g><g id="circle383" serif:id="circle38" transform="matrix(0.8,0,0,0.8,16.36,12.0053)"><circle cx="51" cy="67" r="1" style="fill:rgb(64,64,64);"/></g></g><g id="note" transform="matrix(1.25,0,0,1.25,-2.50002,15)"><circle id="path8" cx="51" cy="61" r="1" style="fill:rgb(64,64,64);"/><circle id="circle8" cx="53" cy="61" r="1" style="fill:rgb(64,64,64);"/><circle id="circle9" cx="55" cy="61" r="1" style="fill:rgb(64,64,64);"/><circle id="circle10" cx="57" cy="61" r="1" style="fill:rgb(64,64,64);"/><circle id="circle11" cx="59" cy="61" r="1" style="fill:rgb(64,64,64);"/><circle id="circle124" serif:id="circle12" cx="51" cy="63" r="1" style="fill:rgb(64,64,64);"/><circle id="circle16" cx="59" cy="63" r="1" style="fill:rgb(64,64,64);"/><circle id="circle214" serif:id="circle21" cx="51" cy="65" r="1" style="fill:rgb(64,64,64);"/><circle id="circle37" cx="59" cy="65" r="1" style="fill:rgb(64,64,64);"/><circle id="circle384" serif:id="circle38" cx="51" cy="67" r="1" style="fill:rgb(64,64,64);"/><circle id="circle39" cx="53" cy="67" r="1" style="fill:rgb(64,64,64);"/><circle id="circle40" cx="55" cy="67" r="1" style="fill:rgb(64,64,64);"/><circle id="circle41" cx="57" cy="67" r="1" style="fill:rgb(64,64,64);"/><circle id="circle42" cx="59" cy="67" r="1" style="fill:rgb(64,64,64);"/><circle id="circle434" serif:id="circle43" cx="51" cy="69" r="1" style="fill:rgb(64,64,64);"/><circle id="circle47" cx="59" cy="69" r="1" style="fill:rgb(64,64,64);"/><circle id="circle484" serif:id="circle48" cx="51" cy="71" r="1" style="fill:rgb(64,64,64);"/><circle id="circle52" cx="59" cy="71" r="1" style="fill:rgb(64,64,64);"/><circle id="circle533" serif:id="circle53" cx="51" cy="73" r="1" style="fill:rgb(64,64,64);"/><circle id="circle54" cx="53" cy="73" r="1" style="fill:rgb(64,64,64);"/><circle id="circle55" cx="55" cy="73" r="1" style="fill:rgb(64,64,64);"/><circle id="circle56" cx="57" cy="73" r="1" style="fill:rgb(64,64,64);"/><circle id="circle57" cx="59" cy="73" r="1" style="fill:rgb(64,64,64);"/></g></g><g id="upper-display1" serif:id="upper-display" transform="matrix(1,0,0,1,1.5,-37.25)"><g id="upper-display2" serif:id="upper-display" transform="matrix(0.976471,0,0,0.955556,1.85295,4.38889)"><rect x="57.5" y="87.5" width="42.5" height="22.5" style="fill:rgb(45,45,45);"/></g><g id="scale1" serif:id="scale" transform="matrix(1.25,0,0,1.25,22.5,15)"><circle id="circle1561" serif:id="circle156" cx="51" cy="61" r="1" style="fill:rgb(64,64,64);"/><circle id="circle1571" serif:id="circle157" cx="53" cy="61" r="1" style="fill:rgb(64,64,64);"/><circle id="circle1581" serif:id="circle158" cx="55" cy="61" r="1" style="fill:rgb(64,64,64);"/><circle id="circle1591" serif:id="circle159" cx="57" cy="61" r="1" style="fill:rgb(64,64,64);"/><circle id="circle1601" serif:id="circle160" cx="59" cy="61" r="1" style="fill:rgb(64,64,64);"/><circle id="circle1611" serif:id="circle161" cx="51" cy="63" r="1" style="fill:rgb(64,64,64);"/><circle id="circle1631" serif:id="circle163" cx="55" cy="63" r="1" style="fill:rgb(64,64,64);"/><circle id="circle1651" serif:id="circle165" cx="59" cy="63" r="1" style="fill:rgb(64,64,64);"/><circle id="circle1661" serif:id="circle166" cx="51" cy="65" r="1" style="fill:rgb(64,64,64);"/><circle id="circle1681" serif:id="circle168" cx="55" cy="65" r="1" style="fill:rgb(64,64,64);"/><circle id="circle1701" serif:id="circle170" cx="59" cy="65" r="1" style="fill:rgb(64,64,64);"/><circle id="circle1711" serif:id="circle171" cx="51" cy="67" r="1" style="fill:rgb(64,64,64);"/><circle id="circle1721" serif:id="circle172" cx="53" cy="67" r="1" style="fill:rgb(64,64,64);"/><circle id="circle1731" serif:id="circle173" cx="55" cy="67" r="1" style="fill:rgb(64,64,64);"/><circle id="circle1741" serif:id="circle174" cx="57" cy="67" r="1" style="fill:rgb(64,64,64);"/><circle id="circle1751" serif:id="circle175" cx="59" cy="67" r="1" style="fill:rgb(64,64,64);"/><circle id="circle1761" serif:id="circle176" cx="51" cy="69" r="1" style="fill:rgb(64,64,64);"/><circle id="circle1781" serif:id="circle178" cx="55" cy="69" r="1" style="fill:rgb(64,64,64);"/><circle id="circle1801" serif:id="circle180" cx="59" cy="69" r="1" style="fill:rgb(64,64,64);"/><circle id="circle1811" serif:id="circle181" cx="51" cy="71" r="1" style="fill:rgb(64,64,64);"/><circle id="circle1831" serif:id="circle183" cx="55" cy="71" r="1" style="fill:rgb(64,64,64);"/><circle id="circle1851" serif:id="circle185" cx="59" cy="71" r="1" style="fill:rgb(64,64,64);"/><circle id="circle1861" serif:id="circle186" cx="51" cy="73" r="1" style="fill:rgb(64,64,64);"/><circle id="circle1871" serif:id="circle187" cx="53" cy="73" r="1" style="fill:rgb(64,64,64);"/><circle id="circle1881" serif:id="circle188" cx="55" cy="73" r="1" style="fill:rgb(64,64,64);"/><circle id="circle1891" serif:id="circle189" cx="57" cy="73" r="1" style="fill:rgb(64,64,64);"/><circle id="circle1901" serif:id="circle190" cx="59" cy="73" r="1" style="fill:rgb(64,64,64);"/></g><g id="sign1" serif:id="sign" transform="matrix(1.25,0,0,1.25,11.05,14.5)"><g id="circle125" serif:id="circle12" transform="matrix(0.8,0,0,0.8,9.96001,11.2053)"><circle cx="51" cy="63" r="1" style="fill:rgb(64,64,64);"/></g><g id="circle215" serif:id="circle21" transform="matrix(0.8,0,0,0.8,9.96001,11.2053)"><circle cx="51" cy="65" r="1" style="fill:rgb(64,64,64);"/></g><g id="circle385" serif:id="circle38" transform="matrix(0.8,0,0,0.8,9.96001,11.2053)"><circle cx="51" cy="67" r="1" style="fill:rgb(64,64,64);"/></g><g id="circle435" serif:id="circle43" transform="matrix(0.8,0,0,0.8,9.96001,11.2053)"><circle cx="51" cy="69" r="1" style="fill:rgb(64,64,64);"/></g><g id="circle485" serif:id="circle48" transform="matrix(0.8,0,0,0.8,9.96001,11.2053)"><circle cx="51" cy="71" r="1" style="fill:rgb(64,64,64);"/></g><g id="circle534" serif:id="circle53" transform="matrix(0.8,0,0,0.8,9.96001,11.2053)"><circle cx="51" cy="73" r="1" style="fill:rgb(64,64,64);"/></g><g id="circle126" serif:id="circle12" transform="matrix(0.8,0,0,0.8,11.56,10.8053)"><circle cx="51" cy="63" r="1" style="fill:rgb(64,64,64);"/></g><g id="circle216" serif:id="circle21" transform="matrix(0.8,0,0,0.8,11.56,10.8053)"><circle cx="51" cy="65" r="1" style="fill:rgb(64,64,64);"/></g><g id="circle386" serif:id="circle38" transform="matrix(0.8,0,0,0.8,11.56,10.8053)"><circle cx="51" cy="67" r="1" style="fill:rgb(64,64,64);"/></g><g id="circle436" serif:id="circle43" transform="matrix(0.8,0,0,0.8,11.56,10.8053)"><circle cx="51" cy="69" r="1" style="fill:rgb(64,64,64);"/></g><g id="circle486" serif:id="circle48" transform="matrix(0.8,0,0,0.8,11.56,10.8053)"><circle cx="51" cy="71" r="1" style="fill:rgb(64,64,64);"/></g><g id="circle535" serif:id="circle53" transform="matrix(0.8,0,0,0.8,11.56,10.8053)"><circle cx="51" cy="73" r="1" style="fill:rgb(64,64,64);"/></g><g id="circle217" serif:id="circle21" transform="matrix(0.8,0,0,0.8,13.16,11.6053)"><circle cx="51" cy="65" r="1" style="fill:rgb(64,64,64);"/></g><g id="circle437" serif:id="circle43" transform="matrix(0.8,0,0,0.8,13.16,11.6053)"><circle cx="51" cy="69" r="1" style="fill:rgb(64,64,64);"/></g><g id="circle487" serif:id="circle48" transform="matrix(0.8,0,0,0.8,13.16,11.6053)"><circle cx="51" cy="71" r="1" style="fill:rgb(64,64,64);"/></g><g id="circle127" serif:id="circle12" transform="matrix(0.8,0,0,0.8,14.76,10.8053)"><circle cx="51" cy="63" r="1" style="fill:rgb(64,64,64);"/></g><g id="circle218" serif:id="circle21" transform="matrix(0.8,0,0,0.8,14.76,10.8053)"><circle cx="51" cy="65" r="1" style="fill:rgb(64,64,64);"/></g><g id="circle387" serif:id="circle38" transform="matrix(0.8,0,0,0.8,14.76,10.8053)"><circle cx="51" cy="67" r="1" style="fill:rgb(64,64,64);"/></g><g id="circle438" serif:id="circle43" transform="matrix(0.8,0,0,0.8,14.76,10.8053)"><circle cx="51" cy="69" r="1" style="fill:rgb(64,64,64);"/></g><g id="circle488" serif:id="circle48" transform="matrix(0.8,0,0,0.8,14.76,10.8053)"><circle cx="51" cy="71" r="1" style="fill:rgb(64,64,64);"/></g><g id="circle536" serif:id="circle53" transform="matrix(0.8,0,0,0.8,14.76,10.8053)"><circle cx="51" cy="73" r="1" style="fill:rgb(64,64,64);"/></g><g id="circle128" serif:id="circle12" transform="matrix(0.8,0,0,0.8,16.36,12.0053)"><circle cx="51" cy="63" r="1" style="fill:rgb(64,64,64);"/></g><g id="circle388" serif:id="circle38" transform="matrix(0.8,0,0,0.8,16.36,12.0053)"><circle cx="51" cy="67" r="1" style="fill:rgb(64,64,64);"/></g></g><g id="note1" serif:id="note" transform="matrix(1.25,0,0,1.25,-2.50002,15)"><circle id="path81" serif:id="path8" cx="51" cy="61" r="1" style="fill:rgb(64,64,64);"/><circle id="circle81" serif:id="circle8" cx="53" cy="61" r="1" style="fill:rgb(64,64,64);"/><circle id="circle91" serif:id="circle9" cx="55" cy="61" r="1" style="fill:rgb(64,64,64);"/><circle id="circle101" serif:id="circle10" cx="57" cy="61" r="1" style="fill:rgb(64,64,64);"/><circle id="circle111" serif:id="circle11" cx="59" cy="61" r="1" style="fill:rgb(64,64,64);"/><circle id="circle129" serif:id="circle12" cx="51" cy="63" r="1" style="fill:rgb(64,64,64);"/><circle id="circle162" serif:id="circle16" cx="59" cy="63" r="1" style="fill:rgb(64,64,64);"/><circle id="circle219" serif:id="circle21" cx="51" cy="65" r="1" style="fill:rgb(64,64,64);"/><circle id="circle371" serif:id="circle37" cx="59" cy="65" r="1" style="fill:rgb(64,64,64);"/><circle id="circle389" serif:id="circle38" cx="51" cy="67" r="1" style="fill:rgb(64,64,64);"/><circle id="circle391" serif:id="circle39" cx="53" cy="67" r="1" style="fill:rgb(64,64,64);"/><circle id="circle401" serif:id="circle40" cx="55" cy="67" r="1" style="fill:rgb(64,64,64);"/><circle id="circle411" serif:id="circle41" cx="57" cy="67" r="1" style="fill:rgb(64,64,64);"/><circle id="circle421" serif:id="circle42" cx="59" cy="67" r="1" style="fill:rgb(64,64,64);"/><circle id="circle439" serif:id="circle43" cx="51" cy="69" r="1" style="fill:rgb(64,64,64);"/><circle id="circle471" serif:id="circle47" cx="59" cy="69" r="1" style="fill:rgb(64,64,64);"/><circle id="circle489" serif:id="circle48" cx="51" cy="71" r="1" style="fill:rgb(64,64,64);"/><circle id="circle521" serif:id="circle52" cx="59" cy="71" r="1" style="fill:rgb(64,64,64);"/><circle id="circle537" serif:id="circle53" cx="51" cy="73" r="1" style="fill:rgb(64,64,64);"/><circle id="circle541" serif:id="circle54" cx="53" cy="73" r="1" style="fill:rgb(64,64,64);"/><circle id="circle551" serif:id="circle55" cx="55" cy="73" r="1" style="fill:rgb(64,64,64);"/><circle id="circle561" serif:id="circle56" cx="57" cy="73" r="1" style="fill:rgb(64,64,64);"/><circle id="circle571" serif:id="circle57" cx="59" cy="73" r="1" style="fill:rgb(64,64,64);"/></g></g></g><g id="text1" serif:id="text" transform="matrix(1,0,0,1,0,0.809223)"><g transform="matrix(1,0,0,1,93.07,298.459)"><g transform="matrix(8,0,0,8,-13.87,0)"><path d="M-0.025,-0L0.389,-0.688L0.496,-0.688L0.617,-0L0.531,-0L0.496,-0.189L0.179,-0.189L0.064,-0L-0.025,-0ZM0.218,-0.26L0.487,-0.26L0.428,-0.6L0.422,-0.6L0.218,-0.26Z" style="fill-rule:nonzero;"/></g><g transform="matrix(8,0,0,8,-8.358,0)"><path d="M0.3,0.008C0.271,0.008 0.242,0.007 0.211,0.006C0.18,0.005 0.149,0.003 0.119,0.001C0.089,-0.001 0.062,-0.003 0.037,-0.006L0.052,-0.077C0.075,-0.075 0.1,-0.073 0.127,-0.071C0.154,-0.069 0.18,-0.067 0.205,-0.066C0.23,-0.065 0.252,-0.064 0.271,-0.064C0.294,-0.064 0.314,-0.065 0.331,-0.066C0.347,-0.067 0.363,-0.068 0.377,-0.071C0.39,-0.074 0.403,-0.078 0.415,-0.084C0.425,-0.09 0.434,-0.098 0.441,-0.11C0.448,-0.121 0.455,-0.133 0.46,-0.147C0.465,-0.161 0.47,-0.175 0.473,-0.189C0.476,-0.203 0.479,-0.216 0.48,-0.228C0.481,-0.239 0.482,-0.248 0.482,-0.254C0.482,-0.267 0.479,-0.276 0.474,-0.283C0.468,-0.289 0.458,-0.294 0.444,-0.297C0.43,-0.3 0.411,-0.303 0.387,-0.306L0.219,-0.327C0.177,-0.332 0.149,-0.343 0.134,-0.362C0.119,-0.38 0.112,-0.404 0.112,-0.434C0.112,-0.446 0.113,-0.459 0.115,-0.474C0.116,-0.489 0.119,-0.504 0.123,-0.52C0.132,-0.558 0.144,-0.589 0.159,-0.612C0.174,-0.635 0.193,-0.653 0.216,-0.665C0.239,-0.677 0.266,-0.685 0.297,-0.69C0.328,-0.694 0.363,-0.696 0.402,-0.696C0.429,-0.696 0.457,-0.695 0.486,-0.694C0.515,-0.693 0.542,-0.691 0.567,-0.689C0.592,-0.686 0.612,-0.683 0.628,-0.68L0.614,-0.611C0.595,-0.614 0.574,-0.616 0.551,-0.618C0.527,-0.62 0.503,-0.622 0.479,-0.623C0.455,-0.624 0.432,-0.624 0.411,-0.624C0.386,-0.624 0.365,-0.623 0.347,-0.622C0.328,-0.621 0.312,-0.618 0.299,-0.615C0.286,-0.612 0.274,-0.607 0.263,-0.601C0.252,-0.595 0.243,-0.586 0.236,-0.575C0.228,-0.564 0.222,-0.551 0.217,-0.537C0.212,-0.522 0.208,-0.508 0.206,-0.494C0.203,-0.479 0.202,-0.466 0.202,-0.453C0.202,-0.436 0.208,-0.424 0.219,-0.417C0.23,-0.41 0.249,-0.405 0.277,-0.402L0.438,-0.383C0.465,-0.38 0.489,-0.375 0.509,-0.37C0.529,-0.364 0.545,-0.354 0.556,-0.339C0.567,-0.324 0.573,-0.302 0.573,-0.272C0.573,-0.265 0.573,-0.256 0.572,-0.247C0.571,-0.238 0.569,-0.228 0.568,-0.218C0.566,-0.207 0.564,-0.196 0.561,-0.184C0.551,-0.139 0.538,-0.103 0.522,-0.077C0.506,-0.051 0.487,-0.032 0.465,-0.02C0.443,-0.008 0.418,-0 0.391,0.003C0.363,0.006 0.333,0.008 0.3,0.008Z" style="fill-rule:nonzero;"/></g><g transform="matrix(8,0,0,8,-3.222,0)"><path d="M0.308,0.008C0.25,0.008 0.203,0.004 0.167,-0.004C0.131,-0.012 0.105,-0.027 0.089,-0.05C0.072,-0.073 0.064,-0.106 0.064,-0.15C0.064,-0.174 0.066,-0.202 0.071,-0.234C0.076,-0.265 0.082,-0.302 0.091,-0.344C0.104,-0.405 0.118,-0.456 0.131,-0.498C0.143,-0.54 0.158,-0.574 0.174,-0.6C0.19,-0.626 0.209,-0.646 0.232,-0.66C0.255,-0.673 0.283,-0.683 0.316,-0.688C0.349,-0.693 0.39,-0.696 0.437,-0.696C0.456,-0.696 0.477,-0.695 0.498,-0.694C0.519,-0.693 0.54,-0.691 0.56,-0.689C0.579,-0.687 0.596,-0.685 0.61,-0.682L0.595,-0.614C0.579,-0.617 0.563,-0.619 0.546,-0.62C0.529,-0.621 0.512,-0.622 0.497,-0.623C0.482,-0.624 0.468,-0.624 0.455,-0.624C0.415,-0.624 0.381,-0.623 0.354,-0.62C0.327,-0.616 0.304,-0.61 0.287,-0.6C0.269,-0.589 0.254,-0.574 0.242,-0.554C0.229,-0.534 0.218,-0.507 0.209,-0.473C0.2,-0.438 0.189,-0.395 0.178,-0.344C0.17,-0.303 0.163,-0.268 0.158,-0.239C0.153,-0.21 0.15,-0.184 0.15,-0.163C0.15,-0.134 0.156,-0.112 0.168,-0.098C0.18,-0.083 0.2,-0.074 0.227,-0.07C0.254,-0.066 0.291,-0.064 0.336,-0.064C0.359,-0.064 0.384,-0.065 0.412,-0.067C0.439,-0.069 0.463,-0.071 0.484,-0.074L0.469,-0.004C0.455,-0.001 0.439,0.001 0.42,0.003C0.401,0.004 0.382,0.006 0.363,0.007C0.344,0.008 0.325,0.008 0.308,0.008Z" style="fill-rule:nonzero;"/></g><g transform="matrix(8,0,0,8,-13.87,9.5)"><path d="M0.05,-0L0.197,-0.688L0.284,-0.688L0.535,-0.154L0.54,-0.154L0.655,-0.688L0.739,-0.688L0.592,-0L0.51,-0L0.256,-0.547L0.25,-0.547L0.133,-0L0.05,-0Z" style="fill-rule:nonzero;"/></g><g transform="matrix(8,0,0,8,-7.91,9.5)"><path d="M0.321,0.008C0.256,0.008 0.204,0.004 0.167,-0.004C0.13,-0.011 0.103,-0.025 0.087,-0.047C0.071,-0.068 0.063,-0.098 0.063,-0.137C0.063,-0.162 0.066,-0.191 0.072,-0.226C0.078,-0.26 0.086,-0.3 0.095,-0.346C0.108,-0.407 0.12,-0.458 0.131,-0.499C0.141,-0.54 0.154,-0.574 0.169,-0.601C0.184,-0.627 0.202,-0.647 0.225,-0.661C0.248,-0.674 0.277,-0.684 0.312,-0.689C0.347,-0.694 0.391,-0.696 0.444,-0.696C0.509,-0.696 0.561,-0.692 0.598,-0.685C0.635,-0.677 0.662,-0.663 0.678,-0.642C0.693,-0.62 0.701,-0.59 0.701,-0.549C0.701,-0.524 0.698,-0.494 0.693,-0.461C0.688,-0.428 0.68,-0.388 0.67,-0.342C0.657,-0.282 0.645,-0.231 0.634,-0.19C0.623,-0.149 0.61,-0.115 0.595,-0.089C0.58,-0.063 0.562,-0.043 0.54,-0.029C0.517,-0.015 0.488,-0.005 0.453,-0C0.418,0.005 0.374,0.008 0.321,0.008ZM0.323,-0.064C0.36,-0.064 0.391,-0.065 0.416,-0.067C0.441,-0.069 0.461,-0.075 0.478,-0.084C0.494,-0.093 0.508,-0.107 0.519,-0.127C0.53,-0.147 0.541,-0.174 0.551,-0.209C0.56,-0.244 0.571,-0.289 0.583,-0.344C0.593,-0.389 0.6,-0.427 0.606,-0.459C0.611,-0.49 0.613,-0.516 0.613,-0.537C0.613,-0.565 0.607,-0.585 0.596,-0.598C0.585,-0.61 0.567,-0.617 0.542,-0.62C0.517,-0.623 0.483,-0.624 0.442,-0.624C0.405,-0.624 0.374,-0.623 0.349,-0.621C0.324,-0.619 0.303,-0.614 0.287,-0.605C0.27,-0.596 0.256,-0.581 0.245,-0.561C0.234,-0.541 0.223,-0.514 0.214,-0.479C0.204,-0.444 0.193,-0.399 0.182,-0.344C0.176,-0.314 0.171,-0.287 0.166,-0.263C0.161,-0.238 0.157,-0.217 0.155,-0.199C0.152,-0.181 0.151,-0.165 0.151,-0.15C0.151,-0.123 0.157,-0.103 0.168,-0.091C0.179,-0.078 0.198,-0.071 0.223,-0.068C0.248,-0.065 0.282,-0.064 0.323,-0.064Z" style="fill-rule:nonzero;"/></g><g transform="matrix(8,0,0,8,-2.046,9.5)"><path d="M0.05,-0L0.197,-0.688L0.284,-0.688L0.535,-0.154L0.54,-0.154L0.655,-0.688L0.739,-0.688L0.592,-0L0.51,-0L0.256,-0.547L0.25,-0.547L0.133,-0L0.05,-0Z" style="fill-rule:nonzero;"/></g><g transform="matrix(8,0,0,8,3.914,9.5)"><path d="M0.05,-0L0.197,-0.688L0.654,-0.688L0.638,-0.616L0.268,-0.616L0.218,-0.383L0.54,-0.383L0.525,-0.312L0.203,-0.312L0.152,-0.072L0.522,-0.072L0.507,-0L0.05,-0Z" style="fill-rule:nonzero;"/></g><g transform="matrix(8,0,0,8,-13.87,19)"><path d="M0.05,-0L0.197,-0.688L0.406,-0.688C0.474,-0.688 0.528,-0.684 0.567,-0.677C0.606,-0.669 0.633,-0.655 0.65,-0.634C0.667,-0.613 0.675,-0.583 0.675,-0.542C0.675,-0.518 0.672,-0.49 0.667,-0.457C0.661,-0.424 0.654,-0.386 0.645,-0.342C0.632,-0.283 0.62,-0.234 0.61,-0.193C0.599,-0.152 0.586,-0.119 0.571,-0.094C0.556,-0.069 0.537,-0.049 0.514,-0.036C0.491,-0.022 0.461,-0.012 0.425,-0.008C0.388,-0.003 0.343,-0 0.289,-0L0.05,-0ZM0.152,-0.072L0.272,-0.072C0.316,-0.072 0.352,-0.073 0.38,-0.075C0.408,-0.077 0.431,-0.082 0.45,-0.091C0.468,-0.1 0.483,-0.114 0.495,-0.133C0.506,-0.152 0.517,-0.179 0.527,-0.213C0.536,-0.247 0.547,-0.291 0.558,-0.344C0.567,-0.385 0.574,-0.421 0.579,-0.451C0.584,-0.481 0.586,-0.506 0.586,-0.526C0.586,-0.548 0.583,-0.565 0.576,-0.578C0.569,-0.59 0.557,-0.599 0.542,-0.604C0.526,-0.609 0.505,-0.613 0.481,-0.614C0.456,-0.615 0.425,-0.616 0.388,-0.616L0.268,-0.616L0.152,-0.072Z" style="fill-rule:nonzero;"/></g><g transform="matrix(8,0,0,8,-8.262,19)"><path d="M0.05,-0L0.197,-0.688L0.654,-0.688L0.638,-0.616L0.268,-0.616L0.218,-0.383L0.54,-0.383L0.525,-0.312L0.203,-0.312L0.152,-0.072L0.522,-0.072L0.507,-0L0.05,-0Z" style="fill-rule:nonzero;"/></g><g transform="matrix(8,0,0,8,-3.366,19)"><path d="M0.3,0.008C0.271,0.008 0.242,0.007 0.211,0.006C0.18,0.005 0.149,0.003 0.119,0.001C0.089,-0.001 0.062,-0.003 0.037,-0.006L0.052,-0.077C0.075,-0.075 0.1,-0.073 0.127,-0.071C0.154,-0.069 0.18,-0.067 0.205,-0.066C0.23,-0.065 0.252,-0.064 0.271,-0.064C0.294,-0.064 0.314,-0.065 0.331,-0.066C0.347,-0.067 0.363,-0.068 0.377,-0.071C0.39,-0.074 0.403,-0.078 0.415,-0.084C0.425,-0.09 0.434,-0.098 0.441,-0.11C0.448,-0.121 0.455,-0.133 0.46,-0.147C0.465,-0.161 0.47,-0.175 0.473,-0.189C0.476,-0.203 0.479,-0.216 0.48,-0.228C0.481,-0.239 0.482,-0.248 0.482,-0.254C0.482,-0.267 0.479,-0.276 0.474,-0.283C0.468,-0.289 0.458,-0.294 0.444,-0.297C0.43,-0.3 0.411,-0.303 0.387,-0.306L0.219,-0.327C0.177,-0.332 0.149,-0.343 0.134,-0.362C0.119,-0.38 0.112,-0.404 0.112,-0.434C0.112,-0.446 0.113,-0.459 0.115,-0.474C0.116,-0.489 0.119,-0.504 0.123,-0.52C0.132,-0.558 0.144,-0.589 0.159,-0.612C0.174,-0.635 0.193,-0.653 0.216,-0.665C0.239,-0.677 0.266,-0.685 0.297,-0.69C0.328,-0.694 0.363,-0.696 0.402,-0.696C0.429,-0.696 0.457,-0.695 0.486,-0.694C0.515,-0.693 0.542,-0.691 0.567,-0.689C0.592,-0.686 0.612,-0.683 0.628,-0.68L0.614,-0.611C0.595,-0.614 0.574,-0.616 0.551,-0.618C0.527,-0.62 0.503,-0.622 0.479,-0.623C0.455,-0.624 0.432,-0.624 0.411,-0.624C0.386,-0.624 0.365,-0.623 0.347,-0.622C0.328,-0.621 0.312,-0.618 0.299,-0.615C0.286,-0.612 0.274,-0.607 0.263,-0.601C0.252,-0.595 0.243,-0.586 0.236,-0.575C0.228,-0.564 0.222,-0.551 0.217,-0.537C0.212,-0.522 0.208,-0.508 0.206,-0.494C0.203,-0.479 0.202,-0.466 0.202,-0.453C0.202,-0.436 0.208,-0.424 0.219,-0.417C0.23,-0.41 0.249,-0.405 0.277,-0.402L0.438,-0.383C0.465,-0.38 0.489,-0.375 0.509,-0.37C0.529,-0.364 0.545,-0.354 0.556,-0.339C0.567,-0.324 0.573,-0.302 0.573,-0.272C0.573,-0.265 0.573,-0.256 0.572,-0.247C0.571,-0.238 0.569,-0.228 0.568,-0.218C0.566,-0.207 0.564,-0.196 0.561,-0.184C0.551,-0.139 0.538,-0.103 0.522,-0.077C0.506,-0.051 0.487,-0.032 0.465,-0.02C0.443,-0.008 0.418,-0 0.391,0.003C0.363,0.006 0.333,0.008 0.3,0.008Z" style="fill-rule:nonzero;"/></g><g transform="matrix(8,0,0,8,1.77,19)"><path d="M0.308,0.008C0.25,0.008 0.203,0.004 0.167,-0.004C0.131,-0.012 0.105,-0.027 0.089,-0.05C0.072,-0.073 0.064,-0.106 0.064,-0.15C0.064,-0.174 0.066,-0.202 0.071,-0.234C0.076,-0.265 0.082,-0.302 0.091,-0.344C0.104,-0.405 0.118,-0.456 0.131,-0.498C0.143,-0.54 0.158,-0.574 0.174,-0.6C0.19,-0.626 0.209,-0.646 0.232,-0.66C0.255,-0.673 0.283,-0.683 0.316,-0.688C0.349,-0.693 0.39,-0.696 0.437,-0.696C0.456,-0.696 0.477,-0.695 0.498,-0.694C0.519,-0.693 0.54,-0.691 0.56,-0.689C0.579,-0.687 0.596,-0.685 0.61,-0.682L0.595,-0.614C0.579,-0.617 0.563,-0.619 0.546,-0.62C0.529,-0.621 0.512,-0.622 0.497,-0.623C0.482,-0.624 0.468,-0.624 0.455,-0.624C0.415,-0.624 0.381,-0.623 0.354,-0.62C0.327,-0.616 0.304,-0.61 0.287,-0.6C0.269,-0.589 0.254,-0.574 0.242,-0.554C0.229,-0.534 0.218,-0.507 0.209,-0.473C0.2,-0.438 0.189,-0.395 0.178,-0.344C0.17,-0.303 0.163,-0.268 0.158,-0.239C0.153,-0.21 0.15,-0.184 0.15,-0.163C0.15,-0.134 0.156,-0.112 0.168,-0.098C0.18,-0.083 0.2,-0.074 0.227,-0.07C0.254,-0.066 0.291,-0.064 0.336,-0.064C0.359,-0.064 0.384,-0.065 0.412,-0.067C0.439,-0.069 0.463,-0.071 0.484,-0.074L0.469,-0.004C0.455,-0.001 0.439,0.001 0.42,0.003C0.401,0.004 0.382,0.006 0.363,0.007C0.344,0.008 0.325,0.008 0.308,0.008Z" style="fill-rule:nonzero;"/></g></g><g transform="matrix(1,0,0,1,74.84,286.151)"><g transform="matrix(10,0,0,10,-12.925,0)"><path d="M0.324,0.008C0.299,0.008 0.271,0.007 0.241,0.006C0.21,0.005 0.181,0.003 0.152,0.001C0.123,-0.002 0.097,-0.004 0.073,-0.007L0.073,-0.12C0.098,-0.118 0.123,-0.116 0.149,-0.114C0.174,-0.112 0.199,-0.111 0.222,-0.11C0.245,-0.109 0.265,-0.108 0.282,-0.108C0.316,-0.108 0.342,-0.11 0.361,-0.113C0.38,-0.116 0.394,-0.12 0.403,-0.126C0.41,-0.131 0.415,-0.137 0.418,-0.144C0.421,-0.15 0.422,-0.158 0.423,-0.167C0.424,-0.175 0.424,-0.186 0.424,-0.197C0.424,-0.212 0.423,-0.225 0.422,-0.235C0.42,-0.245 0.417,-0.253 0.413,-0.259C0.409,-0.264 0.403,-0.268 0.394,-0.271C0.385,-0.274 0.373,-0.276 0.359,-0.277L0.205,-0.296C0.174,-0.3 0.149,-0.307 0.13,-0.317C0.11,-0.327 0.094,-0.34 0.083,-0.357C0.072,-0.374 0.064,-0.393 0.06,-0.416C0.055,-0.439 0.053,-0.464 0.053,-0.493C0.053,-0.538 0.059,-0.574 0.072,-0.601C0.085,-0.628 0.102,-0.648 0.126,-0.662C0.149,-0.676 0.176,-0.685 0.207,-0.69C0.238,-0.694 0.272,-0.696 0.309,-0.696C0.336,-0.696 0.363,-0.695 0.391,-0.694C0.419,-0.692 0.445,-0.69 0.47,-0.687C0.495,-0.684 0.515,-0.681 0.532,-0.677L0.532,-0.567C0.515,-0.57 0.496,-0.572 0.474,-0.574C0.452,-0.576 0.429,-0.578 0.405,-0.579C0.381,-0.58 0.358,-0.58 0.337,-0.58C0.306,-0.58 0.281,-0.579 0.263,-0.577C0.244,-0.574 0.23,-0.57 0.22,-0.565C0.209,-0.558 0.202,-0.55 0.2,-0.539C0.197,-0.528 0.196,-0.515 0.196,-0.499C0.196,-0.479 0.197,-0.464 0.2,-0.454C0.203,-0.443 0.209,-0.436 0.219,-0.432C0.229,-0.428 0.245,-0.425 0.266,-0.422L0.42,-0.404C0.439,-0.402 0.456,-0.399 0.472,-0.394C0.488,-0.389 0.502,-0.382 0.515,-0.372C0.528,-0.362 0.538,-0.348 0.546,-0.33C0.551,-0.321 0.554,-0.31 0.557,-0.298C0.56,-0.285 0.562,-0.271 0.564,-0.256C0.565,-0.241 0.566,-0.224 0.566,-0.205C0.566,-0.166 0.562,-0.134 0.555,-0.108C0.547,-0.082 0.536,-0.061 0.522,-0.046C0.508,-0.031 0.491,-0.019 0.471,-0.011C0.45,-0.003 0.428,0.002 0.403,0.005C0.378,0.007 0.352,0.008 0.324,0.008Z" style="fill-rule:nonzero;"/></g><g transform="matrix(10,0,0,10,-6.725,0)"><path d="M0.353,0.008C0.297,0.008 0.251,0.005 0.215,-0.002C0.178,-0.009 0.15,-0.02 0.129,-0.036C0.108,-0.051 0.093,-0.073 0.084,-0.1C0.075,-0.127 0.069,-0.16 0.066,-0.2C0.063,-0.24 0.062,-0.288 0.062,-0.344C0.062,-0.4 0.063,-0.448 0.066,-0.488C0.069,-0.528 0.075,-0.562 0.084,-0.589C0.093,-0.616 0.108,-0.637 0.129,-0.653C0.15,-0.668 0.178,-0.679 0.215,-0.686C0.251,-0.693 0.297,-0.696 0.353,-0.696C0.409,-0.696 0.455,-0.693 0.492,-0.686C0.528,-0.679 0.556,-0.668 0.577,-0.653C0.598,-0.637 0.613,-0.616 0.623,-0.589C0.632,-0.562 0.638,-0.528 0.641,-0.488C0.644,-0.448 0.645,-0.4 0.645,-0.344C0.645,-0.288 0.644,-0.24 0.641,-0.2C0.638,-0.16 0.632,-0.127 0.623,-0.1C0.613,-0.073 0.598,-0.051 0.577,-0.036C0.556,-0.02 0.528,-0.009 0.492,-0.002C0.455,0.005 0.409,0.008 0.353,0.008ZM0.353,-0.108C0.382,-0.108 0.406,-0.109 0.425,-0.111C0.443,-0.113 0.457,-0.118 0.468,-0.125C0.479,-0.132 0.487,-0.144 0.492,-0.161C0.497,-0.178 0.5,-0.201 0.501,-0.23C0.502,-0.259 0.503,-0.297 0.503,-0.344C0.503,-0.391 0.502,-0.429 0.501,-0.458C0.5,-0.487 0.497,-0.51 0.492,-0.527C0.487,-0.544 0.479,-0.556 0.468,-0.563C0.457,-0.57 0.443,-0.575 0.425,-0.577C0.406,-0.579 0.382,-0.58 0.353,-0.58C0.324,-0.58 0.301,-0.579 0.283,-0.577C0.264,-0.575 0.25,-0.57 0.239,-0.563C0.228,-0.556 0.221,-0.544 0.216,-0.527C0.211,-0.51 0.207,-0.487 0.206,-0.458C0.205,-0.429 0.204,-0.391 0.204,-0.344C0.204,-0.297 0.205,-0.259 0.206,-0.23C0.207,-0.201 0.211,-0.178 0.216,-0.161C0.221,-0.144 0.228,-0.132 0.239,-0.125C0.25,-0.118 0.264,-0.113 0.283,-0.111C0.301,-0.109 0.324,-0.108 0.353,-0.108Z" style="fill-rule:nonzero;"/></g><g transform="matrix(10,0,0,10,0.345,0)"><path d="M0.082,-0L0.082,-0.688L0.411,-0.688C0.456,-0.688 0.492,-0.683 0.519,-0.673C0.546,-0.663 0.566,-0.649 0.58,-0.63C0.594,-0.611 0.604,-0.588 0.609,-0.561C0.614,-0.534 0.616,-0.503 0.616,-0.47C0.616,-0.447 0.614,-0.422 0.61,-0.395C0.606,-0.368 0.597,-0.344 0.584,-0.321C0.57,-0.298 0.548,-0.282 0.519,-0.271L0.629,-0L0.479,-0L0.375,-0.276L0.41,-0.257C0.405,-0.255 0.4,-0.254 0.394,-0.253C0.387,-0.252 0.38,-0.252 0.372,-0.252L0.224,-0.252L0.224,-0L0.082,-0ZM0.224,-0.367L0.354,-0.367C0.382,-0.367 0.404,-0.369 0.42,-0.372C0.436,-0.375 0.448,-0.381 0.456,-0.389C0.464,-0.396 0.469,-0.407 0.471,-0.42C0.473,-0.432 0.474,-0.449 0.474,-0.47C0.474,-0.491 0.473,-0.508 0.471,-0.521C0.469,-0.534 0.464,-0.545 0.457,-0.552C0.45,-0.559 0.438,-0.565 0.422,-0.568C0.405,-0.571 0.383,-0.573 0.355,-0.573L0.224,-0.573L0.224,-0.367Z" style="fill-rule:nonzero;"/></g><g transform="matrix(10,0,0,10,7.105,0)"><path d="M0.22,-0L0.22,-0.568L0.021,-0.568L0.021,-0.688L0.561,-0.688L0.561,-0.568L0.362,-0.568L0.362,-0L0.22,-0Z" style="fill-rule:nonzero;"/></g></g><g transform="matrix(1,0,0,1,75.035,166.151)"><g transform="matrix(10,0,0,10,-26.325,0)"><path d="M0.349,0.008C0.3,0.008 0.26,0.005 0.227,-0.001C0.194,-0.007 0.168,-0.017 0.148,-0.03C0.128,-0.043 0.113,-0.062 0.103,-0.086C0.092,-0.11 0.085,-0.14 0.082,-0.177C0.078,-0.213 0.076,-0.256 0.076,-0.307L0.076,-0.688L0.218,-0.688L0.218,-0.271C0.218,-0.236 0.219,-0.207 0.222,-0.186C0.224,-0.164 0.229,-0.147 0.237,-0.136C0.244,-0.125 0.257,-0.117 0.275,-0.114C0.293,-0.11 0.318,-0.108 0.349,-0.108C0.38,-0.108 0.405,-0.11 0.423,-0.114C0.44,-0.117 0.453,-0.125 0.461,-0.136C0.469,-0.147 0.474,-0.164 0.476,-0.186C0.478,-0.207 0.479,-0.236 0.479,-0.271L0.479,-0.688L0.621,-0.688L0.621,-0.307C0.621,-0.256 0.619,-0.213 0.616,-0.177C0.612,-0.14 0.605,-0.11 0.595,-0.086C0.585,-0.062 0.57,-0.043 0.55,-0.03C0.53,-0.017 0.504,-0.007 0.471,-0.001C0.438,0.005 0.398,0.008 0.349,0.008Z" style="fill-rule:nonzero;"/></g><g transform="matrix(10,0,0,10,-19.345,0)"><path d="M0.082,-0L0.082,-0.688L0.401,-0.688C0.444,-0.688 0.479,-0.683 0.506,-0.672C0.533,-0.661 0.553,-0.646 0.568,-0.627C0.583,-0.607 0.593,-0.583 0.599,-0.555C0.604,-0.527 0.607,-0.495 0.607,-0.46C0.607,-0.427 0.604,-0.397 0.6,-0.37C0.595,-0.342 0.585,-0.318 0.57,-0.297C0.555,-0.276 0.534,-0.26 0.507,-0.249C0.479,-0.238 0.442,-0.232 0.397,-0.232L0.224,-0.232L0.224,-0L0.082,-0ZM0.224,-0.348L0.341,-0.348C0.37,-0.348 0.392,-0.349 0.409,-0.353C0.426,-0.356 0.438,-0.361 0.446,-0.369C0.454,-0.377 0.459,-0.388 0.462,-0.403C0.464,-0.418 0.465,-0.437 0.465,-0.46C0.465,-0.483 0.464,-0.502 0.462,-0.517C0.459,-0.532 0.454,-0.543 0.447,-0.552C0.439,-0.56 0.427,-0.566 0.411,-0.569C0.395,-0.572 0.373,-0.573 0.345,-0.573L0.224,-0.573L0.224,-0.348Z" style="fill-rule:nonzero;"/></g><g transform="matrix(10,0,0,10,-12.875,0)"><path d="M0.082,-0L0.082,-0.688L0.401,-0.688C0.444,-0.688 0.479,-0.683 0.506,-0.672C0.533,-0.661 0.553,-0.646 0.568,-0.627C0.583,-0.607 0.593,-0.583 0.599,-0.555C0.604,-0.527 0.607,-0.495 0.607,-0.46C0.607,-0.427 0.604,-0.397 0.6,-0.37C0.595,-0.342 0.585,-0.318 0.57,-0.297C0.555,-0.276 0.534,-0.26 0.507,-0.249C0.479,-0.238 0.442,-0.232 0.397,-0.232L0.224,-0.232L0.224,-0L0.082,-0ZM0.224,-0.348L0.341,-0.348C0.37,-0.348 0.392,-0.349 0.409,-0.353C0.426,-0.356 0.438,-0.361 0.446,-0.369C0.454,-0.377 0.459,-0.388 0.462,-0.403C0.464,-0.418 0.465,-0.437 0.465,-0.46C0.465,-0.483 0.464,-0.502 0.462,-0.517C0.459,-0.532 0.454,-0.543 0.447,-0.552C0.439,-0.56 0.427,-0.566 0.411,-0.569C0.395,-0.572 0.373,-0.573 0.345,-0.573L0.224,-0.573L0.224,-0.348Z" style="fill-rule:nonzero;"/></g><g transform="matrix(10,0,0,10,-6.405,0)"><path d="M0.082,-0L0.082,-0.688L0.552,-0.688L0.552,-0.572L0.224,-0.572L0.224,-0.405L0.505,-0.405L0.505,-0.289L0.224,-0.289L0.224,-0.116L0.552,-0.116L0.552,-0L0.082,-0Z" style="fill-rule:nonzero;"/></g><g transform="matrix(10,0,0,10,-0.335,0)"><path d="M0.082,-0L0.082,-0.688L0.411,-0.688C0.456,-0.688 0.492,-0.683 0.519,-0.673C0.546,-0.663 0.566,-0.649 0.58,-0.63C0.594,-0.611 0.604,-0.588 0.609,-0.561C0.614,-0.534 0.616,-0.503 0.616,-0.47C0.616,-0.447 0.614,-0.422 0.61,-0.395C0.606,-0.368 0.597,-0.344 0.584,-0.321C0.57,-0.298 0.548,-0.282 0.519,-0.271L0.629,-0L0.479,-0L0.375,-0.276L0.41,-0.257C0.405,-0.255 0.4,-0.254 0.394,-0.253C0.387,-0.252 0.38,-0.252 0.372,-0.252L0.224,-0.252L0.224,-0L0.082,-0ZM0.224,-0.367L0.354,-0.367C0.382,-0.367 0.404,-0.369 0.42,-0.372C0.436,-0.375 0.448,-0.381 0.456,-0.389C0.464,-0.396 0.469,-0.407 0.471,-0.42C0.473,-0.432 0.474,-0.449 0.474,-0.47C0.474,-0.491 0.473,-0.508 0.471,-0.521C0.469,-0.534 0.464,-0.545 0.457,-0.552C0.45,-0.559 0.438,-0.565 0.422,-0.568C0.405,-0.571 0.383,-0.573 0.355,-0.573L0.224,-0.573L0.224,-0.367Z" style="fill-rule:nonzero;"/></g><g transform="matrix(10,0,0,10,8.895,0)"><path d="M0.082,-0L0.082,-0.688L0.224,-0.688L0.224,-0.12L0.512,-0.12L0.512,-0L0.082,-0Z" style="fill-rule:nonzero;"/></g><g transform="matrix(10,0,0,10,14.275,0)"><rect x="0.082" y="-0.688" width="0.142" height="0.688" style="fill-rule:nonzero;"/></g><g transform="matrix(10,0,0,10,17.335,0)"><path d="M0.082,-0L0.082,-0.688L0.277,-0.688L0.447,-0.234L0.453,-0.234L0.622,-0.688L0.816,-0.688L0.816,-0L0.679,-0L0.679,-0.479L0.674,-0.479L0.496,-0L0.398,-0L0.22,-0.479L0.215,-0.479L0.215,-0L0.082,-0Z" style="fill-rule:nonzero;"/></g></g><g transform="matrix(1,0,0,1,75.005,46.0708)"><g transform="matrix(10,0,0,10,-27.485,0)"><path d="M0.082,-0L0.082,-0.688L0.224,-0.688L0.224,-0.12L0.512,-0.12L0.512,-0L0.082,-0Z" style="fill-rule:nonzero;"/></g><g transform="matrix(10,0,0,10,-22.105,0)"><path d="M0.353,0.008C0.297,0.008 0.251,0.005 0.215,-0.002C0.178,-0.009 0.15,-0.02 0.129,-0.036C0.108,-0.051 0.093,-0.073 0.084,-0.1C0.075,-0.127 0.069,-0.16 0.066,-0.2C0.063,-0.24 0.062,-0.288 0.062,-0.344C0.062,-0.4 0.063,-0.448 0.066,-0.488C0.069,-0.528 0.075,-0.562 0.084,-0.589C0.093,-0.616 0.108,-0.637 0.129,-0.653C0.15,-0.668 0.178,-0.679 0.215,-0.686C0.251,-0.693 0.297,-0.696 0.353,-0.696C0.409,-0.696 0.455,-0.693 0.492,-0.686C0.528,-0.679 0.556,-0.668 0.577,-0.653C0.598,-0.637 0.613,-0.616 0.623,-0.589C0.632,-0.562 0.638,-0.528 0.641,-0.488C0.644,-0.448 0.645,-0.4 0.645,-0.344C0.645,-0.288 0.644,-0.24 0.641,-0.2C0.638,-0.16 0.632,-0.127 0.623,-0.1C0.613,-0.073 0.598,-0.051 0.577,-0.036C0.556,-0.02 0.528,-0.009 0.492,-0.002C0.455,0.005 0.409,0.008 0.353,0.008ZM0.353,-0.108C0.382,-0.108 0.406,-0.109 0.425,-0.111C0.443,-0.113 0.457,-0.118 0.468,-0.125C0.479,-0.132 0.487,-0.144 0.492,-0.161C0.497,-0.178 0.5,-0.201 0.501,-0.23C0.502,-0.259 0.503,-0.297 0.503,-0.344C0.503,-0.391 0.502,-0.429 0.501,-0.458C0.5,-0.487 0.497,-0.51 0.492,-0.527C0.487,-0.544 0.479,-0.556 0.468,-0.563C0.457,-0.57 0.443,-0.575 0.425,-0.577C0.406,-0.579 0.382,-0.58 0.353,-0.58C0.324,-0.58 0.301,-0.579 0.283,-0.577C0.264,-0.575 0.25,-0.57 0.239,-0.563C0.228,-0.556 0.221,-0.544 0.216,-0.527C0.211,-0.51 0.207,-0.487 0.206,-0.458C0.205,-0.429 0.204,-0.391 0.204,-0.344C0.204,-0.297 0.205,-0.259 0.206,-0.23C0.207,-0.201 0.211,-0.178 0.216,-0.161C0.221,-0.144 0.228,-0.132 0.239,-0.125C0.25,-0.118 0.264,-0.113 0.283,-0.111C0.301,-0.109 0.324,-0.108 0.353,-0.108Z" style="fill-rule:nonzero;"/></g><g transform="matrix(10,0,0,10,-15.135,0)"><path d="M0.189,-0L0.023,-0.688L0.165,-0.688L0.286,-0.165L0.291,-0.165L0.424,-0.688L0.572,-0.688L0.707,-0.165L0.712,-0.165L0.825,-0.688L0.967,-0.688L0.8,-0L0.623,-0L0.497,-0.481L0.492,-0.481L0.366,-0L0.189,-0Z" style="fill-rule:nonzero;"/></g><g transform="matrix(10,0,0,10,-5.245,0)"><path d="M0.082,-0L0.082,-0.688L0.552,-0.688L0.552,-0.572L0.224,-0.572L0.224,-0.405L0.505,-0.405L0.505,-0.289L0.224,-0.289L0.224,-0.116L0.552,-0.116L0.552,-0L0.082,-0Z" style="fill-rule:nonzero;"/></g><g transform="matrix(10,0,0,10,0.825,0)"><path d="M0.082,-0L0.082,-0.688L0.411,-0.688C0.456,-0.688 0.492,-0.683 0.519,-0.673C0.546,-0.663 0.566,-0.649 0.58,-0.63C0.594,-0.611 0.604,-0.588 0.609,-0.561C0.614,-0.534 0.616,-0.503 0.616,-0.47C0.616,-0.447 0.614,-0.422 0.61,-0.395C0.606,-0.368 0.597,-0.344 0.584,-0.321C0.57,-0.298 0.548,-0.282 0.519,-0.271L0.629,-0L0.479,-0L0.375,-0.276L0.41,-0.257C0.405,-0.255 0.4,-0.254 0.394,-0.253C0.387,-0.252 0.38,-0.252 0.372,-0.252L0.224,-0.252L0.224,-0L0.082,-0ZM0.224,-0.367L0.354,-0.367C0.382,-0.367 0.404,-0.369 0.42,-0.372C0.436,-0.375 0.448,-0.381 0.456,-0.389C0.464,-0.396 0.469,-0.407 0.471,-0.42C0.473,-0.432 0.474,-0.449 0.474,-0.47C0.474,-0.491 0.473,-0.508 0.471,-0.521C0.469,-0.534 0.464,-0.545 0.457,-0.552C0.45,-0.559 0.438,-0.565 0.422,-0.568C0.405,-0.571 0.383,-0.573 0.355,-0.573L0.224,-0.573L0.224,-0.367Z" style="fill-rule:nonzero;"/></g><g transform="matrix(10,0,0,10,10.055,0)"><path d="M0.082,-0L0.082,-0.688L0.224,-0.688L0.224,-0.12L0.512,-0.12L0.512,-0L0.082,-0Z" style="fill-rule:nonzero;"/></g><g transform="matrix(10,0,0,10,15.435,0)"><rect x="0.082" y="-0.688" width="0.142" height="0.688" style="fill-rule:nonzero;"/></g><g transform="matrix(10,0,0,10,18.495,0)"><path d="M0.082,-0L0.082,-0.688L0.277,-0.688L0.447,-0.234L0.453,-0.234L0.622,-0.688L0.816,-0.688L0.816,-0L0.679,-0L0.679,-0.479L0.674,-0.479L0.496,-0L0.398,-0L0.22,-0.479L0.215,-0.479L0.215,-0L0.082,-0Z" style="fill-rule:nonzero;"/></g></g></g></g><g id="input" transform="matrix(1,0,0,1,-2.5,-10)"><g id="controls-background1" serif:id="controls background"><g transform="matrix(0.78158,0,0,0.916412,5.85871,29.4938)"><path d="M33.447,24.286L33.447,358.743C33.447,360.399 31.87,361.744 29.928,361.744L22.891,361.744C20.949,361.744 19.373,360.399 19.373,358.743L19.373,24.286C19.373,22.63 20.949,21.285 22.891,21.285L29.928,21.285C31.87,21.285 33.447,22.63 33.447,24.286Z" style="fill:white;stroke:white;stroke-width:1.17px;"/></g><g id="in-82" serif:id="in-8" transform="matrix(1.56522,0,0,1.56522,-14.9783,-168.587)"><path d="M15,319.5C15,325.851 20.149,331 26.5,331C32.847,331 38,325.847 38,319.5C38,313.153 32.847,308 26.5,308C23.45,308 20.525,309.212 18.368,311.368C20.525,309.212 23.45,308 26.5,308C32.847,308 38,313.153 38,319.5C38,325.847 32.847,331 26.5,331C20.149,331 15,325.851 15,319.5Z" style="fill:none;stroke:white;stroke-width:1.28px;stroke-linecap:butt;stroke-miterlimit:2;"/></g><g id="in-72" serif:id="in-7" transform="matrix(1.56522,0,0,1.56522,-14.9783,-145.978)"><path d="M15,279.5C15,285.851 20.149,291 26.5,291C32.847,291 38,285.847 38,279.5C38,273.153 32.847,268 26.5,268C23.45,268 20.525,269.212 18.368,271.368C20.525,269.212 23.45,268 26.5,268C32.847,268 38,273.153 38,279.5C38,285.847 32.847,291 26.5,291C20.149,291 15,285.851 15,279.5Z" style="fill:none;stroke:white;stroke-width:1.28px;stroke-linecap:butt;stroke-miterlimit:2;"/></g><g id="in-68" serif:id="in-6" transform="matrix(1.56522,0,0,1.56522,-14.9783,-123.37)"><path d="M15,239.5C15,245.851 20.149,251 26.5,251C32.847,251 38,245.847 38,239.5C38,233.153 32.847,228 26.5,228C23.45,228 20.525,229.212 18.368,231.368C20.525,229.212 23.45,228 26.5,228C32.847,228 38,233.153 38,239.5C38,245.847 32.847,251 26.5,251C20.149,251 15,245.851 15,239.5Z" style="fill:none;stroke:white;stroke-width:1.28px;stroke-linecap:butt;stroke-miterlimit:2;"/></g><g id="in-52" serif:id="in-5" transform="matrix(1.56522,0,0,1.56522,-14.9783,-100.761)"><path d="M15,199.5C15,205.851 20.149,211 26.5,211C32.847,211 38,205.847 38,199.5C38,193.153 32.847,188 26.5,188C23.45,188 20.525,189.212 18.368,191.368C20.525,189.212 23.45,188 26.5,188C32.847,188 38,193.153 38,199.5C38,205.847 32.847,211 26.5,211C20.149,211 15,205.851 15,199.5Z" style="fill:none;stroke:white;stroke-width:1.28px;stroke-linecap:butt;stroke-miterlimit:2;"/></g><g id="in-42" serif:id="in-4" transform="matrix(1.56522,0,0,1.56522,-14.9783,-78.1522)"><path d="M15,159.5C15,165.851 20.149,171 26.5,171C32.847,171 38,165.847 38,159.5C38,153.153 32.847,148 26.5,148C23.45,148 20.525,149.212 18.368,151.368C20.525,149.212 23.45,148 26.5,148C32.847,148 38,153.153 38,159.5C38,165.847 32.847,171 26.5,171C20.149,171 15,165.851 15,159.5Z" style="fill:none;stroke:white;stroke-width:1.28px;stroke-linecap:butt;stroke-miterlimit:2;"/></g><g id="in-32" serif:id="in-3" transform="matrix(1.56522,0,0,1.56522,-14.9783,-55.5435)"><path d="M15,119.5C15,125.851 20.149,131 26.5,131C32.847,131 38,125.847 38,119.5C38,113.153 32.847,108 26.5,108C23.45,108 20.525,109.212 18.368,111.368C20.525,109.212 23.45,108 26.5,108C32.847,108 38,113.153 38,119.5C38,125.847 32.847,131 26.5,131C20.149,131 15,125.851 15,119.5Z" style="fill:none;stroke:white;stroke-width:1.28px;stroke-linecap:butt;stroke-miterlimit:2;"/></g><g id="in-22" serif:id="in-2" transform="matrix(1.56522,0,0,1.56522,-14.9783,-32.9348)"><path d="M15,79.5C15,85.851 20.149,91 26.5,91C32.847,91 38,85.847 38,79.5C38,73.153 32.847,68 26.5,68C23.45,68 20.525,69.212 18.368,71.368C20.525,69.212 23.45,68 26.5,68C32.847,68 38,73.153 38,79.5C38,85.847 32.847,91 26.5,91C20.149,91 15,85.851 15,79.5Z" style="fill:none;stroke:white;stroke-width:1.28px;stroke-linecap:butt;stroke-miterlimit:2;"/></g><g id="in-12" serif:id="in-1" transform="matrix(1.56522,0,0,1.56522,-14.9783,-10.3261)"><path d="M15,39.5C15,45.851 20.149,51 26.5,51C32.847,51 38,45.847 38,39.5C38,33.153 32.847,28 26.5,28C23.45,28 20.525,29.212 18.368,31.368C20.525,29.212 23.45,28 26.5,28C32.847,28 38,33.153 38,39.5C38,45.847 32.847,51 26.5,51C20.149,51 15,45.851 15,39.5Z" style="fill:none;stroke:white;stroke-width:1.28px;stroke-linecap:butt;stroke-miterlimit:2;"/></g><g id="in-13" serif:id="in-1" transform="matrix(1.26087,0,0,1.26087,-6.91304,1.69564)"><path d="M15,39.5C15,45.851 20.149,51 26.5,51C32.847,51 38,45.847 38,39.5C38,33.153 32.847,28 26.5,28C23.45,28 20.525,29.212 18.368,31.368C20.525,29.212 23.45,28 26.5,28C32.847,28 38,33.153 38,39.5C38,45.847 32.847,51 26.5,51C20.149,51 15,45.851 15,39.5Z" style="fill:none;stroke:white;stroke-width:1.59px;stroke-linecap:butt;stroke-miterlimit:2;"/></g><g id="in-83" serif:id="in-8" transform="matrix(1.26087,0,0,1.26087,-6.91304,-71.3478)"><path d="M15,319.5C15,325.851 20.149,331 26.5,331C32.847,331 38,325.847 38,319.5C38,313.153 32.847,308 26.5,308C23.45,308 20.525,309.212 18.368,311.368C20.525,309.212 23.45,308 26.5,308C32.847,308 38,313.153 38,319.5C38,325.847 32.847,331 26.5,331C20.149,331 15,325.851 15,319.5Z" style="fill:none;stroke:white;stroke-width:1.59px;stroke-linecap:butt;stroke-miterlimit:2;"/></g><g id="in-73" serif:id="in-7" transform="matrix(1.26087,0,0,1.26087,-6.91304,-60.9131)"><path d="M15,279.5C15,285.851 20.149,291 26.5,291C32.847,291 38,285.847 38,279.5C38,273.153 32.847,268 26.5,268C23.45,268 20.525,269.212 18.368,271.368C20.525,269.212 23.45,268 26.5,268C32.847,268 38,273.153 38,279.5C38,285.847 32.847,291 26.5,291C20.149,291 15,285.851 15,279.5Z" style="fill:none;stroke:white;stroke-width:1.59px;stroke-linecap:butt;stroke-miterlimit:2;"/></g><g id="in-69" serif:id="in-6" transform="matrix(1.26087,0,0,1.26087,-6.91304,-50.4783)"><path d="M15,239.5C15,245.851 20.149,251 26.5,251C32.847,251 38,245.847 38,239.5C38,233.153 32.847,228 26.5,228C23.45,228 20.525,229.212 18.368,231.368C20.525,229.212 23.45,228 26.5,228C32.847,228 38,233.153 38,239.5C38,245.847 32.847,251 26.5,251C20.149,251 15,245.851 15,239.5Z" style="fill:none;stroke:white;stroke-width:1.59px;stroke-linecap:butt;stroke-miterlimit:2;"/></g><g id="in-53" serif:id="in-5" transform="matrix(1.26087,0,0,1.26087,-6.91304,-40.0435)"><path d="M15,199.5C15,205.851 20.149,211 26.5,211C32.847,211 38,205.847 38,199.5C38,193.153 32.847,188 26.5,188C23.45,188 20.525,189.212 18.368,191.368C20.525,189.212 23.45,188 26.5,188C32.847,188 38,193.153 38,199.5C38,205.847 32.847,211 26.5,211C20.149,211 15,205.851 15,199.5Z" style="fill:none;stroke:white;stroke-width:1.59px;stroke-linecap:butt;stroke-miterlimit:2;"/></g><g id="in-43" serif:id="in-4" transform="matrix(1.26087,0,0,1.26087,-6.91304,-29.6087)"><path d="M15,159.5C15,165.851 20.149,171 26.5,171C32.847,171 38,165.847 38,159.5C38,153.153 32.847,148 26.5,148C23.45,148 20.525,149.212 18.368,151.368C20.525,149.212 23.45,148 26.5,148C32.847,148 38,153.153 38,159.5C38,165.847 32.847,171 26.5,171C20.149,171 15,165.851 15,159.5Z" style="fill:none;stroke:white;stroke-width:1.59px;stroke-linecap:butt;stroke-miterlimit:2;"/></g><g id="in-33" serif:id="in-3" transform="matrix(1.26087,0,0,1.26087,-6.91304,-19.1739)"><path d="M15,119.5C15,125.851 20.149,131 26.5,131C32.847,131 38,125.847 38,119.5C38,113.153 32.847,108 26.5,108C23.45,108 20.525,109.212 18.368,111.368C20.525,109.212 23.45,108 26.5,108C32.847,108 38,113.153 38,119.5C38,125.847 32.847,131 26.5,131C20.149,131 15,125.851 15,119.5Z" style="fill:none;stroke:white;stroke-width:1.59px;stroke-linecap:butt;stroke-miterlimit:2;"/></g><g id="in-23" serif:id="in-2" transform="matrix(1.26087,0,0,1.26087,-6.91304,-8.73914)"><path d="M15,79.5C15,85.851 20.149,91 26.5,91C32.847,91 38,85.847 38,79.5C38,73.153 32.847,68 26.5,68C23.45,68 20.525,69.212 18.368,71.368C20.525,69.212 23.45,68 26.5,68C32.847,68 38,73.153 38,79.5C38,85.847 32.847,91 26.5,91C20.149,91 15,85.851 15,79.5Z" style="fill:none;stroke:white;stroke-width:1.59px;stroke-linecap:butt;stroke-miterlimit:2;"/></g></g><g id="text2" serif:id="text" transform="matrix(1,0,0,1,42.4702,14.5)"><g transform="matrix(1,0,0,1,-15.9642,339.848)"><g transform="matrix(11,0,0,11,-3.7565,0)"><path d="M0.341,0.008C0.285,0.008 0.239,0.004 0.204,-0.005C0.169,-0.013 0.142,-0.025 0.123,-0.042C0.104,-0.058 0.092,-0.078 0.085,-0.102C0.078,-0.125 0.074,-0.153 0.074,-0.184C0.074,-0.223 0.079,-0.254 0.089,-0.276C0.098,-0.297 0.112,-0.313 0.131,-0.324C0.15,-0.335 0.172,-0.343 0.199,-0.349L0.199,-0.353C0.158,-0.361 0.128,-0.378 0.109,-0.403C0.09,-0.428 0.08,-0.465 0.08,-0.515C0.08,-0.546 0.084,-0.572 0.092,-0.595C0.1,-0.618 0.114,-0.636 0.133,-0.652C0.152,-0.667 0.179,-0.678 0.213,-0.685C0.247,-0.692 0.29,-0.696 0.341,-0.696C0.392,-0.696 0.435,-0.692 0.469,-0.685C0.503,-0.678 0.53,-0.667 0.549,-0.652C0.568,-0.636 0.582,-0.618 0.59,-0.595C0.598,-0.572 0.602,-0.546 0.602,-0.515C0.602,-0.465 0.592,-0.428 0.573,-0.403C0.554,-0.378 0.524,-0.361 0.483,-0.353L0.483,-0.349C0.51,-0.343 0.533,-0.335 0.552,-0.324C0.57,-0.313 0.584,-0.297 0.594,-0.276C0.603,-0.254 0.608,-0.223 0.608,-0.184C0.608,-0.153 0.604,-0.125 0.598,-0.102C0.591,-0.078 0.578,-0.058 0.559,-0.042C0.54,-0.025 0.513,-0.013 0.478,-0.005C0.443,0.004 0.398,0.008 0.341,0.008ZM0.341,-0.066C0.387,-0.066 0.423,-0.069 0.449,-0.075C0.475,-0.08 0.494,-0.092 0.505,-0.109C0.516,-0.126 0.521,-0.152 0.521,-0.187C0.521,-0.214 0.518,-0.236 0.513,-0.253C0.508,-0.269 0.499,-0.281 0.486,-0.29C0.472,-0.299 0.454,-0.304 0.431,-0.307C0.408,-0.31 0.378,-0.311 0.341,-0.311C0.304,-0.311 0.274,-0.31 0.251,-0.307C0.228,-0.304 0.21,-0.299 0.197,-0.29C0.184,-0.281 0.174,-0.269 0.17,-0.253C0.165,-0.236 0.162,-0.214 0.162,-0.187C0.162,-0.152 0.167,-0.126 0.178,-0.109C0.189,-0.092 0.207,-0.08 0.233,-0.075C0.259,-0.069 0.295,-0.066 0.341,-0.066ZM0.341,-0.385C0.388,-0.385 0.424,-0.388 0.449,-0.395C0.474,-0.401 0.491,-0.413 0.501,-0.43C0.51,-0.447 0.515,-0.471 0.515,-0.503C0.515,-0.535 0.511,-0.56 0.502,-0.577C0.493,-0.594 0.475,-0.605 0.451,-0.612C0.426,-0.619 0.389,-0.622 0.341,-0.622C0.293,-0.622 0.257,-0.619 0.232,-0.612C0.207,-0.605 0.19,-0.594 0.181,-0.577C0.172,-0.56 0.168,-0.535 0.168,-0.503C0.168,-0.471 0.173,-0.447 0.182,-0.43C0.191,-0.413 0.209,-0.401 0.234,-0.395C0.259,-0.388 0.294,-0.385 0.341,-0.385Z" style="fill-rule:nonzero;"/></g></g><g transform="matrix(1,0,0,1,-15.9642,299.848)"><g transform="matrix(11,0,0,11,-3.0965,0)"><path d="M0.139,-0L0.419,-0.613L0.041,-0.613L0.041,-0.688L0.514,-0.688L0.514,-0.621L0.235,-0L0.139,-0Z" style="fill-rule:nonzero;"/></g></g><g transform="matrix(1,0,0,1,-15.9642,259.848)"><g transform="matrix(11,0,0,11,-3.6135,0)"><path d="M0.347,0.008C0.301,0.008 0.262,0.006 0.23,0.002C0.197,-0.003 0.17,-0.012 0.15,-0.027C0.129,-0.041 0.112,-0.063 0.101,-0.093C0.094,-0.108 0.089,-0.127 0.086,-0.15C0.083,-0.173 0.08,-0.2 0.079,-0.231C0.077,-0.262 0.076,-0.297 0.076,-0.337C0.076,-0.374 0.077,-0.407 0.079,-0.437C0.08,-0.467 0.083,-0.494 0.087,-0.517C0.09,-0.54 0.095,-0.561 0.101,-0.579C0.112,-0.61 0.129,-0.634 0.15,-0.651C0.171,-0.668 0.199,-0.679 0.232,-0.686C0.265,-0.693 0.306,-0.696 0.354,-0.696C0.371,-0.696 0.392,-0.695 0.415,-0.694C0.438,-0.692 0.462,-0.69 0.487,-0.687C0.511,-0.684 0.535,-0.681 0.558,-0.678L0.558,-0.609C0.537,-0.612 0.516,-0.614 0.493,-0.616C0.47,-0.617 0.448,-0.619 0.427,-0.62C0.405,-0.621 0.387,-0.622 0.372,-0.622C0.325,-0.622 0.288,-0.619 0.261,-0.612C0.233,-0.605 0.212,-0.593 0.198,-0.575C0.184,-0.557 0.175,-0.531 0.17,-0.497C0.165,-0.462 0.163,-0.417 0.163,-0.361L0.169,-0.361C0.176,-0.369 0.187,-0.377 0.2,-0.385C0.213,-0.392 0.233,-0.399 0.259,-0.404C0.284,-0.409 0.319,-0.411 0.362,-0.411C0.404,-0.411 0.44,-0.409 0.47,-0.404C0.5,-0.399 0.524,-0.39 0.543,-0.377C0.562,-0.364 0.575,-0.344 0.584,-0.319C0.592,-0.294 0.596,-0.26 0.596,-0.218C0.596,-0.174 0.593,-0.137 0.587,-0.108C0.58,-0.079 0.568,-0.056 0.55,-0.039C0.532,-0.022 0.507,-0.01 0.474,-0.003C0.441,0.004 0.399,0.008 0.347,0.008ZM0.339,-0.066C0.374,-0.066 0.402,-0.067 0.425,-0.07C0.448,-0.073 0.465,-0.079 0.478,-0.088C0.491,-0.097 0.499,-0.11 0.504,-0.127C0.509,-0.144 0.511,-0.168 0.511,-0.199C0.511,-0.231 0.509,-0.256 0.504,-0.275C0.499,-0.294 0.491,-0.308 0.479,-0.317C0.467,-0.326 0.45,-0.331 0.427,-0.334C0.404,-0.336 0.375,-0.337 0.339,-0.337C0.3,-0.337 0.268,-0.335 0.245,-0.331C0.222,-0.327 0.204,-0.321 0.194,-0.312C0.183,-0.303 0.175,-0.291 0.172,-0.277C0.168,-0.263 0.166,-0.246 0.166,-0.226C0.166,-0.189 0.169,-0.16 0.175,-0.139C0.18,-0.118 0.19,-0.102 0.203,-0.091C0.216,-0.08 0.233,-0.074 0.255,-0.071C0.277,-0.068 0.305,-0.066 0.339,-0.066Z" style="fill-rule:nonzero;"/></g></g><g transform="matrix(1,0,0,1,-15.9642,219.848)"><g transform="matrix(11,0,0,11,-3.4045,0)"><path d="M0.287,0.008C0.266,0.008 0.244,0.007 0.219,0.006C0.194,0.004 0.17,0.002 0.146,-0.001C0.122,-0.003 0.101,-0.006 0.082,-0.009L0.082,-0.078C0.105,-0.076 0.129,-0.074 0.154,-0.072C0.179,-0.07 0.202,-0.069 0.224,-0.068C0.246,-0.067 0.265,-0.066 0.281,-0.066C0.318,-0.066 0.349,-0.068 0.373,-0.073C0.396,-0.077 0.415,-0.084 0.428,-0.095C0.44,-0.105 0.45,-0.119 0.455,-0.137C0.46,-0.154 0.463,-0.176 0.463,-0.203C0.463,-0.232 0.46,-0.256 0.455,-0.274C0.449,-0.291 0.439,-0.304 0.425,-0.313C0.41,-0.322 0.39,-0.328 0.365,-0.331C0.34,-0.334 0.307,-0.335 0.267,-0.335C0.254,-0.335 0.237,-0.335 0.218,-0.334C0.198,-0.333 0.177,-0.331 0.155,-0.329C0.133,-0.327 0.111,-0.325 0.09,-0.322L0.09,-0.688L0.499,-0.688L0.499,-0.613L0.169,-0.613L0.169,-0.399C0.182,-0.401 0.198,-0.403 0.216,-0.405C0.233,-0.406 0.251,-0.407 0.27,-0.408C0.288,-0.409 0.305,-0.409 0.321,-0.409C0.37,-0.409 0.41,-0.405 0.44,-0.397C0.47,-0.389 0.493,-0.377 0.509,-0.36C0.524,-0.343 0.535,-0.322 0.541,-0.298C0.547,-0.273 0.55,-0.245 0.55,-0.213C0.55,-0.172 0.546,-0.138 0.539,-0.11C0.531,-0.081 0.518,-0.059 0.499,-0.042C0.48,-0.025 0.453,-0.012 0.419,-0.004C0.385,0.004 0.341,0.008 0.287,0.008Z" style="fill-rule:nonzero;"/></g></g><g transform="matrix(1,0,0,1,-15.9642,179.848)"><g transform="matrix(11,0,0,11,-3.531,0)"><path d="M0.409,-0L0.409,-0.161L0.046,-0.161L0.046,-0.227L0.315,-0.688L0.41,-0.688L0.142,-0.235L0.41,-0.235L0.428,-0.48L0.495,-0.48L0.495,-0.235L0.597,-0.235L0.597,-0.161L0.495,-0.161L0.495,-0L0.409,-0Z" style="fill-rule:nonzero;"/></g></g><g transform="matrix(1,0,0,1,-15.9642,139.848)"><g transform="matrix(11,0,0,11,-3.3055,0)"><path d="M0.264,0.008C0.243,0.008 0.221,0.007 0.196,0.006C0.171,0.004 0.146,0.002 0.123,-0.001C0.099,-0.004 0.078,-0.006 0.06,-0.009L0.06,-0.078C0.083,-0.076 0.106,-0.074 0.131,-0.072C0.156,-0.07 0.179,-0.069 0.201,-0.068C0.223,-0.067 0.242,-0.066 0.258,-0.066C0.297,-0.066 0.331,-0.069 0.358,-0.074C0.385,-0.079 0.406,-0.09 0.42,-0.107C0.433,-0.124 0.44,-0.15 0.44,-0.187C0.44,-0.218 0.436,-0.242 0.427,-0.261C0.418,-0.279 0.404,-0.292 0.385,-0.3C0.366,-0.307 0.34,-0.311 0.308,-0.311L0.179,-0.311L0.179,-0.386L0.308,-0.386C0.331,-0.386 0.351,-0.389 0.37,-0.395C0.389,-0.401 0.404,-0.412 0.415,-0.429C0.426,-0.446 0.432,-0.47 0.432,-0.503C0.432,-0.539 0.426,-0.565 0.414,-0.582C0.402,-0.599 0.383,-0.61 0.356,-0.615C0.329,-0.62 0.293,-0.622 0.248,-0.622C0.23,-0.622 0.21,-0.621 0.188,-0.62C0.166,-0.619 0.144,-0.617 0.123,-0.616C0.101,-0.614 0.081,-0.612 0.064,-0.609L0.064,-0.679C0.082,-0.682 0.103,-0.685 0.126,-0.688C0.149,-0.69 0.173,-0.692 0.198,-0.694C0.223,-0.695 0.245,-0.696 0.265,-0.696C0.314,-0.696 0.354,-0.692 0.387,-0.685C0.42,-0.678 0.446,-0.667 0.465,-0.652C0.484,-0.637 0.498,-0.619 0.507,-0.596C0.515,-0.573 0.519,-0.546 0.519,-0.515C0.519,-0.465 0.509,-0.428 0.489,-0.403C0.468,-0.378 0.439,-0.362 0.402,-0.353L0.402,-0.349C0.427,-0.344 0.449,-0.336 0.468,-0.325C0.487,-0.314 0.501,-0.297 0.512,-0.274C0.522,-0.251 0.527,-0.221 0.527,-0.184C0.527,-0.155 0.524,-0.128 0.517,-0.105C0.509,-0.081 0.497,-0.061 0.478,-0.044C0.459,-0.027 0.433,-0.014 0.399,-0.006C0.364,0.004 0.319,0.008 0.264,0.008Z" style="fill-rule:nonzero;"/></g></g><g transform="matrix(1,0,0,1,-15.9642,99.848)"><g transform="matrix(11,0,0,11,-3.355,0)"><path d="M0.07,-0L0.07,-0.08C0.07,-0.118 0.071,-0.15 0.073,-0.176C0.074,-0.201 0.079,-0.222 0.086,-0.239C0.093,-0.256 0.105,-0.27 0.121,-0.282C0.136,-0.294 0.158,-0.306 0.187,-0.318L0.368,-0.395C0.392,-0.406 0.41,-0.416 0.422,-0.425C0.434,-0.434 0.442,-0.446 0.447,-0.459C0.451,-0.472 0.453,-0.49 0.453,-0.512C0.453,-0.544 0.448,-0.568 0.439,-0.584C0.429,-0.599 0.412,-0.61 0.388,-0.615C0.363,-0.62 0.329,-0.622 0.284,-0.622C0.268,-0.622 0.249,-0.621 0.226,-0.62C0.203,-0.619 0.179,-0.617 0.154,-0.616C0.129,-0.614 0.106,-0.612 0.084,-0.609L0.084,-0.679C0.103,-0.682 0.126,-0.685 0.152,-0.688C0.177,-0.69 0.204,-0.692 0.232,-0.694C0.259,-0.695 0.285,-0.696 0.31,-0.696C0.342,-0.696 0.372,-0.694 0.399,-0.691C0.426,-0.688 0.451,-0.68 0.472,-0.669C0.493,-0.658 0.51,-0.64 0.522,-0.617C0.533,-0.593 0.539,-0.561 0.539,-0.521C0.539,-0.481 0.535,-0.449 0.527,-0.426C0.518,-0.402 0.505,-0.383 0.487,-0.369C0.468,-0.354 0.444,-0.341 0.414,-0.328L0.208,-0.241C0.191,-0.234 0.178,-0.225 0.171,-0.216C0.163,-0.207 0.158,-0.195 0.156,-0.18C0.154,-0.165 0.153,-0.145 0.153,-0.122L0.153,-0.075L0.539,-0.075L0.539,-0L0.07,-0Z" style="fill-rule:nonzero;"/></g></g><g transform="matrix(1,0,0,1,-15.9642,59.848)"><g transform="matrix(11,0,0,11,-2.068,0)"><path d="M0.18,-0L0.18,-0.59L0.038,-0.521L0.038,-0.598L0.205,-0.688L0.266,-0.688L0.266,-0L0.18,-0Z" style="fill-rule:nonzero;"/></g></g></g></g><g transform="matrix(0.00402788,0,0,0.0039495,7.51945,-1.22874)"><path d="M-1866.85,3985L35373.6,3985" style="fill:none;stroke:rgb(238,178,111);stroke-width:313.37px;"/></g><g transform="matrix(1,0,0,1,25.4474,4.90676)"><g transform="matrix(16,0,0,16,23.9046,10.2272)"><path d="M0.3,0.008C0.271,0.008 0.241,0.007 0.209,0.006C0.176,0.005 0.145,0.003 0.114,0.001C0.083,-0.002 0.056,-0.004 0.031,-0.007L0.054,-0.117C0.078,-0.115 0.103,-0.113 0.129,-0.111C0.155,-0.109 0.18,-0.107 0.205,-0.106C0.229,-0.105 0.25,-0.104 0.267,-0.104C0.289,-0.104 0.308,-0.105 0.324,-0.106C0.339,-0.107 0.353,-0.108 0.364,-0.111C0.375,-0.113 0.385,-0.116 0.394,-0.12C0.401,-0.124 0.407,-0.13 0.412,-0.137C0.417,-0.143 0.421,-0.151 0.425,-0.16C0.429,-0.169 0.432,-0.178 0.435,-0.188C0.437,-0.197 0.439,-0.207 0.44,-0.216C0.44,-0.225 0.441,-0.232 0.441,-0.238C0.441,-0.248 0.439,-0.256 0.434,-0.261C0.429,-0.266 0.421,-0.27 0.409,-0.273C0.397,-0.276 0.38,-0.278 0.358,-0.281L0.206,-0.303C0.166,-0.308 0.139,-0.321 0.124,-0.341C0.109,-0.36 0.102,-0.387 0.102,-0.421C0.102,-0.433 0.103,-0.447 0.105,-0.462C0.107,-0.476 0.11,-0.492 0.113,-0.508C0.122,-0.549 0.135,-0.583 0.152,-0.608C0.169,-0.632 0.189,-0.651 0.214,-0.664C0.238,-0.677 0.266,-0.685 0.299,-0.69C0.331,-0.694 0.367,-0.696 0.406,-0.696C0.435,-0.696 0.464,-0.695 0.494,-0.694C0.524,-0.693 0.552,-0.691 0.579,-0.688C0.606,-0.685 0.628,-0.682 0.645,-0.678L0.623,-0.571C0.604,-0.574 0.583,-0.576 0.56,-0.578C0.536,-0.58 0.512,-0.582 0.487,-0.583C0.462,-0.584 0.439,-0.584 0.417,-0.584C0.396,-0.584 0.379,-0.583 0.364,-0.582C0.349,-0.581 0.336,-0.579 0.325,-0.576C0.314,-0.573 0.305,-0.57 0.297,-0.566C0.289,-0.561 0.282,-0.555 0.276,-0.547C0.27,-0.539 0.265,-0.53 0.262,-0.52C0.259,-0.51 0.256,-0.5 0.255,-0.49C0.253,-0.48 0.252,-0.47 0.252,-0.46C0.252,-0.447 0.257,-0.438 0.267,-0.434C0.276,-0.429 0.293,-0.425 0.318,-0.422L0.465,-0.402C0.488,-0.399 0.51,-0.394 0.529,-0.387C0.548,-0.38 0.564,-0.369 0.575,-0.353C0.586,-0.337 0.592,-0.313 0.592,-0.28C0.592,-0.272 0.592,-0.264 0.591,-0.255C0.59,-0.245 0.589,-0.236 0.588,-0.225C0.586,-0.214 0.584,-0.203 0.581,-0.192C0.571,-0.145 0.558,-0.109 0.541,-0.082C0.524,-0.055 0.503,-0.035 0.48,-0.022C0.457,-0.009 0.43,-0.001 0.4,0.003C0.37,0.006 0.337,0.008 0.3,0.008Z" style="fill-rule:nonzero;"/></g><g transform="matrix(16,0,0,16,34.1766,10.2272)"><path d="M0.324,0.008C0.254,0.008 0.199,0.004 0.16,-0.006C0.121,-0.014 0.093,-0.031 0.077,-0.054C0.06,-0.077 0.052,-0.108 0.052,-0.149C0.052,-0.174 0.055,-0.202 0.061,-0.235C0.066,-0.268 0.073,-0.305 0.082,-0.348C0.094,-0.405 0.105,-0.454 0.116,-0.495C0.126,-0.536 0.138,-0.569 0.153,-0.596C0.168,-0.622 0.187,-0.642 0.211,-0.657C0.234,-0.672 0.265,-0.682 0.302,-0.688C0.339,-0.693 0.386,-0.696 0.441,-0.696C0.511,-0.696 0.566,-0.692 0.605,-0.683C0.644,-0.674 0.671,-0.658 0.688,-0.635C0.704,-0.612 0.712,-0.579 0.712,-0.538C0.712,-0.513 0.709,-0.484 0.705,-0.452C0.7,-0.42 0.692,-0.383 0.683,-0.34C0.67,-0.282 0.658,-0.233 0.647,-0.192C0.636,-0.151 0.623,-0.118 0.608,-0.092C0.593,-0.066 0.574,-0.046 0.551,-0.031C0.528,-0.016 0.498,-0.006 0.462,-0.001C0.425,0.005 0.379,0.008 0.324,0.008ZM0.331,-0.104C0.361,-0.104 0.386,-0.105 0.405,-0.107C0.424,-0.109 0.44,-0.114 0.454,-0.121C0.467,-0.128 0.477,-0.141 0.486,-0.158C0.495,-0.175 0.503,-0.199 0.511,-0.229C0.519,-0.259 0.528,-0.297 0.538,-0.344C0.547,-0.384 0.554,-0.418 0.559,-0.446C0.563,-0.474 0.565,-0.497 0.565,-0.515C0.565,-0.537 0.561,-0.553 0.552,-0.563C0.543,-0.572 0.529,-0.578 0.51,-0.581C0.491,-0.583 0.465,-0.584 0.433,-0.584C0.403,-0.584 0.378,-0.583 0.359,-0.581C0.339,-0.579 0.323,-0.574 0.31,-0.567C0.297,-0.56 0.286,-0.547 0.277,-0.53C0.268,-0.513 0.26,-0.489 0.252,-0.459C0.244,-0.429 0.235,-0.391 0.226,-0.344C0.22,-0.317 0.215,-0.292 0.211,-0.271C0.206,-0.249 0.203,-0.23 0.201,-0.215C0.198,-0.199 0.197,-0.185 0.197,-0.172C0.197,-0.151 0.202,-0.135 0.211,-0.126C0.22,-0.116 0.234,-0.11 0.253,-0.108C0.272,-0.105 0.298,-0.104 0.331,-0.104Z" style="fill-rule:nonzero;"/></g><g transform="matrix(16,0,0,16,45.9046,10.2272)"><path d="M0.034,-0L0.181,-0.688L0.324,-0.688L0.203,-0.118L0.502,-0.118L0.476,-0L0.034,-0Z" style="fill-rule:nonzero;"/></g><g transform="matrix(16,0,0,16,54.7046,10.2272)"><path d="M0.034,-0L0.181,-0.688L0.324,-0.688L0.177,-0L0.034,-0Z" style="fill-rule:nonzero;"/></g><g transform="matrix(16,0,0,16,59.6806,10.2272)"><path d="M0.034,-0L0.181,-0.688L0.371,-0.688L0.459,-0.237L0.465,-0.237L0.745,-0.688L0.939,-0.688L0.792,-0L0.654,-0L0.757,-0.478L0.75,-0.478L0.458,-0L0.363,-0L0.275,-0.478L0.269,-0.478L0.168,-0L0.034,-0Z" style="fill-rule:nonzero;"/></g></g></svg>