<?xml version="1.0" encoding="UTF-8" standalone="no"?>
<!DOCTYPE svg PUBLIC "-//W3C//DTD SVG 1.1//EN" "http://www.w3.org/Graphics/SVG/1.1/DTD/svg11.dtd">
<svg width="100%" height="100%" viewBox="0 0 45 380" version="1.1" xmlns="http://www.w3.org/2000/svg" xmlns:xlink="http://www.w3.org/1999/xlink" xml:space="preserve" xmlns:serif="http://www.serif.com/" style="fill-rule:evenodd;clip-rule:evenodd;stroke-linecap:round;stroke-linejoin:round;stroke-miterlimit:1.5;">
    <g id="background" transform="matrix(0.3,0,0,1,0,0)">
        <rect x="0" y="0" width="150" height="380" style="fill:rgb(214,214,214);"/>
    </g>
    <g id="not-things-lines" serif:id="not-things lines" transform="matrix(0.00411803,0,0,0.00411803,-22.2673,355.894)">
        <g transform="matrix(0.978109,0,0,0.959074,7233.25,-101.159)">
            <path d="M4760,3985L9305.27,3985" style="fill:none;stroke:rgb(238,178,111);stroke-width:313.37px;"/>
        </g>
        <g transform="matrix(0.970692,0,0,0.959074,7272.62,-101.159)">
            <path d="M4410,2560L-1921.67,2560" style="fill:none;stroke:rgb(238,178,111);stroke-width:314.58px;"/>
        </g>
        <g transform="matrix(0.96045,0,0,0.96045,7473.62,-1632.04)">
            <path d="M5226.34,4325L5226.34,7541.25" style="fill:none;stroke:rgb(238,178,111);stroke-width:316.04px;"/>
        </g>
        <g transform="matrix(0.959074,0,0,0.960269,7146.63,-1632.54)">
            <path d="M3964.79,5400L3964.79,2232.68" style="fill:none;stroke:rgb(238,178,111);stroke-width:316.3px;"/>
        </g>
        <g transform="matrix(0.959074,0,0,0.959074,7323.91,-101.095)">
            <path d="M4235,3297L4935,3297" style="fill:none;stroke:rgb(238,178,111);stroke-width:316.5px;"/>
        </g>
        <g transform="matrix(0.950864,0,0,0.950864,7164.38,-150.825)">
            <path d="M3330.5,1915.9C3704.78,1541.63 4221.7,1310 4792.3,1310C5933.49,1310 6860,2236.51 6860,3377.7C6860,4518.9 5933.49,5445.4 4792.3,5445.4C3651.1,5445.4 2724.6,4518.9 2724.6,3377.7" style="fill:none;stroke:rgb(238,178,111);stroke-width:319.23px;"/>
        </g>
    </g>
    <g id="input" transform="matrix(1,0,0,1,-4,-10)">
        <g id="controls-background" serif:id="controls background">
            <g transform="matrix(0.994738,0,0,0.916412,0.229272,29.4938)">
                <path d="M33.447,25.105L33.447,357.924C33.447,360.032 31.87,361.744 29.928,361.744L22.891,361.744C20.949,361.744 19.373,360.032 19.373,357.924L19.373,25.105C19.373,22.997 20.949,21.285 22.891,21.285L29.928,21.285C31.87,21.285 33.447,22.997 33.447,25.105Z" style="fill:white;stroke:white;stroke-width:1.05px;"/>
            </g>
            <g id="in-8" transform="matrix(1.56522,0,0,1.56522,-14.9783,-168.587)">
                <path d="M15,319.5C15,325.851 20.149,331 26.5,331C32.847,331 38,325.847 38,319.5C38,313.153 32.847,308 26.5,308C23.45,308 20.525,309.212 18.368,311.368C20.525,309.212 23.45,308 26.5,308C32.847,308 38,313.153 38,319.5C38,325.847 32.847,331 26.5,331C20.149,331 15,325.851 15,319.5Z" style="fill:none;stroke:white;stroke-width:1.28px;stroke-linecap:butt;stroke-miterlimit:2;"/>
            </g>
            <g id="in-7" transform="matrix(1.56522,0,0,1.56522,-14.9783,-145.978)">
                <path d="M15,279.5C15,285.851 20.149,291 26.5,291C32.847,291 38,285.847 38,279.5C38,273.153 32.847,268 26.5,268C23.45,268 20.525,269.212 18.368,271.368C20.525,269.212 23.45,268 26.5,268C32.847,268 38,273.153 38,279.5C38,285.847 32.847,291 26.5,291C20.149,291 15,285.851 15,279.5Z" style="fill:none;stroke:white;stroke-width:1.28px;stroke-linecap:butt;stroke-miterlimit:2;"/>
            </g>
            <g id="in-6" transform="matrix(1.56522,0,0,1.56522,-14.9783,-123.37)">
                <path d="M15,239.5C15,245.851 20.149,251 26.5,251C32.847,251 38,245.847 38,239.5C38,233.153 32.847,228 26.5,228C23.45,228 20.525,229.212 18.368,231.368C20.525,229.212 23.45,228 26.5,228C32.847,228 38,233.153 38,239.5C38,245.847 32.847,251 26.5,251C20.149,251 15,245.851 15,239.5Z" style="fill:none;stroke:white;stroke-width:1.28px;stroke-linecap:butt;stroke-miterlimit:2;"/>
            </g>
            <g id="in-5" transform="matrix(1.56522,0,0,1.56522,-14.9783,-100.761)">
                <path d="M15,199.5C15,205.851 20.149,211 26.5,211C32.847,211 38,205.847 38,199.5C38,193.153 32.847,188 26.5,188C23.45,188 20.525,189.212 18.368,191.368C20.525,189.212 23.45,188 26.5,188C32.847,188 38,193.153 38,199.5C38,205.847 32.847,211 26.5,211C20.149,211 15,205.851 15,199.5Z" style="fill:none;stroke:white;stroke-width:1.28px;stroke-linecap:butt;stroke-miterlimit:2;"/>
            </g>
            <g id="in-4" transform="matrix(1.56522,0,0,1.56522,-14.9783,-78.1522)">
                <path d="M15,159.5C15,165.851 20.149,171 26.5,171C32.847,171 38,165.847 38,159.5C38,153.153 32.847,148 26.5,148C23.45,148 20.525,149.212 18.368,151.368C20.525,149.212 23.45,148 26.5,148C32.847,148 38,153.153 38,159.5C38,165.847 32.847,171 26.5,171C20.149,171 15,165.851 15,159.5Z" style="fill:none;stroke:white;stroke-width:1.28px;stroke-linecap:butt;stroke-miterlimit:2;"/>
            </g>
            <g id="in-3" transform="matrix(1.56522,0,0,1.56522,-14.9783,-55.5435)">
                <path d="M15,119.5C15,125.851 20.149,131 26.5,131C32.847,131 38,125.847 38,119.5C38,113.153 32.847,108 26.5,108C23.45,108 20.525,109.212 18.368,111.368C20.525,109.212 23.45,108 26.5,108C32.847,108 38,113.153 38,119.5C38,125.847 32.847,131 26.5,131C20.149,131 15,125.851 15,119.5Z" style="fill:none;stroke:white;stroke-width:1.28px;stroke-linecap:butt;stroke-miterlimit:2;"/>
            </g>
            <g id="in-2" transform="matrix(1.56522,0,0,1.56522,-14.9783,-32.9348)">
                <path d="M15,79.5C15,85.851 20.149,91 26.5,91C32.847,91 38,85.847 38,79.5C38,73.153 32.847,68 26.5,68C23.45,68 20.525,69.212 18.368,71.368C20.525,69.212 23.45,68 26.5,68C32.847,68 38,73.153 38,79.5C38,85.847 32.847,91 26.5,91C20.149,91 15,85.851 15,79.5Z" style="fill:none;stroke:white;stroke-width:1.28px;stroke-linecap:butt;stroke-miterlimit:2;"/>
            </g>
            <g id="in-1" transform="matrix(1.56522,0,0,1.56522,-14.9783,-10.3261)">
                <path d="M15,39.5C15,45.851 20.149,51 26.5,51C32.847,51 38,45.847 38,39.5C38,33.153 32.847,28 26.5,28C23.45,28 20.525,29.212 18.368,31.368C20.525,29.212 23.45,28 26.5,28C32.847,28 38,33.153 38,39.5C38,45.847 32.847,51 26.5,51C20.149,51 15,45.851 15,39.5Z" style="fill:none;stroke:white;stroke-width:1.28px;stroke-linecap:butt;stroke-miterlimit:2;"/>
            </g>
            <g id="in-11" serif:id="in-1" transform="matrix(1.26087,0,0,1.26087,-6.91304,1.69564)">
                <path d="M15,39.5C15,45.851 20.149,51 26.5,51C32.847,51 38,45.847 38,39.5C38,33.153 32.847,28 26.5,28C23.45,28 20.525,29.212 18.368,31.368C20.525,29.212 23.45,28 26.5,28C32.847,28 38,33.153 38,39.5C38,45.847 32.847,51 26.5,51C20.149,51 15,45.851 15,39.5Z" style="fill:none;stroke:white;stroke-width:1.59px;stroke-linecap:butt;stroke-miterlimit:2;"/>
            </g>
            <g id="in-81" serif:id="in-8" transform="matrix(1.26087,0,0,1.26087,-6.91304,-71.3478)">
                <path d="M15,319.5C15,325.851 20.149,331 26.5,331C32.847,331 38,325.847 38,319.5C38,313.153 32.847,308 26.5,308C23.45,308 20.525,309.212 18.368,311.368C20.525,309.212 23.45,308 26.5,308C32.847,308 38,313.153 38,319.5C38,325.847 32.847,331 26.5,331C20.149,331 15,325.851 15,319.5Z" style="fill:none;stroke:white;stroke-width:1.59px;stroke-linecap:butt;stroke-miterlimit:2;"/>
            </g>
            <g id="in-71" serif:id="in-7" transform="matrix(1.26087,0,0,1.26087,-6.91304,-60.9131)">
                <path d="M15,279.5C15,285.851 20.149,291 26.5,291C32.847,291 38,285.847 38,279.5C38,273.153 32.847,268 26.5,268C23.45,268 20.525,269.212 18.368,271.368C20.525,269.212 23.45,268 26.5,268C32.847,268 38,273.153 38,279.5C38,285.847 32.847,291 26.5,291C20.149,291 15,285.851 15,279.5Z" style="fill:none;stroke:white;stroke-width:1.59px;stroke-linecap:butt;stroke-miterlimit:2;"/>
            </g>
            <g id="in-61" serif:id="in-6" transform="matrix(1.26087,0,0,1.26087,-6.91304,-50.4783)">
                <path d="M15,239.5C15,245.851 20.149,251 26.5,251C32.847,251 38,245.847 38,239.5C38,233.153 32.847,228 26.5,228C23.45,228 20.525,229.212 18.368,231.368C20.525,229.212 23.45,228 26.5,228C32.847,228 38,233.153 38,239.5C38,245.847 32.847,251 26.5,251C20.149,251 15,245.851 15,239.5Z" style="fill:none;stroke:white;stroke-width:1.59px;stroke-linecap:butt;stroke-miterlimit:2;"/>
            </g>
            <g id="in-51" serif:id="in-5" transform="matrix(1.26087,0,0,1.26087,-6.91304,-40.0435)">
                <path d="M15,199.5C15,205.851 20.149,211 26.5,211C32.847,211 38,205.847 38,199.5C38,193.153 32.847,188 26.5,188C23.45,188 20.525,189.212 18.368,191.368C20.525,189.212 23.45,188 26.5,188C32.847,188 38,193.153 38,199.5C38,205.847 32.847,211 26.5,211C20.149,211 15,205.851 15,199.5Z" style="fill:none;stroke:white;stroke-width:1.59px;stroke-linecap:butt;stroke-miterlimit:2;"/>
            </g>
            <g id="in-41" serif:id="in-4" transform="matrix(1.26087,0,0,1.26087,-6.91304,-29.6087)">
                <path d="M15,159.5C15,165.851 20.149,171 26.5,171C32.847,171 38,165.847 38,159.5C38,153.153 32.847,148 26.5,148C23.45,148 20.525,149.212 18.368,151.368C20.525,149.212 23.45,148 26.5,148C32.847,148 38,153.153 38,159.5C38,165.847 32.847,171 26.5,171C20.149,171 15,165.851 15,159.5Z" style="fill:none;stroke:white;stroke-width:1.59px;stroke-linecap:butt;stroke-miterlimit:2;"/>
            </g>
            <g id="in-31" serif:id="in-3" transform="matrix(1.26087,0,0,1.26087,-6.91304,-19.1739)">
                <path d="M15,119.5C15,125.851 20.149,131 26.5,131C32.847,131 38,125.847 38,119.5C38,113.153 32.847,108 26.5,108C23.45,108 20.525,109.212 18.368,111.368C20.525,109.212 23.45,108 26.5,108C32.847,108 38,113.153 38,119.5C38,125.847 32.847,131 26.5,131C20.149,131 15,125.851 15,119.5Z" style="fill:white;stroke:white;stroke-width:1.59px;stroke-linecap:butt;stroke-miterlimit:2;"/>
            </g>
            <g id="in-21" serif:id="in-2" transform="matrix(1.26087,0,0,1.26087,-6.91304,-8.73914)">
                <path d="M15,79.5C15,85.851 20.149,91 26.5,91C32.847,91 38,85.847 38,79.5C38,73.153 32.847,68 26.5,68C23.45,68 20.525,69.212 18.368,71.368C20.525,69.212 23.45,68 26.5,68C32.847,68 38,73.153 38,79.5C38,85.847 32.847,91 26.5,91C20.149,91 15,85.851 15,79.5Z" style="fill:none;stroke:white;stroke-width:1.59px;stroke-linecap:butt;stroke-miterlimit:2;"/>
            </g>
        </g>
        <g id="text" transform="matrix(1,0,0,1,42.4702,14.5)">
            <g transform="matrix(1,0,0,1,-15.9642,339.848)">
                <g transform="matrix(11,0,0,11,-3.7565,0)">
                    <path d="M0.341,0.008C0.285,0.008 0.239,0.004 0.204,-0.005C0.169,-0.013 0.142,-0.025 0.123,-0.042C0.104,-0.058 0.092,-0.078 0.085,-0.102C0.078,-0.125 0.074,-0.153 0.074,-0.184C0.074,-0.223 0.079,-0.254 0.089,-0.276C0.098,-0.297 0.112,-0.313 0.131,-0.324C0.15,-0.335 0.172,-0.343 0.199,-0.349L0.199,-0.353C0.158,-0.361 0.128,-0.378 0.109,-0.403C0.09,-0.428 0.08,-0.465 0.08,-0.515C0.08,-0.546 0.084,-0.572 0.092,-0.595C0.1,-0.618 0.114,-0.636 0.133,-0.652C0.152,-0.667 0.179,-0.678 0.213,-0.685C0.247,-0.692 0.29,-0.696 0.341,-0.696C0.392,-0.696 0.435,-0.692 0.469,-0.685C0.503,-0.678 0.53,-0.667 0.549,-0.652C0.568,-0.636 0.582,-0.618 0.59,-0.595C0.598,-0.572 0.602,-0.546 0.602,-0.515C0.602,-0.465 0.592,-0.428 0.573,-0.403C0.554,-0.378 0.524,-0.361 0.483,-0.353L0.483,-0.349C0.51,-0.343 0.533,-0.335 0.552,-0.324C0.57,-0.313 0.584,-0.297 0.594,-0.276C0.603,-0.254 0.608,-0.223 0.608,-0.184C0.608,-0.153 0.604,-0.125 0.598,-0.102C0.591,-0.078 0.578,-0.058 0.559,-0.042C0.54,-0.025 0.513,-0.013 0.478,-0.005C0.443,0.004 0.398,0.008 0.341,0.008ZM0.341,-0.066C0.387,-0.066 0.423,-0.069 0.449,-0.075C0.475,-0.08 0.494,-0.092 0.505,-0.109C0.516,-0.126 0.521,-0.152 0.521,-0.187C0.521,-0.214 0.518,-0.236 0.513,-0.253C0.508,-0.269 0.499,-0.281 0.486,-0.29C0.472,-0.299 0.454,-0.304 0.431,-0.307C0.408,-0.31 0.378,-0.311 0.341,-0.311C0.304,-0.311 0.274,-0.31 0.251,-0.307C0.228,-0.304 0.21,-0.299 0.197,-0.29C0.184,-0.281 0.174,-0.269 0.17,-0.253C0.165,-0.236 0.162,-0.214 0.162,-0.187C0.162,-0.152 0.167,-0.126 0.178,-0.109C0.189,-0.092 0.207,-0.08 0.233,-0.075C0.259,-0.069 0.295,-0.066 0.341,-0.066ZM0.341,-0.385C0.388,-0.385 0.424,-0.388 0.449,-0.395C0.474,-0.401 0.491,-0.413 0.501,-0.43C0.51,-0.447 0.515,-0.471 0.515,-0.503C0.515,-0.535 0.511,-0.56 0.502,-0.577C0.493,-0.594 0.475,-0.605 0.451,-0.612C0.426,-0.619 0.389,-0.622 0.341,-0.622C0.293,-0.622 0.257,-0.619 0.232,-0.612C0.207,-0.605 0.19,-0.594 0.181,-0.577C0.172,-0.56 0.168,-0.535 0.168,-0.503C0.168,-0.471 0.173,-0.447 0.182,-0.43C0.191,-0.413 0.209,-0.401 0.234,-0.395C0.259,-0.388 0.294,-0.385 0.341,-0.385Z" style="fill:rgb(13,13,13);fill-rule:nonzero;"/>
                </g>
            </g>
            <g transform="matrix(1,0,0,1,-15.9642,299.848)">
                <g transform="matrix(11,0,0,11,-3.0965,0)">
                    <path d="M0.139,-0L0.419,-0.613L0.041,-0.613L0.041,-0.688L0.514,-0.688L0.514,-0.621L0.235,-0L0.139,-0Z" style="fill:rgb(13,13,13);fill-rule:nonzero;"/>
                </g>
            </g>
            <g transform="matrix(1,0,0,1,-15.9642,259.848)">
                <g transform="matrix(11,0,0,11,-3.6135,0)">
                    <path d="M0.347,0.008C0.301,0.008 0.262,0.006 0.23,0.002C0.197,-0.003 0.17,-0.012 0.15,-0.027C0.129,-0.041 0.112,-0.063 0.101,-0.093C0.094,-0.108 0.089,-0.127 0.086,-0.15C0.083,-0.173 0.08,-0.2 0.079,-0.231C0.077,-0.262 0.076,-0.297 0.076,-0.337C0.076,-0.374 0.077,-0.407 0.079,-0.437C0.08,-0.467 0.083,-0.494 0.087,-0.517C0.09,-0.54 0.095,-0.561 0.101,-0.579C0.112,-0.61 0.129,-0.634 0.15,-0.651C0.171,-0.668 0.199,-0.679 0.232,-0.686C0.265,-0.693 0.306,-0.696 0.354,-0.696C0.371,-0.696 0.392,-0.695 0.415,-0.694C0.438,-0.692 0.462,-0.69 0.487,-0.687C0.511,-0.684 0.535,-0.681 0.558,-0.678L0.558,-0.609C0.537,-0.612 0.516,-0.614 0.493,-0.616C0.47,-0.617 0.448,-0.619 0.427,-0.62C0.405,-0.621 0.387,-0.622 0.372,-0.622C0.325,-0.622 0.288,-0.619 0.261,-0.612C0.233,-0.605 0.212,-0.593 0.198,-0.575C0.184,-0.557 0.175,-0.531 0.17,-0.497C0.165,-0.462 0.163,-0.417 0.163,-0.361L0.169,-0.361C0.176,-0.369 0.187,-0.377 0.2,-0.385C0.213,-0.392 0.233,-0.399 0.259,-0.404C0.284,-0.409 0.319,-0.411 0.362,-0.411C0.404,-0.411 0.44,-0.409 0.47,-0.404C0.5,-0.399 0.524,-0.39 0.543,-0.377C0.562,-0.364 0.575,-0.344 0.584,-0.319C0.592,-0.294 0.596,-0.26 0.596,-0.218C0.596,-0.174 0.593,-0.137 0.587,-0.108C0.58,-0.079 0.568,-0.056 0.55,-0.039C0.532,-0.022 0.507,-0.01 0.474,-0.003C0.441,0.004 0.399,0.008 0.347,0.008ZM0.339,-0.066C0.374,-0.066 0.402,-0.067 0.425,-0.07C0.448,-0.073 0.465,-0.079 0.478,-0.088C0.491,-0.097 0.499,-0.11 0.504,-0.127C0.509,-0.144 0.511,-0.168 0.511,-0.199C0.511,-0.231 0.509,-0.256 0.504,-0.275C0.499,-0.294 0.491,-0.308 0.479,-0.317C0.467,-0.326 0.45,-0.331 0.427,-0.334C0.404,-0.336 0.375,-0.337 0.339,-0.337C0.3,-0.337 0.268,-0.335 0.245,-0.331C0.222,-0.327 0.204,-0.321 0.194,-0.312C0.183,-0.303 0.175,-0.291 0.172,-0.277C0.168,-0.263 0.166,-0.246 0.166,-0.226C0.166,-0.189 0.169,-0.16 0.175,-0.139C0.18,-0.118 0.19,-0.102 0.203,-0.091C0.216,-0.08 0.233,-0.074 0.255,-0.071C0.277,-0.068 0.305,-0.066 0.339,-0.066Z" style="fill:rgb(13,13,13);fill-rule:nonzero;"/>
                </g>
            </g>
            <g transform="matrix(1,0,0,1,-15.9642,219.848)">
                <g transform="matrix(11,0,0,11,-3.4045,0)">
                    <path d="M0.287,0.008C0.266,0.008 0.244,0.007 0.219,0.006C0.194,0.004 0.17,0.002 0.146,-0.001C0.122,-0.003 0.101,-0.006 0.082,-0.009L0.082,-0.078C0.105,-0.076 0.129,-0.074 0.154,-0.072C0.179,-0.07 0.202,-0.069 0.224,-0.068C0.246,-0.067 0.265,-0.066 0.281,-0.066C0.318,-0.066 0.349,-0.068 0.373,-0.073C0.396,-0.077 0.415,-0.084 0.428,-0.095C0.44,-0.105 0.45,-0.119 0.455,-0.137C0.46,-0.154 0.463,-0.176 0.463,-0.203C0.463,-0.232 0.46,-0.256 0.455,-0.274C0.449,-0.291 0.439,-0.304 0.425,-0.313C0.41,-0.322 0.39,-0.328 0.365,-0.331C0.34,-0.334 0.307,-0.335 0.267,-0.335C0.254,-0.335 0.237,-0.335 0.218,-0.334C0.198,-0.333 0.177,-0.331 0.155,-0.329C0.133,-0.327 0.111,-0.325 0.09,-0.322L0.09,-0.688L0.499,-0.688L0.499,-0.613L0.169,-0.613L0.169,-0.399C0.182,-0.401 0.198,-0.403 0.216,-0.405C0.233,-0.406 0.251,-0.407 0.27,-0.408C0.288,-0.409 0.305,-0.409 0.321,-0.409C0.37,-0.409 0.41,-0.405 0.44,-0.397C0.47,-0.389 0.493,-0.377 0.509,-0.36C0.524,-0.343 0.535,-0.322 0.541,-0.298C0.547,-0.273 0.55,-0.245 0.55,-0.213C0.55,-0.172 0.546,-0.138 0.539,-0.11C0.531,-0.081 0.518,-0.059 0.499,-0.042C0.48,-0.025 0.453,-0.012 0.419,-0.004C0.385,0.004 0.341,0.008 0.287,0.008Z" style="fill:rgb(13,13,13);fill-rule:nonzero;"/>
                </g>
            </g>
            <g transform="matrix(1,0,0,1,-15.9642,179.848)">
                <g transform="matrix(11,0,0,11,-3.531,0)">
                    <path d="M0.409,-0L0.409,-0.161L0.046,-0.161L0.046,-0.227L0.315,-0.688L0.41,-0.688L0.142,-0.235L0.41,-0.235L0.428,-0.48L0.495,-0.48L0.495,-0.235L0.597,-0.235L0.597,-0.161L0.495,-0.161L0.495,-0L0.409,-0Z" style="fill:rgb(13,13,13);fill-rule:nonzero;"/>
                </g>
            </g>
            <g transform="matrix(1,0,0,1,-15.9642,139.848)">
                <g transform="matrix(11,0,0,11,-3.3055,0)">
                    <path d="M0.264,0.008C0.243,0.008 0.221,0.007 0.196,0.006C0.171,0.004 0.146,0.002 0.123,-0.001C0.099,-0.004 0.078,-0.006 0.06,-0.009L0.06,-0.078C0.083,-0.076 0.106,-0.074 0.131,-0.072C0.156,-0.07 0.179,-0.069 0.201,-0.068C0.223,-0.067 0.242,-0.066 0.258,-0.066C0.297,-0.066 0.331,-0.069 0.358,-0.074C0.385,-0.079 0.406,-0.09 0.42,-0.107C0.433,-0.124 0.44,-0.15 0.44,-0.187C0.44,-0.218 0.436,-0.242 0.427,-0.261C0.418,-0.279 0.404,-0.292 0.385,-0.3C0.366,-0.307 0.34,-0.311 0.308,-0.311L0.179,-0.311L0.179,-0.386L0.308,-0.386C0.331,-0.386 0.351,-0.389 0.37,-0.395C0.389,-0.401 0.404,-0.412 0.415,-0.429C0.426,-0.446 0.432,-0.47 0.432,-0.503C0.432,-0.539 0.426,-0.565 0.414,-0.582C0.402,-0.599 0.383,-0.61 0.356,-0.615C0.329,-0.62 0.293,-0.622 0.248,-0.622C0.23,-0.622 0.21,-0.621 0.188,-0.62C0.166,-0.619 0.144,-0.617 0.123,-0.616C0.101,-0.614 0.081,-0.612 0.064,-0.609L0.064,-0.679C0.082,-0.682 0.103,-0.685 0.126,-0.688C0.149,-0.69 0.173,-0.692 0.198,-0.694C0.223,-0.695 0.245,-0.696 0.265,-0.696C0.314,-0.696 0.354,-0.692 0.387,-0.685C0.42,-0.678 0.446,-0.667 0.465,-0.652C0.484,-0.637 0.498,-0.619 0.507,-0.596C0.515,-0.573 0.519,-0.546 0.519,-0.515C0.519,-0.465 0.509,-0.428 0.489,-0.403C0.468,-0.378 0.439,-0.362 0.402,-0.353L0.402,-0.349C0.427,-0.344 0.449,-0.336 0.468,-0.325C0.487,-0.314 0.501,-0.297 0.512,-0.274C0.522,-0.251 0.527,-0.221 0.527,-0.184C0.527,-0.155 0.524,-0.128 0.517,-0.105C0.509,-0.081 0.497,-0.061 0.478,-0.044C0.459,-0.027 0.433,-0.014 0.399,-0.006C0.364,0.004 0.319,0.008 0.264,0.008Z" style="fill:rgb(13,13,13);fill-rule:nonzero;"/>
                </g>
            </g>
            <g transform="matrix(1,0,0,1,-15.9642,99.848)">
                <g transform="matrix(11,0,0,11,-3.355,0)">
                    <path d="M0.07,-0L0.07,-0.08C0.07,-0.118 0.071,-0.15 0.073,-0.176C0.074,-0.201 0.079,-0.222 0.086,-0.239C0.093,-0.256 0.105,-0.27 0.121,-0.282C0.136,-0.294 0.158,-0.306 0.187,-0.318L0.368,-0.395C0.392,-0.406 0.41,-0.416 0.422,-0.425C0.434,-0.434 0.442,-0.446 0.447,-0.459C0.451,-0.472 0.453,-0.49 0.453,-0.512C0.453,-0.544 0.448,-0.568 0.439,-0.584C0.429,-0.599 0.412,-0.61 0.388,-0.615C0.363,-0.62 0.329,-0.622 0.284,-0.622C0.268,-0.622 0.249,-0.621 0.226,-0.62C0.203,-0.619 0.179,-0.617 0.154,-0.616C0.129,-0.614 0.106,-0.612 0.084,-0.609L0.084,-0.679C0.103,-0.682 0.126,-0.685 0.152,-0.688C0.177,-0.69 0.204,-0.692 0.232,-0.694C0.259,-0.695 0.285,-0.696 0.31,-0.696C0.342,-0.696 0.372,-0.694 0.399,-0.691C0.426,-0.688 0.451,-0.68 0.472,-0.669C0.493,-0.658 0.51,-0.64 0.522,-0.617C0.533,-0.593 0.539,-0.561 0.539,-0.521C0.539,-0.481 0.535,-0.449 0.527,-0.426C0.518,-0.402 0.505,-0.383 0.487,-0.369C0.468,-0.354 0.444,-0.341 0.414,-0.328L0.208,-0.241C0.191,-0.234 0.178,-0.225 0.171,-0.216C0.163,-0.207 0.158,-0.195 0.156,-0.18C0.154,-0.165 0.153,-0.145 0.153,-0.122L0.153,-0.075L0.539,-0.075L0.539,-0L0.07,-0Z" style="fill:rgb(13,13,13);fill-rule:nonzero;"/>
                </g>
            </g>
            <g transform="matrix(1,0,0,1,-15.9642,59.848)">
                <g transform="matrix(11,0,0,11,-2.068,0)">
                    <path d="M0.18,-0L0.18,-0.59L0.038,-0.521L0.038,-0.598L0.205,-0.688L0.266,-0.688L0.266,-0L0.18,-0Z" style="fill:rgb(13,13,13);fill-rule:nonzero;"/>
                </g>
            </g>
        </g>
    </g>
    <g id="LED" transform="matrix(0.596842,0,0,1.70526,-3.02895,-7.71429)">
        <ellipse cx="72.094" cy="16.252" rx="3.351" ry="1.173" style="fill:rgb(42,42,42);"/>
    </g>
    <g transform="matrix(0.00402788,0,0,0.0039495,7.51945,-1.22874)">
        <path d="M-1866.85,3985L9305.27,3985" style="fill:none;stroke:rgb(238,178,111);stroke-width:313.37px;"/>
    </g>
    <g transform="matrix(1,0,0,1,-49.7751,4.90775)">
        <g transform="matrix(11.75,0,0,11.75,52.4108,10.2272)">
            <path d="M0.3,0.008C0.271,0.008 0.241,0.007 0.209,0.006C0.176,0.005 0.145,0.003 0.114,0.001C0.083,-0.002 0.056,-0.004 0.031,-0.007L0.054,-0.117C0.078,-0.115 0.103,-0.113 0.129,-0.111C0.155,-0.109 0.18,-0.107 0.205,-0.106C0.229,-0.105 0.25,-0.104 0.267,-0.104C0.289,-0.104 0.308,-0.105 0.324,-0.106C0.339,-0.107 0.353,-0.108 0.364,-0.111C0.375,-0.113 0.385,-0.116 0.394,-0.12C0.401,-0.124 0.407,-0.13 0.412,-0.137C0.417,-0.143 0.421,-0.151 0.425,-0.16C0.429,-0.169 0.432,-0.178 0.435,-0.188C0.437,-0.197 0.439,-0.207 0.44,-0.216C0.44,-0.225 0.441,-0.232 0.441,-0.238C0.441,-0.248 0.439,-0.256 0.434,-0.261C0.429,-0.266 0.421,-0.27 0.409,-0.273C0.397,-0.276 0.38,-0.278 0.358,-0.281L0.206,-0.303C0.166,-0.308 0.139,-0.321 0.124,-0.341C0.109,-0.36 0.102,-0.387 0.102,-0.421C0.102,-0.433 0.103,-0.447 0.105,-0.462C0.107,-0.476 0.11,-0.492 0.113,-0.508C0.122,-0.549 0.135,-0.583 0.152,-0.608C0.169,-0.632 0.189,-0.651 0.214,-0.664C0.238,-0.677 0.266,-0.685 0.299,-0.69C0.331,-0.694 0.367,-0.696 0.406,-0.696C0.435,-0.696 0.464,-0.695 0.494,-0.694C0.524,-0.693 0.552,-0.691 0.579,-0.688C0.606,-0.685 0.628,-0.682 0.645,-0.678L0.623,-0.571C0.604,-0.574 0.583,-0.576 0.56,-0.578C0.536,-0.58 0.512,-0.582 0.487,-0.583C0.462,-0.584 0.439,-0.584 0.417,-0.584C0.396,-0.584 0.379,-0.583 0.364,-0.582C0.349,-0.581 0.336,-0.579 0.325,-0.576C0.314,-0.573 0.305,-0.57 0.297,-0.566C0.289,-0.561 0.282,-0.555 0.276,-0.547C0.27,-0.539 0.265,-0.53 0.262,-0.52C0.259,-0.51 0.256,-0.5 0.255,-0.49C0.253,-0.48 0.252,-0.47 0.252,-0.46C0.252,-0.447 0.257,-0.438 0.267,-0.434C0.276,-0.429 0.293,-0.425 0.318,-0.422L0.465,-0.402C0.488,-0.399 0.51,-0.394 0.529,-0.387C0.548,-0.38 0.564,-0.369 0.575,-0.353C0.586,-0.337 0.592,-0.313 0.592,-0.28C0.592,-0.272 0.592,-0.264 0.591,-0.255C0.59,-0.245 0.589,-0.236 0.588,-0.225C0.586,-0.214 0.584,-0.203 0.581,-0.192C0.571,-0.145 0.558,-0.109 0.541,-0.082C0.524,-0.055 0.503,-0.035 0.48,-0.022C0.457,-0.009 0.43,-0.001 0.4,0.003C0.37,0.006 0.337,0.008 0.3,0.008Z" style="fill-rule:nonzero;"/>
        </g>
        <g transform="matrix(11.75,0,0,11.75,59.9543,10.2272)">
            <path d="M0.034,-0L0.181,-0.688L0.324,-0.688L0.203,-0.118L0.502,-0.118L0.476,-0L0.034,-0Z" style="fill-rule:nonzero;"/>
        </g>
        <g transform="matrix(11.75,0,0,11.75,66.4168,10.2272)">
            <path d="M0.054,-0.231L0.077,-0.339L0.347,-0.339L0.324,-0.231L0.054,-0.231Z" style="fill-rule:nonzero;"/>
        </g>
        <g transform="matrix(11.75,0,0,11.75,70.8583,10.2272)">
            <path d="M0.034,-0L0.181,-0.688L0.324,-0.688L0.177,-0L0.034,-0Z" style="fill-rule:nonzero;"/>
        </g>
    </g>
</svg>
