<?xml version="1.0" encoding="UTF-8" standalone="no"?><!DOCTYPE svg PUBLIC "-//W3C//DTD SVG 1.1//EN" "http://www.w3.org/Graphics/SVG/1.1/DTD/svg11.dtd"><svg width="100%" height="100%" viewBox="0 0 45 380" version="1.1" xmlns="http://www.w3.org/2000/svg" xmlns:xlink="http://www.w3.org/1999/xlink" xml:space="preserve" xmlns:serif="http://www.serif.com/" style="fill-rule:evenodd;clip-rule:evenodd;stroke-linecap:round;stroke-linejoin:round;stroke-miterlimit:1.5;"><g id="background" transform="matrix(0.3,0,0,1,0,0)"><rect x="0" y="0" width="150" height="380" style="fill:rgb(42,42,42);"/></g><g id="not-things-lines" serif:id="not-things lines" transform="matrix(0.00411803,0,0,0.00411803,-22.2673,355.894)"><g transform="matrix(0.978109,0,0,0.959074,7233.25,-101.159)"><path d="M4760,3985L9305.27,3985" style="fill:none;stroke:rgb(255,134,0);stroke-width:313.37px;"/></g><g transform="matrix(0.970692,0,0,0.959074,7272.62,-101.159)"><path d="M4410,2560L-1921.67,2560" style="fill:none;stroke:rgb(255,134,0);stroke-width:314.58px;"/></g><g transform="matrix(0.96045,0,0,0.96045,7473.62,-1632.04)"><path d="M5226.34,4325L5226.34,7541.25" style="fill:none;stroke:rgb(255,134,0);stroke-width:316.04px;"/></g><g transform="matrix(0.959074,0,0,0.960269,7146.63,-1632.54)"><path d="M3964.79,5400L3964.79,2232.68" style="fill:none;stroke:rgb(255,134,0);stroke-width:316.3px;"/></g><g transform="matrix(0.959074,0,0,0.959074,7323.91,-101.095)"><path d="M4235,3297L4935,3297" style="fill:none;stroke:rgb(255,134,0);stroke-width:316.5px;"/></g><g transform="matrix(0.950864,0,0,0.950864,7164.38,-150.825)"><path d="M3330.5,1915.9C3704.78,1541.63 4221.7,1310 4792.3,1310C5933.49,1310 6860,2236.51 6860,3377.7C6860,4518.9 5933.49,5445.4 4792.3,5445.4C3651.1,5445.4 2724.6,4518.9 2724.6,3377.7" style="fill:none;stroke:rgb(255,134,0);stroke-width:319.23px;"/></g></g><g id="controls-background" serif:id="controls background" transform="matrix(1,0,0,1,-1.5,-10)"><g id="output"><g id="controls-background1" serif:id="controls background"><g transform="matrix(0.78158,0,0,0.925223,5.85871,29.3062)"><path d="M33.447,24.258L33.447,358.771C33.447,360.412 31.87,361.744 29.928,361.744L22.891,361.744C20.949,361.744 19.373,360.412 19.373,358.771L19.373,24.258C19.373,22.617 20.949,21.285 22.891,21.285L29.928,21.285C31.87,21.285 33.447,22.617 33.447,24.258Z" style="fill:rgb(99,61,54);stroke:rgb(99,61,54);stroke-width:1.17px;"/></g><g id="in-8-cutout" transform="matrix(1.1087,0,0,1.1087,-2.88043,-22.7283)"><path d="M34.632,311.368C32.475,309.212 29.55,308 26.5,308C23.45,308 20.525,309.212 18.368,311.368C20.525,309.212 23.45,308 26.5,308C29.55,308 32.475,309.212 34.632,311.368Z" style="fill:none;stroke:rgb(42,42,42);stroke-width:1.8px;stroke-linecap:butt;stroke-miterlimit:2;"/></g><g id="in-7-cutout" transform="matrix(1.1087,0,0,1.1087,-2.88043,-62.7283)"><path d="M34.632,311.368C32.475,309.212 29.55,308 26.5,308C23.45,308 20.525,309.212 18.368,311.368C20.525,309.212 23.45,308 26.5,308C29.55,308 32.475,309.212 34.632,311.368Z" style="fill:none;stroke:rgb(42,42,42);stroke-width:1.8px;stroke-linecap:butt;stroke-miterlimit:2;"/></g><g id="in-6-cutout" transform="matrix(1.1087,0,0,1.1087,-2.88043,-102.728)"><path d="M34.632,311.368C32.475,309.212 29.55,308 26.5,308C23.45,308 20.525,309.212 18.368,311.368C20.525,309.212 23.45,308 26.5,308C29.55,308 32.475,309.212 34.632,311.368Z" style="fill:none;stroke:rgb(42,42,42);stroke-width:1.8px;stroke-linecap:butt;stroke-miterlimit:2;"/></g><g id="in-5-cutout" transform="matrix(1.1087,0,0,1.1087,-2.88043,-142.728)"><path d="M34.632,311.368C32.475,309.212 29.55,308 26.5,308C23.45,308 20.525,309.212 18.368,311.368C20.525,309.212 23.45,308 26.5,308C29.55,308 32.475,309.212 34.632,311.368Z" style="fill:none;stroke:rgb(42,42,42);stroke-width:1.8px;stroke-linecap:butt;stroke-miterlimit:2;"/></g><g id="in-4-cutout" transform="matrix(1.1087,0,0,1.1087,-2.88043,-182.728)"><path d="M34.632,311.368C32.475,309.212 29.55,308 26.5,308C23.45,308 20.525,309.212 18.368,311.368C20.525,309.212 23.45,308 26.5,308C29.55,308 32.475,309.212 34.632,311.368Z" style="fill:none;stroke:rgb(42,42,42);stroke-width:1.8px;stroke-linecap:butt;stroke-miterlimit:2;"/></g><g id="in-3-cutout" transform="matrix(1.1087,0,0,1.1087,-2.88043,-222.728)"><path d="M34.632,311.368C32.475,309.212 29.55,308 26.5,308C23.45,308 20.525,309.212 18.368,311.368C20.525,309.212 23.45,308 26.5,308C29.55,308 32.475,309.212 34.632,311.368Z" style="fill:none;stroke:rgb(42,42,42);stroke-width:1.8px;stroke-linecap:butt;stroke-miterlimit:2;"/></g><g id="in-2-cutout" transform="matrix(1.1087,0,0,1.1087,-2.88043,-262.728)"><path d="M34.632,311.368C32.475,309.212 29.55,308 26.5,308C23.45,308 20.525,309.212 18.368,311.368C20.525,309.212 23.45,308 26.5,308C29.55,308 32.475,309.212 34.632,311.368Z" style="fill:none;stroke:rgb(42,42,42);stroke-width:1.8px;stroke-linecap:butt;stroke-miterlimit:2;"/></g><g id="in-8" transform="matrix(1.56522,0,0,1.56522,-14.9783,-168.587)"><path d="M15,319.5C15,325.851 20.149,331 26.5,331C32.847,331 38,325.847 38,319.5C38,313.153 32.847,308 26.5,308C23.45,308 20.525,309.212 18.368,311.368C20.525,309.212 23.45,308 26.5,308C32.847,308 38,313.153 38,319.5C38,325.847 32.847,331 26.5,331C20.149,331 15,325.851 15,319.5Z" style="fill:none;stroke:rgb(99,61,54);stroke-width:1.28px;stroke-linecap:butt;stroke-miterlimit:2;"/></g><g id="in-7" transform="matrix(1.56522,0,0,1.56522,-14.9783,-145.978)"><path d="M15,279.5C15,285.851 20.149,291 26.5,291C32.847,291 38,285.847 38,279.5C38,273.153 32.847,268 26.5,268C23.45,268 20.525,269.212 18.368,271.368C20.525,269.212 23.45,268 26.5,268C32.847,268 38,273.153 38,279.5C38,285.847 32.847,291 26.5,291C20.149,291 15,285.851 15,279.5Z" style="fill:none;stroke:rgb(99,61,54);stroke-width:1.28px;stroke-linecap:butt;stroke-miterlimit:2;"/></g><g id="in-6" transform="matrix(1.56522,0,0,1.56522,-14.9783,-123.37)"><path d="M15,239.5C15,245.851 20.149,251 26.5,251C32.847,251 38,245.847 38,239.5C38,233.153 32.847,228 26.5,228C23.45,228 20.525,229.212 18.368,231.368C20.525,229.212 23.45,228 26.5,228C32.847,228 38,233.153 38,239.5C38,245.847 32.847,251 26.5,251C20.149,251 15,245.851 15,239.5Z" style="fill:none;stroke:rgb(99,61,54);stroke-width:1.28px;stroke-linecap:butt;stroke-miterlimit:2;"/></g><g id="in-5" transform="matrix(1.56522,0,0,1.56522,-14.9783,-100.761)"><path d="M15,199.5C15,205.851 20.149,211 26.5,211C32.847,211 38,205.847 38,199.5C38,193.153 32.847,188 26.5,188C23.45,188 20.525,189.212 18.368,191.368C20.525,189.212 23.45,188 26.5,188C32.847,188 38,193.153 38,199.5C38,205.847 32.847,211 26.5,211C20.149,211 15,205.851 15,199.5Z" style="fill:none;stroke:rgb(99,61,54);stroke-width:1.28px;stroke-linecap:butt;stroke-miterlimit:2;"/></g><g id="in-4" transform="matrix(1.56522,0,0,1.56522,-14.9783,-78.1522)"><path d="M15,159.5C15,165.851 20.149,171 26.5,171C32.847,171 38,165.847 38,159.5C38,153.153 32.847,148 26.5,148C23.45,148 20.525,149.212 18.368,151.368C20.525,149.212 23.45,148 26.5,148C32.847,148 38,153.153 38,159.5C38,165.847 32.847,171 26.5,171C20.149,171 15,165.851 15,159.5Z" style="fill:none;stroke:rgb(99,61,54);stroke-width:1.28px;stroke-linecap:butt;stroke-miterlimit:2;"/></g><g id="in-3" transform="matrix(1.56522,0,0,1.56522,-14.9783,-55.5435)"><path d="M15,119.5C15,125.851 20.149,131 26.5,131C32.847,131 38,125.847 38,119.5C38,113.153 32.847,108 26.5,108C23.45,108 20.525,109.212 18.368,111.368C20.525,109.212 23.45,108 26.5,108C32.847,108 38,113.153 38,119.5C38,125.847 32.847,131 26.5,131C20.149,131 15,125.851 15,119.5Z" style="fill:none;stroke:rgb(99,61,54);stroke-width:1.28px;stroke-linecap:butt;stroke-miterlimit:2;"/></g><g id="in-2" transform="matrix(1.56522,0,0,1.56522,-14.9783,-32.9348)"><path d="M15,79.5C15,85.851 20.149,91 26.5,91C32.847,91 38,85.847 38,79.5C38,73.153 32.847,68 26.5,68C23.45,68 20.525,69.212 18.368,71.368C20.525,69.212 23.45,68 26.5,68C32.847,68 38,73.153 38,79.5C38,85.847 32.847,91 26.5,91C20.149,91 15,85.851 15,79.5Z" style="fill:none;stroke:rgb(99,61,54);stroke-width:1.28px;stroke-linecap:butt;stroke-miterlimit:2;"/></g><g id="in-1" transform="matrix(1.56522,0,0,1.56522,-14.9783,-10.3261)"><path d="M15,39.5C15,45.851 20.149,51 26.5,51C32.847,51 38,45.847 38,39.5C38,33.153 32.847,28 26.5,28C23.45,28 20.525,29.212 18.368,31.368C20.525,29.212 23.45,28 26.5,28C32.847,28 38,33.153 38,39.5C38,45.847 32.847,51 26.5,51C20.149,51 15,45.851 15,39.5Z" style="fill:none;stroke:rgb(99,61,54);stroke-width:1.28px;stroke-linecap:butt;stroke-miterlimit:2;"/></g><g id="in-81" serif:id="in-8" transform="matrix(1.26087,0,0,1.26087,-6.91304,-71.3478)"><path d="M15,319.5C15,325.851 20.149,331 26.5,331C32.847,331 38,325.847 38,319.5C38,313.153 32.847,308 26.5,308C23.45,308 20.525,309.212 18.368,311.368C20.525,309.212 23.45,308 26.5,308C32.847,308 38,313.153 38,319.5C38,325.847 32.847,331 26.5,331C20.149,331 15,325.851 15,319.5Z" style="fill:none;stroke:rgb(99,61,54);stroke-width:1.59px;stroke-linecap:butt;stroke-miterlimit:2;"/></g><g id="in-71" serif:id="in-7" transform="matrix(1.26087,0,0,1.26087,-6.91304,-60.9131)"><path d="M15,279.5C15,285.851 20.149,291 26.5,291C32.847,291 38,285.847 38,279.5C38,273.153 32.847,268 26.5,268C23.45,268 20.525,269.212 18.368,271.368C20.525,269.212 23.45,268 26.5,268C32.847,268 38,273.153 38,279.5C38,285.847 32.847,291 26.5,291C20.149,291 15,285.851 15,279.5Z" style="fill:none;stroke:rgb(99,61,54);stroke-width:1.59px;stroke-linecap:butt;stroke-miterlimit:2;"/></g><g id="in-61" serif:id="in-6" transform="matrix(1.26087,0,0,1.26087,-6.91304,-50.4783)"><path d="M15,239.5C15,245.851 20.149,251 26.5,251C32.847,251 38,245.847 38,239.5C38,233.153 32.847,228 26.5,228C23.45,228 20.525,229.212 18.368,231.368C20.525,229.212 23.45,228 26.5,228C32.847,228 38,233.153 38,239.5C38,245.847 32.847,251 26.5,251C20.149,251 15,245.851 15,239.5Z" style="fill:none;stroke:rgb(99,61,54);stroke-width:1.59px;stroke-linecap:butt;stroke-miterlimit:2;"/></g><g id="in-51" serif:id="in-5" transform="matrix(1.26087,0,0,1.26087,-6.91304,-40.0435)"><path d="M15,199.5C15,205.851 20.149,211 26.5,211C32.847,211 38,205.847 38,199.5C38,193.153 32.847,188 26.5,188C23.45,188 20.525,189.212 18.368,191.368C20.525,189.212 23.45,188 26.5,188C32.847,188 38,193.153 38,199.5C38,205.847 32.847,211 26.5,211C20.149,211 15,205.851 15,199.5Z" style="fill:none;stroke:rgb(99,61,54);stroke-width:1.59px;stroke-linecap:butt;stroke-miterlimit:2;"/></g><g id="in-41" serif:id="in-4" transform="matrix(1.26087,0,0,1.26087,-6.91304,-29.6087)"><path d="M15,159.5C15,165.851 20.149,171 26.5,171C32.847,171 38,165.847 38,159.5C38,153.153 32.847,148 26.5,148C23.45,148 20.525,149.212 18.368,151.368C20.525,149.212 23.45,148 26.5,148C32.847,148 38,153.153 38,159.5C38,165.847 32.847,171 26.5,171C20.149,171 15,165.851 15,159.5Z" style="fill:none;stroke:rgb(99,61,54);stroke-width:1.59px;stroke-linecap:butt;stroke-miterlimit:2;"/></g><g id="in-31" serif:id="in-3" transform="matrix(1.26087,0,0,1.26087,-6.91304,-19.1739)"><path d="M15,119.5C15,125.851 20.149,131 26.5,131C32.847,131 38,125.847 38,119.5C38,113.153 32.847,108 26.5,108C23.45,108 20.525,109.212 18.368,111.368C20.525,109.212 23.45,108 26.5,108C32.847,108 38,113.153 38,119.5C38,125.847 32.847,131 26.5,131C20.149,131 15,125.851 15,119.5Z" style="fill:none;stroke:rgb(99,61,54);stroke-width:1.59px;stroke-linecap:butt;stroke-miterlimit:2;"/></g><g id="in-21" serif:id="in-2" transform="matrix(1.26087,0,0,1.26087,-6.91304,-8.73914)"><path d="M15,79.5C15,85.851 20.149,91 26.5,91C32.847,91 38,85.847 38,79.5C38,73.153 32.847,68 26.5,68C23.45,68 20.525,69.212 18.368,71.368C20.525,69.212 23.45,68 26.5,68C32.847,68 38,73.153 38,79.5C38,85.847 32.847,91 26.5,91C20.149,91 15,85.851 15,79.5Z" style="fill:none;stroke:rgb(99,61,54);stroke-width:1.59px;stroke-linecap:butt;stroke-miterlimit:2;"/></g><g id="in-11" serif:id="in-1" transform="matrix(1.26087,0,0,1.26087,-6.91304,1.69564)"><path d="M15,39.5C15,45.851 20.149,51 26.5,51C32.847,51 38,45.847 38,39.5C38,33.153 32.847,28 26.5,28C23.45,28 20.525,29.212 18.368,31.368C20.525,29.212 23.45,28 26.5,28C32.847,28 38,33.153 38,39.5C38,45.847 32.847,51 26.5,51C20.149,51 15,45.851 15,39.5Z" style="fill:none;stroke:rgb(99,61,54);stroke-width:1.59px;stroke-linecap:butt;stroke-miterlimit:2;"/></g></g></g></g><g id="displays" transform="matrix(1,0,0,1,15,3.5)"><g id="display-8" transform="matrix(1,0,0,1,0,280)"><g id="display-background" transform="matrix(0.447059,0,0,0.6,-24.7059,-1)"><rect x="57.5" y="87.5" width="42.5" height="22.5" style="fill:rgb(13,13,13);"/><path d="M100,87.5L100,110L57.5,110L57.5,87.5L100,87.5ZM97.987,89L59.513,89L59.513,108.5L97.987,108.5L97.987,89Z" style="fill:rgb(138,117,92);"/></g><g id="display-foreground" transform="matrix(0.447059,0,0,0.6,-25.7059,-2)"><rect x="57.5" y="87.5" width="42.5" height="22.5" style="fill:rgb(13,13,13);"/></g></g><g id="display-7" transform="matrix(1,0,0,1,0,240)"><g id="display-background1" serif:id="display-background" transform="matrix(0.447059,0,0,0.6,-24.7059,-1)"><rect x="57.5" y="87.5" width="42.5" height="22.5" style="fill:rgb(13,13,13);"/><path d="M100,87.5L100,110L57.5,110L57.5,87.5L100,87.5ZM97.987,89L59.513,89L59.513,108.5L97.987,108.5L97.987,89Z" style="fill:rgb(138,117,92);"/></g><g id="display-foreground1" serif:id="display-foreground" transform="matrix(0.447059,0,0,0.6,-25.7059,-2)"><rect x="57.5" y="87.5" width="42.5" height="22.5" style="fill:rgb(13,13,13);"/></g></g><g id="display-6" transform="matrix(1,0,0,1,0,200)"><g id="display-background2" serif:id="display-background" transform="matrix(0.447059,0,0,0.6,-24.7059,-1)"><rect x="57.5" y="87.5" width="42.5" height="22.5" style="fill:rgb(13,13,13);"/><path d="M100,87.5L100,110L57.5,110L57.5,87.5L100,87.5ZM97.987,89L59.513,89L59.513,108.5L97.987,108.5L97.987,89Z" style="fill:rgb(138,117,92);"/></g><g id="display-foreground2" serif:id="display-foreground" transform="matrix(0.447059,0,0,0.6,-25.7059,-2)"><rect x="57.5" y="87.5" width="42.5" height="22.5" style="fill:rgb(13,13,13);"/></g></g><g id="display-5" transform="matrix(1,0,0,1,0,160)"><g id="display-background3" serif:id="display-background" transform="matrix(0.447059,0,0,0.6,-24.7059,-1)"><rect x="57.5" y="87.5" width="42.5" height="22.5" style="fill:rgb(13,13,13);"/><path d="M100,87.5L100,110L57.5,110L57.5,87.5L100,87.5ZM97.987,89L59.513,89L59.513,108.5L97.987,108.5L97.987,89Z" style="fill:rgb(138,117,92);"/></g><g id="display-foreground3" serif:id="display-foreground" transform="matrix(0.447059,0,0,0.6,-25.7059,-2)"><rect x="57.5" y="87.5" width="42.5" height="22.5" style="fill:rgb(13,13,13);"/></g></g><g id="display-4" transform="matrix(1,0,0,1,0,120)"><g id="display-background4" serif:id="display-background" transform="matrix(0.447059,0,0,0.6,-24.7059,-1)"><rect x="57.5" y="87.5" width="42.5" height="22.5" style="fill:rgb(13,13,13);"/><path d="M100,87.5L100,110L57.5,110L57.5,87.5L100,87.5ZM97.987,89L59.513,89L59.513,108.5L97.987,108.5L97.987,89Z" style="fill:rgb(138,117,92);"/></g><g id="display-foreground4" serif:id="display-foreground" transform="matrix(0.447059,0,0,0.6,-25.7059,-2)"><rect x="57.5" y="87.5" width="42.5" height="22.5" style="fill:rgb(13,13,13);"/></g></g><g id="display-3" transform="matrix(1,0,0,1,0,80)"><g id="display-background5" serif:id="display-background" transform="matrix(0.447059,0,0,0.6,-24.7059,-1)"><rect x="57.5" y="87.5" width="42.5" height="22.5" style="fill:rgb(13,13,13);"/><path d="M100,87.5L100,110L57.5,110L57.5,87.5L100,87.5ZM97.987,89L59.513,89L59.513,108.5L97.987,108.5L97.987,89Z" style="fill:rgb(138,117,92);"/></g><g id="display-foreground5" serif:id="display-foreground" transform="matrix(0.447059,0,0,0.6,-25.7059,-2)"><rect x="57.5" y="87.5" width="42.5" height="22.5" style="fill:rgb(13,13,13);"/></g></g><g id="display-2" transform="matrix(1,0,0,1,0,40)"><g id="display-background6" serif:id="display-background" transform="matrix(0.447059,0,0,0.6,-24.7059,-1)"><rect x="57.5" y="87.5" width="42.5" height="22.5" style="fill:rgb(13,13,13);"/><path d="M100,87.5L100,110L57.5,110L57.5,87.5L100,87.5ZM97.987,89L59.513,89L59.513,108.5L97.987,108.5L97.987,89Z" style="fill:rgb(138,117,92);"/></g><g id="display-foreground6" serif:id="display-foreground" transform="matrix(0.447059,0,0,0.6,-25.7059,-2)"><rect x="57.5" y="87.5" width="42.5" height="22.5" style="fill:rgb(13,13,13);"/></g></g><g id="display-1"><g id="display-background7" serif:id="display-background" transform="matrix(0.447059,0,0,0.6,-24.7059,-1)"><rect x="57.5" y="87.5" width="42.5" height="22.5" style="fill:rgb(13,13,13);"/><path d="M100,87.5L100,110L57.5,110L57.5,87.5L100,87.5ZM97.987,89L59.513,89L59.513,108.5L97.987,108.5L97.987,89Z" style="fill:rgb(138,117,92);"/></g><g id="display-foreground7" serif:id="display-foreground" transform="matrix(0.447059,0,0,0.6,-25.7059,-2)"><rect x="57.5" y="87.5" width="42.5" height="22.5" style="fill:rgb(13,13,13);"/></g></g></g><g transform="matrix(0.00402788,0,0,0.0039495,7.51945,-1.22874)"><path d="M-1866.85,3985L9305.27,3985" style="fill:none;stroke:rgb(255,134,0);stroke-width:313.37px;"/></g><g transform="matrix(1,0,0,1,-44.8166,4.90775)"><g transform="matrix(11.75,0,0,11.75,46.8766,10.2272)"><path d="M0.174,-0L0.296,-0.57L0.089,-0.57L0.114,-0.688L0.671,-0.688L0.646,-0.57L0.439,-0.57L0.318,-0L0.174,-0Z" style="fill:none;fill-rule:nonzero;stroke:rgb(42,42,42);stroke-width:0.26px;stroke-linecap:butt;stroke-miterlimit:2;"/></g><g transform="matrix(11.75,0,0,11.75,53.9148,10.2272)"><path d="M0.3,0.008C0.271,0.008 0.241,0.007 0.209,0.006C0.176,0.005 0.145,0.003 0.114,0.001C0.083,-0.002 0.056,-0.004 0.031,-0.007L0.054,-0.117C0.078,-0.115 0.103,-0.113 0.129,-0.111C0.155,-0.109 0.18,-0.107 0.205,-0.106C0.229,-0.105 0.25,-0.104 0.267,-0.104C0.289,-0.104 0.308,-0.105 0.324,-0.106C0.339,-0.107 0.353,-0.108 0.364,-0.111C0.375,-0.113 0.385,-0.116 0.394,-0.12C0.401,-0.124 0.407,-0.13 0.412,-0.137C0.417,-0.143 0.421,-0.151 0.425,-0.16C0.429,-0.169 0.432,-0.178 0.435,-0.188C0.437,-0.197 0.439,-0.207 0.44,-0.216C0.44,-0.225 0.441,-0.232 0.441,-0.238C0.441,-0.248 0.439,-0.256 0.434,-0.261C0.429,-0.266 0.421,-0.27 0.409,-0.273C0.397,-0.276 0.38,-0.278 0.358,-0.281L0.206,-0.303C0.166,-0.308 0.139,-0.321 0.124,-0.341C0.109,-0.36 0.102,-0.387 0.102,-0.421C0.102,-0.433 0.103,-0.447 0.105,-0.462C0.107,-0.476 0.11,-0.492 0.113,-0.508C0.122,-0.549 0.135,-0.583 0.152,-0.608C0.169,-0.632 0.189,-0.651 0.214,-0.664C0.238,-0.677 0.266,-0.685 0.299,-0.69C0.331,-0.694 0.367,-0.696 0.406,-0.696C0.435,-0.696 0.464,-0.695 0.494,-0.694C0.524,-0.693 0.552,-0.691 0.579,-0.688C0.606,-0.685 0.628,-0.682 0.645,-0.678L0.623,-0.571C0.604,-0.574 0.583,-0.576 0.56,-0.578C0.536,-0.58 0.512,-0.582 0.487,-0.583C0.462,-0.584 0.439,-0.584 0.417,-0.584C0.396,-0.584 0.379,-0.583 0.364,-0.582C0.349,-0.581 0.336,-0.579 0.325,-0.576C0.314,-0.573 0.305,-0.57 0.297,-0.566C0.289,-0.561 0.282,-0.555 0.276,-0.547C0.27,-0.539 0.265,-0.53 0.262,-0.52C0.259,-0.51 0.256,-0.5 0.255,-0.49C0.253,-0.48 0.252,-0.47 0.252,-0.46C0.252,-0.447 0.257,-0.438 0.267,-0.434C0.276,-0.429 0.293,-0.425 0.318,-0.422L0.465,-0.402C0.488,-0.399 0.51,-0.394 0.529,-0.387C0.548,-0.38 0.564,-0.369 0.575,-0.353C0.586,-0.337 0.592,-0.313 0.592,-0.28C0.592,-0.272 0.592,-0.264 0.591,-0.255C0.59,-0.245 0.589,-0.236 0.588,-0.225C0.586,-0.214 0.584,-0.203 0.581,-0.192C0.571,-0.145 0.558,-0.109 0.541,-0.082C0.524,-0.055 0.503,-0.035 0.48,-0.022C0.457,-0.009 0.43,-0.001 0.4,0.003C0.37,0.006 0.337,0.008 0.3,0.008Z" style="fill:none;fill-rule:nonzero;stroke:rgb(42,42,42);stroke-width:0.26px;stroke-linecap:butt;stroke-miterlimit:2;"/></g><g transform="matrix(11.75,0,0,11.75,61.4583,10.2272)"><path d="M0.054,-0.231L0.077,-0.339L0.347,-0.339L0.324,-0.231L0.054,-0.231Z" style="fill:none;fill-rule:nonzero;stroke:rgb(42,42,42);stroke-width:0.26px;stroke-linecap:butt;stroke-miterlimit:2;"/></g><g transform="matrix(11.75,0,0,11.75,65.8998,10.2272)"><path d="M0.324,0.008C0.254,0.008 0.199,0.004 0.16,-0.006C0.121,-0.014 0.093,-0.031 0.077,-0.054C0.06,-0.077 0.052,-0.108 0.052,-0.149C0.052,-0.174 0.055,-0.202 0.061,-0.235C0.066,-0.268 0.073,-0.305 0.082,-0.348C0.094,-0.405 0.105,-0.454 0.116,-0.495C0.126,-0.536 0.138,-0.569 0.153,-0.596C0.168,-0.622 0.187,-0.642 0.211,-0.657C0.234,-0.672 0.265,-0.682 0.302,-0.688C0.339,-0.693 0.386,-0.696 0.441,-0.696C0.511,-0.696 0.566,-0.692 0.605,-0.683C0.644,-0.674 0.671,-0.658 0.688,-0.635C0.704,-0.612 0.712,-0.579 0.712,-0.538C0.712,-0.513 0.709,-0.484 0.705,-0.452C0.7,-0.42 0.692,-0.383 0.683,-0.34C0.67,-0.282 0.658,-0.233 0.647,-0.192C0.636,-0.151 0.623,-0.118 0.608,-0.092C0.593,-0.066 0.574,-0.046 0.551,-0.031C0.528,-0.016 0.498,-0.006 0.462,-0.001C0.425,0.005 0.379,0.008 0.324,0.008ZM0.331,-0.104C0.361,-0.104 0.386,-0.105 0.405,-0.107C0.424,-0.109 0.44,-0.114 0.454,-0.121C0.467,-0.128 0.477,-0.141 0.486,-0.158C0.495,-0.175 0.503,-0.199 0.511,-0.229C0.519,-0.259 0.528,-0.297 0.538,-0.344C0.547,-0.384 0.554,-0.418 0.559,-0.446C0.563,-0.474 0.565,-0.497 0.565,-0.515C0.565,-0.537 0.561,-0.553 0.552,-0.563C0.543,-0.572 0.529,-0.578 0.51,-0.581C0.491,-0.583 0.465,-0.584 0.433,-0.584C0.403,-0.584 0.378,-0.583 0.359,-0.581C0.339,-0.579 0.323,-0.574 0.31,-0.567C0.297,-0.56 0.286,-0.547 0.277,-0.53C0.268,-0.513 0.26,-0.489 0.252,-0.459C0.244,-0.429 0.235,-0.391 0.226,-0.344C0.22,-0.317 0.215,-0.292 0.211,-0.271C0.206,-0.249 0.203,-0.23 0.201,-0.215C0.198,-0.199 0.197,-0.185 0.197,-0.172C0.197,-0.151 0.202,-0.135 0.211,-0.126C0.22,-0.116 0.234,-0.11 0.253,-0.108C0.272,-0.105 0.298,-0.104 0.331,-0.104Z" style="fill:none;fill-rule:nonzero;stroke:rgb(42,42,42);stroke-width:0.26px;stroke-linecap:butt;stroke-miterlimit:2;"/></g><g transform="matrix(11.75,0,0,11.75,46.8766,10.2272)"><path d="M0.174,-0L0.296,-0.57L0.089,-0.57L0.114,-0.688L0.671,-0.688L0.646,-0.57L0.439,-0.57L0.318,-0L0.174,-0Z" style="fill:rgb(250,250,250);fill-rule:nonzero;"/></g><g transform="matrix(11.75,0,0,11.75,53.9148,10.2272)"><path d="M0.3,0.008C0.271,0.008 0.241,0.007 0.209,0.006C0.176,0.005 0.145,0.003 0.114,0.001C0.083,-0.002 0.056,-0.004 0.031,-0.007L0.054,-0.117C0.078,-0.115 0.103,-0.113 0.129,-0.111C0.155,-0.109 0.18,-0.107 0.205,-0.106C0.229,-0.105 0.25,-0.104 0.267,-0.104C0.289,-0.104 0.308,-0.105 0.324,-0.106C0.339,-0.107 0.353,-0.108 0.364,-0.111C0.375,-0.113 0.385,-0.116 0.394,-0.12C0.401,-0.124 0.407,-0.13 0.412,-0.137C0.417,-0.143 0.421,-0.151 0.425,-0.16C0.429,-0.169 0.432,-0.178 0.435,-0.188C0.437,-0.197 0.439,-0.207 0.44,-0.216C0.44,-0.225 0.441,-0.232 0.441,-0.238C0.441,-0.248 0.439,-0.256 0.434,-0.261C0.429,-0.266 0.421,-0.27 0.409,-0.273C0.397,-0.276 0.38,-0.278 0.358,-0.281L0.206,-0.303C0.166,-0.308 0.139,-0.321 0.124,-0.341C0.109,-0.36 0.102,-0.387 0.102,-0.421C0.102,-0.433 0.103,-0.447 0.105,-0.462C0.107,-0.476 0.11,-0.492 0.113,-0.508C0.122,-0.549 0.135,-0.583 0.152,-0.608C0.169,-0.632 0.189,-0.651 0.214,-0.664C0.238,-0.677 0.266,-0.685 0.299,-0.69C0.331,-0.694 0.367,-0.696 0.406,-0.696C0.435,-0.696 0.464,-0.695 0.494,-0.694C0.524,-0.693 0.552,-0.691 0.579,-0.688C0.606,-0.685 0.628,-0.682 0.645,-0.678L0.623,-0.571C0.604,-0.574 0.583,-0.576 0.56,-0.578C0.536,-0.58 0.512,-0.582 0.487,-0.583C0.462,-0.584 0.439,-0.584 0.417,-0.584C0.396,-0.584 0.379,-0.583 0.364,-0.582C0.349,-0.581 0.336,-0.579 0.325,-0.576C0.314,-0.573 0.305,-0.57 0.297,-0.566C0.289,-0.561 0.282,-0.555 0.276,-0.547C0.27,-0.539 0.265,-0.53 0.262,-0.52C0.259,-0.51 0.256,-0.5 0.255,-0.49C0.253,-0.48 0.252,-0.47 0.252,-0.46C0.252,-0.447 0.257,-0.438 0.267,-0.434C0.276,-0.429 0.293,-0.425 0.318,-0.422L0.465,-0.402C0.488,-0.399 0.51,-0.394 0.529,-0.387C0.548,-0.38 0.564,-0.369 0.575,-0.353C0.586,-0.337 0.592,-0.313 0.592,-0.28C0.592,-0.272 0.592,-0.264 0.591,-0.255C0.59,-0.245 0.589,-0.236 0.588,-0.225C0.586,-0.214 0.584,-0.203 0.581,-0.192C0.571,-0.145 0.558,-0.109 0.541,-0.082C0.524,-0.055 0.503,-0.035 0.48,-0.022C0.457,-0.009 0.43,-0.001 0.4,0.003C0.37,0.006 0.337,0.008 0.3,0.008Z" style="fill:rgb(250,250,250);fill-rule:nonzero;"/></g><g transform="matrix(11.75,0,0,11.75,61.4583,10.2272)"><path d="M0.054,-0.231L0.077,-0.339L0.347,-0.339L0.324,-0.231L0.054,-0.231Z" style="fill:rgb(250,250,250);fill-rule:nonzero;"/></g><g transform="matrix(11.75,0,0,11.75,65.8998,10.2272)"><path d="M0.324,0.008C0.254,0.008 0.199,0.004 0.16,-0.006C0.121,-0.014 0.093,-0.031 0.077,-0.054C0.06,-0.077 0.052,-0.108 0.052,-0.149C0.052,-0.174 0.055,-0.202 0.061,-0.235C0.066,-0.268 0.073,-0.305 0.082,-0.348C0.094,-0.405 0.105,-0.454 0.116,-0.495C0.126,-0.536 0.138,-0.569 0.153,-0.596C0.168,-0.622 0.187,-0.642 0.211,-0.657C0.234,-0.672 0.265,-0.682 0.302,-0.688C0.339,-0.693 0.386,-0.696 0.441,-0.696C0.511,-0.696 0.566,-0.692 0.605,-0.683C0.644,-0.674 0.671,-0.658 0.688,-0.635C0.704,-0.612 0.712,-0.579 0.712,-0.538C0.712,-0.513 0.709,-0.484 0.705,-0.452C0.7,-0.42 0.692,-0.383 0.683,-0.34C0.67,-0.282 0.658,-0.233 0.647,-0.192C0.636,-0.151 0.623,-0.118 0.608,-0.092C0.593,-0.066 0.574,-0.046 0.551,-0.031C0.528,-0.016 0.498,-0.006 0.462,-0.001C0.425,0.005 0.379,0.008 0.324,0.008ZM0.331,-0.104C0.361,-0.104 0.386,-0.105 0.405,-0.107C0.424,-0.109 0.44,-0.114 0.454,-0.121C0.467,-0.128 0.477,-0.141 0.486,-0.158C0.495,-0.175 0.503,-0.199 0.511,-0.229C0.519,-0.259 0.528,-0.297 0.538,-0.344C0.547,-0.384 0.554,-0.418 0.559,-0.446C0.563,-0.474 0.565,-0.497 0.565,-0.515C0.565,-0.537 0.561,-0.553 0.552,-0.563C0.543,-0.572 0.529,-0.578 0.51,-0.581C0.491,-0.583 0.465,-0.584 0.433,-0.584C0.403,-0.584 0.378,-0.583 0.359,-0.581C0.339,-0.579 0.323,-0.574 0.31,-0.567C0.297,-0.56 0.286,-0.547 0.277,-0.53C0.268,-0.513 0.26,-0.489 0.252,-0.459C0.244,-0.429 0.235,-0.391 0.226,-0.344C0.22,-0.317 0.215,-0.292 0.211,-0.271C0.206,-0.249 0.203,-0.23 0.201,-0.215C0.198,-0.199 0.197,-0.185 0.197,-0.172C0.197,-0.151 0.202,-0.135 0.211,-0.126C0.22,-0.116 0.234,-0.11 0.253,-0.108C0.272,-0.105 0.298,-0.104 0.331,-0.104Z" style="fill:rgb(250,250,250);fill-rule:nonzero;"/></g></g></svg>