<?xml version="1.0" encoding="UTF-8" standalone="no"?><!DOCTYPE svg PUBLIC "-//W3C//DTD SVG 1.1//EN" "http://www.w3.org/Graphics/SVG/1.1/DTD/svg11.dtd"><svg width="100%" height="100%" viewBox="0 0 195 380" version="1.1" xmlns="http://www.w3.org/2000/svg" xmlns:xlink="http://www.w3.org/1999/xlink" xml:space="preserve" xmlns:serif="http://www.serif.com/" style="fill-rule:evenodd;clip-rule:evenodd;stroke-linecap:round;stroke-linejoin:round;stroke-miterlimit:1.5;"><g id="background" transform="matrix(1.3,0,0,1,0,0)"><rect x="0" y="0" width="150" height="380" style="fill:rgb(214,214,214);"/></g><g id="not-things-lines" serif:id="not-things lines" transform="matrix(0.00411803,0,0,0.00411803,-22.2673,355.894)"><g><g transform="matrix(1.57305,0,0,0.959074,4401.35,-101.159)"><path d="M4760,3985L30742.1,3985" style="fill:none;stroke:rgb(238,178,111);stroke-width:233px;"/></g><g transform="matrix(0.970692,0,0,0.959074,7272.62,-101.159)"><path d="M4410,2560L-1921.67,2560" style="fill:none;stroke:rgb(238,178,111);stroke-width:314.58px;"/></g><g transform="matrix(0.96045,0,0,0.96045,7473.62,-1632.04)"><path d="M5226.34,4325L5226.34,7541.25" style="fill:none;stroke:rgb(238,178,111);stroke-width:316.04px;"/></g><g transform="matrix(0.959074,0,0,0.960269,7146.63,-1632.54)"><path d="M3964.79,5400L3964.79,2232.68" style="fill:none;stroke:rgb(238,178,111);stroke-width:316.3px;"/></g><g transform="matrix(0.959074,0,0,0.959074,7323.91,-101.095)"><path d="M4235,3297L4935,3297" style="fill:none;stroke:rgb(238,178,111);stroke-width:316.5px;"/></g><g transform="matrix(0.950864,0,0,0.950864,7164.38,-150.825)"><path d="M3330.5,1915.9C3704.78,1541.63 4221.7,1310 4792.3,1310C5933.49,1310 6860,2236.51 6860,3377.7C6860,4518.9 5933.49,5445.4 4792.3,5445.4C3651.1,5445.4 2724.6,4518.9 2724.6,3377.7" style="fill:none;stroke:rgb(238,178,111);stroke-width:319.23px;"/></g></g></g><g transform="matrix(1,0,0,1,26.3649,361.618)"><g transform="matrix(15,0,0,15,13.2751,10.2272)"><path d="M0.024,-0L0.132,-0.51L0.256,-0.51L0.245,-0.443L0.254,-0.443C0.265,-0.46 0.278,-0.474 0.294,-0.485C0.309,-0.496 0.327,-0.504 0.348,-0.51C0.369,-0.515 0.392,-0.518 0.417,-0.518C0.456,-0.518 0.486,-0.514 0.508,-0.505C0.529,-0.496 0.544,-0.483 0.553,-0.466C0.561,-0.448 0.565,-0.425 0.565,-0.398C0.565,-0.386 0.564,-0.371 0.562,-0.354C0.559,-0.336 0.556,-0.317 0.552,-0.298L0.488,-0L0.356,-0L0.415,-0.275C0.418,-0.292 0.421,-0.308 0.424,-0.323C0.427,-0.338 0.428,-0.349 0.428,-0.358C0.428,-0.373 0.425,-0.384 0.42,-0.391C0.414,-0.398 0.405,-0.402 0.394,-0.405C0.383,-0.407 0.367,-0.408 0.348,-0.408C0.323,-0.408 0.303,-0.405 0.288,-0.4C0.272,-0.394 0.26,-0.385 0.251,-0.373C0.242,-0.361 0.234,-0.346 0.229,-0.327C0.223,-0.308 0.217,-0.286 0.212,-0.261L0.155,-0L0.024,-0Z" style="fill-rule:nonzero;"/></g><g transform="matrix(15,0,0,15,22.4401,10.2272)"><path d="M0.249,0.008C0.191,0.008 0.146,0.004 0.114,-0.003C0.081,-0.01 0.058,-0.023 0.045,-0.042C0.032,-0.06 0.025,-0.084 0.025,-0.115C0.025,-0.133 0.027,-0.153 0.031,-0.176C0.035,-0.199 0.04,-0.225 0.046,-0.255C0.055,-0.298 0.063,-0.334 0.071,-0.364C0.078,-0.394 0.088,-0.419 0.1,-0.439C0.111,-0.459 0.126,-0.475 0.145,-0.487C0.164,-0.498 0.188,-0.506 0.217,-0.511C0.246,-0.516 0.282,-0.518 0.325,-0.518C0.383,-0.518 0.428,-0.514 0.461,-0.507C0.493,-0.5 0.516,-0.487 0.529,-0.469C0.542,-0.45 0.548,-0.425 0.548,-0.394C0.548,-0.376 0.547,-0.356 0.544,-0.333C0.541,-0.31 0.536,-0.284 0.529,-0.255C0.52,-0.212 0.511,-0.176 0.503,-0.146C0.494,-0.116 0.485,-0.091 0.474,-0.071C0.463,-0.051 0.448,-0.035 0.43,-0.024C0.411,-0.012 0.388,-0.004 0.359,0.001C0.329,0.006 0.293,0.008 0.249,0.008ZM0.254,-0.094C0.276,-0.094 0.294,-0.095 0.308,-0.098C0.322,-0.1 0.334,-0.104 0.343,-0.11C0.352,-0.116 0.359,-0.125 0.365,-0.137C0.371,-0.148 0.377,-0.164 0.382,-0.184C0.387,-0.203 0.392,-0.227 0.398,-0.255C0.403,-0.28 0.407,-0.302 0.41,-0.32C0.413,-0.338 0.414,-0.353 0.414,-0.365C0.414,-0.379 0.411,-0.39 0.406,-0.397C0.4,-0.404 0.39,-0.409 0.377,-0.412C0.364,-0.415 0.345,-0.416 0.321,-0.416C0.294,-0.416 0.272,-0.414 0.256,-0.411C0.24,-0.408 0.228,-0.4 0.22,-0.389C0.211,-0.378 0.204,-0.362 0.199,-0.341C0.193,-0.32 0.186,-0.291 0.178,-0.255C0.173,-0.229 0.168,-0.207 0.165,-0.189C0.162,-0.171 0.16,-0.156 0.16,-0.144C0.16,-0.13 0.163,-0.119 0.169,-0.112C0.174,-0.105 0.184,-0.1 0.198,-0.098C0.211,-0.095 0.23,-0.094 0.254,-0.094Z" style="fill-rule:nonzero;"/></g><g transform="matrix(15,0,0,15,31.0501,10.2272)"><path d="M0.322,-0C0.28,-0 0.244,-0.001 0.215,-0.003C0.186,-0.004 0.162,-0.008 0.143,-0.015C0.124,-0.021 0.11,-0.031 0.101,-0.044C0.092,-0.057 0.088,-0.075 0.088,-0.098C0.088,-0.106 0.088,-0.114 0.09,-0.123C0.09,-0.132 0.092,-0.141 0.094,-0.151C0.095,-0.16 0.097,-0.171 0.099,-0.183L0.148,-0.408L0.048,-0.408L0.07,-0.51L0.169,-0.51L0.2,-0.658L0.334,-0.658L0.303,-0.51L0.422,-0.51L0.4,-0.408L0.282,-0.408L0.236,-0.192C0.235,-0.189 0.234,-0.183 0.233,-0.175C0.231,-0.166 0.229,-0.158 0.228,-0.15C0.227,-0.141 0.226,-0.135 0.226,-0.132C0.226,-0.122 0.23,-0.114 0.237,-0.108C0.244,-0.102 0.255,-0.098 0.272,-0.097C0.289,-0.095 0.312,-0.094 0.341,-0.094L0.322,-0Z" style="fill-rule:nonzero;"/></g><g transform="matrix(15,0,0,15,37.1401,10.2272)"><path d="M0.054,-0.231L0.077,-0.339L0.347,-0.339L0.324,-0.231L0.054,-0.231Z" style="fill-rule:nonzero;"/></g><g transform="matrix(15,0,0,15,42.8101,10.2272)"><path d="M0.322,-0C0.28,-0 0.244,-0.001 0.215,-0.003C0.186,-0.004 0.162,-0.008 0.143,-0.015C0.124,-0.021 0.11,-0.031 0.101,-0.044C0.092,-0.057 0.088,-0.075 0.088,-0.098C0.088,-0.106 0.088,-0.114 0.09,-0.123C0.09,-0.132 0.092,-0.141 0.094,-0.151C0.095,-0.16 0.097,-0.171 0.099,-0.183L0.148,-0.408L0.048,-0.408L0.07,-0.51L0.169,-0.51L0.2,-0.658L0.334,-0.658L0.303,-0.51L0.422,-0.51L0.4,-0.408L0.282,-0.408L0.236,-0.192C0.235,-0.189 0.234,-0.183 0.233,-0.175C0.231,-0.166 0.229,-0.158 0.228,-0.15C0.227,-0.141 0.226,-0.135 0.226,-0.132C0.226,-0.122 0.23,-0.114 0.237,-0.108C0.244,-0.102 0.255,-0.098 0.272,-0.097C0.289,-0.095 0.312,-0.094 0.341,-0.094L0.322,-0Z" style="fill-rule:nonzero;"/></g><g transform="matrix(15,0,0,15,48.9001,10.2272)"><path d="M0.024,-0L0.18,-0.743L0.313,-0.743L0.25,-0.45L0.257,-0.45C0.268,-0.465 0.282,-0.477 0.297,-0.488C0.312,-0.498 0.329,-0.506 0.349,-0.511C0.369,-0.516 0.392,-0.518 0.417,-0.518C0.456,-0.518 0.486,-0.514 0.508,-0.505C0.529,-0.496 0.544,-0.483 0.553,-0.466C0.561,-0.448 0.565,-0.425 0.565,-0.398C0.565,-0.386 0.564,-0.371 0.562,-0.354C0.559,-0.336 0.556,-0.317 0.552,-0.298L0.488,-0L0.356,-0L0.415,-0.275C0.418,-0.292 0.421,-0.308 0.424,-0.323C0.427,-0.338 0.428,-0.349 0.428,-0.358C0.428,-0.38 0.422,-0.394 0.41,-0.4C0.397,-0.405 0.377,-0.408 0.348,-0.408C0.323,-0.408 0.303,-0.405 0.288,-0.4C0.272,-0.394 0.26,-0.385 0.251,-0.373C0.242,-0.361 0.234,-0.346 0.229,-0.327C0.223,-0.308 0.217,-0.286 0.212,-0.261L0.155,-0L0.024,-0Z" style="fill-rule:nonzero;"/></g><g transform="matrix(15,0,0,15,58.0651,10.2272)"><path d="M0.155,-0.628L0.179,-0.743L0.316,-0.743L0.292,-0.628L0.155,-0.628ZM0.024,-0L0.132,-0.51L0.265,-0.51L0.157,-0L0.024,-0Z" style="fill-rule:nonzero;"/></g><g transform="matrix(15,0,0,15,62.2651,10.2272)"><path d="M0.024,-0L0.132,-0.51L0.256,-0.51L0.245,-0.443L0.254,-0.443C0.265,-0.46 0.278,-0.474 0.294,-0.485C0.309,-0.496 0.327,-0.504 0.348,-0.51C0.369,-0.515 0.392,-0.518 0.417,-0.518C0.456,-0.518 0.486,-0.514 0.508,-0.505C0.529,-0.496 0.544,-0.483 0.553,-0.466C0.561,-0.448 0.565,-0.425 0.565,-0.398C0.565,-0.386 0.564,-0.371 0.562,-0.354C0.559,-0.336 0.556,-0.317 0.552,-0.298L0.488,-0L0.356,-0L0.415,-0.275C0.418,-0.292 0.421,-0.308 0.424,-0.323C0.427,-0.338 0.428,-0.349 0.428,-0.358C0.428,-0.373 0.425,-0.384 0.42,-0.391C0.414,-0.398 0.405,-0.402 0.394,-0.405C0.383,-0.407 0.367,-0.408 0.348,-0.408C0.323,-0.408 0.303,-0.405 0.288,-0.4C0.272,-0.394 0.26,-0.385 0.251,-0.373C0.242,-0.361 0.234,-0.346 0.229,-0.327C0.223,-0.308 0.217,-0.286 0.212,-0.261L0.155,-0L0.024,-0Z" style="fill-rule:nonzero;"/></g><g transform="matrix(15,0,0,15,71.4301,10.2272)"><path d="M0.183,0.206C0.162,0.206 0.14,0.206 0.118,0.205C0.096,0.204 0.076,0.202 0.057,0.201C0.038,0.199 0.022,0.197 0.01,0.194L0.031,0.096C0.044,0.097 0.059,0.097 0.076,0.098C0.092,0.099 0.109,0.099 0.126,0.099L0.174,0.099C0.209,0.099 0.236,0.097 0.257,0.094C0.277,0.091 0.293,0.085 0.304,0.076C0.315,0.067 0.324,0.053 0.331,0.036C0.337,0.018 0.343,-0.005 0.349,-0.034C0.35,-0.039 0.352,-0.044 0.353,-0.049C0.354,-0.054 0.355,-0.059 0.356,-0.064L0.349,-0.064C0.336,-0.047 0.322,-0.033 0.305,-0.024C0.288,-0.014 0.27,-0.007 0.251,-0.004C0.232,-0.001 0.211,0.001 0.188,0.001C0.157,0.001 0.131,-0.003 0.111,-0.01C0.09,-0.017 0.075,-0.03 0.065,-0.049C0.055,-0.068 0.05,-0.093 0.05,-0.124C0.05,-0.141 0.051,-0.161 0.055,-0.183C0.058,-0.205 0.062,-0.229 0.068,-0.256C0.079,-0.307 0.091,-0.349 0.104,-0.383C0.117,-0.416 0.133,-0.443 0.151,-0.463C0.169,-0.482 0.19,-0.496 0.214,-0.505C0.238,-0.514 0.266,-0.518 0.299,-0.518C0.318,-0.518 0.337,-0.516 0.356,-0.513C0.374,-0.509 0.39,-0.502 0.404,-0.492C0.418,-0.481 0.428,-0.466 0.434,-0.446L0.441,-0.446L0.459,-0.51L0.583,-0.51L0.487,-0.06C0.479,-0.023 0.471,0.011 0.462,0.04C0.453,0.069 0.442,0.094 0.429,0.115C0.416,0.135 0.399,0.153 0.378,0.166C0.357,0.179 0.331,0.189 0.3,0.196C0.268,0.203 0.229,0.206 0.183,0.206ZM0.268,-0.111C0.283,-0.111 0.296,-0.112 0.307,-0.115C0.318,-0.117 0.327,-0.121 0.336,-0.126C0.344,-0.131 0.351,-0.137 0.357,-0.144C0.362,-0.149 0.366,-0.158 0.371,-0.17C0.376,-0.182 0.38,-0.196 0.385,-0.211C0.389,-0.226 0.393,-0.241 0.397,-0.258C0.4,-0.275 0.403,-0.291 0.405,-0.306C0.407,-0.321 0.408,-0.334 0.408,-0.345C0.408,-0.367 0.402,-0.382 0.389,-0.391C0.376,-0.4 0.357,-0.404 0.33,-0.404C0.308,-0.404 0.29,-0.403 0.276,-0.4C0.262,-0.397 0.251,-0.39 0.243,-0.381C0.234,-0.371 0.227,-0.356 0.221,-0.337C0.214,-0.317 0.208,-0.29 0.201,-0.257C0.196,-0.235 0.193,-0.216 0.19,-0.201C0.187,-0.185 0.186,-0.172 0.186,-0.161C0.186,-0.147 0.189,-0.136 0.194,-0.129C0.199,-0.122 0.208,-0.117 0.221,-0.115C0.233,-0.112 0.249,-0.111 0.268,-0.111Z" style="fill-rule:nonzero;"/></g><g transform="matrix(15,0,0,15,80.4901,10.2272)"><path d="M0.226,0.008C0.204,0.008 0.18,0.007 0.154,0.006C0.128,0.005 0.103,0.003 0.079,0.001C0.055,-0.001 0.034,-0.003 0.015,-0.005L0.035,-0.101C0.05,-0.1 0.064,-0.098 0.079,-0.097C0.094,-0.096 0.108,-0.095 0.122,-0.094C0.136,-0.093 0.15,-0.093 0.163,-0.093C0.176,-0.092 0.19,-0.092 0.203,-0.092C0.232,-0.092 0.254,-0.093 0.27,-0.097C0.286,-0.099 0.298,-0.105 0.306,-0.112C0.313,-0.119 0.319,-0.129 0.323,-0.142C0.326,-0.147 0.328,-0.153 0.33,-0.158C0.331,-0.163 0.332,-0.168 0.332,-0.173C0.332,-0.183 0.328,-0.19 0.32,-0.193C0.312,-0.196 0.298,-0.198 0.279,-0.2L0.149,-0.217C0.118,-0.222 0.097,-0.231 0.085,-0.246C0.072,-0.26 0.066,-0.279 0.066,-0.304C0.066,-0.311 0.067,-0.32 0.069,-0.333C0.07,-0.345 0.072,-0.358 0.075,-0.371C0.082,-0.404 0.093,-0.431 0.106,-0.451C0.119,-0.471 0.136,-0.486 0.155,-0.495C0.174,-0.504 0.197,-0.51 0.223,-0.514C0.249,-0.517 0.279,-0.518 0.312,-0.518C0.333,-0.518 0.356,-0.517 0.379,-0.516C0.402,-0.515 0.424,-0.513 0.445,-0.511C0.466,-0.509 0.483,-0.507 0.497,-0.504L0.478,-0.408C0.46,-0.411 0.442,-0.413 0.424,-0.414C0.406,-0.415 0.389,-0.416 0.372,-0.417C0.355,-0.418 0.339,-0.418 0.324,-0.418C0.303,-0.418 0.285,-0.418 0.269,-0.417C0.253,-0.416 0.24,-0.413 0.229,-0.408C0.218,-0.403 0.21,-0.394 0.205,-0.382C0.202,-0.377 0.199,-0.372 0.197,-0.365C0.195,-0.358 0.194,-0.351 0.194,-0.342C0.194,-0.332 0.198,-0.326 0.205,-0.323C0.212,-0.32 0.225,-0.317 0.244,-0.315L0.371,-0.297C0.39,-0.295 0.406,-0.291 0.419,-0.286C0.432,-0.28 0.443,-0.271 0.45,-0.26C0.456,-0.249 0.46,-0.232 0.46,-0.211C0.46,-0.204 0.459,-0.195 0.458,-0.184C0.457,-0.173 0.454,-0.16 0.451,-0.147C0.444,-0.112 0.434,-0.084 0.422,-0.063C0.409,-0.042 0.394,-0.027 0.376,-0.017C0.357,-0.007 0.336,-0 0.311,0.003C0.286,0.006 0.258,0.008 0.226,0.008Z" style="fill-rule:nonzero;"/></g></g><g id="output" transform="matrix(1,0,0,1,32.5,-10)"><g id="controls-background" serif:id="controls background" transform="matrix(1,0,0,1,112,0)"><g transform="matrix(0.78158,0,0,0.916412,5.85871,29.4938)"><path d="M33.447,24.286L33.447,358.743C33.447,360.399 31.87,361.744 29.928,361.744L22.891,361.744C20.949,361.744 19.373,360.399 19.373,358.743L19.373,24.286C19.373,22.63 20.949,21.285 22.891,21.285L29.928,21.285C31.87,21.285 33.447,22.63 33.447,24.286Z" style="fill:rgb(109,109,109);stroke:rgb(109,109,109);stroke-width:1.17px;"/></g><g id="in-8" transform="matrix(1.56522,0,0,1.56522,-14.9783,-168.587)"><path d="M15,319.5C15,325.851 20.149,331 26.5,331C32.847,331 38,325.847 38,319.5C38,313.153 32.847,308 26.5,308C23.45,308 20.525,309.212 18.368,311.368C20.525,309.212 23.45,308 26.5,308C32.847,308 38,313.153 38,319.5C38,325.847 32.847,331 26.5,331C20.149,331 15,325.851 15,319.5Z" style="fill:none;stroke:rgb(109,109,109);stroke-width:1.28px;stroke-linecap:butt;stroke-miterlimit:2;"/></g><g id="in-7" transform="matrix(1.56522,0,0,1.56522,-14.9783,-145.978)"><path d="M15,279.5C15,285.851 20.149,291 26.5,291C32.847,291 38,285.847 38,279.5C38,273.153 32.847,268 26.5,268C23.45,268 20.525,269.212 18.368,271.368C20.525,269.212 23.45,268 26.5,268C32.847,268 38,273.153 38,279.5C38,285.847 32.847,291 26.5,291C20.149,291 15,285.851 15,279.5Z" style="fill:none;stroke:rgb(109,109,109);stroke-width:1.28px;stroke-linecap:butt;stroke-miterlimit:2;"/></g><g id="in-6" transform="matrix(1.56522,0,0,1.56522,-14.9783,-123.37)"><path d="M15,239.5C15,245.851 20.149,251 26.5,251C32.847,251 38,245.847 38,239.5C38,233.153 32.847,228 26.5,228C23.45,228 20.525,229.212 18.368,231.368C20.525,229.212 23.45,228 26.5,228C32.847,228 38,233.153 38,239.5C38,245.847 32.847,251 26.5,251C20.149,251 15,245.851 15,239.5Z" style="fill:none;stroke:rgb(109,109,109);stroke-width:1.28px;stroke-linecap:butt;stroke-miterlimit:2;"/></g><g id="in-5" transform="matrix(1.56522,0,0,1.56522,-14.9783,-100.761)"><path d="M15,199.5C15,205.851 20.149,211 26.5,211C32.847,211 38,205.847 38,199.5C38,193.153 32.847,188 26.5,188C23.45,188 20.525,189.212 18.368,191.368C20.525,189.212 23.45,188 26.5,188C32.847,188 38,193.153 38,199.5C38,205.847 32.847,211 26.5,211C20.149,211 15,205.851 15,199.5Z" style="fill:none;stroke:rgb(109,109,109);stroke-width:1.28px;stroke-linecap:butt;stroke-miterlimit:2;"/></g><g id="in-4" transform="matrix(1.56522,0,0,1.56522,-14.9783,-78.1522)"><path d="M15,159.5C15,165.851 20.149,171 26.5,171C32.847,171 38,165.847 38,159.5C38,153.153 32.847,148 26.5,148C23.45,148 20.525,149.212 18.368,151.368C20.525,149.212 23.45,148 26.5,148C32.847,148 38,153.153 38,159.5C38,165.847 32.847,171 26.5,171C20.149,171 15,165.851 15,159.5Z" style="fill:none;stroke:rgb(109,109,109);stroke-width:1.28px;stroke-linecap:butt;stroke-miterlimit:2;"/></g><g id="in-3" transform="matrix(1.56522,0,0,1.56522,-14.9783,-55.5435)"><path d="M15,119.5C15,125.851 20.149,131 26.5,131C32.847,131 38,125.847 38,119.5C38,113.153 32.847,108 26.5,108C23.45,108 20.525,109.212 18.368,111.368C20.525,109.212 23.45,108 26.5,108C32.847,108 38,113.153 38,119.5C38,125.847 32.847,131 26.5,131C20.149,131 15,125.851 15,119.5Z" style="fill:none;stroke:rgb(109,109,109);stroke-width:1.28px;stroke-linecap:butt;stroke-miterlimit:2;"/></g><g id="in-2" transform="matrix(1.56522,0,0,1.56522,-14.9783,-32.9348)"><path d="M15,79.5C15,85.851 20.149,91 26.5,91C32.847,91 38,85.847 38,79.5C38,73.153 32.847,68 26.5,68C23.45,68 20.525,69.212 18.368,71.368C20.525,69.212 23.45,68 26.5,68C32.847,68 38,73.153 38,79.5C38,85.847 32.847,91 26.5,91C20.149,91 15,85.851 15,79.5Z" style="fill:none;stroke:rgb(109,109,109);stroke-width:1.28px;stroke-linecap:butt;stroke-miterlimit:2;"/></g><g id="in-1" transform="matrix(1.56522,0,0,1.56522,-14.9783,-10.3261)"><path d="M15,39.5C15,45.851 20.149,51 26.5,51C32.847,51 38,45.847 38,39.5C38,33.153 32.847,28 26.5,28C23.45,28 20.525,29.212 18.368,31.368C20.525,29.212 23.45,28 26.5,28C32.847,28 38,33.153 38,39.5C38,45.847 32.847,51 26.5,51C20.149,51 15,45.851 15,39.5Z" style="fill:none;stroke:rgb(109,109,109);stroke-width:1.28px;stroke-linecap:butt;stroke-miterlimit:2;"/></g><g id="in-81" serif:id="in-8" transform="matrix(1.26087,0,0,1.26087,-6.91304,-71.3478)"><path d="M15,319.5C15,325.851 20.149,331 26.5,331C32.847,331 38,325.847 38,319.5C38,313.153 32.847,308 26.5,308C23.45,308 20.525,309.212 18.368,311.368C20.525,309.212 23.45,308 26.5,308C32.847,308 38,313.153 38,319.5C38,325.847 32.847,331 26.5,331C20.149,331 15,325.851 15,319.5Z" style="fill:none;stroke:rgb(109,109,109);stroke-width:1.59px;stroke-linecap:butt;stroke-miterlimit:2;"/></g><g id="in-71" serif:id="in-7" transform="matrix(1.26087,0,0,1.26087,-6.91304,-60.9131)"><path d="M15,279.5C15,285.851 20.149,291 26.5,291C32.847,291 38,285.847 38,279.5C38,273.153 32.847,268 26.5,268C23.45,268 20.525,269.212 18.368,271.368C20.525,269.212 23.45,268 26.5,268C32.847,268 38,273.153 38,279.5C38,285.847 32.847,291 26.5,291C20.149,291 15,285.851 15,279.5Z" style="fill:none;stroke:rgb(109,109,109);stroke-width:1.59px;stroke-linecap:butt;stroke-miterlimit:2;"/></g><g id="in-61" serif:id="in-6" transform="matrix(1.26087,0,0,1.26087,-6.91304,-50.4783)"><path d="M15,239.5C15,245.851 20.149,251 26.5,251C32.847,251 38,245.847 38,239.5C38,233.153 32.847,228 26.5,228C23.45,228 20.525,229.212 18.368,231.368C20.525,229.212 23.45,228 26.5,228C32.847,228 38,233.153 38,239.5C38,245.847 32.847,251 26.5,251C20.149,251 15,245.851 15,239.5Z" style="fill:none;stroke:rgb(109,109,109);stroke-width:1.59px;stroke-linecap:butt;stroke-miterlimit:2;"/></g><g id="in-51" serif:id="in-5" transform="matrix(1.26087,0,0,1.26087,-6.91304,-40.0435)"><path d="M15,199.5C15,205.851 20.149,211 26.5,211C32.847,211 38,205.847 38,199.5C38,193.153 32.847,188 26.5,188C23.45,188 20.525,189.212 18.368,191.368C20.525,189.212 23.45,188 26.5,188C32.847,188 38,193.153 38,199.5C38,205.847 32.847,211 26.5,211C20.149,211 15,205.851 15,199.5Z" style="fill:none;stroke:rgb(109,109,109);stroke-width:1.59px;stroke-linecap:butt;stroke-miterlimit:2;"/></g><g id="in-41" serif:id="in-4" transform="matrix(1.26087,0,0,1.26087,-6.91304,-29.6087)"><path d="M15,159.5C15,165.851 20.149,171 26.5,171C32.847,171 38,165.847 38,159.5C38,153.153 32.847,148 26.5,148C23.45,148 20.525,149.212 18.368,151.368C20.525,149.212 23.45,148 26.5,148C32.847,148 38,153.153 38,159.5C38,165.847 32.847,171 26.5,171C20.149,171 15,165.851 15,159.5Z" style="fill:none;stroke:rgb(109,109,109);stroke-width:1.59px;stroke-linecap:butt;stroke-miterlimit:2;"/></g><g id="in-31" serif:id="in-3" transform="matrix(1.26087,0,0,1.26087,-6.91304,-19.1739)"><path d="M15,119.5C15,125.851 20.149,131 26.5,131C32.847,131 38,125.847 38,119.5C38,113.153 32.847,108 26.5,108C23.45,108 20.525,109.212 18.368,111.368C20.525,109.212 23.45,108 26.5,108C32.847,108 38,113.153 38,119.5C38,125.847 32.847,131 26.5,131C20.149,131 15,125.851 15,119.5Z" style="fill:none;stroke:rgb(109,109,109);stroke-width:1.59px;stroke-linecap:butt;stroke-miterlimit:2;"/></g><g id="in-21" serif:id="in-2" transform="matrix(1.26087,0,0,1.26087,-6.91304,-8.73914)"><path d="M15,79.5C15,85.851 20.149,91 26.5,91C32.847,91 38,85.847 38,79.5C38,73.153 32.847,68 26.5,68C23.45,68 20.525,69.212 18.368,71.368C20.525,69.212 23.45,68 26.5,68C32.847,68 38,73.153 38,79.5C38,85.847 32.847,91 26.5,91C20.149,91 15,85.851 15,79.5Z" style="fill:none;stroke:rgb(109,109,109);stroke-width:1.59px;stroke-linecap:butt;stroke-miterlimit:2;"/></g><g id="in-11" serif:id="in-1" transform="matrix(1.26087,0,0,1.26087,-6.91304,1.69564)"><path d="M15,39.5C15,45.851 20.149,51 26.5,51C32.847,51 38,45.847 38,39.5C38,33.153 32.847,28 26.5,28C23.45,28 20.525,29.212 18.368,31.368C20.525,29.212 23.45,28 26.5,28C32.847,28 38,33.153 38,39.5C38,45.847 32.847,51 26.5,51C20.149,51 15,45.851 15,39.5Z" style="fill:none;stroke:rgb(109,109,109);stroke-width:1.59px;stroke-linecap:butt;stroke-miterlimit:2;"/></g></g><g id="text" transform="matrix(1,0,0,1,57.4687,15)"><g transform="matrix(1,0,0,1,81.0358,339.348)"><g transform="matrix(11,0,0,11,-3.7565,0)"><path d="M0.341,0.008C0.285,0.008 0.239,0.004 0.204,-0.005C0.169,-0.013 0.142,-0.025 0.123,-0.042C0.104,-0.058 0.092,-0.078 0.085,-0.102C0.078,-0.125 0.074,-0.153 0.074,-0.184C0.074,-0.223 0.079,-0.254 0.089,-0.276C0.098,-0.297 0.112,-0.313 0.131,-0.324C0.15,-0.335 0.172,-0.343 0.199,-0.349L0.199,-0.353C0.158,-0.361 0.128,-0.378 0.109,-0.403C0.09,-0.428 0.08,-0.465 0.08,-0.515C0.08,-0.546 0.084,-0.572 0.092,-0.595C0.1,-0.618 0.114,-0.636 0.133,-0.652C0.152,-0.667 0.179,-0.678 0.213,-0.685C0.247,-0.692 0.29,-0.696 0.341,-0.696C0.392,-0.696 0.435,-0.692 0.469,-0.685C0.503,-0.678 0.53,-0.667 0.549,-0.652C0.568,-0.636 0.582,-0.618 0.59,-0.595C0.598,-0.572 0.602,-0.546 0.602,-0.515C0.602,-0.465 0.592,-0.428 0.573,-0.403C0.554,-0.378 0.524,-0.361 0.483,-0.353L0.483,-0.349C0.51,-0.343 0.533,-0.335 0.552,-0.324C0.57,-0.313 0.584,-0.297 0.594,-0.276C0.603,-0.254 0.608,-0.223 0.608,-0.184C0.608,-0.153 0.604,-0.125 0.598,-0.102C0.591,-0.078 0.578,-0.058 0.559,-0.042C0.54,-0.025 0.513,-0.013 0.478,-0.005C0.443,0.004 0.398,0.008 0.341,0.008ZM0.341,-0.066C0.387,-0.066 0.423,-0.069 0.449,-0.075C0.475,-0.08 0.494,-0.092 0.505,-0.109C0.516,-0.126 0.521,-0.152 0.521,-0.187C0.521,-0.214 0.518,-0.236 0.513,-0.253C0.508,-0.269 0.499,-0.281 0.486,-0.29C0.472,-0.299 0.454,-0.304 0.431,-0.307C0.408,-0.31 0.378,-0.311 0.341,-0.311C0.304,-0.311 0.274,-0.31 0.251,-0.307C0.228,-0.304 0.21,-0.299 0.197,-0.29C0.184,-0.281 0.174,-0.269 0.17,-0.253C0.165,-0.236 0.162,-0.214 0.162,-0.187C0.162,-0.152 0.167,-0.126 0.178,-0.109C0.189,-0.092 0.207,-0.08 0.233,-0.075C0.259,-0.069 0.295,-0.066 0.341,-0.066ZM0.341,-0.385C0.388,-0.385 0.424,-0.388 0.449,-0.395C0.474,-0.401 0.491,-0.413 0.501,-0.43C0.51,-0.447 0.515,-0.471 0.515,-0.503C0.515,-0.535 0.511,-0.56 0.502,-0.577C0.493,-0.594 0.475,-0.605 0.451,-0.612C0.426,-0.619 0.389,-0.622 0.341,-0.622C0.293,-0.622 0.257,-0.619 0.232,-0.612C0.207,-0.605 0.19,-0.594 0.181,-0.577C0.172,-0.56 0.168,-0.535 0.168,-0.503C0.168,-0.471 0.173,-0.447 0.182,-0.43C0.191,-0.413 0.209,-0.401 0.234,-0.395C0.259,-0.388 0.294,-0.385 0.341,-0.385Z" style="fill:rgb(250,250,250);fill-rule:nonzero;"/></g></g><g transform="matrix(1,0,0,1,81.0358,299.348)"><g transform="matrix(11,0,0,11,-3.0965,0)"><path d="M0.139,-0L0.419,-0.613L0.041,-0.613L0.041,-0.688L0.514,-0.688L0.514,-0.621L0.235,-0L0.139,-0Z" style="fill:rgb(250,250,250);fill-rule:nonzero;"/></g></g><g transform="matrix(1,0,0,1,81.0358,259.348)"><g transform="matrix(11,0,0,11,-3.6135,0)"><path d="M0.347,0.008C0.301,0.008 0.262,0.006 0.23,0.002C0.197,-0.003 0.17,-0.012 0.15,-0.027C0.129,-0.041 0.112,-0.063 0.101,-0.093C0.094,-0.108 0.089,-0.127 0.086,-0.15C0.083,-0.173 0.08,-0.2 0.079,-0.231C0.077,-0.262 0.076,-0.297 0.076,-0.337C0.076,-0.374 0.077,-0.407 0.079,-0.437C0.08,-0.467 0.083,-0.494 0.087,-0.517C0.09,-0.54 0.095,-0.561 0.101,-0.579C0.112,-0.61 0.129,-0.634 0.15,-0.651C0.171,-0.668 0.199,-0.679 0.232,-0.686C0.265,-0.693 0.306,-0.696 0.354,-0.696C0.371,-0.696 0.392,-0.695 0.415,-0.694C0.438,-0.692 0.462,-0.69 0.487,-0.687C0.511,-0.684 0.535,-0.681 0.558,-0.678L0.558,-0.609C0.537,-0.612 0.516,-0.614 0.493,-0.616C0.47,-0.617 0.448,-0.619 0.427,-0.62C0.405,-0.621 0.387,-0.622 0.372,-0.622C0.325,-0.622 0.288,-0.619 0.261,-0.612C0.233,-0.605 0.212,-0.593 0.198,-0.575C0.184,-0.557 0.175,-0.531 0.17,-0.497C0.165,-0.462 0.163,-0.417 0.163,-0.361L0.169,-0.361C0.176,-0.369 0.187,-0.377 0.2,-0.385C0.213,-0.392 0.233,-0.399 0.259,-0.404C0.284,-0.409 0.319,-0.411 0.362,-0.411C0.404,-0.411 0.44,-0.409 0.47,-0.404C0.5,-0.399 0.524,-0.39 0.543,-0.377C0.562,-0.364 0.575,-0.344 0.584,-0.319C0.592,-0.294 0.596,-0.26 0.596,-0.218C0.596,-0.174 0.593,-0.137 0.587,-0.108C0.58,-0.079 0.568,-0.056 0.55,-0.039C0.532,-0.022 0.507,-0.01 0.474,-0.003C0.441,0.004 0.399,0.008 0.347,0.008ZM0.339,-0.066C0.374,-0.066 0.402,-0.067 0.425,-0.07C0.448,-0.073 0.465,-0.079 0.478,-0.088C0.491,-0.097 0.499,-0.11 0.504,-0.127C0.509,-0.144 0.511,-0.168 0.511,-0.199C0.511,-0.231 0.509,-0.256 0.504,-0.275C0.499,-0.294 0.491,-0.308 0.479,-0.317C0.467,-0.326 0.45,-0.331 0.427,-0.334C0.404,-0.336 0.375,-0.337 0.339,-0.337C0.3,-0.337 0.268,-0.335 0.245,-0.331C0.222,-0.327 0.204,-0.321 0.194,-0.312C0.183,-0.303 0.175,-0.291 0.172,-0.277C0.168,-0.263 0.166,-0.246 0.166,-0.226C0.166,-0.189 0.169,-0.16 0.175,-0.139C0.18,-0.118 0.19,-0.102 0.203,-0.091C0.216,-0.08 0.233,-0.074 0.255,-0.071C0.277,-0.068 0.305,-0.066 0.339,-0.066Z" style="fill:rgb(250,250,250);fill-rule:nonzero;"/></g></g><g transform="matrix(1,0,0,1,81.0358,219.348)"><g transform="matrix(11,0,0,11,-3.4045,0)"><path d="M0.287,0.008C0.266,0.008 0.244,0.007 0.219,0.006C0.194,0.004 0.17,0.002 0.146,-0.001C0.122,-0.003 0.101,-0.006 0.082,-0.009L0.082,-0.078C0.105,-0.076 0.129,-0.074 0.154,-0.072C0.179,-0.07 0.202,-0.069 0.224,-0.068C0.246,-0.067 0.265,-0.066 0.281,-0.066C0.318,-0.066 0.349,-0.068 0.373,-0.073C0.396,-0.077 0.415,-0.084 0.428,-0.095C0.44,-0.105 0.45,-0.119 0.455,-0.137C0.46,-0.154 0.463,-0.176 0.463,-0.203C0.463,-0.232 0.46,-0.256 0.455,-0.274C0.449,-0.291 0.439,-0.304 0.425,-0.313C0.41,-0.322 0.39,-0.328 0.365,-0.331C0.34,-0.334 0.307,-0.335 0.267,-0.335C0.254,-0.335 0.237,-0.335 0.218,-0.334C0.198,-0.333 0.177,-0.331 0.155,-0.329C0.133,-0.327 0.111,-0.325 0.09,-0.322L0.09,-0.688L0.499,-0.688L0.499,-0.613L0.169,-0.613L0.169,-0.399C0.182,-0.401 0.198,-0.403 0.216,-0.405C0.233,-0.406 0.251,-0.407 0.27,-0.408C0.288,-0.409 0.305,-0.409 0.321,-0.409C0.37,-0.409 0.41,-0.405 0.44,-0.397C0.47,-0.389 0.493,-0.377 0.509,-0.36C0.524,-0.343 0.535,-0.322 0.541,-0.298C0.547,-0.273 0.55,-0.245 0.55,-0.213C0.55,-0.172 0.546,-0.138 0.539,-0.11C0.531,-0.081 0.518,-0.059 0.499,-0.042C0.48,-0.025 0.453,-0.012 0.419,-0.004C0.385,0.004 0.341,0.008 0.287,0.008Z" style="fill:rgb(250,250,250);fill-rule:nonzero;"/></g></g><g transform="matrix(1,0,0,1,81.0358,179.348)"><g transform="matrix(11,0,0,11,-3.531,0)"><path d="M0.409,-0L0.409,-0.161L0.046,-0.161L0.046,-0.227L0.315,-0.688L0.41,-0.688L0.142,-0.235L0.41,-0.235L0.428,-0.48L0.495,-0.48L0.495,-0.235L0.597,-0.235L0.597,-0.161L0.495,-0.161L0.495,-0L0.409,-0Z" style="fill:rgb(250,250,250);fill-rule:nonzero;"/></g></g><g transform="matrix(1,0,0,1,81.0358,139.348)"><g transform="matrix(11,0,0,11,-3.3055,0)"><path d="M0.264,0.008C0.243,0.008 0.221,0.007 0.196,0.006C0.171,0.004 0.146,0.002 0.123,-0.001C0.099,-0.004 0.078,-0.006 0.06,-0.009L0.06,-0.078C0.083,-0.076 0.106,-0.074 0.131,-0.072C0.156,-0.07 0.179,-0.069 0.201,-0.068C0.223,-0.067 0.242,-0.066 0.258,-0.066C0.297,-0.066 0.331,-0.069 0.358,-0.074C0.385,-0.079 0.406,-0.09 0.42,-0.107C0.433,-0.124 0.44,-0.15 0.44,-0.187C0.44,-0.218 0.436,-0.242 0.427,-0.261C0.418,-0.279 0.404,-0.292 0.385,-0.3C0.366,-0.307 0.34,-0.311 0.308,-0.311L0.179,-0.311L0.179,-0.386L0.308,-0.386C0.331,-0.386 0.351,-0.389 0.37,-0.395C0.389,-0.401 0.404,-0.412 0.415,-0.429C0.426,-0.446 0.432,-0.47 0.432,-0.503C0.432,-0.539 0.426,-0.565 0.414,-0.582C0.402,-0.599 0.383,-0.61 0.356,-0.615C0.329,-0.62 0.293,-0.622 0.248,-0.622C0.23,-0.622 0.21,-0.621 0.188,-0.62C0.166,-0.619 0.144,-0.617 0.123,-0.616C0.101,-0.614 0.081,-0.612 0.064,-0.609L0.064,-0.679C0.082,-0.682 0.103,-0.685 0.126,-0.688C0.149,-0.69 0.173,-0.692 0.198,-0.694C0.223,-0.695 0.245,-0.696 0.265,-0.696C0.314,-0.696 0.354,-0.692 0.387,-0.685C0.42,-0.678 0.446,-0.667 0.465,-0.652C0.484,-0.637 0.498,-0.619 0.507,-0.596C0.515,-0.573 0.519,-0.546 0.519,-0.515C0.519,-0.465 0.509,-0.428 0.489,-0.403C0.468,-0.378 0.439,-0.362 0.402,-0.353L0.402,-0.349C0.427,-0.344 0.449,-0.336 0.468,-0.325C0.487,-0.314 0.501,-0.297 0.512,-0.274C0.522,-0.251 0.527,-0.221 0.527,-0.184C0.527,-0.155 0.524,-0.128 0.517,-0.105C0.509,-0.081 0.497,-0.061 0.478,-0.044C0.459,-0.027 0.433,-0.014 0.399,-0.006C0.364,0.004 0.319,0.008 0.264,0.008Z" style="fill:rgb(250,250,250);fill-rule:nonzero;"/></g></g><g transform="matrix(1,0,0,1,81.0358,99.348)"><g transform="matrix(11,0,0,11,-3.355,0)"><path d="M0.07,-0L0.07,-0.08C0.07,-0.118 0.071,-0.15 0.073,-0.176C0.074,-0.201 0.079,-0.222 0.086,-0.239C0.093,-0.256 0.105,-0.27 0.121,-0.282C0.136,-0.294 0.158,-0.306 0.187,-0.318L0.368,-0.395C0.392,-0.406 0.41,-0.416 0.422,-0.425C0.434,-0.434 0.442,-0.446 0.447,-0.459C0.451,-0.472 0.453,-0.49 0.453,-0.512C0.453,-0.544 0.448,-0.568 0.439,-0.584C0.429,-0.599 0.412,-0.61 0.388,-0.615C0.363,-0.62 0.329,-0.622 0.284,-0.622C0.268,-0.622 0.249,-0.621 0.226,-0.62C0.203,-0.619 0.179,-0.617 0.154,-0.616C0.129,-0.614 0.106,-0.612 0.084,-0.609L0.084,-0.679C0.103,-0.682 0.126,-0.685 0.152,-0.688C0.177,-0.69 0.204,-0.692 0.232,-0.694C0.259,-0.695 0.285,-0.696 0.31,-0.696C0.342,-0.696 0.372,-0.694 0.399,-0.691C0.426,-0.688 0.451,-0.68 0.472,-0.669C0.493,-0.658 0.51,-0.64 0.522,-0.617C0.533,-0.593 0.539,-0.561 0.539,-0.521C0.539,-0.481 0.535,-0.449 0.527,-0.426C0.518,-0.402 0.505,-0.383 0.487,-0.369C0.468,-0.354 0.444,-0.341 0.414,-0.328L0.208,-0.241C0.191,-0.234 0.178,-0.225 0.171,-0.216C0.163,-0.207 0.158,-0.195 0.156,-0.18C0.154,-0.165 0.153,-0.145 0.153,-0.122L0.153,-0.075L0.539,-0.075L0.539,-0L0.07,-0Z" style="fill:rgb(250,250,250);fill-rule:nonzero;"/></g></g><g transform="matrix(1,0,0,1,81.0358,59.348)"><g transform="matrix(11,0,0,11,-2.068,0)"><path d="M0.18,-0L0.18,-0.59L0.038,-0.521L0.038,-0.598L0.205,-0.688L0.266,-0.688L0.266,-0L0.18,-0Z" style="fill:rgb(250,250,250);fill-rule:nonzero;"/></g></g></g></g><g id="upper-display" transform="matrix(0.964706,0,0,7.91111,43.5294,-519.222)"><g id="voltage-display"><rect id="upper-display1" serif:id="upper-display" x="57.5" y="87.5" width="42.5" height="22.5" style="fill:rgb(45,45,45);"/></g></g><g id="Event-LEDs" serif:id="Event LEDs" transform="matrix(1,0,0,1,7.5,-1.5)"><g id="Lane-LED" serif:id="Lane LED" transform="matrix(1.04447,0,0,2.98421,-21.8007,300.5)"><ellipse cx="72.094" cy="16.252" rx="3.351" ry="1.173" style="fill:rgb(42,42,42);"/></g><g transform="matrix(1,0,0,1,3.97641,331.213)"><g transform="matrix(10,0,0,10,46.5136,10.2272)"><path d="M0.092,-0L0.092,-0.688L0.205,-0.688L0.205,-0.099L0.51,-0.099L0.51,-0L0.092,-0Z" style="fill-rule:nonzero;"/></g></g><g id="Segment-LED" serif:id="Segment LED" transform="matrix(1.04447,0,0,2.98421,-7.30066,300.5)"><ellipse cx="72.094" cy="16.252" rx="3.351" ry="1.173" style="fill:rgb(42,42,42);"/></g><g transform="matrix(1,0,0,1,18.4764,331.213)"><g transform="matrix(10,0,0,10,46.0886,10.2272)"><path d="M0.326,0.008C0.301,0.008 0.274,0.007 0.245,0.006C0.215,0.005 0.186,0.003 0.158,0.001C0.129,-0.002 0.103,-0.004 0.08,-0.007L0.08,-0.1C0.104,-0.098 0.129,-0.096 0.156,-0.094C0.182,-0.092 0.207,-0.09 0.231,-0.09C0.255,-0.088 0.276,-0.088 0.293,-0.088C0.328,-0.088 0.356,-0.09 0.376,-0.093C0.396,-0.096 0.412,-0.102 0.424,-0.109C0.432,-0.114 0.438,-0.121 0.442,-0.129C0.445,-0.137 0.448,-0.147 0.449,-0.158C0.45,-0.169 0.45,-0.181 0.45,-0.194C0.45,-0.212 0.449,-0.227 0.448,-0.239C0.447,-0.251 0.444,-0.26 0.439,-0.267C0.434,-0.274 0.427,-0.279 0.417,-0.282C0.407,-0.285 0.394,-0.287 0.378,-0.289L0.214,-0.308C0.182,-0.312 0.156,-0.319 0.136,-0.329C0.115,-0.338 0.099,-0.351 0.089,-0.367C0.078,-0.383 0.07,-0.402 0.066,-0.424C0.062,-0.446 0.06,-0.47 0.06,-0.497C0.06,-0.542 0.066,-0.577 0.078,-0.603C0.09,-0.629 0.107,-0.649 0.13,-0.663C0.152,-0.676 0.178,-0.685 0.209,-0.69C0.24,-0.694 0.274,-0.696 0.311,-0.696C0.337,-0.696 0.364,-0.695 0.391,-0.694C0.418,-0.692 0.444,-0.69 0.469,-0.688C0.493,-0.685 0.513,-0.682 0.529,-0.678L0.529,-0.587C0.512,-0.59 0.493,-0.592 0.471,-0.594C0.448,-0.596 0.425,-0.598 0.401,-0.599C0.377,-0.6 0.355,-0.6 0.334,-0.6C0.299,-0.6 0.272,-0.599 0.251,-0.596C0.23,-0.592 0.213,-0.588 0.202,-0.581C0.189,-0.574 0.181,-0.564 0.178,-0.551C0.175,-0.538 0.174,-0.521 0.174,-0.502C0.174,-0.479 0.175,-0.462 0.179,-0.45C0.182,-0.437 0.189,-0.429 0.2,-0.424C0.211,-0.419 0.227,-0.416 0.25,-0.413L0.414,-0.394C0.435,-0.392 0.453,-0.389 0.47,-0.385C0.487,-0.38 0.501,-0.373 0.515,-0.363C0.528,-0.353 0.538,-0.339 0.545,-0.32C0.55,-0.311 0.553,-0.3 0.556,-0.288C0.558,-0.276 0.56,-0.263 0.562,-0.249C0.563,-0.234 0.564,-0.218 0.564,-0.2C0.564,-0.162 0.56,-0.13 0.553,-0.105C0.545,-0.08 0.534,-0.059 0.521,-0.045C0.507,-0.029 0.49,-0.018 0.47,-0.011C0.45,-0.003 0.428,0.002 0.404,0.005C0.38,0.007 0.354,0.008 0.326,0.008Z" style="fill-rule:nonzero;"/></g></g><g id="Trigger-LED" serif:id="Trigger LED" transform="matrix(1.04447,0,0,2.98421,7.19934,300.5)"><ellipse cx="72.094" cy="16.252" rx="3.351" ry="1.173" style="fill:rgb(42,42,42);"/></g><g transform="matrix(1,0,0,1,33.2914,331.213)"><g transform="matrix(10,0,0,10,46.3086,10.2272)"><path d="M0.234,-0L0.234,-0.589L0.025,-0.589L0.025,-0.688L0.555,-0.688L0.555,-0.589L0.347,-0.589L0.347,-0L0.234,-0Z" style="fill-rule:nonzero;"/></g></g></g><g id="time" transform="matrix(1,0,0,1,7.5,0)"><g id="display" transform="matrix(0.964706,0,0,0.8,-7.97058,214)"><g id="time-display"><rect id="display1" serif:id="display" x="57.5" y="87.5" width="42.5" height="22.5" style="fill:rgb(45,45,45);"/></g></g><g transform="matrix(1,0,0,1,68.011,279.88)"><g transform="matrix(10,0,0,10,-11.88,0)"><path d="M0.247,-0L0.247,-0.612L0.03,-0.612L0.03,-0.688L0.551,-0.688L0.551,-0.612L0.333,-0.612L0.333,-0L0.247,-0Z" style="fill-rule:nonzero;"/></g><g transform="matrix(10,0,0,10,-6.07,0)"><rect x="0.1" y="-0.688" width="0.086" height="0.688" style="fill-rule:nonzero;"/></g><g transform="matrix(10,0,0,10,-3.21,0)"><path d="M0.1,-0L0.1,-0.688L0.216,-0.688L0.451,-0.14L0.456,-0.14L0.69,-0.688L0.806,-0.688L0.806,-0L0.722,-0L0.722,-0.55L0.718,-0.55L0.483,-0L0.42,-0L0.185,-0.55L0.181,-0.55L0.181,-0L0.1,-0Z" style="fill-rule:nonzero;"/></g><g transform="matrix(10,0,0,10,5.85,0)"><path d="M0.1,-0L0.1,-0.688L0.547,-0.688L0.547,-0.614L0.186,-0.614L0.186,-0.385L0.5,-0.385L0.5,-0.31L0.186,-0.31L0.186,-0.074L0.547,-0.074L0.547,-0L0.1,-0Z" style="fill-rule:nonzero;"/></g></g></g><g id="rate" transform="matrix(1,0,0,1,-77.5,148.5)"><g id="controls-background1" serif:id="controls background" transform="matrix(1,0,0,1,126.505,1.5)"><g id="input"><g id="controls-background2" serif:id="controls background"><g transform="matrix(1,0,0,3.40799,-48.5101,-276.431)"><path d="M75,96.224C75.023,96.28 75.005,109.869 75.005,109.869" style="fill:none;stroke:white;stroke-width:1.19px;"/></g><g id="in-12" serif:id="in-1" transform="matrix(1.56522,0,0,1.56522,-14.9833,-10.3261)"><path d="M15,39.5C15,45.851 20.149,51 26.5,51C32.847,51 38,45.847 38,39.5C38,33.153 32.847,28 26.5,28C23.45,28 20.525,29.212 18.368,31.368C20.525,29.212 23.45,28 26.5,28C32.847,28 38,33.153 38,39.5C38,45.847 32.847,51 26.5,51C20.149,51 15,45.851 15,39.5Z" style="fill:none;stroke:white;stroke-width:1.28px;stroke-linecap:butt;stroke-miterlimit:2;"/></g><g id="in-13" serif:id="in-1" transform="matrix(1.26087,0,0,1.26087,-6.91804,1.69564)"><path d="M15,39.5C15,45.851 20.149,51 26.5,51C32.847,51 38,45.847 38,39.5C38,33.153 32.847,28 26.5,28C23.45,28 20.525,29.212 18.368,31.368C20.525,29.212 23.45,28 26.5,28C32.847,28 38,33.153 38,39.5C38,45.847 32.847,51 26.5,51C20.149,51 15,45.851 15,39.5Z" style="fill:none;stroke:white;stroke-width:1.59px;stroke-linecap:butt;stroke-miterlimit:2;"/></g></g></g></g><g id="text1" serif:id="text" transform="matrix(1,0,0,1,71.9752,-176.5)"><g transform="matrix(2.48684,0,0,0.0323094,15.353,249.312)"><path d="M33.447,106.4L33.447,276.629C33.447,323.605 32.951,361.744 32.341,361.744L20.478,361.744C19.868,361.744 19.373,323.605 19.373,276.629L19.373,106.4C19.373,59.424 19.868,21.285 20.478,21.285L32.341,21.285C32.951,21.285 33.447,59.424 33.447,106.4Z" style="fill:white;stroke:white;stroke-width:0.57px;"/></g><g transform="matrix(1,0,0,1,81.0358,258.94)"><g transform="matrix(10,0,0,10,-12.395,0)"><path d="M0.1,-0L0.1,-0.688L0.416,-0.688C0.459,-0.688 0.494,-0.683 0.52,-0.673C0.545,-0.662 0.564,-0.648 0.577,-0.629C0.589,-0.61 0.597,-0.587 0.601,-0.562C0.605,-0.537 0.607,-0.51 0.607,-0.481C0.607,-0.456 0.605,-0.431 0.601,-0.405C0.596,-0.378 0.587,-0.354 0.572,-0.333C0.557,-0.312 0.533,-0.296 0.501,-0.286L0.617,-0L0.525,-0L0.411,-0.289L0.435,-0.277C0.43,-0.276 0.425,-0.275 0.418,-0.274C0.411,-0.273 0.402,-0.273 0.391,-0.273L0.186,-0.273L0.186,-0L0.1,-0ZM0.186,-0.348L0.379,-0.348C0.412,-0.348 0.439,-0.351 0.458,-0.356C0.476,-0.361 0.491,-0.37 0.5,-0.381C0.509,-0.392 0.514,-0.406 0.517,-0.423C0.52,-0.439 0.521,-0.458 0.521,-0.481C0.521,-0.504 0.52,-0.523 0.518,-0.54C0.515,-0.556 0.51,-0.57 0.502,-0.581C0.493,-0.592 0.48,-0.6 0.462,-0.606C0.443,-0.611 0.418,-0.614 0.386,-0.614L0.186,-0.614L0.186,-0.348Z" style="fill-rule:nonzero;"/></g><g transform="matrix(10,0,0,10,-5.585,0)"><path d="M0.028,-0L0.288,-0.688L0.396,-0.688L0.655,-0L0.566,-0L0.495,-0.188L0.186,-0.188L0.115,-0L0.028,-0ZM0.212,-0.263L0.469,-0.263L0.343,-0.6L0.338,-0.6L0.212,-0.263Z" style="fill-rule:nonzero;"/></g><g transform="matrix(10,0,0,10,0.555,0)"><path d="M0.247,-0L0.247,-0.612L0.03,-0.612L0.03,-0.688L0.551,-0.688L0.551,-0.612L0.333,-0.612L0.333,-0L0.247,-0Z" style="fill-rule:nonzero;"/></g><g transform="matrix(10,0,0,10,6.365,0)"><path d="M0.1,-0L0.1,-0.688L0.547,-0.688L0.547,-0.614L0.186,-0.614L0.186,-0.385L0.5,-0.385L0.5,-0.31L0.186,-0.31L0.186,-0.074L0.547,-0.074L0.547,-0L0.1,-0Z" style="fill-rule:nonzero;"/></g></g></g></g><g id="reset" transform="matrix(1,0,0,1,7,13.5)"><g id="controls-background3" serif:id="controls background" transform="matrix(1,0,0,1,86,1.5)"><g id="output1" serif:id="output"><g id="controls-background4" serif:id="controls background"><g transform="matrix(1,0,0,3.40799,-48.5101,-276.431)"><path d="M75,119.698C75.023,119.754 75.01,109.869 75.01,109.869" style="fill:none;stroke:rgb(109,109,109);stroke-width:1.19px;"/></g><g id="in-32" serif:id="in-3" transform="matrix(1.56522,0,0,1.56522,-14.9783,-55.5435)"><path d="M15,119.5C15,125.851 20.149,131 26.5,131C32.847,131 38,125.847 38,119.5C38,113.153 32.847,108 26.5,108C23.45,108 20.525,109.212 18.368,111.368C20.525,109.212 23.45,108 26.5,108C32.847,108 38,113.153 38,119.5C38,125.847 32.847,131 26.5,131C20.149,131 15,125.851 15,119.5Z" style="fill:none;stroke:rgb(109,109,109);stroke-width:1.28px;stroke-linecap:butt;stroke-miterlimit:2;"/></g><g id="in-33" serif:id="in-3" transform="matrix(1.26087,0,0,1.26087,-6.91304,-19.1739)"><path d="M15,119.5C15,125.851 20.149,131 26.5,131C32.847,131 38,125.847 38,119.5C38,113.153 32.847,108 26.5,108C23.45,108 20.525,109.212 18.368,111.368C20.525,109.212 23.45,108 26.5,108C32.847,108 38,113.153 38,119.5C38,125.847 32.847,131 26.5,131C20.149,131 15,125.851 15,119.5Z" style="fill:none;stroke:rgb(109,109,109);stroke-width:1.59px;stroke-linecap:butt;stroke-miterlimit:2;"/></g></g></g></g><g id="controls-background5" serif:id="controls background" transform="matrix(1,0,0,1,86.005,1.5)"><g id="input1" serif:id="input"><g id="controls-background6" serif:id="controls background"><g transform="matrix(1,0,0,3.40799,-48.5,-276.431)"><path d="M75,96.224C75.023,96.28 74.995,109.869 74.995,109.869" style="fill:none;stroke:white;stroke-width:1.19px;"/></g><g id="in-14" serif:id="in-1" transform="matrix(1.56522,0,0,1.56522,-14.9833,-10.3261)"><path d="M15,39.5C15,45.851 20.149,51 26.5,51C32.847,51 38,45.847 38,39.5C38,33.153 32.847,28 26.5,28C23.45,28 20.525,29.212 18.368,31.368C20.525,29.212 23.45,28 26.5,28C32.847,28 38,33.153 38,39.5C38,45.847 32.847,51 26.5,51C20.149,51 15,45.851 15,39.5Z" style="fill:none;stroke:white;stroke-width:1.28px;stroke-linecap:butt;stroke-miterlimit:2;"/></g><g id="in-15" serif:id="in-1" transform="matrix(1.26087,0,0,1.26087,-6.91804,1.69564)"><path d="M15,39.5C15,45.851 20.149,51 26.5,51C32.847,51 38,45.847 38,39.5C38,33.153 32.847,28 26.5,28C23.45,28 20.525,29.212 18.368,31.368C20.525,29.212 23.45,28 26.5,28C32.847,28 38,33.153 38,39.5C38,45.847 32.847,51 26.5,51C20.149,51 15,45.851 15,39.5Z" style="fill:none;stroke:white;stroke-width:1.59px;stroke-linecap:butt;stroke-miterlimit:2;"/></g></g></g></g><g id="text2" serif:id="text" transform="matrix(1,0,0,1,31.4752,-176.5)"><g transform="matrix(2.48684,0,0,0.0323094,15.353,249.312)"><path d="M33.447,106.4L33.447,276.629C33.447,323.605 32.951,361.744 32.341,361.744L20.478,361.744C19.868,361.744 19.373,323.605 19.373,276.629L19.373,106.4C19.373,59.424 19.868,21.285 20.478,21.285L32.341,21.285C32.951,21.285 33.447,59.424 33.447,106.4Z" style="fill:white;stroke:white;stroke-width:0.57px;"/></g><g transform="matrix(1,0,0,1,81.0358,258.94)"><g transform="matrix(10,0,0,10,-15.48,0)"><path d="M0.1,-0L0.1,-0.688L0.416,-0.688C0.459,-0.688 0.494,-0.683 0.52,-0.673C0.545,-0.662 0.564,-0.648 0.577,-0.629C0.589,-0.61 0.597,-0.587 0.601,-0.562C0.605,-0.537 0.607,-0.51 0.607,-0.481C0.607,-0.456 0.605,-0.431 0.601,-0.405C0.596,-0.378 0.587,-0.354 0.572,-0.333C0.557,-0.312 0.533,-0.296 0.501,-0.286L0.617,-0L0.525,-0L0.411,-0.289L0.435,-0.277C0.43,-0.276 0.425,-0.275 0.418,-0.274C0.411,-0.273 0.402,-0.273 0.391,-0.273L0.186,-0.273L0.186,-0L0.1,-0ZM0.186,-0.348L0.379,-0.348C0.412,-0.348 0.439,-0.351 0.458,-0.356C0.476,-0.361 0.491,-0.37 0.5,-0.381C0.509,-0.392 0.514,-0.406 0.517,-0.423C0.52,-0.439 0.521,-0.458 0.521,-0.481C0.521,-0.504 0.52,-0.523 0.518,-0.54C0.515,-0.556 0.51,-0.57 0.502,-0.581C0.493,-0.592 0.48,-0.6 0.462,-0.606C0.443,-0.611 0.418,-0.614 0.386,-0.614L0.186,-0.614L0.186,-0.348Z" style="fill-rule:nonzero;"/></g><g transform="matrix(10,0,0,10,-8.67,0)"><path d="M0.1,-0L0.1,-0.688L0.547,-0.688L0.547,-0.614L0.186,-0.614L0.186,-0.385L0.5,-0.385L0.5,-0.31L0.186,-0.31L0.186,-0.074L0.547,-0.074L0.547,-0L0.1,-0Z" style="fill-rule:nonzero;"/></g><g transform="matrix(10,0,0,10,-2.64,0)"><path d="M0.329,0.008C0.304,0.008 0.277,0.007 0.248,0.006C0.219,0.005 0.19,0.003 0.163,0.001C0.135,-0.001 0.11,-0.003 0.087,-0.006L0.087,-0.079C0.111,-0.077 0.136,-0.075 0.163,-0.073C0.189,-0.071 0.215,-0.069 0.24,-0.068C0.265,-0.067 0.286,-0.066 0.303,-0.066C0.338,-0.066 0.367,-0.068 0.388,-0.071C0.409,-0.074 0.427,-0.079 0.442,-0.088C0.452,-0.094 0.459,-0.102 0.464,-0.112C0.469,-0.122 0.472,-0.134 0.473,-0.147C0.474,-0.16 0.474,-0.175 0.474,-0.19C0.474,-0.213 0.473,-0.231 0.472,-0.245C0.471,-0.259 0.467,-0.27 0.462,-0.278C0.456,-0.285 0.447,-0.291 0.434,-0.295C0.421,-0.298 0.404,-0.301 0.383,-0.303L0.212,-0.322C0.18,-0.326 0.154,-0.333 0.135,-0.343C0.116,-0.352 0.101,-0.365 0.092,-0.38C0.082,-0.395 0.075,-0.413 0.072,-0.434C0.069,-0.455 0.067,-0.478 0.067,-0.504C0.067,-0.546 0.073,-0.58 0.084,-0.605C0.095,-0.63 0.111,-0.65 0.132,-0.663C0.153,-0.676 0.179,-0.685 0.21,-0.69C0.24,-0.694 0.275,-0.696 0.314,-0.696C0.339,-0.696 0.365,-0.695 0.392,-0.694C0.419,-0.693 0.444,-0.691 0.468,-0.689C0.491,-0.686 0.511,-0.683 0.526,-0.68L0.526,-0.609C0.509,-0.612 0.489,-0.614 0.466,-0.616C0.443,-0.618 0.42,-0.62 0.397,-0.621C0.373,-0.622 0.35,-0.622 0.329,-0.622C0.292,-0.622 0.263,-0.62 0.24,-0.617C0.217,-0.614 0.199,-0.608 0.186,-0.599C0.171,-0.59 0.162,-0.578 0.159,-0.563C0.155,-0.547 0.153,-0.528 0.153,-0.506C0.153,-0.48 0.155,-0.46 0.159,-0.446C0.162,-0.431 0.17,-0.421 0.183,-0.416C0.195,-0.41 0.213,-0.406 0.238,-0.403L0.405,-0.384C0.429,-0.382 0.45,-0.379 0.469,-0.375C0.487,-0.37 0.503,-0.363 0.516,-0.353C0.529,-0.343 0.539,-0.329 0.546,-0.31C0.55,-0.301 0.553,-0.29 0.555,-0.279C0.557,-0.268 0.559,-0.255 0.56,-0.242C0.561,-0.228 0.561,-0.213 0.561,-0.196C0.561,-0.158 0.557,-0.127 0.55,-0.102C0.543,-0.077 0.532,-0.057 0.519,-0.042C0.506,-0.027 0.489,-0.016 0.47,-0.009C0.451,-0.002 0.429,0.003 0.406,0.005C0.382,0.007 0.356,0.008 0.329,0.008Z" style="fill-rule:nonzero;"/></g><g transform="matrix(10,0,0,10,3.64,0)"><path d="M0.1,-0L0.1,-0.688L0.547,-0.688L0.547,-0.614L0.186,-0.614L0.186,-0.385L0.5,-0.385L0.5,-0.31L0.186,-0.31L0.186,-0.074L0.547,-0.074L0.547,-0L0.1,-0Z" style="fill-rule:nonzero;"/></g><g transform="matrix(10,0,0,10,9.67,0)"><path d="M0.247,-0L0.247,-0.612L0.03,-0.612L0.03,-0.688L0.551,-0.688L0.551,-0.612L0.333,-0.612L0.333,-0L0.247,-0Z" style="fill-rule:nonzero;"/></g></g></g></g><g id="run" transform="matrix(1,0,0,1,3.5,13.5)"><g id="output2" serif:id="output" transform="matrix(1,0,0,1,45.5,1.5)"><g transform="matrix(1,0,0,3.40799,-48.505,-276.431)"><path d="M75,119.698C75.023,119.754 75.005,109.869 75.005,109.869" style="fill:none;stroke:rgb(109,109,109);stroke-width:1.19px;"/></g><g id="in-34" serif:id="in-3" transform="matrix(1.56522,0,0,1.56522,-14.9783,-55.5435)"><path d="M15,119.5C15,125.851 20.149,131 26.5,131C32.847,131 38,125.847 38,119.5C38,113.153 32.847,108 26.5,108C23.45,108 20.525,109.212 18.368,111.368C20.525,109.212 23.45,108 26.5,108C32.847,108 38,113.153 38,119.5C38,125.847 32.847,131 26.5,131C20.149,131 15,125.851 15,119.5Z" style="fill:none;stroke:rgb(109,109,109);stroke-width:1.28px;stroke-linecap:butt;stroke-miterlimit:2;"/></g><g id="in-35" serif:id="in-3" transform="matrix(1.26087,0,0,1.26087,-6.91304,-19.1739)"><path d="M15,119.5C15,125.851 20.149,131 26.5,131C32.847,131 38,125.847 38,119.5C38,113.153 32.847,108 26.5,108C23.45,108 20.525,109.212 18.368,111.368C20.525,109.212 23.45,108 26.5,108C32.847,108 38,113.153 38,119.5C38,125.847 32.847,131 26.5,131C20.149,131 15,125.851 15,119.5Z" style="fill:none;stroke:rgb(109,109,109);stroke-width:1.59px;stroke-linecap:butt;stroke-miterlimit:2;"/></g></g><g id="input2" serif:id="input" transform="matrix(1,0,0,1,45.505,1.5)"><g id="input3" serif:id="input"><g id="input4" serif:id="input"><g transform="matrix(1,0,0,3.40799,-48.51,-276.431)"><path d="M75.005,96.224C75.028,96.28 75.005,109.869 75.005,109.869" style="fill:none;stroke:white;stroke-width:1.19px;"/></g><g id="in-16" serif:id="in-1" transform="matrix(1.56522,0,0,1.56522,-14.9833,-10.3261)"><path d="M15,39.5C15,45.851 20.149,51 26.5,51C32.847,51 38,45.847 38,39.5C38,33.153 32.847,28 26.5,28C23.45,28 20.525,29.212 18.368,31.368C20.525,29.212 23.45,28 26.5,28C32.847,28 38,33.153 38,39.5C38,45.847 32.847,51 26.5,51C20.149,51 15,45.851 15,39.5Z" style="fill:none;stroke:white;stroke-width:1.28px;stroke-linecap:butt;stroke-miterlimit:2;"/></g><g id="in-17" serif:id="in-1" transform="matrix(1.26087,0,0,1.26087,-6.91804,1.69564)"><path d="M15,39.5C15,45.851 20.149,51 26.5,51C32.847,51 38,45.847 38,39.5C38,33.153 32.847,28 26.5,28C23.45,28 20.525,29.212 18.368,31.368C20.525,29.212 23.45,28 26.5,28C32.847,28 38,33.153 38,39.5C38,45.847 32.847,51 26.5,51C20.149,51 15,45.851 15,39.5Z" style="fill:none;stroke:white;stroke-width:1.59px;stroke-linecap:butt;stroke-miterlimit:2;"/></g></g></g></g><g id="text3" serif:id="text" transform="matrix(1,0,0,1,-9.0298,-176.5)"><g transform="matrix(2.48684,0,0,0.0323094,15.353,249.312)"><path d="M33.447,106.4L33.447,276.629C33.447,323.605 32.951,361.744 32.341,361.744L20.478,361.744C19.868,361.744 19.373,323.605 19.373,276.629L19.373,106.4C19.373,59.424 19.868,21.285 20.478,21.285L32.341,21.285C32.951,21.285 33.447,59.424 33.447,106.4Z" style="fill:white;stroke:white;stroke-width:0.57px;"/></g><g transform="matrix(1,0,0,1,81.0358,258.9)"><g transform="matrix(10,0,0,10,-10.6,0)"><path d="M0.1,-0L0.1,-0.688L0.416,-0.688C0.459,-0.688 0.494,-0.683 0.52,-0.673C0.545,-0.662 0.564,-0.648 0.577,-0.629C0.589,-0.61 0.597,-0.587 0.601,-0.562C0.605,-0.537 0.607,-0.51 0.607,-0.481C0.607,-0.456 0.605,-0.431 0.601,-0.405C0.596,-0.378 0.587,-0.354 0.572,-0.333C0.557,-0.312 0.533,-0.296 0.501,-0.286L0.617,-0L0.525,-0L0.411,-0.289L0.435,-0.277C0.43,-0.276 0.425,-0.275 0.418,-0.274C0.411,-0.273 0.402,-0.273 0.391,-0.273L0.186,-0.273L0.186,-0L0.1,-0ZM0.186,-0.348L0.379,-0.348C0.412,-0.348 0.439,-0.351 0.458,-0.356C0.476,-0.361 0.491,-0.37 0.5,-0.381C0.509,-0.392 0.514,-0.406 0.517,-0.423C0.52,-0.439 0.521,-0.458 0.521,-0.481C0.521,-0.504 0.52,-0.523 0.518,-0.54C0.515,-0.556 0.51,-0.57 0.502,-0.581C0.493,-0.592 0.48,-0.6 0.462,-0.606C0.443,-0.611 0.418,-0.614 0.386,-0.614L0.186,-0.614L0.186,-0.348Z" style="fill-rule:nonzero;"/></g><g transform="matrix(10,0,0,10,-3.79,0)"><path d="M0.355,0.008C0.308,0.008 0.268,0.005 0.237,-0.001C0.205,-0.006 0.179,-0.016 0.16,-0.029C0.141,-0.042 0.126,-0.061 0.116,-0.085C0.106,-0.108 0.099,-0.138 0.096,-0.173C0.093,-0.208 0.091,-0.251 0.091,-0.301L0.091,-0.688L0.177,-0.688L0.177,-0.267C0.177,-0.225 0.179,-0.191 0.182,-0.165C0.185,-0.139 0.193,-0.119 0.204,-0.104C0.215,-0.089 0.232,-0.079 0.256,-0.074C0.28,-0.069 0.313,-0.066 0.355,-0.066C0.397,-0.066 0.43,-0.069 0.454,-0.074C0.477,-0.079 0.495,-0.089 0.506,-0.104C0.517,-0.119 0.523,-0.139 0.526,-0.165C0.529,-0.191 0.53,-0.225 0.53,-0.267L0.53,-0.688L0.616,-0.688L0.616,-0.301C0.616,-0.251 0.615,-0.208 0.612,-0.173C0.608,-0.138 0.602,-0.108 0.593,-0.085C0.583,-0.061 0.568,-0.042 0.549,-0.029C0.53,-0.016 0.504,-0.006 0.473,-0.001C0.441,0.005 0.402,0.008 0.355,0.008Z" style="fill-rule:nonzero;"/></g><g transform="matrix(10,0,0,10,3.29,0)"><path d="M0.1,-0L0.1,-0.688L0.188,-0.688L0.545,-0.161L0.549,-0.161L0.549,-0.688L0.632,-0.688L0.632,-0L0.549,-0L0.187,-0.537L0.183,-0.537L0.183,-0L0.1,-0Z" style="fill-rule:nonzero;"/></g></g></g><g id="Loaded-LED" serif:id="Loaded LED" transform="matrix(0.596842,0,0,1.70526,14.4711,48.7857)"><ellipse cx="72.094" cy="16.252" rx="3.351" ry="1.173" style="fill:rgb(42,42,42);"/></g></g><g id="input5" serif:id="input" transform="matrix(1,0,0,1,-2.5,-10)"><g id="controls-background7" serif:id="controls background"><g transform="matrix(0.78158,0,0,0.916412,5.85871,29.4938)"><path d="M33.447,24.286L33.447,358.743C33.447,360.399 31.87,361.744 29.928,361.744L22.891,361.744C20.949,361.744 19.373,360.399 19.373,358.743L19.373,24.286C19.373,22.63 20.949,21.285 22.891,21.285L29.928,21.285C31.87,21.285 33.447,22.63 33.447,24.286Z" style="fill:white;stroke:white;stroke-width:1.17px;"/></g><g id="in-82" serif:id="in-8" transform="matrix(1.56522,0,0,1.56522,-14.9783,-168.587)"><path d="M15,319.5C15,325.851 20.149,331 26.5,331C32.847,331 38,325.847 38,319.5C38,313.153 32.847,308 26.5,308C23.45,308 20.525,309.212 18.368,311.368C20.525,309.212 23.45,308 26.5,308C32.847,308 38,313.153 38,319.5C38,325.847 32.847,331 26.5,331C20.149,331 15,325.851 15,319.5Z" style="fill:none;stroke:white;stroke-width:1.28px;stroke-linecap:butt;stroke-miterlimit:2;"/></g><g id="in-72" serif:id="in-7" transform="matrix(1.56522,0,0,1.56522,-14.9783,-145.978)"><path d="M15,279.5C15,285.851 20.149,291 26.5,291C32.847,291 38,285.847 38,279.5C38,273.153 32.847,268 26.5,268C23.45,268 20.525,269.212 18.368,271.368C20.525,269.212 23.45,268 26.5,268C32.847,268 38,273.153 38,279.5C38,285.847 32.847,291 26.5,291C20.149,291 15,285.851 15,279.5Z" style="fill:none;stroke:white;stroke-width:1.28px;stroke-linecap:butt;stroke-miterlimit:2;"/></g><g id="in-62" serif:id="in-6" transform="matrix(1.56522,0,0,1.56522,-14.9783,-123.37)"><path d="M15,239.5C15,245.851 20.149,251 26.5,251C32.847,251 38,245.847 38,239.5C38,233.153 32.847,228 26.5,228C23.45,228 20.525,229.212 18.368,231.368C20.525,229.212 23.45,228 26.5,228C32.847,228 38,233.153 38,239.5C38,245.847 32.847,251 26.5,251C20.149,251 15,245.851 15,239.5Z" style="fill:none;stroke:white;stroke-width:1.28px;stroke-linecap:butt;stroke-miterlimit:2;"/></g><g id="in-52" serif:id="in-5" transform="matrix(1.56522,0,0,1.56522,-14.9783,-100.761)"><path d="M15,199.5C15,205.851 20.149,211 26.5,211C32.847,211 38,205.847 38,199.5C38,193.153 32.847,188 26.5,188C23.45,188 20.525,189.212 18.368,191.368C20.525,189.212 23.45,188 26.5,188C32.847,188 38,193.153 38,199.5C38,205.847 32.847,211 26.5,211C20.149,211 15,205.851 15,199.5Z" style="fill:none;stroke:white;stroke-width:1.28px;stroke-linecap:butt;stroke-miterlimit:2;"/></g><g id="in-42" serif:id="in-4" transform="matrix(1.56522,0,0,1.56522,-14.9783,-78.1522)"><path d="M15,159.5C15,165.851 20.149,171 26.5,171C32.847,171 38,165.847 38,159.5C38,153.153 32.847,148 26.5,148C23.45,148 20.525,149.212 18.368,151.368C20.525,149.212 23.45,148 26.5,148C32.847,148 38,153.153 38,159.5C38,165.847 32.847,171 26.5,171C20.149,171 15,165.851 15,159.5Z" style="fill:none;stroke:white;stroke-width:1.28px;stroke-linecap:butt;stroke-miterlimit:2;"/></g><g id="in-36" serif:id="in-3" transform="matrix(1.56522,0,0,1.56522,-14.9783,-55.5435)"><path d="M15,119.5C15,125.851 20.149,131 26.5,131C32.847,131 38,125.847 38,119.5C38,113.153 32.847,108 26.5,108C23.45,108 20.525,109.212 18.368,111.368C20.525,109.212 23.45,108 26.5,108C32.847,108 38,113.153 38,119.5C38,125.847 32.847,131 26.5,131C20.149,131 15,125.851 15,119.5Z" style="fill:none;stroke:white;stroke-width:1.28px;stroke-linecap:butt;stroke-miterlimit:2;"/></g><g id="in-22" serif:id="in-2" transform="matrix(1.56522,0,0,1.56522,-14.9783,-32.9348)"><path d="M15,79.5C15,85.851 20.149,91 26.5,91C32.847,91 38,85.847 38,79.5C38,73.153 32.847,68 26.5,68C23.45,68 20.525,69.212 18.368,71.368C20.525,69.212 23.45,68 26.5,68C32.847,68 38,73.153 38,79.5C38,85.847 32.847,91 26.5,91C20.149,91 15,85.851 15,79.5Z" style="fill:none;stroke:white;stroke-width:1.28px;stroke-linecap:butt;stroke-miterlimit:2;"/></g><g id="in-83" serif:id="in-8" transform="matrix(1.26087,0,0,1.26087,-6.91304,-71.3478)"><path d="M15,319.5C15,325.851 20.149,331 26.5,331C32.847,331 38,325.847 38,319.5C38,313.153 32.847,308 26.5,308C23.45,308 20.525,309.212 18.368,311.368C20.525,309.212 23.45,308 26.5,308C32.847,308 38,313.153 38,319.5C38,325.847 32.847,331 26.5,331C20.149,331 15,325.851 15,319.5Z" style="fill:none;stroke:white;stroke-width:1.59px;stroke-linecap:butt;stroke-miterlimit:2;"/></g><g id="in-73" serif:id="in-7" transform="matrix(1.26087,0,0,1.26087,-6.91304,-60.9131)"><path d="M15,279.5C15,285.851 20.149,291 26.5,291C32.847,291 38,285.847 38,279.5C38,273.153 32.847,268 26.5,268C23.45,268 20.525,269.212 18.368,271.368C20.525,269.212 23.45,268 26.5,268C32.847,268 38,273.153 38,279.5C38,285.847 32.847,291 26.5,291C20.149,291 15,285.851 15,279.5Z" style="fill:none;stroke:white;stroke-width:1.59px;stroke-linecap:butt;stroke-miterlimit:2;"/></g><g id="in-63" serif:id="in-6" transform="matrix(1.26087,0,0,1.26087,-6.91304,-50.4783)"><path d="M15,239.5C15,245.851 20.149,251 26.5,251C32.847,251 38,245.847 38,239.5C38,233.153 32.847,228 26.5,228C23.45,228 20.525,229.212 18.368,231.368C20.525,229.212 23.45,228 26.5,228C32.847,228 38,233.153 38,239.5C38,245.847 32.847,251 26.5,251C20.149,251 15,245.851 15,239.5Z" style="fill:none;stroke:white;stroke-width:1.59px;stroke-linecap:butt;stroke-miterlimit:2;"/></g><g id="in-53" serif:id="in-5" transform="matrix(1.26087,0,0,1.26087,-6.91304,-40.0435)"><path d="M15,199.5C15,205.851 20.149,211 26.5,211C32.847,211 38,205.847 38,199.5C38,193.153 32.847,188 26.5,188C23.45,188 20.525,189.212 18.368,191.368C20.525,189.212 23.45,188 26.5,188C32.847,188 38,193.153 38,199.5C38,205.847 32.847,211 26.5,211C20.149,211 15,205.851 15,199.5Z" style="fill:none;stroke:white;stroke-width:1.59px;stroke-linecap:butt;stroke-miterlimit:2;"/></g><g id="in-43" serif:id="in-4" transform="matrix(1.26087,0,0,1.26087,-6.91304,-29.6087)"><path d="M15,159.5C15,165.851 20.149,171 26.5,171C32.847,171 38,165.847 38,159.5C38,153.153 32.847,148 26.5,148C23.45,148 20.525,149.212 18.368,151.368C20.525,149.212 23.45,148 26.5,148C32.847,148 38,153.153 38,159.5C38,165.847 32.847,171 26.5,171C20.149,171 15,165.851 15,159.5Z" style="fill:none;stroke:white;stroke-width:1.59px;stroke-linecap:butt;stroke-miterlimit:2;"/></g><g id="in-37" serif:id="in-3" transform="matrix(1.26087,0,0,1.26087,-6.91304,-19.1739)"><path d="M15,119.5C15,125.851 20.149,131 26.5,131C32.847,131 38,125.847 38,119.5C38,113.153 32.847,108 26.5,108C23.45,108 20.525,109.212 18.368,111.368C20.525,109.212 23.45,108 26.5,108C32.847,108 38,113.153 38,119.5C38,125.847 32.847,131 26.5,131C20.149,131 15,125.851 15,119.5Z" style="fill:none;stroke:white;stroke-width:1.59px;stroke-linecap:butt;stroke-miterlimit:2;"/></g><g id="in-23" serif:id="in-2" transform="matrix(1.26087,0,0,1.26087,-6.91304,-8.73914)"><path d="M15,79.5C15,85.851 20.149,91 26.5,91C32.847,91 38,85.847 38,79.5C38,73.153 32.847,68 26.5,68C23.45,68 20.525,69.212 18.368,71.368C20.525,69.212 23.45,68 26.5,68C32.847,68 38,73.153 38,79.5C38,85.847 32.847,91 26.5,91C20.149,91 15,85.851 15,79.5Z" style="fill:none;stroke:white;stroke-width:1.59px;stroke-linecap:butt;stroke-miterlimit:2;"/></g><g id="in-18" serif:id="in-1" transform="matrix(1.56522,0,0,1.56522,-14.9783,-10.3261)"><path d="M15,39.5C15,45.851 20.149,51 26.5,51C32.847,51 38,45.847 38,39.5C38,33.153 32.847,28 26.5,28C23.45,28 20.525,29.212 18.368,31.368C20.525,29.212 23.45,28 26.5,28C32.847,28 38,33.153 38,39.5C38,45.847 32.847,51 26.5,51C20.149,51 15,45.851 15,39.5Z" style="fill:none;stroke:white;stroke-width:1.28px;stroke-linecap:butt;stroke-miterlimit:2;"/></g><g id="in-19" serif:id="in-1" transform="matrix(1.26087,0,0,1.26087,-6.91304,1.69564)"><path d="M15,39.5C15,45.851 20.149,51 26.5,51C32.847,51 38,45.847 38,39.5C38,33.153 32.847,28 26.5,28C23.45,28 20.525,29.212 18.368,31.368C20.525,29.212 23.45,28 26.5,28C32.847,28 38,33.153 38,39.5C38,45.847 32.847,51 26.5,51C20.149,51 15,45.851 15,39.5Z" style="fill:none;stroke:white;stroke-width:1.59px;stroke-linecap:butt;stroke-miterlimit:2;"/></g></g><g id="text4" serif:id="text" transform="matrix(1,0,0,1,42.4702,14.5)"><g transform="matrix(1,0,0,1,-15.9642,339.848)"><g transform="matrix(11,0,0,11,-3.7565,0)"><path d="M0.341,0.008C0.285,0.008 0.239,0.004 0.204,-0.005C0.169,-0.013 0.142,-0.025 0.123,-0.042C0.104,-0.058 0.092,-0.078 0.085,-0.102C0.078,-0.125 0.074,-0.153 0.074,-0.184C0.074,-0.223 0.079,-0.254 0.089,-0.276C0.098,-0.297 0.112,-0.313 0.131,-0.324C0.15,-0.335 0.172,-0.343 0.199,-0.349L0.199,-0.353C0.158,-0.361 0.128,-0.378 0.109,-0.403C0.09,-0.428 0.08,-0.465 0.08,-0.515C0.08,-0.546 0.084,-0.572 0.092,-0.595C0.1,-0.618 0.114,-0.636 0.133,-0.652C0.152,-0.667 0.179,-0.678 0.213,-0.685C0.247,-0.692 0.29,-0.696 0.341,-0.696C0.392,-0.696 0.435,-0.692 0.469,-0.685C0.503,-0.678 0.53,-0.667 0.549,-0.652C0.568,-0.636 0.582,-0.618 0.59,-0.595C0.598,-0.572 0.602,-0.546 0.602,-0.515C0.602,-0.465 0.592,-0.428 0.573,-0.403C0.554,-0.378 0.524,-0.361 0.483,-0.353L0.483,-0.349C0.51,-0.343 0.533,-0.335 0.552,-0.324C0.57,-0.313 0.584,-0.297 0.594,-0.276C0.603,-0.254 0.608,-0.223 0.608,-0.184C0.608,-0.153 0.604,-0.125 0.598,-0.102C0.591,-0.078 0.578,-0.058 0.559,-0.042C0.54,-0.025 0.513,-0.013 0.478,-0.005C0.443,0.004 0.398,0.008 0.341,0.008ZM0.341,-0.066C0.387,-0.066 0.423,-0.069 0.449,-0.075C0.475,-0.08 0.494,-0.092 0.505,-0.109C0.516,-0.126 0.521,-0.152 0.521,-0.187C0.521,-0.214 0.518,-0.236 0.513,-0.253C0.508,-0.269 0.499,-0.281 0.486,-0.29C0.472,-0.299 0.454,-0.304 0.431,-0.307C0.408,-0.31 0.378,-0.311 0.341,-0.311C0.304,-0.311 0.274,-0.31 0.251,-0.307C0.228,-0.304 0.21,-0.299 0.197,-0.29C0.184,-0.281 0.174,-0.269 0.17,-0.253C0.165,-0.236 0.162,-0.214 0.162,-0.187C0.162,-0.152 0.167,-0.126 0.178,-0.109C0.189,-0.092 0.207,-0.08 0.233,-0.075C0.259,-0.069 0.295,-0.066 0.341,-0.066ZM0.341,-0.385C0.388,-0.385 0.424,-0.388 0.449,-0.395C0.474,-0.401 0.491,-0.413 0.501,-0.43C0.51,-0.447 0.515,-0.471 0.515,-0.503C0.515,-0.535 0.511,-0.56 0.502,-0.577C0.493,-0.594 0.475,-0.605 0.451,-0.612C0.426,-0.619 0.389,-0.622 0.341,-0.622C0.293,-0.622 0.257,-0.619 0.232,-0.612C0.207,-0.605 0.19,-0.594 0.181,-0.577C0.172,-0.56 0.168,-0.535 0.168,-0.503C0.168,-0.471 0.173,-0.447 0.182,-0.43C0.191,-0.413 0.209,-0.401 0.234,-0.395C0.259,-0.388 0.294,-0.385 0.341,-0.385Z" style="fill-rule:nonzero;"/></g></g><g transform="matrix(1,0,0,1,-15.9642,299.848)"><g transform="matrix(11,0,0,11,-3.0965,0)"><path d="M0.139,-0L0.419,-0.613L0.041,-0.613L0.041,-0.688L0.514,-0.688L0.514,-0.621L0.235,-0L0.139,-0Z" style="fill-rule:nonzero;"/></g></g><g transform="matrix(1,0,0,1,-15.9642,259.848)"><g transform="matrix(11,0,0,11,-3.6135,0)"><path d="M0.347,0.008C0.301,0.008 0.262,0.006 0.23,0.002C0.197,-0.003 0.17,-0.012 0.15,-0.027C0.129,-0.041 0.112,-0.063 0.101,-0.093C0.094,-0.108 0.089,-0.127 0.086,-0.15C0.083,-0.173 0.08,-0.2 0.079,-0.231C0.077,-0.262 0.076,-0.297 0.076,-0.337C0.076,-0.374 0.077,-0.407 0.079,-0.437C0.08,-0.467 0.083,-0.494 0.087,-0.517C0.09,-0.54 0.095,-0.561 0.101,-0.579C0.112,-0.61 0.129,-0.634 0.15,-0.651C0.171,-0.668 0.199,-0.679 0.232,-0.686C0.265,-0.693 0.306,-0.696 0.354,-0.696C0.371,-0.696 0.392,-0.695 0.415,-0.694C0.438,-0.692 0.462,-0.69 0.487,-0.687C0.511,-0.684 0.535,-0.681 0.558,-0.678L0.558,-0.609C0.537,-0.612 0.516,-0.614 0.493,-0.616C0.47,-0.617 0.448,-0.619 0.427,-0.62C0.405,-0.621 0.387,-0.622 0.372,-0.622C0.325,-0.622 0.288,-0.619 0.261,-0.612C0.233,-0.605 0.212,-0.593 0.198,-0.575C0.184,-0.557 0.175,-0.531 0.17,-0.497C0.165,-0.462 0.163,-0.417 0.163,-0.361L0.169,-0.361C0.176,-0.369 0.187,-0.377 0.2,-0.385C0.213,-0.392 0.233,-0.399 0.259,-0.404C0.284,-0.409 0.319,-0.411 0.362,-0.411C0.404,-0.411 0.44,-0.409 0.47,-0.404C0.5,-0.399 0.524,-0.39 0.543,-0.377C0.562,-0.364 0.575,-0.344 0.584,-0.319C0.592,-0.294 0.596,-0.26 0.596,-0.218C0.596,-0.174 0.593,-0.137 0.587,-0.108C0.58,-0.079 0.568,-0.056 0.55,-0.039C0.532,-0.022 0.507,-0.01 0.474,-0.003C0.441,0.004 0.399,0.008 0.347,0.008ZM0.339,-0.066C0.374,-0.066 0.402,-0.067 0.425,-0.07C0.448,-0.073 0.465,-0.079 0.478,-0.088C0.491,-0.097 0.499,-0.11 0.504,-0.127C0.509,-0.144 0.511,-0.168 0.511,-0.199C0.511,-0.231 0.509,-0.256 0.504,-0.275C0.499,-0.294 0.491,-0.308 0.479,-0.317C0.467,-0.326 0.45,-0.331 0.427,-0.334C0.404,-0.336 0.375,-0.337 0.339,-0.337C0.3,-0.337 0.268,-0.335 0.245,-0.331C0.222,-0.327 0.204,-0.321 0.194,-0.312C0.183,-0.303 0.175,-0.291 0.172,-0.277C0.168,-0.263 0.166,-0.246 0.166,-0.226C0.166,-0.189 0.169,-0.16 0.175,-0.139C0.18,-0.118 0.19,-0.102 0.203,-0.091C0.216,-0.08 0.233,-0.074 0.255,-0.071C0.277,-0.068 0.305,-0.066 0.339,-0.066Z" style="fill-rule:nonzero;"/></g></g><g transform="matrix(1,0,0,1,-15.9642,219.848)"><g transform="matrix(11,0,0,11,-3.4045,0)"><path d="M0.287,0.008C0.266,0.008 0.244,0.007 0.219,0.006C0.194,0.004 0.17,0.002 0.146,-0.001C0.122,-0.003 0.101,-0.006 0.082,-0.009L0.082,-0.078C0.105,-0.076 0.129,-0.074 0.154,-0.072C0.179,-0.07 0.202,-0.069 0.224,-0.068C0.246,-0.067 0.265,-0.066 0.281,-0.066C0.318,-0.066 0.349,-0.068 0.373,-0.073C0.396,-0.077 0.415,-0.084 0.428,-0.095C0.44,-0.105 0.45,-0.119 0.455,-0.137C0.46,-0.154 0.463,-0.176 0.463,-0.203C0.463,-0.232 0.46,-0.256 0.455,-0.274C0.449,-0.291 0.439,-0.304 0.425,-0.313C0.41,-0.322 0.39,-0.328 0.365,-0.331C0.34,-0.334 0.307,-0.335 0.267,-0.335C0.254,-0.335 0.237,-0.335 0.218,-0.334C0.198,-0.333 0.177,-0.331 0.155,-0.329C0.133,-0.327 0.111,-0.325 0.09,-0.322L0.09,-0.688L0.499,-0.688L0.499,-0.613L0.169,-0.613L0.169,-0.399C0.182,-0.401 0.198,-0.403 0.216,-0.405C0.233,-0.406 0.251,-0.407 0.27,-0.408C0.288,-0.409 0.305,-0.409 0.321,-0.409C0.37,-0.409 0.41,-0.405 0.44,-0.397C0.47,-0.389 0.493,-0.377 0.509,-0.36C0.524,-0.343 0.535,-0.322 0.541,-0.298C0.547,-0.273 0.55,-0.245 0.55,-0.213C0.55,-0.172 0.546,-0.138 0.539,-0.11C0.531,-0.081 0.518,-0.059 0.499,-0.042C0.48,-0.025 0.453,-0.012 0.419,-0.004C0.385,0.004 0.341,0.008 0.287,0.008Z" style="fill-rule:nonzero;"/></g></g><g transform="matrix(1,0,0,1,-15.9642,179.848)"><g transform="matrix(11,0,0,11,-3.531,0)"><path d="M0.409,-0L0.409,-0.161L0.046,-0.161L0.046,-0.227L0.315,-0.688L0.41,-0.688L0.142,-0.235L0.41,-0.235L0.428,-0.48L0.495,-0.48L0.495,-0.235L0.597,-0.235L0.597,-0.161L0.495,-0.161L0.495,-0L0.409,-0Z" style="fill-rule:nonzero;"/></g></g><g transform="matrix(1,0,0,1,-15.9642,139.848)"><g transform="matrix(11,0,0,11,-3.3055,0)"><path d="M0.264,0.008C0.243,0.008 0.221,0.007 0.196,0.006C0.171,0.004 0.146,0.002 0.123,-0.001C0.099,-0.004 0.078,-0.006 0.06,-0.009L0.06,-0.078C0.083,-0.076 0.106,-0.074 0.131,-0.072C0.156,-0.07 0.179,-0.069 0.201,-0.068C0.223,-0.067 0.242,-0.066 0.258,-0.066C0.297,-0.066 0.331,-0.069 0.358,-0.074C0.385,-0.079 0.406,-0.09 0.42,-0.107C0.433,-0.124 0.44,-0.15 0.44,-0.187C0.44,-0.218 0.436,-0.242 0.427,-0.261C0.418,-0.279 0.404,-0.292 0.385,-0.3C0.366,-0.307 0.34,-0.311 0.308,-0.311L0.179,-0.311L0.179,-0.386L0.308,-0.386C0.331,-0.386 0.351,-0.389 0.37,-0.395C0.389,-0.401 0.404,-0.412 0.415,-0.429C0.426,-0.446 0.432,-0.47 0.432,-0.503C0.432,-0.539 0.426,-0.565 0.414,-0.582C0.402,-0.599 0.383,-0.61 0.356,-0.615C0.329,-0.62 0.293,-0.622 0.248,-0.622C0.23,-0.622 0.21,-0.621 0.188,-0.62C0.166,-0.619 0.144,-0.617 0.123,-0.616C0.101,-0.614 0.081,-0.612 0.064,-0.609L0.064,-0.679C0.082,-0.682 0.103,-0.685 0.126,-0.688C0.149,-0.69 0.173,-0.692 0.198,-0.694C0.223,-0.695 0.245,-0.696 0.265,-0.696C0.314,-0.696 0.354,-0.692 0.387,-0.685C0.42,-0.678 0.446,-0.667 0.465,-0.652C0.484,-0.637 0.498,-0.619 0.507,-0.596C0.515,-0.573 0.519,-0.546 0.519,-0.515C0.519,-0.465 0.509,-0.428 0.489,-0.403C0.468,-0.378 0.439,-0.362 0.402,-0.353L0.402,-0.349C0.427,-0.344 0.449,-0.336 0.468,-0.325C0.487,-0.314 0.501,-0.297 0.512,-0.274C0.522,-0.251 0.527,-0.221 0.527,-0.184C0.527,-0.155 0.524,-0.128 0.517,-0.105C0.509,-0.081 0.497,-0.061 0.478,-0.044C0.459,-0.027 0.433,-0.014 0.399,-0.006C0.364,0.004 0.319,0.008 0.264,0.008Z" style="fill-rule:nonzero;"/></g></g><g transform="matrix(1,0,0,1,-15.9642,99.848)"><g transform="matrix(11,0,0,11,-3.355,0)"><path d="M0.07,-0L0.07,-0.08C0.07,-0.118 0.071,-0.15 0.073,-0.176C0.074,-0.201 0.079,-0.222 0.086,-0.239C0.093,-0.256 0.105,-0.27 0.121,-0.282C0.136,-0.294 0.158,-0.306 0.187,-0.318L0.368,-0.395C0.392,-0.406 0.41,-0.416 0.422,-0.425C0.434,-0.434 0.442,-0.446 0.447,-0.459C0.451,-0.472 0.453,-0.49 0.453,-0.512C0.453,-0.544 0.448,-0.568 0.439,-0.584C0.429,-0.599 0.412,-0.61 0.388,-0.615C0.363,-0.62 0.329,-0.622 0.284,-0.622C0.268,-0.622 0.249,-0.621 0.226,-0.62C0.203,-0.619 0.179,-0.617 0.154,-0.616C0.129,-0.614 0.106,-0.612 0.084,-0.609L0.084,-0.679C0.103,-0.682 0.126,-0.685 0.152,-0.688C0.177,-0.69 0.204,-0.692 0.232,-0.694C0.259,-0.695 0.285,-0.696 0.31,-0.696C0.342,-0.696 0.372,-0.694 0.399,-0.691C0.426,-0.688 0.451,-0.68 0.472,-0.669C0.493,-0.658 0.51,-0.64 0.522,-0.617C0.533,-0.593 0.539,-0.561 0.539,-0.521C0.539,-0.481 0.535,-0.449 0.527,-0.426C0.518,-0.402 0.505,-0.383 0.487,-0.369C0.468,-0.354 0.444,-0.341 0.414,-0.328L0.208,-0.241C0.191,-0.234 0.178,-0.225 0.171,-0.216C0.163,-0.207 0.158,-0.195 0.156,-0.18C0.154,-0.165 0.153,-0.145 0.153,-0.122L0.153,-0.075L0.539,-0.075L0.539,-0L0.07,-0Z" style="fill-rule:nonzero;"/></g></g><g transform="matrix(1,0,0,1,-15.9642,59.848)"><g transform="matrix(11,0,0,11,-2.068,0)"><path d="M0.18,-0L0.18,-0.59L0.038,-0.521L0.038,-0.598L0.205,-0.688L0.266,-0.688L0.266,-0L0.18,-0Z" style="fill-rule:nonzero;"/></g></g></g></g><g transform="matrix(0.00604182,0,0,0.0039495,11.2792,-1.22874)"><path d="M-1866.85,3985L30408.2,3985" style="fill:none;stroke:rgb(238,178,111);stroke-width:244.9px;"/></g><g transform="matrix(1,0,0,1,47.7474,4.90676)"><g transform="matrix(16,0,0,16,13.5926,10.2272)"><path d="M0.174,-0L0.296,-0.57L0.089,-0.57L0.114,-0.688L0.671,-0.688L0.646,-0.57L0.439,-0.57L0.318,-0L0.174,-0Z" style="fill-rule:nonzero;"/></g><g transform="matrix(16,0,0,16,23.1766,10.2272)"><path d="M0.034,-0L0.181,-0.688L0.324,-0.688L0.177,-0L0.034,-0Z" style="fill-rule:nonzero;"/></g><g transform="matrix(16,0,0,16,28.1526,10.2272)"><path d="M0.034,-0L0.181,-0.688L0.371,-0.688L0.459,-0.237L0.465,-0.237L0.745,-0.688L0.939,-0.688L0.792,-0L0.654,-0L0.757,-0.478L0.75,-0.478L0.458,-0L0.363,-0L0.275,-0.478L0.269,-0.478L0.168,-0L0.034,-0Z" style="fill-rule:nonzero;"/></g><g transform="matrix(16,0,0,16,42.9846,10.2272)"><path d="M0.034,-0L0.181,-0.688L0.667,-0.688L0.643,-0.576L0.3,-0.576L0.263,-0.402L0.556,-0.402L0.532,-0.292L0.24,-0.292L0.201,-0.112L0.544,-0.112L0.52,-0L0.034,-0Z" style="fill-rule:nonzero;"/></g><g transform="matrix(16,0,0,16,52.9046,10.2272)"><path d="M0.3,0.008C0.271,0.008 0.241,0.007 0.209,0.006C0.176,0.005 0.145,0.003 0.114,0.001C0.083,-0.002 0.056,-0.004 0.031,-0.007L0.054,-0.117C0.078,-0.115 0.103,-0.113 0.129,-0.111C0.155,-0.109 0.18,-0.107 0.205,-0.106C0.229,-0.105 0.25,-0.104 0.267,-0.104C0.289,-0.104 0.308,-0.105 0.324,-0.106C0.339,-0.107 0.353,-0.108 0.364,-0.111C0.375,-0.113 0.385,-0.116 0.394,-0.12C0.401,-0.124 0.407,-0.13 0.412,-0.137C0.417,-0.143 0.421,-0.151 0.425,-0.16C0.429,-0.169 0.432,-0.178 0.435,-0.188C0.437,-0.197 0.439,-0.207 0.44,-0.216C0.44,-0.225 0.441,-0.232 0.441,-0.238C0.441,-0.248 0.439,-0.256 0.434,-0.261C0.429,-0.266 0.421,-0.27 0.409,-0.273C0.397,-0.276 0.38,-0.278 0.358,-0.281L0.206,-0.303C0.166,-0.308 0.139,-0.321 0.124,-0.341C0.109,-0.36 0.102,-0.387 0.102,-0.421C0.102,-0.433 0.103,-0.447 0.105,-0.462C0.107,-0.476 0.11,-0.492 0.113,-0.508C0.122,-0.549 0.135,-0.583 0.152,-0.608C0.169,-0.632 0.189,-0.651 0.214,-0.664C0.238,-0.677 0.266,-0.685 0.299,-0.69C0.331,-0.694 0.367,-0.696 0.406,-0.696C0.435,-0.696 0.464,-0.695 0.494,-0.694C0.524,-0.693 0.552,-0.691 0.579,-0.688C0.606,-0.685 0.628,-0.682 0.645,-0.678L0.623,-0.571C0.604,-0.574 0.583,-0.576 0.56,-0.578C0.536,-0.58 0.512,-0.582 0.487,-0.583C0.462,-0.584 0.439,-0.584 0.417,-0.584C0.396,-0.584 0.379,-0.583 0.364,-0.582C0.349,-0.581 0.336,-0.579 0.325,-0.576C0.314,-0.573 0.305,-0.57 0.297,-0.566C0.289,-0.561 0.282,-0.555 0.276,-0.547C0.27,-0.539 0.265,-0.53 0.262,-0.52C0.259,-0.51 0.256,-0.5 0.255,-0.49C0.253,-0.48 0.252,-0.47 0.252,-0.46C0.252,-0.447 0.257,-0.438 0.267,-0.434C0.276,-0.429 0.293,-0.425 0.318,-0.422L0.465,-0.402C0.488,-0.399 0.51,-0.394 0.529,-0.387C0.548,-0.38 0.564,-0.369 0.575,-0.353C0.586,-0.337 0.592,-0.313 0.592,-0.28C0.592,-0.272 0.592,-0.264 0.591,-0.255C0.59,-0.245 0.589,-0.236 0.588,-0.225C0.586,-0.214 0.584,-0.203 0.581,-0.192C0.571,-0.145 0.558,-0.109 0.541,-0.082C0.524,-0.055 0.503,-0.035 0.48,-0.022C0.457,-0.009 0.43,-0.001 0.4,0.003C0.37,0.006 0.337,0.008 0.3,0.008Z" style="fill-rule:nonzero;"/></g><g transform="matrix(16,0,0,16,63.1766,10.2272)"><path d="M0.034,-0L0.181,-0.688L0.667,-0.688L0.643,-0.576L0.3,-0.576L0.263,-0.402L0.556,-0.402L0.532,-0.292L0.24,-0.292L0.201,-0.112L0.544,-0.112L0.52,-0L0.034,-0Z" style="fill-rule:nonzero;"/></g><g transform="matrix(16,0,0,16,73.0966,10.2272)"><path d="M0.449,0.115L0.38,-0.033L0.524,-0.033L0.597,0.112L0.597,0.115L0.449,0.115ZM0.324,0.008C0.254,0.008 0.199,0.004 0.16,-0.006C0.121,-0.014 0.093,-0.031 0.077,-0.054C0.06,-0.077 0.052,-0.108 0.052,-0.149C0.052,-0.174 0.055,-0.202 0.061,-0.235C0.066,-0.268 0.073,-0.305 0.082,-0.348C0.094,-0.405 0.105,-0.454 0.116,-0.495C0.126,-0.536 0.138,-0.569 0.153,-0.596C0.168,-0.622 0.187,-0.642 0.211,-0.657C0.234,-0.672 0.265,-0.682 0.302,-0.688C0.339,-0.693 0.386,-0.696 0.441,-0.696C0.511,-0.696 0.566,-0.692 0.605,-0.683C0.644,-0.674 0.671,-0.658 0.688,-0.635C0.704,-0.612 0.712,-0.579 0.712,-0.538C0.712,-0.513 0.709,-0.484 0.705,-0.452C0.7,-0.42 0.692,-0.383 0.683,-0.34C0.67,-0.282 0.658,-0.233 0.647,-0.192C0.636,-0.151 0.623,-0.118 0.608,-0.092C0.593,-0.066 0.574,-0.046 0.551,-0.031C0.528,-0.016 0.498,-0.006 0.462,-0.001C0.425,0.005 0.379,0.008 0.324,0.008ZM0.331,-0.104C0.361,-0.104 0.386,-0.105 0.405,-0.107C0.424,-0.109 0.44,-0.114 0.454,-0.121C0.467,-0.128 0.477,-0.141 0.486,-0.158C0.495,-0.175 0.503,-0.199 0.511,-0.229C0.519,-0.259 0.528,-0.297 0.538,-0.344C0.547,-0.384 0.554,-0.418 0.559,-0.446C0.563,-0.474 0.565,-0.497 0.565,-0.515C0.565,-0.537 0.561,-0.553 0.552,-0.563C0.543,-0.572 0.529,-0.578 0.51,-0.581C0.491,-0.583 0.465,-0.584 0.433,-0.584C0.403,-0.584 0.378,-0.583 0.359,-0.581C0.339,-0.579 0.323,-0.574 0.31,-0.567C0.297,-0.56 0.286,-0.547 0.277,-0.53C0.268,-0.513 0.26,-0.489 0.252,-0.459C0.244,-0.429 0.235,-0.391 0.226,-0.344C0.22,-0.317 0.215,-0.292 0.211,-0.271C0.206,-0.249 0.203,-0.23 0.201,-0.215C0.198,-0.199 0.197,-0.185 0.197,-0.172C0.197,-0.151 0.202,-0.135 0.211,-0.126C0.22,-0.116 0.234,-0.11 0.253,-0.108C0.272,-0.105 0.298,-0.104 0.331,-0.104Z" style="fill-rule:nonzero;"/></g></g><g transform="matrix(1,0,0,1,48.3514,19.4878)"><g transform="matrix(10,0,0,10,7.48359,10.2272)"><path d="M0.3,0.008C0.271,0.008 0.241,0.007 0.209,0.006C0.176,0.005 0.145,0.003 0.114,0.001C0.083,-0.002 0.056,-0.004 0.031,-0.007L0.054,-0.117C0.078,-0.115 0.103,-0.113 0.129,-0.111C0.155,-0.109 0.18,-0.107 0.205,-0.106C0.229,-0.105 0.25,-0.104 0.267,-0.104C0.289,-0.104 0.308,-0.105 0.324,-0.106C0.339,-0.107 0.353,-0.108 0.364,-0.111C0.375,-0.113 0.385,-0.116 0.394,-0.12C0.401,-0.124 0.407,-0.13 0.412,-0.137C0.417,-0.143 0.421,-0.151 0.425,-0.16C0.429,-0.169 0.432,-0.178 0.435,-0.188C0.437,-0.197 0.439,-0.207 0.44,-0.216C0.44,-0.225 0.441,-0.232 0.441,-0.238C0.441,-0.248 0.439,-0.256 0.434,-0.261C0.429,-0.266 0.421,-0.27 0.409,-0.273C0.397,-0.276 0.38,-0.278 0.358,-0.281L0.206,-0.303C0.166,-0.308 0.139,-0.321 0.124,-0.341C0.109,-0.36 0.102,-0.387 0.102,-0.421C0.102,-0.433 0.103,-0.447 0.105,-0.462C0.107,-0.476 0.11,-0.492 0.113,-0.508C0.122,-0.549 0.135,-0.583 0.152,-0.608C0.169,-0.632 0.189,-0.651 0.214,-0.664C0.238,-0.677 0.266,-0.685 0.299,-0.69C0.331,-0.694 0.367,-0.696 0.406,-0.696C0.435,-0.696 0.464,-0.695 0.494,-0.694C0.524,-0.693 0.552,-0.691 0.579,-0.688C0.606,-0.685 0.628,-0.682 0.645,-0.678L0.623,-0.571C0.604,-0.574 0.583,-0.576 0.56,-0.578C0.536,-0.58 0.512,-0.582 0.487,-0.583C0.462,-0.584 0.439,-0.584 0.417,-0.584C0.396,-0.584 0.379,-0.583 0.364,-0.582C0.349,-0.581 0.336,-0.579 0.325,-0.576C0.314,-0.573 0.305,-0.57 0.297,-0.566C0.289,-0.561 0.282,-0.555 0.276,-0.547C0.27,-0.539 0.265,-0.53 0.262,-0.52C0.259,-0.51 0.256,-0.5 0.255,-0.49C0.253,-0.48 0.252,-0.47 0.252,-0.46C0.252,-0.447 0.257,-0.438 0.267,-0.434C0.276,-0.429 0.293,-0.425 0.318,-0.422L0.465,-0.402C0.488,-0.399 0.51,-0.394 0.529,-0.387C0.548,-0.38 0.564,-0.369 0.575,-0.353C0.586,-0.337 0.592,-0.313 0.592,-0.28C0.592,-0.272 0.592,-0.264 0.591,-0.255C0.59,-0.245 0.589,-0.236 0.588,-0.225C0.586,-0.214 0.584,-0.203 0.581,-0.192C0.571,-0.145 0.558,-0.109 0.541,-0.082C0.524,-0.055 0.503,-0.035 0.48,-0.022C0.457,-0.009 0.43,-0.001 0.4,0.003C0.37,0.006 0.337,0.008 0.3,0.008Z" style="fill-rule:nonzero;"/></g><g transform="matrix(10,0,0,10,13.9036,10.2272)"><path d="M0.237,0.008C0.185,0.008 0.145,0.003 0.116,-0.008C0.087,-0.018 0.066,-0.033 0.054,-0.054C0.042,-0.075 0.036,-0.1 0.036,-0.129C0.036,-0.142 0.038,-0.161 0.041,-0.186C0.044,-0.211 0.049,-0.238 0.056,-0.268C0.064,-0.309 0.073,-0.345 0.084,-0.376C0.095,-0.407 0.109,-0.434 0.127,-0.455C0.144,-0.475 0.168,-0.491 0.198,-0.502C0.227,-0.513 0.266,-0.518 0.313,-0.518C0.343,-0.518 0.373,-0.517 0.403,-0.514C0.432,-0.511 0.459,-0.508 0.482,-0.503L0.46,-0.406C0.446,-0.409 0.428,-0.411 0.407,-0.413C0.385,-0.415 0.364,-0.416 0.345,-0.416C0.318,-0.416 0.295,-0.414 0.278,-0.41C0.261,-0.405 0.247,-0.397 0.236,-0.386C0.225,-0.374 0.217,-0.358 0.21,-0.337C0.203,-0.316 0.196,-0.288 0.189,-0.255C0.184,-0.234 0.181,-0.215 0.178,-0.2C0.175,-0.184 0.173,-0.17 0.173,-0.158C0.173,-0.141 0.177,-0.128 0.184,-0.119C0.191,-0.11 0.202,-0.103 0.217,-0.1C0.232,-0.096 0.253,-0.094 0.278,-0.094C0.295,-0.094 0.316,-0.095 0.339,-0.097C0.362,-0.099 0.382,-0.101 0.4,-0.104L0.38,-0.008C0.359,-0.003 0.336,0.001 0.311,0.004C0.286,0.007 0.261,0.008 0.237,0.008Z" style="fill-rule:nonzero;"/></g><g transform="matrix(10,0,0,10,18.6736,10.2272)"><path d="M0.024,-0L0.132,-0.51L0.256,-0.51L0.239,-0.416L0.247,-0.416C0.262,-0.444 0.279,-0.465 0.297,-0.48C0.315,-0.494 0.336,-0.504 0.359,-0.51C0.382,-0.515 0.409,-0.518 0.438,-0.518L0.412,-0.394C0.376,-0.394 0.346,-0.39 0.322,-0.383C0.298,-0.376 0.278,-0.364 0.263,-0.348C0.247,-0.332 0.234,-0.312 0.224,-0.287C0.214,-0.262 0.205,-0.231 0.198,-0.196L0.155,-0L0.024,-0Z" style="fill-rule:nonzero;"/></g><g transform="matrix(10,0,0,10,22.7136,10.2272)"><path d="M0.155,-0.628L0.179,-0.743L0.316,-0.743L0.292,-0.628L0.155,-0.628ZM0.024,-0L0.132,-0.51L0.265,-0.51L0.157,-0L0.024,-0Z" style="fill-rule:nonzero;"/></g><g transform="matrix(10,0,0,10,25.5136,10.2272)"><path d="M-0.016,0.2L0.134,-0.51L0.258,-0.51L0.247,-0.443L0.255,-0.443C0.268,-0.466 0.284,-0.482 0.301,-0.493C0.318,-0.503 0.337,-0.51 0.356,-0.513C0.375,-0.516 0.395,-0.518 0.414,-0.518C0.452,-0.518 0.483,-0.514 0.506,-0.506C0.529,-0.498 0.546,-0.484 0.557,-0.464C0.568,-0.443 0.574,-0.415 0.574,-0.379C0.574,-0.362 0.573,-0.343 0.57,-0.322C0.567,-0.301 0.563,-0.277 0.558,-0.25C0.547,-0.199 0.536,-0.157 0.523,-0.124C0.51,-0.091 0.496,-0.064 0.479,-0.045C0.462,-0.026 0.443,-0.012 0.42,-0.004C0.397,0.004 0.369,0.008 0.337,0.008C0.311,0.008 0.287,0.006 0.266,0.003C0.245,-0.001 0.226,-0.008 0.211,-0.018C0.196,-0.027 0.185,-0.041 0.178,-0.06L0.171,-0.06L0.116,0.2L-0.016,0.2ZM0.287,-0.101C0.311,-0.101 0.33,-0.102 0.345,-0.106C0.36,-0.109 0.372,-0.115 0.381,-0.126C0.39,-0.136 0.397,-0.151 0.404,-0.172C0.411,-0.193 0.418,-0.22 0.425,-0.255C0.43,-0.278 0.434,-0.297 0.437,-0.313C0.439,-0.329 0.44,-0.343 0.44,-0.354C0.44,-0.371 0.437,-0.383 0.432,-0.391C0.426,-0.399 0.416,-0.404 0.403,-0.407C0.39,-0.409 0.372,-0.41 0.35,-0.41C0.331,-0.41 0.316,-0.408 0.303,-0.405C0.29,-0.402 0.279,-0.396 0.27,-0.389C0.261,-0.382 0.253,-0.372 0.247,-0.361C0.242,-0.354 0.238,-0.344 0.234,-0.331C0.229,-0.318 0.225,-0.305 0.221,-0.29C0.217,-0.275 0.213,-0.26 0.21,-0.245C0.207,-0.23 0.204,-0.215 0.202,-0.202C0.2,-0.189 0.199,-0.177 0.199,-0.167C0.199,-0.142 0.205,-0.125 0.218,-0.116C0.231,-0.106 0.254,-0.101 0.287,-0.101Z" style="fill-rule:nonzero;"/></g><g transform="matrix(10,0,0,10,31.5636,10.2272)"><path d="M0.322,-0C0.28,-0 0.244,-0.001 0.215,-0.003C0.186,-0.004 0.162,-0.008 0.143,-0.015C0.124,-0.021 0.11,-0.031 0.101,-0.044C0.092,-0.057 0.088,-0.075 0.088,-0.098C0.088,-0.106 0.088,-0.114 0.09,-0.123C0.09,-0.132 0.092,-0.141 0.094,-0.151C0.095,-0.16 0.097,-0.171 0.099,-0.183L0.148,-0.408L0.048,-0.408L0.07,-0.51L0.169,-0.51L0.2,-0.658L0.334,-0.658L0.303,-0.51L0.422,-0.51L0.4,-0.408L0.282,-0.408L0.236,-0.192C0.235,-0.189 0.234,-0.183 0.233,-0.175C0.231,-0.166 0.229,-0.158 0.228,-0.15C0.227,-0.141 0.226,-0.135 0.226,-0.132C0.226,-0.122 0.23,-0.114 0.237,-0.108C0.244,-0.102 0.255,-0.098 0.272,-0.097C0.289,-0.095 0.312,-0.094 0.341,-0.094L0.322,-0Z" style="fill-rule:nonzero;"/></g><g transform="matrix(10,0,0,10,35.6236,10.2272)"><path d="M0.252,0.008C0.198,0.008 0.156,0.004 0.125,-0.005C0.093,-0.013 0.072,-0.026 0.059,-0.045C0.046,-0.064 0.04,-0.088 0.04,-0.117C0.04,-0.135 0.042,-0.156 0.045,-0.179C0.048,-0.202 0.053,-0.227 0.059,-0.254C0.069,-0.299 0.08,-0.339 0.092,-0.372C0.103,-0.405 0.119,-0.433 0.138,-0.455C0.157,-0.476 0.184,-0.492 0.217,-0.503C0.25,-0.513 0.293,-0.518 0.346,-0.518C0.395,-0.518 0.432,-0.514 0.459,-0.506C0.486,-0.497 0.505,-0.484 0.516,-0.467C0.527,-0.45 0.532,-0.428 0.532,-0.401C0.532,-0.388 0.531,-0.374 0.53,-0.359C0.528,-0.343 0.525,-0.326 0.522,-0.309C0.518,-0.292 0.514,-0.273 0.51,-0.254L0.501,-0.215L0.183,-0.215C0.18,-0.202 0.178,-0.19 0.176,-0.179C0.174,-0.167 0.173,-0.158 0.173,-0.15C0.173,-0.135 0.177,-0.124 0.184,-0.117C0.191,-0.109 0.204,-0.104 0.223,-0.102C0.242,-0.099 0.268,-0.098 0.302,-0.098C0.317,-0.098 0.333,-0.098 0.351,-0.099C0.369,-0.1 0.388,-0.101 0.407,-0.102C0.426,-0.103 0.443,-0.105 0.46,-0.106L0.439,-0.008C0.424,-0.005 0.405,-0.002 0.384,0.001C0.363,0.003 0.341,0.005 0.318,0.006C0.295,0.007 0.273,0.008 0.252,0.008ZM0.201,-0.297L0.393,-0.297L0.395,-0.307C0.398,-0.32 0.4,-0.331 0.401,-0.34C0.402,-0.349 0.403,-0.358 0.403,-0.365C0.403,-0.379 0.4,-0.39 0.395,-0.397C0.39,-0.404 0.381,-0.408 0.37,-0.411C0.359,-0.413 0.344,-0.414 0.325,-0.414C0.303,-0.414 0.285,-0.413 0.271,-0.41C0.257,-0.407 0.246,-0.401 0.238,-0.393C0.229,-0.384 0.222,-0.372 0.217,-0.357C0.211,-0.341 0.206,-0.321 0.201,-0.297Z" style="fill-rule:nonzero;"/></g><g transform="matrix(10,0,0,10,41.3736,10.2272)"><path d="M0.196,0.008C0.159,0.008 0.128,0.004 0.105,-0.004C0.081,-0.012 0.064,-0.026 0.053,-0.047C0.042,-0.067 0.037,-0.095 0.037,-0.131C0.037,-0.148 0.038,-0.167 0.041,-0.188C0.044,-0.209 0.048,-0.233 0.053,-0.26C0.064,-0.311 0.075,-0.353 0.088,-0.386C0.101,-0.419 0.115,-0.446 0.132,-0.465C0.148,-0.484 0.168,-0.498 0.191,-0.506C0.214,-0.514 0.242,-0.518 0.273,-0.518C0.3,-0.518 0.324,-0.516 0.345,-0.513C0.366,-0.509 0.385,-0.502 0.4,-0.493C0.415,-0.483 0.425,-0.469 0.432,-0.45L0.44,-0.45L0.501,-0.743L0.634,-0.743L0.476,-0L0.351,-0L0.362,-0.067L0.355,-0.067C0.342,-0.045 0.327,-0.029 0.31,-0.018C0.292,-0.007 0.273,-0 0.254,0.003C0.235,0.006 0.215,0.008 0.196,0.008ZM0.26,-0.1C0.279,-0.1 0.295,-0.102 0.308,-0.106C0.321,-0.109 0.333,-0.115 0.342,-0.122C0.35,-0.129 0.358,-0.138 0.363,-0.149C0.368,-0.156 0.372,-0.166 0.377,-0.179C0.381,-0.192 0.385,-0.205 0.389,-0.22C0.393,-0.235 0.397,-0.249 0.401,-0.265C0.404,-0.28 0.407,-0.294 0.409,-0.308C0.41,-0.321 0.411,-0.333 0.411,-0.343C0.411,-0.368 0.405,-0.385 0.392,-0.395C0.379,-0.404 0.357,-0.409 0.324,-0.409C0.3,-0.409 0.281,-0.408 0.266,-0.405C0.251,-0.402 0.239,-0.395 0.23,-0.385C0.221,-0.374 0.213,-0.359 0.207,-0.338C0.2,-0.317 0.193,-0.29 0.185,-0.255C0.18,-0.233 0.177,-0.214 0.175,-0.198C0.172,-0.181 0.171,-0.167 0.171,-0.156C0.171,-0.14 0.174,-0.128 0.18,-0.12C0.185,-0.112 0.195,-0.107 0.208,-0.104C0.221,-0.101 0.239,-0.1 0.26,-0.1Z" style="fill-rule:nonzero;"/></g><g transform="matrix(10,0,0,10,49.9736,10.2272)"><path d="M0.174,-0L0.296,-0.57L0.089,-0.57L0.114,-0.688L0.671,-0.688L0.646,-0.57L0.439,-0.57L0.318,-0L0.174,-0Z" style="fill-rule:nonzero;"/></g><g transform="matrix(10,0,0,10,55.9636,10.2272)"><path d="M0.155,-0.628L0.179,-0.743L0.316,-0.743L0.292,-0.628L0.155,-0.628ZM0.024,-0L0.132,-0.51L0.265,-0.51L0.157,-0L0.024,-0Z" style="fill-rule:nonzero;"/></g><g transform="matrix(10,0,0,10,58.7636,10.2272)"><path d="M0.024,-0L0.132,-0.51L0.256,-0.51L0.245,-0.443L0.254,-0.443C0.265,-0.46 0.278,-0.474 0.293,-0.485C0.308,-0.496 0.325,-0.504 0.344,-0.51C0.363,-0.515 0.384,-0.518 0.407,-0.518C0.453,-0.518 0.486,-0.512 0.506,-0.5C0.526,-0.488 0.539,-0.469 0.546,-0.443L0.554,-0.443C0.565,-0.46 0.579,-0.474 0.595,-0.485C0.611,-0.496 0.629,-0.504 0.65,-0.51C0.67,-0.515 0.692,-0.518 0.717,-0.518C0.771,-0.518 0.807,-0.509 0.826,-0.49C0.845,-0.47 0.854,-0.441 0.854,-0.402C0.854,-0.389 0.853,-0.374 0.85,-0.355C0.847,-0.336 0.844,-0.317 0.84,-0.297L0.776,-0L0.644,-0L0.703,-0.275C0.707,-0.294 0.71,-0.311 0.713,-0.326C0.716,-0.341 0.717,-0.352 0.717,-0.361C0.717,-0.382 0.712,-0.396 0.701,-0.401C0.69,-0.406 0.673,-0.408 0.648,-0.408C0.625,-0.408 0.607,-0.405 0.593,-0.4C0.579,-0.394 0.568,-0.385 0.559,-0.374C0.55,-0.362 0.543,-0.347 0.538,-0.329C0.532,-0.31 0.527,-0.288 0.522,-0.261L0.465,-0L0.334,-0L0.392,-0.275C0.396,-0.294 0.399,-0.311 0.402,-0.326C0.405,-0.341 0.406,-0.352 0.406,-0.361C0.406,-0.382 0.401,-0.396 0.391,-0.401C0.38,-0.406 0.363,-0.408 0.338,-0.408C0.315,-0.408 0.297,-0.405 0.283,-0.4C0.269,-0.394 0.258,-0.385 0.249,-0.373C0.24,-0.361 0.233,-0.346 0.228,-0.327C0.223,-0.308 0.217,-0.286 0.212,-0.261L0.155,-0L0.024,-0Z" style="fill-rule:nonzero;"/></g><g transform="matrix(10,0,0,10,67.7736,10.2272)"><path d="M0.252,0.008C0.198,0.008 0.156,0.004 0.125,-0.005C0.093,-0.013 0.072,-0.026 0.059,-0.045C0.046,-0.064 0.04,-0.088 0.04,-0.117C0.04,-0.135 0.042,-0.156 0.045,-0.179C0.048,-0.202 0.053,-0.227 0.059,-0.254C0.069,-0.299 0.08,-0.339 0.092,-0.372C0.103,-0.405 0.119,-0.433 0.138,-0.455C0.157,-0.476 0.184,-0.492 0.217,-0.503C0.25,-0.513 0.293,-0.518 0.346,-0.518C0.395,-0.518 0.432,-0.514 0.459,-0.506C0.486,-0.497 0.505,-0.484 0.516,-0.467C0.527,-0.45 0.532,-0.428 0.532,-0.401C0.532,-0.388 0.531,-0.374 0.53,-0.359C0.528,-0.343 0.525,-0.326 0.522,-0.309C0.518,-0.292 0.514,-0.273 0.51,-0.254L0.501,-0.215L0.183,-0.215C0.18,-0.202 0.178,-0.19 0.176,-0.179C0.174,-0.167 0.173,-0.158 0.173,-0.15C0.173,-0.135 0.177,-0.124 0.184,-0.117C0.191,-0.109 0.204,-0.104 0.223,-0.102C0.242,-0.099 0.268,-0.098 0.302,-0.098C0.317,-0.098 0.333,-0.098 0.351,-0.099C0.369,-0.1 0.388,-0.101 0.407,-0.102C0.426,-0.103 0.443,-0.105 0.46,-0.106L0.439,-0.008C0.424,-0.005 0.405,-0.002 0.384,0.001C0.363,0.003 0.341,0.005 0.318,0.006C0.295,0.007 0.273,0.008 0.252,0.008ZM0.201,-0.297L0.393,-0.297L0.395,-0.307C0.398,-0.32 0.4,-0.331 0.401,-0.34C0.402,-0.349 0.403,-0.358 0.403,-0.365C0.403,-0.379 0.4,-0.39 0.395,-0.397C0.39,-0.404 0.381,-0.408 0.37,-0.411C0.359,-0.413 0.344,-0.414 0.325,-0.414C0.303,-0.414 0.285,-0.413 0.271,-0.41C0.257,-0.407 0.246,-0.401 0.238,-0.393C0.229,-0.384 0.222,-0.372 0.217,-0.357C0.211,-0.341 0.206,-0.321 0.201,-0.297Z" style="fill-rule:nonzero;"/></g><g transform="matrix(10,0,0,10,73.5236,10.2272)"><path d="M0.024,-0L0.181,-0.743L0.314,-0.743L0.157,-0L0.024,-0Z" style="fill-rule:nonzero;"/></g><g transform="matrix(10,0,0,10,76.2736,10.2272)"><path d="M0.155,-0.628L0.179,-0.743L0.316,-0.743L0.292,-0.628L0.155,-0.628ZM0.024,-0L0.132,-0.51L0.265,-0.51L0.157,-0L0.024,-0Z" style="fill-rule:nonzero;"/></g><g transform="matrix(10,0,0,10,79.0736,10.2272)"><path d="M0.024,-0L0.132,-0.51L0.256,-0.51L0.245,-0.443L0.254,-0.443C0.265,-0.46 0.278,-0.474 0.294,-0.485C0.309,-0.496 0.327,-0.504 0.348,-0.51C0.369,-0.515 0.392,-0.518 0.417,-0.518C0.456,-0.518 0.486,-0.514 0.508,-0.505C0.529,-0.496 0.544,-0.483 0.553,-0.466C0.561,-0.448 0.565,-0.425 0.565,-0.398C0.565,-0.386 0.564,-0.371 0.562,-0.354C0.559,-0.336 0.556,-0.317 0.552,-0.298L0.488,-0L0.356,-0L0.415,-0.275C0.418,-0.292 0.421,-0.308 0.424,-0.323C0.427,-0.338 0.428,-0.349 0.428,-0.358C0.428,-0.373 0.425,-0.384 0.42,-0.391C0.414,-0.398 0.405,-0.402 0.394,-0.405C0.383,-0.407 0.367,-0.408 0.348,-0.408C0.323,-0.408 0.303,-0.405 0.288,-0.4C0.272,-0.394 0.26,-0.385 0.251,-0.373C0.242,-0.361 0.234,-0.346 0.229,-0.327C0.223,-0.308 0.217,-0.286 0.212,-0.261L0.155,-0L0.024,-0Z" style="fill-rule:nonzero;"/></g><g transform="matrix(10,0,0,10,85.1836,10.2272)"><path d="M0.252,0.008C0.198,0.008 0.156,0.004 0.125,-0.005C0.093,-0.013 0.072,-0.026 0.059,-0.045C0.046,-0.064 0.04,-0.088 0.04,-0.117C0.04,-0.135 0.042,-0.156 0.045,-0.179C0.048,-0.202 0.053,-0.227 0.059,-0.254C0.069,-0.299 0.08,-0.339 0.092,-0.372C0.103,-0.405 0.119,-0.433 0.138,-0.455C0.157,-0.476 0.184,-0.492 0.217,-0.503C0.25,-0.513 0.293,-0.518 0.346,-0.518C0.395,-0.518 0.432,-0.514 0.459,-0.506C0.486,-0.497 0.505,-0.484 0.516,-0.467C0.527,-0.45 0.532,-0.428 0.532,-0.401C0.532,-0.388 0.531,-0.374 0.53,-0.359C0.528,-0.343 0.525,-0.326 0.522,-0.309C0.518,-0.292 0.514,-0.273 0.51,-0.254L0.501,-0.215L0.183,-0.215C0.18,-0.202 0.178,-0.19 0.176,-0.179C0.174,-0.167 0.173,-0.158 0.173,-0.15C0.173,-0.135 0.177,-0.124 0.184,-0.117C0.191,-0.109 0.204,-0.104 0.223,-0.102C0.242,-0.099 0.268,-0.098 0.302,-0.098C0.317,-0.098 0.333,-0.098 0.351,-0.099C0.369,-0.1 0.388,-0.101 0.407,-0.102C0.426,-0.103 0.443,-0.105 0.46,-0.106L0.439,-0.008C0.424,-0.005 0.405,-0.002 0.384,0.001C0.363,0.003 0.341,0.005 0.318,0.006C0.295,0.007 0.273,0.008 0.252,0.008ZM0.201,-0.297L0.393,-0.297L0.395,-0.307C0.398,-0.32 0.4,-0.331 0.401,-0.34C0.402,-0.349 0.403,-0.358 0.403,-0.365C0.403,-0.379 0.4,-0.39 0.395,-0.397C0.39,-0.404 0.381,-0.408 0.37,-0.411C0.359,-0.413 0.344,-0.414 0.325,-0.414C0.303,-0.414 0.285,-0.413 0.271,-0.41C0.257,-0.407 0.246,-0.401 0.238,-0.393C0.229,-0.384 0.222,-0.372 0.217,-0.357C0.211,-0.341 0.206,-0.321 0.201,-0.297Z" style="fill-rule:nonzero;"/></g><g transform="matrix(10,0,0,10,25.6486,19.2272)"><path d="M0.034,-0L0.181,-0.688L0.493,-0.688C0.542,-0.688 0.581,-0.683 0.608,-0.672C0.635,-0.661 0.655,-0.644 0.666,-0.623C0.677,-0.602 0.682,-0.576 0.682,-0.546C0.682,-0.533 0.681,-0.518 0.679,-0.503C0.676,-0.488 0.673,-0.472 0.67,-0.455C0.663,-0.424 0.655,-0.395 0.646,-0.368C0.636,-0.341 0.623,-0.317 0.606,-0.298C0.588,-0.278 0.565,-0.263 0.536,-0.252C0.506,-0.241 0.468,-0.236 0.422,-0.236L0.228,-0.236L0.177,-0L0.034,-0ZM0.251,-0.347L0.385,-0.347C0.412,-0.347 0.434,-0.349 0.451,-0.353C0.468,-0.357 0.481,-0.363 0.491,-0.372C0.5,-0.381 0.508,-0.393 0.513,-0.408C0.518,-0.423 0.523,-0.441 0.527,-0.462C0.53,-0.475 0.532,-0.486 0.534,-0.496C0.535,-0.506 0.536,-0.515 0.536,-0.523C0.536,-0.536 0.533,-0.547 0.527,-0.555C0.521,-0.563 0.511,-0.569 0.496,-0.573C0.481,-0.576 0.461,-0.578 0.435,-0.578L0.3,-0.578L0.251,-0.347Z" style="fill-rule:nonzero;"/></g><g transform="matrix(10,0,0,10,32.2686,19.2272)"><path d="M0.024,-0L0.132,-0.51L0.256,-0.51L0.239,-0.416L0.247,-0.416C0.262,-0.444 0.279,-0.465 0.297,-0.48C0.315,-0.494 0.336,-0.504 0.359,-0.51C0.382,-0.515 0.409,-0.518 0.438,-0.518L0.412,-0.394C0.376,-0.394 0.346,-0.39 0.322,-0.383C0.298,-0.376 0.278,-0.364 0.263,-0.348C0.247,-0.332 0.234,-0.312 0.224,-0.287C0.214,-0.262 0.205,-0.231 0.198,-0.196L0.155,-0L0.024,-0Z" style="fill-rule:nonzero;"/></g><g transform="matrix(10,0,0,10,36.3086,19.2272)"><path d="M0.249,0.008C0.191,0.008 0.146,0.004 0.114,-0.003C0.081,-0.01 0.058,-0.023 0.045,-0.042C0.032,-0.06 0.025,-0.084 0.025,-0.115C0.025,-0.133 0.027,-0.153 0.031,-0.176C0.035,-0.199 0.04,-0.225 0.046,-0.255C0.055,-0.298 0.063,-0.334 0.071,-0.364C0.078,-0.394 0.088,-0.419 0.1,-0.439C0.111,-0.459 0.126,-0.475 0.145,-0.487C0.164,-0.498 0.188,-0.506 0.217,-0.511C0.246,-0.516 0.282,-0.518 0.325,-0.518C0.383,-0.518 0.428,-0.514 0.461,-0.507C0.493,-0.5 0.516,-0.487 0.529,-0.469C0.542,-0.45 0.548,-0.425 0.548,-0.394C0.548,-0.376 0.547,-0.356 0.544,-0.333C0.541,-0.31 0.536,-0.284 0.529,-0.255C0.52,-0.212 0.511,-0.176 0.503,-0.146C0.494,-0.116 0.485,-0.091 0.474,-0.071C0.463,-0.051 0.448,-0.035 0.43,-0.024C0.411,-0.012 0.388,-0.004 0.359,0.001C0.329,0.006 0.293,0.008 0.249,0.008ZM0.254,-0.094C0.276,-0.094 0.294,-0.095 0.308,-0.098C0.322,-0.1 0.334,-0.104 0.343,-0.11C0.352,-0.116 0.359,-0.125 0.365,-0.137C0.371,-0.148 0.377,-0.164 0.382,-0.184C0.387,-0.203 0.392,-0.227 0.398,-0.255C0.403,-0.28 0.407,-0.302 0.41,-0.32C0.413,-0.338 0.414,-0.353 0.414,-0.365C0.414,-0.379 0.411,-0.39 0.406,-0.397C0.4,-0.404 0.39,-0.409 0.377,-0.412C0.364,-0.415 0.345,-0.416 0.321,-0.416C0.294,-0.416 0.272,-0.414 0.256,-0.411C0.24,-0.408 0.228,-0.4 0.22,-0.389C0.211,-0.378 0.204,-0.362 0.199,-0.341C0.193,-0.32 0.186,-0.291 0.178,-0.255C0.173,-0.229 0.168,-0.207 0.165,-0.189C0.162,-0.171 0.16,-0.156 0.16,-0.144C0.16,-0.13 0.163,-0.119 0.169,-0.112C0.174,-0.105 0.184,-0.1 0.198,-0.098C0.211,-0.095 0.23,-0.094 0.254,-0.094Z" style="fill-rule:nonzero;"/></g><g transform="matrix(10,0,0,10,42.0486,19.2272)"><path d="M0.237,0.008C0.185,0.008 0.145,0.003 0.116,-0.008C0.087,-0.018 0.066,-0.033 0.054,-0.054C0.042,-0.075 0.036,-0.1 0.036,-0.129C0.036,-0.142 0.038,-0.161 0.041,-0.186C0.044,-0.211 0.049,-0.238 0.056,-0.268C0.064,-0.309 0.073,-0.345 0.084,-0.376C0.095,-0.407 0.109,-0.434 0.127,-0.455C0.144,-0.475 0.168,-0.491 0.198,-0.502C0.227,-0.513 0.266,-0.518 0.313,-0.518C0.343,-0.518 0.373,-0.517 0.403,-0.514C0.432,-0.511 0.459,-0.508 0.482,-0.503L0.46,-0.406C0.446,-0.409 0.428,-0.411 0.407,-0.413C0.385,-0.415 0.364,-0.416 0.345,-0.416C0.318,-0.416 0.295,-0.414 0.278,-0.41C0.261,-0.405 0.247,-0.397 0.236,-0.386C0.225,-0.374 0.217,-0.358 0.21,-0.337C0.203,-0.316 0.196,-0.288 0.189,-0.255C0.184,-0.234 0.181,-0.215 0.178,-0.2C0.175,-0.184 0.173,-0.17 0.173,-0.158C0.173,-0.141 0.177,-0.128 0.184,-0.119C0.191,-0.11 0.202,-0.103 0.217,-0.1C0.232,-0.096 0.253,-0.094 0.278,-0.094C0.295,-0.094 0.316,-0.095 0.339,-0.097C0.362,-0.099 0.382,-0.101 0.4,-0.104L0.38,-0.008C0.359,-0.003 0.336,0.001 0.311,0.004C0.286,0.007 0.261,0.008 0.237,0.008Z" style="fill-rule:nonzero;"/></g><g transform="matrix(10,0,0,10,46.8186,19.2272)"><path d="M0.252,0.008C0.198,0.008 0.156,0.004 0.125,-0.005C0.093,-0.013 0.072,-0.026 0.059,-0.045C0.046,-0.064 0.04,-0.088 0.04,-0.117C0.04,-0.135 0.042,-0.156 0.045,-0.179C0.048,-0.202 0.053,-0.227 0.059,-0.254C0.069,-0.299 0.08,-0.339 0.092,-0.372C0.103,-0.405 0.119,-0.433 0.138,-0.455C0.157,-0.476 0.184,-0.492 0.217,-0.503C0.25,-0.513 0.293,-0.518 0.346,-0.518C0.395,-0.518 0.432,-0.514 0.459,-0.506C0.486,-0.497 0.505,-0.484 0.516,-0.467C0.527,-0.45 0.532,-0.428 0.532,-0.401C0.532,-0.388 0.531,-0.374 0.53,-0.359C0.528,-0.343 0.525,-0.326 0.522,-0.309C0.518,-0.292 0.514,-0.273 0.51,-0.254L0.501,-0.215L0.183,-0.215C0.18,-0.202 0.178,-0.19 0.176,-0.179C0.174,-0.167 0.173,-0.158 0.173,-0.15C0.173,-0.135 0.177,-0.124 0.184,-0.117C0.191,-0.109 0.204,-0.104 0.223,-0.102C0.242,-0.099 0.268,-0.098 0.302,-0.098C0.317,-0.098 0.333,-0.098 0.351,-0.099C0.369,-0.1 0.388,-0.101 0.407,-0.102C0.426,-0.103 0.443,-0.105 0.46,-0.106L0.439,-0.008C0.424,-0.005 0.405,-0.002 0.384,0.001C0.363,0.003 0.341,0.005 0.318,0.006C0.295,0.007 0.273,0.008 0.252,0.008ZM0.201,-0.297L0.393,-0.297L0.395,-0.307C0.398,-0.32 0.4,-0.331 0.401,-0.34C0.402,-0.349 0.403,-0.358 0.403,-0.365C0.403,-0.379 0.4,-0.39 0.395,-0.397C0.39,-0.404 0.381,-0.408 0.37,-0.411C0.359,-0.413 0.344,-0.414 0.325,-0.414C0.303,-0.414 0.285,-0.413 0.271,-0.41C0.257,-0.407 0.246,-0.401 0.238,-0.393C0.229,-0.384 0.222,-0.372 0.217,-0.357C0.211,-0.341 0.206,-0.321 0.201,-0.297Z" style="fill-rule:nonzero;"/></g><g transform="matrix(10,0,0,10,52.5686,19.2272)"><path d="M0.226,0.008C0.204,0.008 0.18,0.007 0.154,0.006C0.128,0.005 0.103,0.003 0.079,0.001C0.055,-0.001 0.034,-0.003 0.015,-0.005L0.035,-0.101C0.05,-0.1 0.064,-0.098 0.079,-0.097C0.094,-0.096 0.108,-0.095 0.122,-0.094C0.136,-0.093 0.15,-0.093 0.163,-0.093C0.176,-0.092 0.19,-0.092 0.203,-0.092C0.232,-0.092 0.254,-0.093 0.27,-0.097C0.286,-0.099 0.298,-0.105 0.306,-0.112C0.313,-0.119 0.319,-0.129 0.323,-0.142C0.326,-0.147 0.328,-0.153 0.33,-0.158C0.331,-0.163 0.332,-0.168 0.332,-0.173C0.332,-0.183 0.328,-0.19 0.32,-0.193C0.312,-0.196 0.298,-0.198 0.279,-0.2L0.149,-0.217C0.118,-0.222 0.097,-0.231 0.085,-0.246C0.072,-0.26 0.066,-0.279 0.066,-0.304C0.066,-0.311 0.067,-0.32 0.069,-0.333C0.07,-0.345 0.072,-0.358 0.075,-0.371C0.082,-0.404 0.093,-0.431 0.106,-0.451C0.119,-0.471 0.136,-0.486 0.155,-0.495C0.174,-0.504 0.197,-0.51 0.223,-0.514C0.249,-0.517 0.279,-0.518 0.312,-0.518C0.333,-0.518 0.356,-0.517 0.379,-0.516C0.402,-0.515 0.424,-0.513 0.445,-0.511C0.466,-0.509 0.483,-0.507 0.497,-0.504L0.478,-0.408C0.46,-0.411 0.442,-0.413 0.424,-0.414C0.406,-0.415 0.389,-0.416 0.372,-0.417C0.355,-0.418 0.339,-0.418 0.324,-0.418C0.303,-0.418 0.285,-0.418 0.269,-0.417C0.253,-0.416 0.24,-0.413 0.229,-0.408C0.218,-0.403 0.21,-0.394 0.205,-0.382C0.202,-0.377 0.199,-0.372 0.197,-0.365C0.195,-0.358 0.194,-0.351 0.194,-0.342C0.194,-0.332 0.198,-0.326 0.205,-0.323C0.212,-0.32 0.225,-0.317 0.244,-0.315L0.371,-0.297C0.39,-0.295 0.406,-0.291 0.419,-0.286C0.432,-0.28 0.443,-0.271 0.45,-0.26C0.456,-0.249 0.46,-0.232 0.46,-0.211C0.46,-0.204 0.459,-0.195 0.458,-0.184C0.457,-0.173 0.454,-0.16 0.451,-0.147C0.444,-0.112 0.434,-0.084 0.422,-0.063C0.409,-0.042 0.394,-0.027 0.376,-0.017C0.357,-0.007 0.336,-0 0.311,0.003C0.286,0.006 0.258,0.008 0.226,0.008Z" style="fill-rule:nonzero;"/></g><g transform="matrix(10,0,0,10,57.7786,19.2272)"><path d="M0.226,0.008C0.204,0.008 0.18,0.007 0.154,0.006C0.128,0.005 0.103,0.003 0.079,0.001C0.055,-0.001 0.034,-0.003 0.015,-0.005L0.035,-0.101C0.05,-0.1 0.064,-0.098 0.079,-0.097C0.094,-0.096 0.108,-0.095 0.122,-0.094C0.136,-0.093 0.15,-0.093 0.163,-0.093C0.176,-0.092 0.19,-0.092 0.203,-0.092C0.232,-0.092 0.254,-0.093 0.27,-0.097C0.286,-0.099 0.298,-0.105 0.306,-0.112C0.313,-0.119 0.319,-0.129 0.323,-0.142C0.326,-0.147 0.328,-0.153 0.33,-0.158C0.331,-0.163 0.332,-0.168 0.332,-0.173C0.332,-0.183 0.328,-0.19 0.32,-0.193C0.312,-0.196 0.298,-0.198 0.279,-0.2L0.149,-0.217C0.118,-0.222 0.097,-0.231 0.085,-0.246C0.072,-0.26 0.066,-0.279 0.066,-0.304C0.066,-0.311 0.067,-0.32 0.069,-0.333C0.07,-0.345 0.072,-0.358 0.075,-0.371C0.082,-0.404 0.093,-0.431 0.106,-0.451C0.119,-0.471 0.136,-0.486 0.155,-0.495C0.174,-0.504 0.197,-0.51 0.223,-0.514C0.249,-0.517 0.279,-0.518 0.312,-0.518C0.333,-0.518 0.356,-0.517 0.379,-0.516C0.402,-0.515 0.424,-0.513 0.445,-0.511C0.466,-0.509 0.483,-0.507 0.497,-0.504L0.478,-0.408C0.46,-0.411 0.442,-0.413 0.424,-0.414C0.406,-0.415 0.389,-0.416 0.372,-0.417C0.355,-0.418 0.339,-0.418 0.324,-0.418C0.303,-0.418 0.285,-0.418 0.269,-0.417C0.253,-0.416 0.24,-0.413 0.229,-0.408C0.218,-0.403 0.21,-0.394 0.205,-0.382C0.202,-0.377 0.199,-0.372 0.197,-0.365C0.195,-0.358 0.194,-0.351 0.194,-0.342C0.194,-0.332 0.198,-0.326 0.205,-0.323C0.212,-0.32 0.225,-0.317 0.244,-0.315L0.371,-0.297C0.39,-0.295 0.406,-0.291 0.419,-0.286C0.432,-0.28 0.443,-0.271 0.45,-0.26C0.456,-0.249 0.46,-0.232 0.46,-0.211C0.46,-0.204 0.459,-0.195 0.458,-0.184C0.457,-0.173 0.454,-0.16 0.451,-0.147C0.444,-0.112 0.434,-0.084 0.422,-0.063C0.409,-0.042 0.394,-0.027 0.376,-0.017C0.357,-0.007 0.336,-0 0.311,0.003C0.286,0.006 0.258,0.008 0.226,0.008Z" style="fill-rule:nonzero;"/></g><g transform="matrix(10,0,0,10,62.9886,19.2272)"><path d="M0.249,0.008C0.191,0.008 0.146,0.004 0.114,-0.003C0.081,-0.01 0.058,-0.023 0.045,-0.042C0.032,-0.06 0.025,-0.084 0.025,-0.115C0.025,-0.133 0.027,-0.153 0.031,-0.176C0.035,-0.199 0.04,-0.225 0.046,-0.255C0.055,-0.298 0.063,-0.334 0.071,-0.364C0.078,-0.394 0.088,-0.419 0.1,-0.439C0.111,-0.459 0.126,-0.475 0.145,-0.487C0.164,-0.498 0.188,-0.506 0.217,-0.511C0.246,-0.516 0.282,-0.518 0.325,-0.518C0.383,-0.518 0.428,-0.514 0.461,-0.507C0.493,-0.5 0.516,-0.487 0.529,-0.469C0.542,-0.45 0.548,-0.425 0.548,-0.394C0.548,-0.376 0.547,-0.356 0.544,-0.333C0.541,-0.31 0.536,-0.284 0.529,-0.255C0.52,-0.212 0.511,-0.176 0.503,-0.146C0.494,-0.116 0.485,-0.091 0.474,-0.071C0.463,-0.051 0.448,-0.035 0.43,-0.024C0.411,-0.012 0.388,-0.004 0.359,0.001C0.329,0.006 0.293,0.008 0.249,0.008ZM0.254,-0.094C0.276,-0.094 0.294,-0.095 0.308,-0.098C0.322,-0.1 0.334,-0.104 0.343,-0.11C0.352,-0.116 0.359,-0.125 0.365,-0.137C0.371,-0.148 0.377,-0.164 0.382,-0.184C0.387,-0.203 0.392,-0.227 0.398,-0.255C0.403,-0.28 0.407,-0.302 0.41,-0.32C0.413,-0.338 0.414,-0.353 0.414,-0.365C0.414,-0.379 0.411,-0.39 0.406,-0.397C0.4,-0.404 0.39,-0.409 0.377,-0.412C0.364,-0.415 0.345,-0.416 0.321,-0.416C0.294,-0.416 0.272,-0.414 0.256,-0.411C0.24,-0.408 0.228,-0.4 0.22,-0.389C0.211,-0.378 0.204,-0.362 0.199,-0.341C0.193,-0.32 0.186,-0.291 0.178,-0.255C0.173,-0.229 0.168,-0.207 0.165,-0.189C0.162,-0.171 0.16,-0.156 0.16,-0.144C0.16,-0.13 0.163,-0.119 0.169,-0.112C0.174,-0.105 0.184,-0.1 0.198,-0.098C0.211,-0.095 0.23,-0.094 0.254,-0.094Z" style="fill-rule:nonzero;"/></g><g transform="matrix(10,0,0,10,68.7286,19.2272)"><path d="M0.024,-0L0.132,-0.51L0.256,-0.51L0.239,-0.416L0.247,-0.416C0.262,-0.444 0.279,-0.465 0.297,-0.48C0.315,-0.494 0.336,-0.504 0.359,-0.51C0.382,-0.515 0.409,-0.518 0.438,-0.518L0.412,-0.394C0.376,-0.394 0.346,-0.39 0.322,-0.383C0.298,-0.376 0.278,-0.364 0.263,-0.348C0.247,-0.332 0.234,-0.312 0.224,-0.287C0.214,-0.262 0.205,-0.231 0.198,-0.196L0.155,-0L0.024,-0Z" style="fill-rule:nonzero;"/></g></g></svg>